%
M48
M72
T01C0.0138
T02C0.0236
T03C0.0276
T04C0.0335
%
T01
X4419Y3625
X6494Y4256
X5669Y4625
X4869Y5275
X4335Y5775
X3269Y5761
X3219Y6375
X4148Y6525
X2750Y6875
X6819Y5725
X8869Y5425
X10469Y5225
X10999Y4815
X12370Y4774
X13269Y4575
X13769Y4475
X13769Y4925
X14569Y5125
X15869Y5875
X14769Y5925
X15119Y6285
X16069Y6775
X16369Y6475
X17069Y6025
X18754Y6075
X19510Y6075
X19988Y6075
X18754Y6567
X18770Y6925
X19148Y8437
X15069Y8975
X13919Y7846
X12038Y7590
X11805Y6989
X11769Y6475
X14735Y6892
X17119Y5225
X18869Y4675
X18869Y4175
X20219Y4925
X15880Y4214
X12869Y3325
X10526Y3437
X3269Y4925
X7480Y6693
X2769Y8775
X25369Y7375
X25447Y6862
X25447Y6469
X25719Y5925
X25319Y5475
X25369Y4825
X25369Y4275
T02
X18686Y8969
X17249Y8969
X11247Y8831
X8491Y8831
X5731Y6388
X4707Y6388
T03
X14288Y8175
X14878Y8175
X15469Y8175
X16060Y8175
X16650Y8175
T04
X10853Y7768
X8885Y7768
M30
