G75*
%MOIN*%
%OFA0B0*%
%FSLAX25Y25*%
%IPPOS*%
%LPD*%
%AMOC8*
5,1,8,0,0,1.08239X$1,22.5*
%
%ADD10C,0.04756*%
%ADD11C,0.07000*%
%ADD12C,0.05709*%
%ADD13C,0.04362*%
%ADD14C,0.02978*%
%ADD15C,0.00600*%
%ADD16C,0.01000*%
D10*
X0142879Y0081753D03*
X0148784Y0081753D03*
X0154690Y0081753D03*
X0160595Y0081753D03*
X0166501Y0081753D03*
D11*
X0057308Y0063879D03*
X0047072Y0063879D03*
D12*
X0088847Y0077678D03*
X0108532Y0077678D03*
D13*
X0112469Y0086127D02*
X0112469Y0090489D01*
X0084910Y0090489D02*
X0084910Y0086127D01*
D14*
X0120385Y0075904D03*
X0118054Y0069888D03*
X0117690Y0064753D03*
X0147353Y0068916D03*
X0151190Y0062854D03*
X0147690Y0059253D03*
X0158690Y0058753D03*
X0170690Y0060253D03*
X0163690Y0064753D03*
X0160690Y0067753D03*
X0139190Y0078464D03*
X0150690Y0089753D03*
X0191481Y0084371D03*
X0187698Y0069248D03*
X0187544Y0065670D03*
X0187544Y0060749D03*
X0195104Y0060749D03*
X0199882Y0060749D03*
X0202190Y0049253D03*
X0188690Y0046753D03*
X0188690Y0041753D03*
X0171190Y0052253D03*
X0158804Y0042142D03*
X0145690Y0051253D03*
X0137690Y0049253D03*
X0132690Y0045753D03*
X0137690Y0044753D03*
X0123705Y0047738D03*
X0109985Y0048150D03*
X0104690Y0052253D03*
X0088690Y0054253D03*
X0068190Y0057253D03*
X0048690Y0052753D03*
X0043353Y0057753D03*
X0032690Y0057606D03*
X0032190Y0063753D03*
X0041483Y0065253D03*
X0027501Y0068753D03*
X0027690Y0087753D03*
X0074801Y0066930D03*
X0032690Y0049253D03*
X0056690Y0046253D03*
X0064944Y0042564D03*
X0044190Y0036253D03*
X0105261Y0034371D03*
X0128690Y0033253D03*
X0253690Y0042753D03*
X0253690Y0048253D03*
X0253190Y0054753D03*
X0257190Y0059253D03*
X0254473Y0064686D03*
X0254473Y0068623D03*
X0253690Y0073753D03*
D15*
X0024490Y0091953D02*
X0024490Y0031553D01*
X0126446Y0031553D01*
X0126325Y0031673D01*
X0125901Y0032698D01*
X0125901Y0033496D01*
X0108944Y0050453D01*
X0106834Y0050453D01*
X0106270Y0049888D01*
X0105245Y0049464D01*
X0104135Y0049464D01*
X0103110Y0049888D01*
X0102325Y0050673D01*
X0102228Y0050907D01*
X0085974Y0034653D01*
X0046534Y0034653D01*
X0045770Y0033888D01*
X0044745Y0033464D01*
X0043635Y0033464D01*
X0042610Y0033888D01*
X0041825Y0034673D01*
X0041401Y0035698D01*
X0041401Y0036808D01*
X0041825Y0037833D01*
X0042610Y0038617D01*
X0043635Y0039042D01*
X0044745Y0039042D01*
X0045770Y0038617D01*
X0046534Y0037853D01*
X0084648Y0037853D01*
X0103037Y0056242D01*
X0134979Y0056242D01*
X0134979Y0058804D01*
X0135916Y0059742D01*
X0144564Y0068390D01*
X0144564Y0069471D01*
X0144989Y0070496D01*
X0145773Y0071280D01*
X0146798Y0071705D01*
X0147908Y0071705D01*
X0148933Y0071280D01*
X0149717Y0070496D01*
X0150142Y0069471D01*
X0150142Y0068361D01*
X0149717Y0067336D01*
X0148933Y0066552D01*
X0147908Y0066127D01*
X0146827Y0066127D01*
X0138179Y0057479D01*
X0138179Y0055383D01*
X0139500Y0056704D01*
X0140437Y0057642D01*
X0145357Y0057642D01*
X0145325Y0057673D01*
X0144901Y0058698D01*
X0144901Y0059808D01*
X0145325Y0060833D01*
X0146110Y0061617D01*
X0147135Y0062042D01*
X0147201Y0062042D01*
X0147201Y0064506D01*
X0148600Y0065905D01*
X0149537Y0066843D01*
X0157517Y0066843D01*
X0157901Y0067227D01*
X0157901Y0068308D01*
X0158325Y0069333D01*
X0159110Y0070117D01*
X0160135Y0070542D01*
X0161245Y0070542D01*
X0162270Y0070117D01*
X0163054Y0069333D01*
X0163479Y0068308D01*
X0163479Y0067542D01*
X0164245Y0067542D01*
X0165270Y0067117D01*
X0166034Y0066353D01*
X0168648Y0066353D01*
X0184600Y0082304D01*
X0184600Y0082304D01*
X0185537Y0083242D01*
X0188089Y0083242D01*
X0188692Y0083845D01*
X0188692Y0084926D01*
X0189117Y0085951D01*
X0189901Y0086735D01*
X0190926Y0087160D01*
X0192036Y0087160D01*
X0193061Y0086735D01*
X0193845Y0085951D01*
X0194270Y0084926D01*
X0194270Y0083816D01*
X0193845Y0082791D01*
X0193061Y0082006D01*
X0192036Y0081582D01*
X0190955Y0081582D01*
X0190352Y0080979D01*
X0189415Y0080042D01*
X0186863Y0080042D01*
X0173202Y0066381D01*
X0173779Y0065804D01*
X0173779Y0065804D01*
X0183342Y0056242D01*
X0211047Y0056242D01*
X0224248Y0043041D01*
X0224248Y0074841D01*
X0203899Y0074841D01*
X0190333Y0061275D01*
X0190333Y0060194D01*
X0189908Y0059169D01*
X0189124Y0058384D01*
X0188099Y0057960D01*
X0186989Y0057960D01*
X0185964Y0058384D01*
X0185180Y0059169D01*
X0184755Y0060194D01*
X0184755Y0061304D01*
X0185180Y0062329D01*
X0185964Y0063113D01*
X0186197Y0063209D01*
X0185964Y0063306D01*
X0185180Y0064090D01*
X0184755Y0065115D01*
X0184755Y0066225D01*
X0185180Y0067250D01*
X0185466Y0067536D01*
X0185333Y0067668D01*
X0184909Y0068693D01*
X0184909Y0069803D01*
X0185333Y0070828D01*
X0186118Y0071612D01*
X0186433Y0071743D01*
X0192778Y0078088D01*
X0192778Y0078801D01*
X0194830Y0080853D01*
X0248852Y0080853D01*
X0249790Y0079915D01*
X0249790Y0079915D01*
X0253164Y0076542D01*
X0254245Y0076542D01*
X0255270Y0076117D01*
X0256054Y0075333D01*
X0256479Y0074308D01*
X0256479Y0073198D01*
X0256054Y0072173D01*
X0255270Y0071388D01*
X0255177Y0071350D01*
X0256053Y0070987D01*
X0256838Y0070203D01*
X0257262Y0069178D01*
X0257262Y0068068D01*
X0256838Y0067043D01*
X0256449Y0066654D01*
X0256838Y0066266D01*
X0257262Y0065241D01*
X0257262Y0064131D01*
X0256838Y0063106D01*
X0256053Y0062321D01*
X0255028Y0061897D01*
X0253918Y0061897D01*
X0252893Y0062321D01*
X0252109Y0063106D01*
X0251684Y0064131D01*
X0251684Y0065212D01*
X0245584Y0071312D01*
X0245584Y0049410D01*
X0250401Y0054227D01*
X0250401Y0055308D01*
X0250825Y0056333D01*
X0251610Y0057117D01*
X0252635Y0057542D01*
X0253745Y0057542D01*
X0253979Y0057445D01*
X0253979Y0058304D01*
X0254401Y0058727D01*
X0254401Y0059808D01*
X0254825Y0060833D01*
X0255610Y0061617D01*
X0256635Y0062042D01*
X0257745Y0062042D01*
X0258770Y0061617D01*
X0259554Y0060833D01*
X0259979Y0059808D01*
X0259979Y0058698D01*
X0259554Y0057673D01*
X0258770Y0056888D01*
X0257745Y0056464D01*
X0257179Y0056464D01*
X0257179Y0053100D01*
X0256241Y0052163D01*
X0254864Y0050785D01*
X0255270Y0050617D01*
X0256054Y0049833D01*
X0256479Y0048808D01*
X0256479Y0047698D01*
X0256054Y0046673D01*
X0255270Y0045888D01*
X0254339Y0045503D01*
X0255270Y0045117D01*
X0256054Y0044333D01*
X0256479Y0043308D01*
X0256479Y0042198D01*
X0256054Y0041173D01*
X0255270Y0040388D01*
X0254245Y0039964D01*
X0253135Y0039964D01*
X0252420Y0040260D01*
X0246562Y0034402D01*
X0243249Y0034402D01*
X0243249Y0034402D01*
X0226252Y0034402D01*
X0223270Y0034402D01*
X0222332Y0035340D01*
X0217519Y0040153D01*
X0191034Y0040153D01*
X0190270Y0039388D01*
X0189245Y0038964D01*
X0188135Y0038964D01*
X0187110Y0039388D01*
X0186325Y0040173D01*
X0185901Y0041198D01*
X0185901Y0041701D01*
X0183290Y0039090D01*
X0182352Y0038153D01*
X0143027Y0038153D01*
X0140416Y0040764D01*
X0136037Y0040764D01*
X0133664Y0043137D01*
X0133245Y0042964D01*
X0132135Y0042964D01*
X0131110Y0043388D01*
X0130325Y0044173D01*
X0129901Y0045198D01*
X0129901Y0046138D01*
X0126049Y0046138D01*
X0125284Y0045373D01*
X0124259Y0044949D01*
X0123150Y0044949D01*
X0122125Y0045373D01*
X0121340Y0046158D01*
X0120916Y0047183D01*
X0120916Y0048293D01*
X0121340Y0049318D01*
X0122125Y0050102D01*
X0123150Y0050527D01*
X0124259Y0050527D01*
X0125284Y0050102D01*
X0126049Y0049338D01*
X0130633Y0049338D01*
X0131037Y0049742D01*
X0132537Y0049742D01*
X0135837Y0053042D01*
X0111446Y0053042D01*
X0128446Y0036042D01*
X0129245Y0036042D01*
X0130270Y0035617D01*
X0131054Y0034833D01*
X0131479Y0033808D01*
X0131479Y0032698D01*
X0131054Y0031673D01*
X0130934Y0031553D01*
X0264890Y0031553D01*
X0264890Y0091953D01*
X0189511Y0091953D01*
X0189806Y0091658D01*
X0190336Y0090378D01*
X0190336Y0088993D01*
X0189806Y0087714D01*
X0188827Y0086735D01*
X0187548Y0086205D01*
X0186163Y0086205D01*
X0184883Y0086735D01*
X0183904Y0087714D01*
X0183374Y0088993D01*
X0183374Y0090378D01*
X0183904Y0091658D01*
X0184199Y0091953D01*
X0175141Y0091953D01*
X0175436Y0091658D01*
X0175966Y0090378D01*
X0175966Y0088993D01*
X0175436Y0087714D01*
X0174457Y0086735D01*
X0173177Y0086205D01*
X0171793Y0086205D01*
X0170513Y0086735D01*
X0169534Y0087714D01*
X0169004Y0088993D01*
X0169004Y0090378D01*
X0169534Y0091658D01*
X0169829Y0091953D01*
X0152434Y0091953D01*
X0153034Y0091353D01*
X0163799Y0091353D01*
X0171379Y0083773D01*
X0171379Y0079732D01*
X0167059Y0075412D01*
X0166121Y0074475D01*
X0137675Y0074475D01*
X0126352Y0063153D01*
X0120034Y0063153D01*
X0119270Y0062388D01*
X0118245Y0061964D01*
X0117135Y0061964D01*
X0116110Y0062388D01*
X0115325Y0063173D01*
X0114901Y0064198D01*
X0114901Y0065308D01*
X0114910Y0065330D01*
X0077145Y0065330D01*
X0076381Y0064565D01*
X0075356Y0064141D01*
X0074275Y0064141D01*
X0068176Y0058042D01*
X0067863Y0058042D01*
X0067474Y0057653D01*
X0046142Y0057653D01*
X0046142Y0057198D01*
X0045718Y0056173D01*
X0044933Y0055388D01*
X0043908Y0054964D01*
X0043241Y0054964D01*
X0045901Y0052304D01*
X0045901Y0053308D01*
X0046325Y0054333D01*
X0047110Y0055117D01*
X0048135Y0055542D01*
X0049245Y0055542D01*
X0050270Y0055117D01*
X0051054Y0054333D01*
X0051479Y0053308D01*
X0051479Y0052227D01*
X0053464Y0050242D01*
X0058342Y0050242D01*
X0063570Y0045014D01*
X0064389Y0045353D01*
X0065499Y0045353D01*
X0066524Y0044928D01*
X0067308Y0044144D01*
X0067733Y0043119D01*
X0067733Y0042009D01*
X0067308Y0040984D01*
X0066524Y0040199D01*
X0065499Y0039775D01*
X0064389Y0039775D01*
X0063364Y0040199D01*
X0062580Y0040984D01*
X0062230Y0041828D01*
X0059151Y0044907D01*
X0059054Y0044673D01*
X0058270Y0043888D01*
X0057245Y0043464D01*
X0056135Y0043464D01*
X0055110Y0043888D01*
X0054346Y0044653D01*
X0049027Y0044653D01*
X0048090Y0045590D01*
X0035450Y0058229D01*
X0035479Y0058161D01*
X0035479Y0057052D01*
X0035054Y0056026D01*
X0034290Y0055262D01*
X0034290Y0051597D01*
X0035054Y0050833D01*
X0035479Y0049808D01*
X0035479Y0048698D01*
X0035054Y0047673D01*
X0034270Y0046888D01*
X0033245Y0046464D01*
X0032135Y0046464D01*
X0031110Y0046888D01*
X0030325Y0047673D01*
X0029901Y0048698D01*
X0029901Y0049808D01*
X0030325Y0050833D01*
X0031090Y0051597D01*
X0031090Y0055262D01*
X0030325Y0056026D01*
X0029901Y0057052D01*
X0029901Y0058133D01*
X0025901Y0062133D01*
X0025901Y0066409D01*
X0025136Y0067173D01*
X0024712Y0068198D01*
X0024712Y0069308D01*
X0025136Y0070333D01*
X0025921Y0071117D01*
X0026946Y0071542D01*
X0028056Y0071542D01*
X0028290Y0071445D01*
X0028290Y0084890D01*
X0028216Y0084964D01*
X0027135Y0084964D01*
X0026110Y0085388D01*
X0025325Y0086173D01*
X0024901Y0087198D01*
X0024901Y0088308D01*
X0025325Y0089333D01*
X0026110Y0090117D01*
X0027135Y0090542D01*
X0028245Y0090542D01*
X0029270Y0090117D01*
X0029890Y0089497D01*
X0029890Y0091953D01*
X0024490Y0091953D01*
X0024490Y0091498D02*
X0029890Y0091498D01*
X0029890Y0090899D02*
X0024490Y0090899D01*
X0024490Y0090301D02*
X0026554Y0090301D01*
X0025695Y0089702D02*
X0024490Y0089702D01*
X0024490Y0089104D02*
X0025231Y0089104D01*
X0024983Y0088505D02*
X0024490Y0088505D01*
X0024490Y0087907D02*
X0024901Y0087907D01*
X0024901Y0087308D02*
X0024490Y0087308D01*
X0024490Y0086710D02*
X0025103Y0086710D01*
X0025387Y0086111D02*
X0024490Y0086111D01*
X0024490Y0085513D02*
X0025985Y0085513D01*
X0024490Y0084914D02*
X0028265Y0084914D01*
X0028290Y0084316D02*
X0024490Y0084316D01*
X0024490Y0083717D02*
X0028290Y0083717D01*
X0028290Y0083119D02*
X0024490Y0083119D01*
X0024490Y0082520D02*
X0028290Y0082520D01*
X0028290Y0081922D02*
X0024490Y0081922D01*
X0024490Y0081323D02*
X0028290Y0081323D01*
X0028290Y0080725D02*
X0024490Y0080725D01*
X0024490Y0080126D02*
X0028290Y0080126D01*
X0028290Y0079528D02*
X0024490Y0079528D01*
X0024490Y0078929D02*
X0028290Y0078929D01*
X0028290Y0078331D02*
X0024490Y0078331D01*
X0024490Y0077732D02*
X0028290Y0077732D01*
X0028290Y0077134D02*
X0024490Y0077134D01*
X0024490Y0076535D02*
X0028290Y0076535D01*
X0028290Y0075937D02*
X0024490Y0075937D01*
X0024490Y0075338D02*
X0028290Y0075338D01*
X0028290Y0074740D02*
X0024490Y0074740D01*
X0024490Y0074141D02*
X0028290Y0074141D01*
X0028290Y0073543D02*
X0024490Y0073543D01*
X0024490Y0072944D02*
X0028290Y0072944D01*
X0028290Y0072346D02*
X0024490Y0072346D01*
X0024490Y0071747D02*
X0028290Y0071747D01*
X0025997Y0071149D02*
X0024490Y0071149D01*
X0024490Y0070550D02*
X0025354Y0070550D01*
X0024979Y0069952D02*
X0024490Y0069952D01*
X0024490Y0069353D02*
X0024731Y0069353D01*
X0024712Y0068755D02*
X0024490Y0068755D01*
X0024490Y0068156D02*
X0024729Y0068156D01*
X0024490Y0067557D02*
X0024977Y0067557D01*
X0025350Y0066959D02*
X0024490Y0066959D01*
X0024490Y0066360D02*
X0025901Y0066360D01*
X0025901Y0065762D02*
X0024490Y0065762D01*
X0024490Y0065163D02*
X0025901Y0065163D01*
X0025901Y0064565D02*
X0024490Y0064565D01*
X0024490Y0063966D02*
X0025901Y0063966D01*
X0025901Y0063368D02*
X0024490Y0063368D01*
X0024490Y0062769D02*
X0025901Y0062769D01*
X0025901Y0062171D02*
X0024490Y0062171D01*
X0024490Y0061572D02*
X0026461Y0061572D01*
X0027059Y0060974D02*
X0024490Y0060974D01*
X0024490Y0060375D02*
X0027658Y0060375D01*
X0028256Y0059777D02*
X0024490Y0059777D01*
X0024490Y0059178D02*
X0028855Y0059178D01*
X0029454Y0058580D02*
X0024490Y0058580D01*
X0024490Y0057981D02*
X0029901Y0057981D01*
X0029901Y0057383D02*
X0024490Y0057383D01*
X0024490Y0056784D02*
X0030011Y0056784D01*
X0030259Y0056186D02*
X0024490Y0056186D01*
X0024490Y0055587D02*
X0030765Y0055587D01*
X0031090Y0054989D02*
X0024490Y0054989D01*
X0024490Y0054390D02*
X0031090Y0054390D01*
X0031090Y0053792D02*
X0024490Y0053792D01*
X0024490Y0053193D02*
X0031090Y0053193D01*
X0031090Y0052595D02*
X0024490Y0052595D01*
X0024490Y0051996D02*
X0031090Y0051996D01*
X0030890Y0051398D02*
X0024490Y0051398D01*
X0024490Y0050799D02*
X0030312Y0050799D01*
X0030064Y0050201D02*
X0024490Y0050201D01*
X0024490Y0049602D02*
X0029901Y0049602D01*
X0029901Y0049004D02*
X0024490Y0049004D01*
X0024490Y0048405D02*
X0030022Y0048405D01*
X0030270Y0047807D02*
X0024490Y0047807D01*
X0024490Y0047208D02*
X0030790Y0047208D01*
X0031783Y0046610D02*
X0024490Y0046610D01*
X0024490Y0046011D02*
X0047669Y0046011D01*
X0048267Y0045413D02*
X0024490Y0045413D01*
X0024490Y0044814D02*
X0048866Y0044814D01*
X0049690Y0046253D02*
X0056690Y0046253D01*
X0058597Y0044216D02*
X0059843Y0044216D01*
X0059244Y0044814D02*
X0059113Y0044814D01*
X0060441Y0043617D02*
X0057614Y0043617D01*
X0055765Y0043617D02*
X0024490Y0043617D01*
X0024490Y0043019D02*
X0061040Y0043019D01*
X0061638Y0042420D02*
X0024490Y0042420D01*
X0024490Y0041821D02*
X0062233Y0041821D01*
X0062481Y0041223D02*
X0024490Y0041223D01*
X0024490Y0040624D02*
X0062939Y0040624D01*
X0063783Y0040026D02*
X0024490Y0040026D01*
X0024490Y0039427D02*
X0086223Y0039427D01*
X0085625Y0038829D02*
X0045258Y0038829D01*
X0046156Y0038230D02*
X0085026Y0038230D01*
X0086822Y0040026D02*
X0066105Y0040026D01*
X0066949Y0040624D02*
X0087420Y0040624D01*
X0088019Y0041223D02*
X0067407Y0041223D01*
X0067655Y0041821D02*
X0088617Y0041821D01*
X0089216Y0042420D02*
X0067733Y0042420D01*
X0067733Y0043019D02*
X0089814Y0043019D01*
X0090413Y0043617D02*
X0067527Y0043617D01*
X0067237Y0044216D02*
X0091011Y0044216D01*
X0091610Y0044814D02*
X0066638Y0044814D01*
X0064944Y0042564D02*
X0063757Y0042564D01*
X0057679Y0048642D01*
X0052801Y0048642D01*
X0048690Y0052753D01*
X0051278Y0053792D02*
X0100587Y0053792D01*
X0099989Y0053193D02*
X0051479Y0053193D01*
X0051479Y0052595D02*
X0099390Y0052595D01*
X0098792Y0051996D02*
X0051709Y0051996D01*
X0052308Y0051398D02*
X0098193Y0051398D01*
X0097595Y0050799D02*
X0052906Y0050799D01*
X0058383Y0050201D02*
X0096996Y0050201D01*
X0096398Y0049602D02*
X0058982Y0049602D01*
X0059580Y0049004D02*
X0095799Y0049004D01*
X0095201Y0048405D02*
X0060179Y0048405D01*
X0060777Y0047807D02*
X0094602Y0047807D01*
X0094004Y0047208D02*
X0061376Y0047208D01*
X0061974Y0046610D02*
X0093405Y0046610D01*
X0092807Y0046011D02*
X0062573Y0046011D01*
X0063171Y0045413D02*
X0092208Y0045413D01*
X0095537Y0044216D02*
X0115181Y0044216D01*
X0114583Y0044814D02*
X0096135Y0044814D01*
X0096734Y0045413D02*
X0113984Y0045413D01*
X0113386Y0046011D02*
X0097332Y0046011D01*
X0097931Y0046610D02*
X0112787Y0046610D01*
X0112189Y0047208D02*
X0098529Y0047208D01*
X0099128Y0047807D02*
X0111590Y0047807D01*
X0110992Y0048405D02*
X0099726Y0048405D01*
X0100325Y0049004D02*
X0110393Y0049004D01*
X0109795Y0049602D02*
X0105579Y0049602D01*
X0106582Y0050201D02*
X0109196Y0050201D01*
X0113090Y0051398D02*
X0134193Y0051398D01*
X0133595Y0050799D02*
X0113689Y0050799D01*
X0114287Y0050201D02*
X0122363Y0050201D01*
X0121625Y0049602D02*
X0114886Y0049602D01*
X0115484Y0049004D02*
X0121210Y0049004D01*
X0120962Y0048405D02*
X0116083Y0048405D01*
X0116681Y0047807D02*
X0120916Y0047807D01*
X0120916Y0047208D02*
X0117280Y0047208D01*
X0117879Y0046610D02*
X0121153Y0046610D01*
X0121487Y0046011D02*
X0118477Y0046011D01*
X0119076Y0045413D02*
X0122086Y0045413D01*
X0120273Y0044216D02*
X0130308Y0044216D01*
X0130060Y0044814D02*
X0119674Y0044814D01*
X0120871Y0043617D02*
X0130881Y0043617D01*
X0132003Y0043019D02*
X0121470Y0043019D01*
X0122068Y0042420D02*
X0134381Y0042420D01*
X0133783Y0043019D02*
X0133377Y0043019D01*
X0134980Y0041821D02*
X0122667Y0041821D01*
X0123265Y0041223D02*
X0135578Y0041223D01*
X0136700Y0042364D02*
X0133311Y0045753D01*
X0132690Y0045753D01*
X0131296Y0047738D02*
X0131700Y0048142D01*
X0133200Y0048142D01*
X0141100Y0056042D01*
X0152600Y0056042D01*
X0157700Y0061142D01*
X0159679Y0061142D01*
X0160568Y0060253D01*
X0170690Y0060253D01*
X0168619Y0062364D02*
X0151680Y0062364D01*
X0151190Y0062854D01*
X0148801Y0063843D02*
X0150200Y0065243D01*
X0158180Y0065243D01*
X0160690Y0067753D01*
X0160468Y0067531D01*
X0157901Y0067557D02*
X0149809Y0067557D01*
X0150057Y0068156D02*
X0157901Y0068156D01*
X0158086Y0068755D02*
X0150142Y0068755D01*
X0150142Y0069353D02*
X0158346Y0069353D01*
X0158944Y0069952D02*
X0149943Y0069952D01*
X0149663Y0070550D02*
X0172846Y0070550D01*
X0173444Y0071149D02*
X0149065Y0071149D01*
X0145641Y0071149D02*
X0134348Y0071149D01*
X0134947Y0071747D02*
X0174043Y0071747D01*
X0174641Y0072346D02*
X0135545Y0072346D01*
X0136144Y0072944D02*
X0175240Y0072944D01*
X0175838Y0073543D02*
X0136742Y0073543D01*
X0137341Y0074141D02*
X0176437Y0074141D01*
X0177035Y0074740D02*
X0166386Y0074740D01*
X0166985Y0075338D02*
X0177634Y0075338D01*
X0178232Y0075937D02*
X0167583Y0075937D01*
X0168182Y0076535D02*
X0178831Y0076535D01*
X0179429Y0077134D02*
X0168780Y0077134D01*
X0169379Y0077732D02*
X0180028Y0077732D01*
X0180626Y0078331D02*
X0169977Y0078331D01*
X0170576Y0078929D02*
X0181225Y0078929D01*
X0181823Y0079528D02*
X0171174Y0079528D01*
X0171379Y0080126D02*
X0182422Y0080126D01*
X0183020Y0080725D02*
X0171379Y0080725D01*
X0171379Y0081323D02*
X0183619Y0081323D01*
X0184217Y0081922D02*
X0171379Y0081922D01*
X0171379Y0082520D02*
X0184816Y0082520D01*
X0185415Y0083119D02*
X0171379Y0083119D01*
X0171379Y0083717D02*
X0188565Y0083717D01*
X0188692Y0084316D02*
X0170836Y0084316D01*
X0170238Y0084914D02*
X0188692Y0084914D01*
X0188935Y0085513D02*
X0169639Y0085513D01*
X0169041Y0086111D02*
X0189277Y0086111D01*
X0188767Y0086710D02*
X0189876Y0086710D01*
X0189401Y0087308D02*
X0264890Y0087308D01*
X0264890Y0086710D02*
X0193086Y0086710D01*
X0193685Y0086111D02*
X0264890Y0086111D01*
X0264890Y0085513D02*
X0194027Y0085513D01*
X0194270Y0084914D02*
X0264890Y0084914D01*
X0264890Y0084316D02*
X0194270Y0084316D01*
X0194229Y0083717D02*
X0264890Y0083717D01*
X0264890Y0083119D02*
X0193981Y0083119D01*
X0193575Y0082520D02*
X0264890Y0082520D01*
X0264890Y0081922D02*
X0192856Y0081922D01*
X0194103Y0080126D02*
X0189499Y0080126D01*
X0190098Y0080725D02*
X0194702Y0080725D01*
X0195493Y0079253D02*
X0194378Y0078138D01*
X0194378Y0077426D01*
X0187698Y0070745D01*
X0187698Y0069248D01*
X0185131Y0068156D02*
X0174977Y0068156D01*
X0174379Y0067557D02*
X0185444Y0067557D01*
X0185059Y0066959D02*
X0173780Y0066959D01*
X0173223Y0066360D02*
X0184811Y0066360D01*
X0184755Y0065762D02*
X0173822Y0065762D01*
X0174420Y0065163D02*
X0184755Y0065163D01*
X0184983Y0064565D02*
X0175019Y0064565D01*
X0175617Y0063966D02*
X0185304Y0063966D01*
X0185902Y0063368D02*
X0176216Y0063368D01*
X0176814Y0062769D02*
X0185620Y0062769D01*
X0185114Y0062171D02*
X0177413Y0062171D01*
X0178011Y0061572D02*
X0184866Y0061572D01*
X0184755Y0060974D02*
X0178610Y0060974D01*
X0179208Y0060375D02*
X0184755Y0060375D01*
X0184928Y0059777D02*
X0179807Y0059777D01*
X0180405Y0059178D02*
X0185176Y0059178D01*
X0185769Y0058580D02*
X0181004Y0058580D01*
X0181602Y0057981D02*
X0186938Y0057981D01*
X0188151Y0057981D02*
X0194497Y0057981D01*
X0194549Y0057960D02*
X0195659Y0057960D01*
X0196684Y0058384D01*
X0197448Y0059149D01*
X0197538Y0059149D01*
X0198302Y0058384D01*
X0199327Y0057960D01*
X0200437Y0057960D01*
X0201462Y0058384D01*
X0202246Y0059169D01*
X0202671Y0060194D01*
X0202671Y0061304D01*
X0202246Y0062329D01*
X0201462Y0063113D01*
X0200437Y0063538D01*
X0199327Y0063538D01*
X0198302Y0063113D01*
X0197538Y0062349D01*
X0197448Y0062349D01*
X0196684Y0063113D01*
X0195659Y0063538D01*
X0194549Y0063538D01*
X0193524Y0063113D01*
X0192740Y0062329D01*
X0192315Y0061304D01*
X0192315Y0060194D01*
X0192740Y0059169D01*
X0193524Y0058384D01*
X0194549Y0057960D01*
X0195710Y0057981D02*
X0199275Y0057981D01*
X0200488Y0057981D02*
X0224248Y0057981D01*
X0224248Y0057383D02*
X0182201Y0057383D01*
X0182799Y0056784D02*
X0224248Y0056784D01*
X0224248Y0056186D02*
X0211103Y0056186D01*
X0211701Y0055587D02*
X0224248Y0055587D01*
X0224248Y0054989D02*
X0212300Y0054989D01*
X0212898Y0054390D02*
X0224248Y0054390D01*
X0224248Y0053792D02*
X0213497Y0053792D01*
X0214095Y0053193D02*
X0224248Y0053193D01*
X0224248Y0052595D02*
X0214694Y0052595D01*
X0215292Y0051996D02*
X0224248Y0051996D01*
X0224248Y0051398D02*
X0215891Y0051398D01*
X0216489Y0050799D02*
X0224248Y0050799D01*
X0224248Y0050201D02*
X0217088Y0050201D01*
X0217686Y0049602D02*
X0224248Y0049602D01*
X0224248Y0049004D02*
X0218285Y0049004D01*
X0218884Y0048405D02*
X0224248Y0048405D01*
X0224248Y0047807D02*
X0219482Y0047807D01*
X0220081Y0047208D02*
X0224248Y0047208D01*
X0224248Y0046610D02*
X0220679Y0046610D01*
X0221278Y0046011D02*
X0224248Y0046011D01*
X0224248Y0045413D02*
X0221876Y0045413D01*
X0222475Y0044814D02*
X0224248Y0044814D01*
X0224248Y0044216D02*
X0223073Y0044216D01*
X0223672Y0043617D02*
X0224248Y0043617D01*
X0218182Y0041753D02*
X0223932Y0036002D01*
X0226915Y0036002D01*
X0243911Y0036002D01*
X0243911Y0036002D01*
X0245900Y0036002D01*
X0252650Y0042753D01*
X0253690Y0042753D01*
X0256323Y0041821D02*
X0264890Y0041821D01*
X0264890Y0041223D02*
X0256075Y0041223D01*
X0255506Y0040624D02*
X0264890Y0040624D01*
X0264890Y0040026D02*
X0254395Y0040026D01*
X0252985Y0040026D02*
X0252186Y0040026D01*
X0251588Y0039427D02*
X0264890Y0039427D01*
X0264890Y0038829D02*
X0250989Y0038829D01*
X0250391Y0038230D02*
X0264890Y0038230D01*
X0264890Y0037632D02*
X0249792Y0037632D01*
X0249194Y0037033D02*
X0264890Y0037033D01*
X0264890Y0036435D02*
X0248595Y0036435D01*
X0247997Y0035836D02*
X0264890Y0035836D01*
X0264890Y0035238D02*
X0247398Y0035238D01*
X0246800Y0034639D02*
X0264890Y0034639D01*
X0264890Y0034041D02*
X0131382Y0034041D01*
X0131479Y0033442D02*
X0264890Y0033442D01*
X0264890Y0032844D02*
X0131479Y0032844D01*
X0131291Y0032245D02*
X0264890Y0032245D01*
X0264890Y0031647D02*
X0131028Y0031647D01*
X0126352Y0031647D02*
X0024490Y0031647D01*
X0024490Y0032245D02*
X0126088Y0032245D01*
X0125901Y0032844D02*
X0024490Y0032844D01*
X0024490Y0033442D02*
X0125901Y0033442D01*
X0125356Y0034041D02*
X0045922Y0034041D01*
X0046521Y0034639D02*
X0124758Y0034639D01*
X0124159Y0035238D02*
X0086559Y0035238D01*
X0087158Y0035836D02*
X0123561Y0035836D01*
X0122962Y0036435D02*
X0087756Y0036435D01*
X0088355Y0037033D02*
X0122364Y0037033D01*
X0121765Y0037632D02*
X0088953Y0037632D01*
X0089552Y0038230D02*
X0121166Y0038230D01*
X0120568Y0038829D02*
X0090150Y0038829D01*
X0090749Y0039427D02*
X0119969Y0039427D01*
X0119371Y0040026D02*
X0091347Y0040026D01*
X0091946Y0040624D02*
X0118772Y0040624D01*
X0118174Y0041223D02*
X0092544Y0041223D01*
X0093143Y0041821D02*
X0117575Y0041821D01*
X0116977Y0042420D02*
X0093741Y0042420D01*
X0094340Y0043019D02*
X0116378Y0043019D01*
X0115780Y0043617D02*
X0094938Y0043617D01*
X0100923Y0049602D02*
X0103801Y0049602D01*
X0102798Y0050201D02*
X0101522Y0050201D01*
X0102120Y0050799D02*
X0102273Y0050799D01*
X0101186Y0054390D02*
X0050996Y0054390D01*
X0050398Y0054989D02*
X0101784Y0054989D01*
X0102383Y0055587D02*
X0045132Y0055587D01*
X0045723Y0056186D02*
X0102981Y0056186D01*
X0103700Y0054642D02*
X0085311Y0036253D01*
X0044190Y0036253D01*
X0041591Y0035238D02*
X0024490Y0035238D01*
X0024490Y0035836D02*
X0041401Y0035836D01*
X0041401Y0036435D02*
X0024490Y0036435D01*
X0024490Y0037033D02*
X0041494Y0037033D01*
X0041742Y0037632D02*
X0024490Y0037632D01*
X0024490Y0038230D02*
X0042223Y0038230D01*
X0043121Y0038829D02*
X0024490Y0038829D01*
X0024490Y0034639D02*
X0041859Y0034639D01*
X0042457Y0034041D02*
X0024490Y0034041D01*
X0024490Y0044216D02*
X0054783Y0044216D01*
X0049690Y0046253D02*
X0032190Y0063753D01*
X0027501Y0062795D02*
X0032690Y0057606D01*
X0032690Y0049253D01*
X0035316Y0050201D02*
X0043479Y0050201D01*
X0042881Y0050799D02*
X0035068Y0050799D01*
X0034489Y0051398D02*
X0042282Y0051398D01*
X0041684Y0051996D02*
X0034290Y0051996D01*
X0034290Y0052595D02*
X0041085Y0052595D01*
X0040487Y0053193D02*
X0034290Y0053193D01*
X0034290Y0053792D02*
X0039888Y0053792D01*
X0039290Y0054390D02*
X0034290Y0054390D01*
X0034290Y0054989D02*
X0038691Y0054989D01*
X0038093Y0055587D02*
X0034615Y0055587D01*
X0035120Y0056186D02*
X0037494Y0056186D01*
X0036895Y0056784D02*
X0035368Y0056784D01*
X0035479Y0057383D02*
X0036297Y0057383D01*
X0035698Y0057981D02*
X0035479Y0057981D01*
X0043353Y0057753D02*
X0043353Y0058589D01*
X0034990Y0066953D01*
X0031237Y0066953D01*
X0029890Y0068300D01*
X0029890Y0085553D01*
X0027690Y0087753D01*
X0029684Y0089702D02*
X0029890Y0089702D01*
X0029890Y0090301D02*
X0028826Y0090301D01*
X0074490Y0090301D02*
X0081429Y0090301D01*
X0081429Y0090832D02*
X0081429Y0088598D01*
X0084620Y0088598D01*
X0084620Y0088017D01*
X0085201Y0088017D01*
X0085201Y0082646D01*
X0085253Y0082646D01*
X0085926Y0082779D01*
X0086559Y0083042D01*
X0087129Y0083423D01*
X0087614Y0083908D01*
X0087995Y0084478D01*
X0088258Y0085111D01*
X0088391Y0085784D01*
X0088391Y0088017D01*
X0085201Y0088017D01*
X0085201Y0088598D01*
X0088391Y0088598D01*
X0088391Y0090832D01*
X0088258Y0091504D01*
X0088072Y0091953D01*
X0109308Y0091953D01*
X0109122Y0091504D01*
X0108988Y0090832D01*
X0108988Y0088598D01*
X0112179Y0088598D01*
X0112179Y0088017D01*
X0112760Y0088017D01*
X0112760Y0082646D01*
X0112812Y0082646D01*
X0113485Y0082779D01*
X0114118Y0083042D01*
X0114688Y0083423D01*
X0115173Y0083908D01*
X0115554Y0084478D01*
X0115817Y0085111D01*
X0115950Y0085784D01*
X0115950Y0088017D01*
X0112760Y0088017D01*
X0112760Y0088598D01*
X0115950Y0088598D01*
X0115950Y0090832D01*
X0115817Y0091504D01*
X0115631Y0091953D01*
X0148946Y0091953D01*
X0148325Y0091333D01*
X0147901Y0090308D01*
X0147901Y0089198D01*
X0148325Y0088173D01*
X0148668Y0087831D01*
X0126670Y0087831D01*
X0125733Y0086893D01*
X0116396Y0077557D01*
X0116396Y0074252D01*
X0116454Y0074193D01*
X0116454Y0072232D01*
X0115690Y0071468D01*
X0115265Y0070443D01*
X0115265Y0069333D01*
X0115598Y0068530D01*
X0077145Y0068530D01*
X0076381Y0069294D01*
X0075356Y0069719D01*
X0074490Y0069719D01*
X0074490Y0091953D01*
X0081749Y0091953D01*
X0081563Y0091504D01*
X0081429Y0090832D01*
X0081443Y0090899D02*
X0074490Y0090899D01*
X0074490Y0091498D02*
X0081562Y0091498D01*
X0081429Y0089702D02*
X0074490Y0089702D01*
X0074490Y0089104D02*
X0081429Y0089104D01*
X0081429Y0088017D02*
X0081429Y0085784D01*
X0081563Y0085111D01*
X0081825Y0084478D01*
X0082206Y0083908D01*
X0082691Y0083423D01*
X0083261Y0083042D01*
X0083895Y0082779D01*
X0084567Y0082646D01*
X0084620Y0082646D01*
X0084620Y0088017D01*
X0081429Y0088017D01*
X0081429Y0087907D02*
X0074490Y0087907D01*
X0074490Y0088505D02*
X0084620Y0088505D01*
X0085201Y0088505D02*
X0112179Y0088505D01*
X0112179Y0088017D02*
X0108988Y0088017D01*
X0108988Y0085784D01*
X0109122Y0085111D01*
X0109384Y0084478D01*
X0109765Y0083908D01*
X0110250Y0083423D01*
X0110820Y0083042D01*
X0111454Y0082779D01*
X0112126Y0082646D01*
X0112179Y0082646D01*
X0112179Y0088017D01*
X0112179Y0087907D02*
X0112760Y0087907D01*
X0112760Y0088505D02*
X0148188Y0088505D01*
X0147940Y0089104D02*
X0115950Y0089104D01*
X0115950Y0089702D02*
X0147901Y0089702D01*
X0147901Y0090301D02*
X0115950Y0090301D01*
X0115937Y0090899D02*
X0148146Y0090899D01*
X0148491Y0091498D02*
X0115818Y0091498D01*
X0109121Y0091498D02*
X0088259Y0091498D01*
X0088378Y0090899D02*
X0109002Y0090899D01*
X0108988Y0090301D02*
X0088391Y0090301D01*
X0088391Y0089702D02*
X0108988Y0089702D01*
X0108988Y0089104D02*
X0088391Y0089104D01*
X0088391Y0087907D02*
X0108988Y0087907D01*
X0108988Y0087308D02*
X0088391Y0087308D01*
X0088391Y0086710D02*
X0108988Y0086710D01*
X0108988Y0086111D02*
X0088391Y0086111D01*
X0088337Y0085513D02*
X0109042Y0085513D01*
X0109204Y0084914D02*
X0088176Y0084914D01*
X0087887Y0084316D02*
X0109493Y0084316D01*
X0109956Y0083717D02*
X0087424Y0083717D01*
X0086674Y0083119D02*
X0110705Y0083119D01*
X0112179Y0083119D02*
X0112760Y0083119D01*
X0112760Y0083717D02*
X0112179Y0083717D01*
X0112179Y0084316D02*
X0112760Y0084316D01*
X0112760Y0084914D02*
X0112179Y0084914D01*
X0112179Y0085513D02*
X0112760Y0085513D01*
X0112760Y0086111D02*
X0112179Y0086111D01*
X0112179Y0086710D02*
X0112760Y0086710D01*
X0112760Y0087308D02*
X0112179Y0087308D01*
X0115950Y0087308D02*
X0126148Y0087308D01*
X0125549Y0086710D02*
X0115950Y0086710D01*
X0115950Y0086111D02*
X0124951Y0086111D01*
X0124352Y0085513D02*
X0115896Y0085513D01*
X0115735Y0084914D02*
X0123753Y0084914D01*
X0123155Y0084316D02*
X0115446Y0084316D01*
X0114983Y0083717D02*
X0122556Y0083717D01*
X0121958Y0083119D02*
X0114233Y0083119D01*
X0111239Y0080847D02*
X0110710Y0081231D01*
X0110127Y0081528D01*
X0109505Y0081730D01*
X0108859Y0081832D01*
X0108832Y0081832D01*
X0108832Y0077978D01*
X0108232Y0077978D01*
X0108232Y0077378D01*
X0104378Y0077378D01*
X0104378Y0077351D01*
X0104480Y0076705D01*
X0104682Y0076083D01*
X0104979Y0075501D01*
X0105364Y0074972D01*
X0105826Y0074509D01*
X0106355Y0074125D01*
X0106938Y0073828D01*
X0107559Y0073626D01*
X0108205Y0073524D01*
X0108232Y0073524D01*
X0108232Y0077378D01*
X0108832Y0077378D01*
X0108832Y0073524D01*
X0108859Y0073524D01*
X0109505Y0073626D01*
X0110127Y0073828D01*
X0110710Y0074125D01*
X0111239Y0074509D01*
X0111701Y0074972D01*
X0112085Y0075501D01*
X0112382Y0076083D01*
X0112584Y0076705D01*
X0112687Y0077351D01*
X0112687Y0077378D01*
X0108832Y0077378D01*
X0108832Y0077978D01*
X0112687Y0077978D01*
X0112687Y0078005D01*
X0112584Y0078651D01*
X0112382Y0079273D01*
X0112085Y0079855D01*
X0111701Y0080384D01*
X0111239Y0080847D01*
X0111361Y0080725D02*
X0119564Y0080725D01*
X0120162Y0081323D02*
X0110529Y0081323D01*
X0108832Y0081323D02*
X0108232Y0081323D01*
X0108232Y0081832D02*
X0108205Y0081832D01*
X0107559Y0081730D01*
X0106938Y0081528D01*
X0106355Y0081231D01*
X0105826Y0080847D01*
X0105364Y0080384D01*
X0104979Y0079855D01*
X0104682Y0079273D01*
X0104480Y0078651D01*
X0104378Y0078005D01*
X0104378Y0077978D01*
X0108232Y0077978D01*
X0108232Y0081832D01*
X0108232Y0080725D02*
X0108832Y0080725D01*
X0108832Y0080126D02*
X0108232Y0080126D01*
X0108232Y0079528D02*
X0108832Y0079528D01*
X0108832Y0078929D02*
X0108232Y0078929D01*
X0108232Y0078331D02*
X0108832Y0078331D01*
X0108832Y0077732D02*
X0116571Y0077732D01*
X0116396Y0077134D02*
X0112652Y0077134D01*
X0112529Y0076535D02*
X0116396Y0076535D01*
X0116396Y0075937D02*
X0112308Y0075937D01*
X0111967Y0075338D02*
X0116396Y0075338D01*
X0116396Y0074740D02*
X0111469Y0074740D01*
X0110732Y0074141D02*
X0116454Y0074141D01*
X0116454Y0073543D02*
X0108979Y0073543D01*
X0108832Y0073543D02*
X0108232Y0073543D01*
X0108086Y0073543D02*
X0089294Y0073543D01*
X0089174Y0073524D02*
X0089820Y0073626D01*
X0090442Y0073828D01*
X0091025Y0074125D01*
X0091554Y0074509D01*
X0092016Y0074972D01*
X0092400Y0075501D01*
X0092697Y0076083D01*
X0092899Y0076705D01*
X0093002Y0077351D01*
X0093002Y0077378D01*
X0089147Y0077378D01*
X0089147Y0073524D01*
X0089174Y0073524D01*
X0089147Y0073543D02*
X0088547Y0073543D01*
X0088547Y0073524D02*
X0088547Y0077378D01*
X0084693Y0077378D01*
X0084693Y0077351D01*
X0084795Y0076705D01*
X0084997Y0076083D01*
X0085294Y0075501D01*
X0085678Y0074972D01*
X0086141Y0074509D01*
X0086670Y0074125D01*
X0087253Y0073828D01*
X0087874Y0073626D01*
X0088520Y0073524D01*
X0088547Y0073524D01*
X0088400Y0073543D02*
X0074490Y0073543D01*
X0074490Y0074141D02*
X0086648Y0074141D01*
X0085910Y0074740D02*
X0074490Y0074740D01*
X0074490Y0075338D02*
X0085412Y0075338D01*
X0085072Y0075937D02*
X0074490Y0075937D01*
X0074490Y0076535D02*
X0084850Y0076535D01*
X0084727Y0077134D02*
X0074490Y0077134D01*
X0074490Y0077732D02*
X0088547Y0077732D01*
X0088547Y0077978D02*
X0088547Y0077378D01*
X0089147Y0077378D01*
X0089147Y0077978D01*
X0088547Y0077978D01*
X0084693Y0077978D01*
X0084693Y0078005D01*
X0084795Y0078651D01*
X0084997Y0079273D01*
X0085294Y0079855D01*
X0085678Y0080384D01*
X0086141Y0080847D01*
X0086670Y0081231D01*
X0087253Y0081528D01*
X0087874Y0081730D01*
X0088520Y0081832D01*
X0088547Y0081832D01*
X0088547Y0077978D01*
X0088547Y0078331D02*
X0089147Y0078331D01*
X0089147Y0077978D02*
X0089147Y0081832D01*
X0089174Y0081832D01*
X0089820Y0081730D01*
X0090442Y0081528D01*
X0091025Y0081231D01*
X0091554Y0080847D01*
X0092016Y0080384D01*
X0092400Y0079855D01*
X0092697Y0079273D01*
X0092899Y0078651D01*
X0093002Y0078005D01*
X0093002Y0077978D01*
X0089147Y0077978D01*
X0089147Y0077732D02*
X0108232Y0077732D01*
X0108232Y0077134D02*
X0108832Y0077134D01*
X0108832Y0076535D02*
X0108232Y0076535D01*
X0108232Y0075937D02*
X0108832Y0075937D01*
X0108832Y0075338D02*
X0108232Y0075338D01*
X0108232Y0074740D02*
X0108832Y0074740D01*
X0108832Y0074141D02*
X0108232Y0074141D01*
X0106333Y0074141D02*
X0091047Y0074141D01*
X0091784Y0074740D02*
X0105595Y0074740D01*
X0105097Y0075338D02*
X0092282Y0075338D01*
X0092623Y0075937D02*
X0104757Y0075937D01*
X0104535Y0076535D02*
X0092844Y0076535D01*
X0092967Y0077134D02*
X0104412Y0077134D01*
X0104430Y0078331D02*
X0092950Y0078331D01*
X0092809Y0078929D02*
X0104571Y0078929D01*
X0104812Y0079528D02*
X0092567Y0079528D01*
X0092204Y0080126D02*
X0105176Y0080126D01*
X0105704Y0080725D02*
X0091676Y0080725D01*
X0090844Y0081323D02*
X0106536Y0081323D01*
X0111889Y0080126D02*
X0118965Y0080126D01*
X0118367Y0079528D02*
X0112252Y0079528D01*
X0112494Y0078929D02*
X0117768Y0078929D01*
X0117170Y0078331D02*
X0112635Y0078331D01*
X0117996Y0076894D02*
X0117996Y0074915D01*
X0118054Y0074856D01*
X0118054Y0069888D01*
X0115265Y0069952D02*
X0074490Y0069952D01*
X0074490Y0070550D02*
X0115310Y0070550D01*
X0115558Y0071149D02*
X0074490Y0071149D01*
X0074490Y0071747D02*
X0115969Y0071747D01*
X0116454Y0072346D02*
X0074490Y0072346D01*
X0074490Y0072944D02*
X0116454Y0072944D01*
X0120385Y0075904D02*
X0129511Y0085031D01*
X0156048Y0085031D01*
X0159325Y0081753D01*
X0160595Y0081753D01*
X0160753Y0086231D02*
X0165231Y0081753D01*
X0166501Y0081753D01*
X0169779Y0083111D02*
X0169779Y0080395D01*
X0165459Y0076075D01*
X0137012Y0076075D01*
X0125690Y0064753D01*
X0117690Y0064753D01*
X0119651Y0062769D02*
X0138944Y0062769D01*
X0138345Y0062171D02*
X0118745Y0062171D01*
X0116635Y0062171D02*
X0072305Y0062171D01*
X0072903Y0062769D02*
X0115729Y0062769D01*
X0115245Y0063368D02*
X0073502Y0063368D01*
X0074100Y0063966D02*
X0114997Y0063966D01*
X0114901Y0064565D02*
X0076380Y0064565D01*
X0076979Y0065163D02*
X0114901Y0065163D01*
X0116488Y0066930D02*
X0074801Y0066930D01*
X0067513Y0059642D01*
X0067200Y0059642D01*
X0066811Y0059253D01*
X0045475Y0059253D01*
X0042672Y0062056D01*
X0042672Y0064064D01*
X0041483Y0065253D01*
X0050786Y0066953D02*
X0053608Y0066953D01*
X0053203Y0066394D01*
X0052860Y0065721D01*
X0052626Y0065003D01*
X0052508Y0064257D01*
X0052508Y0064169D01*
X0057017Y0064169D01*
X0057017Y0063588D01*
X0052508Y0063588D01*
X0052508Y0063501D01*
X0052626Y0062755D01*
X0052860Y0062036D01*
X0053203Y0061363D01*
X0053573Y0060853D01*
X0050834Y0060853D01*
X0051141Y0061160D01*
X0051872Y0062924D01*
X0051872Y0064834D01*
X0051141Y0066598D01*
X0050786Y0066953D01*
X0051239Y0066360D02*
X0053185Y0066360D01*
X0052880Y0065762D02*
X0051487Y0065762D01*
X0051735Y0065163D02*
X0052678Y0065163D01*
X0052557Y0064565D02*
X0051872Y0064565D01*
X0051872Y0063966D02*
X0057017Y0063966D01*
X0057598Y0063966D02*
X0069575Y0063966D01*
X0068976Y0063368D02*
X0062087Y0063368D01*
X0062108Y0063501D02*
X0062108Y0063588D01*
X0057598Y0063588D01*
X0057598Y0064169D01*
X0062108Y0064169D01*
X0062108Y0064257D01*
X0061990Y0065003D01*
X0061756Y0065721D01*
X0061413Y0066394D01*
X0061008Y0066953D01*
X0072012Y0066953D01*
X0072012Y0066403D01*
X0066850Y0061242D01*
X0066537Y0061242D01*
X0066148Y0060853D01*
X0061042Y0060853D01*
X0061413Y0061363D01*
X0061756Y0062036D01*
X0061990Y0062755D01*
X0062108Y0063501D01*
X0061992Y0062769D02*
X0068378Y0062769D01*
X0067779Y0062171D02*
X0061800Y0062171D01*
X0061520Y0061572D02*
X0067181Y0061572D01*
X0066270Y0060974D02*
X0061130Y0060974D01*
X0067802Y0057981D02*
X0134979Y0057981D01*
X0134979Y0057383D02*
X0046142Y0057383D01*
X0045971Y0056784D02*
X0134979Y0056784D01*
X0134979Y0058580D02*
X0068714Y0058580D01*
X0069312Y0059178D02*
X0135353Y0059178D01*
X0135951Y0059777D02*
X0069911Y0059777D01*
X0070509Y0060375D02*
X0136550Y0060375D01*
X0137148Y0060974D02*
X0071108Y0060974D01*
X0071706Y0061572D02*
X0137747Y0061572D01*
X0139542Y0063368D02*
X0126568Y0063368D01*
X0127166Y0063966D02*
X0140141Y0063966D01*
X0140739Y0064565D02*
X0127765Y0064565D01*
X0128363Y0065163D02*
X0141338Y0065163D01*
X0141936Y0065762D02*
X0128962Y0065762D01*
X0129560Y0066360D02*
X0142535Y0066360D01*
X0143133Y0066959D02*
X0130159Y0066959D01*
X0130757Y0067557D02*
X0143732Y0067557D01*
X0144330Y0068156D02*
X0131356Y0068156D01*
X0131954Y0068755D02*
X0144564Y0068755D01*
X0144564Y0069353D02*
X0132553Y0069353D01*
X0133151Y0069952D02*
X0144763Y0069952D01*
X0145043Y0070550D02*
X0133750Y0070550D01*
X0136515Y0077275D02*
X0126382Y0067142D01*
X0116700Y0067142D01*
X0116488Y0066930D01*
X0115505Y0068755D02*
X0076920Y0068755D01*
X0076238Y0069353D02*
X0115265Y0069353D01*
X0117996Y0076894D02*
X0127333Y0086231D01*
X0160753Y0086231D01*
X0166048Y0089104D02*
X0169004Y0089104D01*
X0169004Y0089702D02*
X0165450Y0089702D01*
X0164851Y0090301D02*
X0169004Y0090301D01*
X0169220Y0090899D02*
X0164253Y0090899D01*
X0163137Y0089753D02*
X0169779Y0083111D01*
X0170573Y0086710D02*
X0168442Y0086710D01*
X0167844Y0087308D02*
X0169939Y0087308D01*
X0169454Y0087907D02*
X0167245Y0087907D01*
X0166647Y0088505D02*
X0169206Y0088505D01*
X0169468Y0091498D02*
X0152889Y0091498D01*
X0150690Y0089753D02*
X0163137Y0089753D01*
X0174397Y0086710D02*
X0184943Y0086710D01*
X0184310Y0087308D02*
X0175031Y0087308D01*
X0175516Y0087907D02*
X0183824Y0087907D01*
X0183576Y0088505D02*
X0175764Y0088505D01*
X0175966Y0089104D02*
X0183374Y0089104D01*
X0183374Y0089702D02*
X0175966Y0089702D01*
X0175966Y0090301D02*
X0183374Y0090301D01*
X0183590Y0090899D02*
X0175750Y0090899D01*
X0175502Y0091498D02*
X0183838Y0091498D01*
X0189872Y0091498D02*
X0264890Y0091498D01*
X0264890Y0090899D02*
X0190120Y0090899D01*
X0190336Y0090301D02*
X0264890Y0090301D01*
X0264890Y0089702D02*
X0190336Y0089702D01*
X0190336Y0089104D02*
X0264890Y0089104D01*
X0264890Y0088505D02*
X0190134Y0088505D01*
X0189886Y0087907D02*
X0264890Y0087907D01*
X0264890Y0081323D02*
X0190696Y0081323D01*
X0188752Y0081642D02*
X0186200Y0081642D01*
X0169311Y0064753D01*
X0163690Y0064753D01*
X0165428Y0066959D02*
X0169255Y0066959D01*
X0169853Y0067557D02*
X0163479Y0067557D01*
X0163479Y0068156D02*
X0170452Y0068156D01*
X0171050Y0068755D02*
X0163294Y0068755D01*
X0163034Y0069353D02*
X0171649Y0069353D01*
X0172247Y0069952D02*
X0162435Y0069952D01*
X0166026Y0066360D02*
X0168656Y0066360D01*
X0171397Y0065142D02*
X0168619Y0062364D01*
X0171397Y0065142D02*
X0172179Y0065142D01*
X0182679Y0054642D01*
X0210384Y0054642D01*
X0225424Y0039602D01*
X0244409Y0039602D01*
X0244584Y0039778D01*
X0244584Y0046147D01*
X0253190Y0054753D01*
X0255579Y0053763D02*
X0255579Y0057642D01*
X0257190Y0059253D01*
X0259744Y0060375D02*
X0264890Y0060375D01*
X0264890Y0059777D02*
X0259979Y0059777D01*
X0259979Y0059178D02*
X0264890Y0059178D01*
X0264890Y0058580D02*
X0259930Y0058580D01*
X0259682Y0057981D02*
X0264890Y0057981D01*
X0264890Y0057383D02*
X0259264Y0057383D01*
X0258518Y0056784D02*
X0264890Y0056784D01*
X0264890Y0056186D02*
X0257179Y0056186D01*
X0257179Y0055587D02*
X0264890Y0055587D01*
X0264890Y0054989D02*
X0257179Y0054989D01*
X0257179Y0054390D02*
X0264890Y0054390D01*
X0264890Y0053792D02*
X0257179Y0053792D01*
X0257179Y0053193D02*
X0264890Y0053193D01*
X0264890Y0052595D02*
X0256673Y0052595D01*
X0256074Y0051996D02*
X0264890Y0051996D01*
X0264890Y0051398D02*
X0255476Y0051398D01*
X0254877Y0050799D02*
X0264890Y0050799D01*
X0264890Y0050201D02*
X0255686Y0050201D01*
X0256150Y0049602D02*
X0264890Y0049602D01*
X0264890Y0049004D02*
X0256398Y0049004D01*
X0256479Y0048405D02*
X0264890Y0048405D01*
X0264890Y0047807D02*
X0256479Y0047807D01*
X0256276Y0047208D02*
X0264890Y0047208D01*
X0264890Y0046610D02*
X0255991Y0046610D01*
X0255392Y0046011D02*
X0264890Y0046011D01*
X0264890Y0045413D02*
X0254556Y0045413D01*
X0255573Y0044814D02*
X0264890Y0044814D01*
X0264890Y0044216D02*
X0256103Y0044216D01*
X0256351Y0043617D02*
X0264890Y0043617D01*
X0264890Y0043019D02*
X0256479Y0043019D01*
X0256479Y0042420D02*
X0264890Y0042420D01*
X0253690Y0048253D02*
X0246984Y0041547D01*
X0246984Y0038784D01*
X0245403Y0037202D01*
X0244409Y0037202D01*
X0244409Y0037202D01*
X0226418Y0037202D01*
X0224429Y0037202D01*
X0214879Y0046753D01*
X0188690Y0046753D01*
X0181690Y0039753D01*
X0143690Y0039753D01*
X0141079Y0042364D01*
X0136700Y0042364D01*
X0140382Y0043964D02*
X0140479Y0044198D01*
X0140479Y0045279D01*
X0144901Y0049701D01*
X0144901Y0051580D01*
X0145363Y0052042D01*
X0146017Y0052042D01*
X0150406Y0047653D01*
X0186044Y0047653D01*
X0185901Y0047308D01*
X0185901Y0046227D01*
X0181027Y0041353D01*
X0144352Y0041353D01*
X0142679Y0043027D01*
X0141741Y0043964D01*
X0140382Y0043964D01*
X0140479Y0044216D02*
X0183890Y0044216D01*
X0184488Y0044814D02*
X0140479Y0044814D01*
X0140612Y0045413D02*
X0185087Y0045413D01*
X0185685Y0046011D02*
X0141211Y0046011D01*
X0141809Y0046610D02*
X0185901Y0046610D01*
X0185901Y0047208D02*
X0142408Y0047208D01*
X0143006Y0047807D02*
X0150252Y0047807D01*
X0149653Y0048405D02*
X0143605Y0048405D01*
X0144203Y0049004D02*
X0149055Y0049004D01*
X0148456Y0049602D02*
X0144802Y0049602D01*
X0144901Y0050201D02*
X0147858Y0050201D01*
X0147259Y0050799D02*
X0144901Y0050799D01*
X0144901Y0051398D02*
X0146661Y0051398D01*
X0146062Y0051996D02*
X0145317Y0051996D01*
X0145690Y0051253D02*
X0154801Y0042142D01*
X0158804Y0042142D01*
X0143884Y0041821D02*
X0181496Y0041821D01*
X0182094Y0042420D02*
X0143285Y0042420D01*
X0142687Y0043019D02*
X0182693Y0043019D01*
X0183291Y0043617D02*
X0142088Y0043617D01*
X0140555Y0040624D02*
X0123864Y0040624D01*
X0124462Y0040026D02*
X0141154Y0040026D01*
X0141752Y0039427D02*
X0125061Y0039427D01*
X0125659Y0038829D02*
X0142351Y0038829D01*
X0142949Y0038230D02*
X0126258Y0038230D01*
X0126856Y0037632D02*
X0220040Y0037632D01*
X0219441Y0038230D02*
X0182430Y0038230D01*
X0183029Y0038829D02*
X0218843Y0038829D01*
X0218244Y0039427D02*
X0190309Y0039427D01*
X0190907Y0040026D02*
X0217646Y0040026D01*
X0218182Y0041753D02*
X0188690Y0041753D01*
X0186138Y0040624D02*
X0184824Y0040624D01*
X0184226Y0040026D02*
X0186472Y0040026D01*
X0187071Y0039427D02*
X0183627Y0039427D01*
X0185423Y0041223D02*
X0185901Y0041223D01*
X0202190Y0049253D02*
X0151068Y0049253D01*
X0146679Y0053642D01*
X0144700Y0053642D01*
X0143301Y0052242D01*
X0143301Y0050364D01*
X0137690Y0044753D01*
X0131296Y0047738D02*
X0123705Y0047738D01*
X0125922Y0046011D02*
X0129901Y0046011D01*
X0129901Y0045413D02*
X0125324Y0045413D01*
X0125784Y0049602D02*
X0130898Y0049602D01*
X0132996Y0050201D02*
X0125047Y0050201D01*
X0134792Y0051996D02*
X0112492Y0051996D01*
X0111893Y0052595D02*
X0135390Y0052595D01*
X0136579Y0054642D02*
X0136579Y0058142D01*
X0147353Y0068916D01*
X0149340Y0066959D02*
X0157633Y0066959D01*
X0149055Y0066360D02*
X0148471Y0066360D01*
X0148457Y0065762D02*
X0146462Y0065762D01*
X0145863Y0065163D02*
X0147858Y0065163D01*
X0147260Y0064565D02*
X0145265Y0064565D01*
X0144666Y0063966D02*
X0147201Y0063966D01*
X0147201Y0063368D02*
X0144068Y0063368D01*
X0143469Y0062769D02*
X0147201Y0062769D01*
X0147201Y0062171D02*
X0142871Y0062171D01*
X0142272Y0061572D02*
X0146065Y0061572D01*
X0145467Y0060974D02*
X0141674Y0060974D01*
X0141075Y0060375D02*
X0145136Y0060375D01*
X0144901Y0059777D02*
X0140477Y0059777D01*
X0139878Y0059178D02*
X0144901Y0059178D01*
X0144950Y0058580D02*
X0139280Y0058580D01*
X0138681Y0057981D02*
X0145198Y0057981D01*
X0147690Y0059253D02*
X0148801Y0060364D01*
X0148801Y0063843D01*
X0154779Y0054842D02*
X0158690Y0058753D01*
X0154779Y0054842D02*
X0144203Y0054842D01*
X0138614Y0049253D01*
X0137690Y0049253D01*
X0136579Y0054642D02*
X0103700Y0054642D01*
X0088690Y0054253D02*
X0085690Y0057253D01*
X0068190Y0057253D01*
X0053485Y0060974D02*
X0050955Y0060974D01*
X0051312Y0061572D02*
X0053096Y0061572D01*
X0052816Y0062171D02*
X0051560Y0062171D01*
X0051808Y0062769D02*
X0052624Y0062769D01*
X0052529Y0063368D02*
X0051872Y0063368D01*
X0061431Y0066360D02*
X0071969Y0066360D01*
X0071370Y0065762D02*
X0061735Y0065762D01*
X0061937Y0065163D02*
X0070772Y0065163D01*
X0070173Y0064565D02*
X0062059Y0064565D01*
X0046982Y0054989D02*
X0043968Y0054989D01*
X0043815Y0054390D02*
X0046383Y0054390D01*
X0046101Y0053792D02*
X0044414Y0053792D01*
X0045012Y0053193D02*
X0045901Y0053193D01*
X0045901Y0052595D02*
X0045611Y0052595D01*
X0044078Y0049602D02*
X0035479Y0049602D01*
X0035479Y0049004D02*
X0044676Y0049004D01*
X0045275Y0048405D02*
X0035357Y0048405D01*
X0035109Y0047807D02*
X0045873Y0047807D01*
X0046472Y0047208D02*
X0034589Y0047208D01*
X0033597Y0046610D02*
X0047070Y0046610D01*
X0027501Y0062795D02*
X0027501Y0068753D01*
X0074490Y0078331D02*
X0084745Y0078331D01*
X0084886Y0078929D02*
X0074490Y0078929D01*
X0074490Y0079528D02*
X0085127Y0079528D01*
X0085491Y0080126D02*
X0074490Y0080126D01*
X0074490Y0080725D02*
X0086019Y0080725D01*
X0086851Y0081323D02*
X0074490Y0081323D01*
X0074490Y0081922D02*
X0120761Y0081922D01*
X0121359Y0082520D02*
X0074490Y0082520D01*
X0074490Y0083119D02*
X0083146Y0083119D01*
X0082397Y0083717D02*
X0074490Y0083717D01*
X0074490Y0084316D02*
X0081934Y0084316D01*
X0081645Y0084914D02*
X0074490Y0084914D01*
X0074490Y0085513D02*
X0081483Y0085513D01*
X0081429Y0086111D02*
X0074490Y0086111D01*
X0074490Y0086710D02*
X0081429Y0086710D01*
X0081429Y0087308D02*
X0074490Y0087308D01*
X0084620Y0087308D02*
X0085201Y0087308D01*
X0085201Y0086710D02*
X0084620Y0086710D01*
X0084620Y0086111D02*
X0085201Y0086111D01*
X0085201Y0085513D02*
X0084620Y0085513D01*
X0084620Y0084914D02*
X0085201Y0084914D01*
X0085201Y0084316D02*
X0084620Y0084316D01*
X0084620Y0083717D02*
X0085201Y0083717D01*
X0085201Y0083119D02*
X0084620Y0083119D01*
X0088547Y0081323D02*
X0089147Y0081323D01*
X0089147Y0080725D02*
X0088547Y0080725D01*
X0088547Y0080126D02*
X0089147Y0080126D01*
X0089147Y0079528D02*
X0088547Y0079528D01*
X0088547Y0078929D02*
X0089147Y0078929D01*
X0089147Y0077134D02*
X0088547Y0077134D01*
X0088547Y0076535D02*
X0089147Y0076535D01*
X0089147Y0075937D02*
X0088547Y0075937D01*
X0088547Y0075338D02*
X0089147Y0075338D01*
X0089147Y0074740D02*
X0088547Y0074740D01*
X0088547Y0074141D02*
X0089147Y0074141D01*
X0085201Y0087907D02*
X0084620Y0087907D01*
X0115950Y0087907D02*
X0148591Y0087907D01*
X0154390Y0081453D02*
X0154990Y0081453D01*
X0154990Y0078075D01*
X0155052Y0078075D01*
X0155763Y0078216D01*
X0156432Y0078493D01*
X0157034Y0078896D01*
X0157547Y0079408D01*
X0157623Y0079523D01*
X0158512Y0078635D01*
X0159864Y0078075D01*
X0161327Y0078075D01*
X0162679Y0078635D01*
X0163548Y0079504D01*
X0164417Y0078635D01*
X0165364Y0078243D01*
X0164796Y0077675D01*
X0141882Y0077675D01*
X0141979Y0077909D01*
X0141979Y0078145D01*
X0142147Y0078075D01*
X0143610Y0078075D01*
X0144962Y0078635D01*
X0145831Y0079504D01*
X0146701Y0078635D01*
X0148053Y0078075D01*
X0149516Y0078075D01*
X0150868Y0078635D01*
X0151756Y0079523D01*
X0151833Y0079408D01*
X0152345Y0078896D01*
X0152948Y0078493D01*
X0153617Y0078216D01*
X0154328Y0078075D01*
X0154390Y0078075D01*
X0154390Y0081453D01*
X0154390Y0081323D02*
X0154990Y0081323D01*
X0154990Y0080725D02*
X0154390Y0080725D01*
X0154390Y0080126D02*
X0154990Y0080126D01*
X0154990Y0079528D02*
X0154390Y0079528D01*
X0154390Y0078929D02*
X0154990Y0078929D01*
X0154990Y0078331D02*
X0154390Y0078331D01*
X0153340Y0078331D02*
X0150134Y0078331D01*
X0151162Y0078929D02*
X0152312Y0078929D01*
X0156039Y0078331D02*
X0159246Y0078331D01*
X0158217Y0078929D02*
X0157068Y0078929D01*
X0161945Y0078331D02*
X0165151Y0078331D01*
X0164853Y0077732D02*
X0141905Y0077732D01*
X0144228Y0078331D02*
X0147435Y0078331D01*
X0146406Y0078929D02*
X0145257Y0078929D01*
X0139190Y0078464D02*
X0138001Y0077275D01*
X0136515Y0077275D01*
X0162973Y0078929D02*
X0164123Y0078929D01*
X0179167Y0072346D02*
X0187036Y0072346D01*
X0187634Y0072944D02*
X0179765Y0072944D01*
X0180364Y0073543D02*
X0188233Y0073543D01*
X0188831Y0074141D02*
X0180962Y0074141D01*
X0181561Y0074740D02*
X0189430Y0074740D01*
X0190028Y0075338D02*
X0182159Y0075338D01*
X0182758Y0075937D02*
X0190627Y0075937D01*
X0191225Y0076535D02*
X0183356Y0076535D01*
X0183955Y0077134D02*
X0191824Y0077134D01*
X0192422Y0077732D02*
X0184553Y0077732D01*
X0185152Y0078331D02*
X0192778Y0078331D01*
X0192906Y0078929D02*
X0185750Y0078929D01*
X0186349Y0079528D02*
X0193505Y0079528D01*
X0195493Y0079253D02*
X0248190Y0079253D01*
X0253690Y0073753D01*
X0256300Y0074740D02*
X0264890Y0074740D01*
X0264890Y0075338D02*
X0256049Y0075338D01*
X0255450Y0075937D02*
X0264890Y0075937D01*
X0264890Y0076535D02*
X0254260Y0076535D01*
X0252572Y0077134D02*
X0264890Y0077134D01*
X0264890Y0077732D02*
X0251973Y0077732D01*
X0251375Y0078331D02*
X0264890Y0078331D01*
X0264890Y0078929D02*
X0250776Y0078929D01*
X0250178Y0079528D02*
X0264890Y0079528D01*
X0264890Y0080126D02*
X0249579Y0080126D01*
X0248981Y0080725D02*
X0264890Y0080725D01*
X0264890Y0074141D02*
X0256479Y0074141D01*
X0256479Y0073543D02*
X0264890Y0073543D01*
X0264890Y0072944D02*
X0256374Y0072944D01*
X0256126Y0072346D02*
X0264890Y0072346D01*
X0264890Y0071747D02*
X0255628Y0071747D01*
X0255664Y0071149D02*
X0264890Y0071149D01*
X0264890Y0070550D02*
X0256490Y0070550D01*
X0256942Y0069952D02*
X0264890Y0069952D01*
X0264890Y0069353D02*
X0257190Y0069353D01*
X0257262Y0068755D02*
X0264890Y0068755D01*
X0264890Y0068156D02*
X0257262Y0068156D01*
X0257051Y0067557D02*
X0264890Y0067557D01*
X0264890Y0066959D02*
X0256754Y0066959D01*
X0256743Y0066360D02*
X0264890Y0066360D01*
X0264890Y0065762D02*
X0257046Y0065762D01*
X0257262Y0065163D02*
X0264890Y0065163D01*
X0264890Y0064565D02*
X0257262Y0064565D01*
X0257194Y0063966D02*
X0264890Y0063966D01*
X0264890Y0063368D02*
X0256946Y0063368D01*
X0256501Y0062769D02*
X0264890Y0062769D01*
X0264890Y0062171D02*
X0255690Y0062171D01*
X0255565Y0061572D02*
X0245584Y0061572D01*
X0245584Y0060974D02*
X0254967Y0060974D01*
X0254636Y0060375D02*
X0245584Y0060375D01*
X0245584Y0059777D02*
X0254401Y0059777D01*
X0254401Y0059178D02*
X0245584Y0059178D01*
X0245584Y0058580D02*
X0254254Y0058580D01*
X0253979Y0057981D02*
X0245584Y0057981D01*
X0245584Y0057383D02*
X0252251Y0057383D01*
X0251277Y0056784D02*
X0245584Y0056784D01*
X0245584Y0056186D02*
X0250765Y0056186D01*
X0250517Y0055587D02*
X0245584Y0055587D01*
X0245584Y0054989D02*
X0250401Y0054989D01*
X0250401Y0054390D02*
X0245584Y0054390D01*
X0245584Y0053792D02*
X0249966Y0053792D01*
X0249367Y0053193D02*
X0245584Y0053193D01*
X0245584Y0052595D02*
X0248769Y0052595D01*
X0248170Y0051996D02*
X0245584Y0051996D01*
X0245584Y0051398D02*
X0247572Y0051398D01*
X0246973Y0050799D02*
X0245584Y0050799D01*
X0245584Y0050201D02*
X0246375Y0050201D01*
X0245776Y0049602D02*
X0245584Y0049602D01*
X0245784Y0043969D02*
X0255579Y0053763D01*
X0259413Y0060974D02*
X0264890Y0060974D01*
X0264890Y0061572D02*
X0258814Y0061572D01*
X0253257Y0062171D02*
X0245584Y0062171D01*
X0245584Y0062769D02*
X0252445Y0062769D01*
X0252000Y0063368D02*
X0245584Y0063368D01*
X0245584Y0063966D02*
X0251752Y0063966D01*
X0251684Y0064565D02*
X0245584Y0064565D01*
X0245584Y0065163D02*
X0251684Y0065163D01*
X0251134Y0065762D02*
X0245584Y0065762D01*
X0245584Y0066360D02*
X0250536Y0066360D01*
X0249937Y0066959D02*
X0245584Y0066959D01*
X0245584Y0067557D02*
X0249339Y0067557D01*
X0248740Y0068156D02*
X0245584Y0068156D01*
X0245584Y0068755D02*
X0248142Y0068755D01*
X0247543Y0069353D02*
X0245584Y0069353D01*
X0245584Y0069952D02*
X0246945Y0069952D01*
X0246346Y0070550D02*
X0245584Y0070550D01*
X0245584Y0071149D02*
X0245748Y0071149D01*
X0244584Y0074575D02*
X0244584Y0076266D01*
X0244409Y0076441D01*
X0203237Y0076441D01*
X0187544Y0060749D01*
X0190160Y0059777D02*
X0192488Y0059777D01*
X0192315Y0060375D02*
X0190333Y0060375D01*
X0190333Y0060974D02*
X0192315Y0060974D01*
X0192426Y0061572D02*
X0190630Y0061572D01*
X0191229Y0062171D02*
X0192674Y0062171D01*
X0193180Y0062769D02*
X0191827Y0062769D01*
X0192426Y0063368D02*
X0194139Y0063368D01*
X0193024Y0063966D02*
X0224248Y0063966D01*
X0224248Y0063368D02*
X0200847Y0063368D01*
X0201806Y0062769D02*
X0224248Y0062769D01*
X0224248Y0062171D02*
X0202312Y0062171D01*
X0202560Y0061572D02*
X0224248Y0061572D01*
X0224248Y0060974D02*
X0202671Y0060974D01*
X0202671Y0060375D02*
X0224248Y0060375D01*
X0224248Y0059777D02*
X0202498Y0059777D01*
X0202250Y0059178D02*
X0224248Y0059178D01*
X0224248Y0058580D02*
X0201657Y0058580D01*
X0198107Y0058580D02*
X0196879Y0058580D01*
X0193329Y0058580D02*
X0189319Y0058580D01*
X0189912Y0059178D02*
X0192736Y0059178D01*
X0195104Y0060749D02*
X0199882Y0060749D01*
X0197958Y0062769D02*
X0197028Y0062769D01*
X0196069Y0063368D02*
X0198917Y0063368D01*
X0194820Y0065762D02*
X0224248Y0065762D01*
X0224248Y0066360D02*
X0195418Y0066360D01*
X0196017Y0066959D02*
X0224248Y0066959D01*
X0224248Y0067557D02*
X0196615Y0067557D01*
X0197214Y0068156D02*
X0224248Y0068156D01*
X0224248Y0068755D02*
X0197813Y0068755D01*
X0198411Y0069353D02*
X0224248Y0069353D01*
X0224248Y0069952D02*
X0199010Y0069952D01*
X0199608Y0070550D02*
X0224248Y0070550D01*
X0224248Y0071149D02*
X0200207Y0071149D01*
X0200805Y0071747D02*
X0224248Y0071747D01*
X0224248Y0072346D02*
X0201404Y0072346D01*
X0202002Y0072944D02*
X0224248Y0072944D01*
X0224248Y0073543D02*
X0202601Y0073543D01*
X0203199Y0074141D02*
X0224248Y0074141D01*
X0224248Y0074740D02*
X0203798Y0074740D01*
X0195578Y0073704D02*
X0195578Y0077641D01*
X0245455Y0077641D01*
X0254473Y0068623D01*
X0254473Y0064686D02*
X0244584Y0074575D01*
X0224248Y0065163D02*
X0194221Y0065163D01*
X0193623Y0064565D02*
X0224248Y0064565D01*
X0211076Y0052253D02*
X0171190Y0052253D01*
X0140179Y0057383D02*
X0138179Y0057383D01*
X0138179Y0056784D02*
X0139580Y0056784D01*
X0138982Y0056186D02*
X0138179Y0056186D01*
X0138179Y0055587D02*
X0138383Y0055587D01*
X0175576Y0068755D02*
X0184909Y0068755D01*
X0184909Y0069353D02*
X0176174Y0069353D01*
X0176773Y0069952D02*
X0184970Y0069952D01*
X0185218Y0070550D02*
X0177371Y0070550D01*
X0177970Y0071149D02*
X0185654Y0071149D01*
X0186437Y0071747D02*
X0178568Y0071747D01*
X0187544Y0065670D02*
X0195578Y0073704D01*
X0188752Y0081642D02*
X0191481Y0084371D01*
X0211076Y0052253D02*
X0224926Y0038402D01*
X0225921Y0038402D01*
X0244906Y0038402D01*
X0245784Y0039281D01*
X0245784Y0043969D01*
X0223033Y0034639D02*
X0131134Y0034639D01*
X0130649Y0035238D02*
X0222434Y0035238D01*
X0221836Y0035836D02*
X0129740Y0035836D01*
X0128053Y0036435D02*
X0221237Y0036435D01*
X0220639Y0037033D02*
X0127455Y0037033D01*
D16*
X0128690Y0033253D02*
X0109690Y0052253D01*
X0104690Y0052253D01*
X0109985Y0048150D02*
X0109985Y0039095D01*
X0105261Y0034371D01*
M02*
