G75*
%MOIN*%
%OFA0B0*%
%FSLAX25Y25*%
%IPPOS*%
%LPD*%
%AMOC8*
5,1,8,0,0,1.08239X$1,22.5*
%
%ADD10C,0.00100*%
%ADD11C,0.00300*%
%ADD12C,0.00200*%
%ADD13C,0.00600*%
%ADD14C,0.00800*%
%ADD15R,0.00591X0.01181*%
%ADD16R,0.01181X0.01181*%
%ADD17R,0.01181X0.00591*%
%ADD18C,0.00500*%
%ADD19C,0.00787*%
%ADD20C,0.00197*%
D10*
X0022640Y0030303D02*
X0022640Y0030719D01*
X0022642Y0030754D01*
X0022647Y0030788D01*
X0022656Y0030822D01*
X0022669Y0030854D01*
X0022685Y0030886D01*
X0022704Y0030915D01*
X0022726Y0030942D01*
X0022750Y0030966D01*
X0022777Y0030988D01*
X0022807Y0031007D01*
X0022838Y0031023D01*
X0022870Y0031036D01*
X0022904Y0031045D01*
X0022938Y0031050D01*
X0022973Y0031052D01*
X0023008Y0031050D01*
X0023042Y0031045D01*
X0023076Y0031036D01*
X0023108Y0031023D01*
X0023140Y0031007D01*
X0023169Y0030988D01*
X0023196Y0030966D01*
X0023220Y0030942D01*
X0023242Y0030915D01*
X0023261Y0030886D01*
X0023277Y0030854D01*
X0023290Y0030822D01*
X0023299Y0030788D01*
X0023304Y0030754D01*
X0023306Y0030719D01*
X0023306Y0030303D01*
X0023306Y0030719D02*
X0023308Y0030759D01*
X0023314Y0030798D01*
X0023323Y0030836D01*
X0023336Y0030874D01*
X0023352Y0030910D01*
X0023372Y0030944D01*
X0023395Y0030977D01*
X0023421Y0031007D01*
X0023450Y0031034D01*
X0023481Y0031059D01*
X0023515Y0031080D01*
X0023550Y0031098D01*
X0023587Y0031113D01*
X0023625Y0031124D01*
X0023664Y0031132D01*
X0023703Y0031136D01*
X0023743Y0031136D01*
X0023782Y0031132D01*
X0023821Y0031124D01*
X0023859Y0031113D01*
X0023896Y0031098D01*
X0023932Y0031080D01*
X0023965Y0031059D01*
X0023996Y0031034D01*
X0024025Y0031007D01*
X0024051Y0030977D01*
X0024074Y0030944D01*
X0024094Y0030910D01*
X0024110Y0030874D01*
X0024123Y0030836D01*
X0024132Y0030798D01*
X0024138Y0030759D01*
X0024140Y0030719D01*
X0024140Y0030303D01*
X0022640Y0030303D01*
X0022640Y0032092D02*
X0024140Y0031592D01*
X0023765Y0031717D02*
X0023765Y0032467D01*
X0024140Y0032592D02*
X0022640Y0032092D01*
X0022640Y0033020D02*
X0022640Y0033853D01*
X0022640Y0033436D02*
X0024140Y0033436D01*
X0023556Y0034376D02*
X0023556Y0035376D01*
X0040740Y0043303D02*
X0040740Y0044403D01*
X0041106Y0043792D01*
X0041473Y0044403D01*
X0041473Y0043303D01*
X0041956Y0043303D02*
X0042201Y0043303D01*
X0042078Y0043303D02*
X0042078Y0044403D01*
X0041956Y0044403D02*
X0042201Y0044403D01*
X0042634Y0044158D02*
X0042634Y0043547D01*
X0042636Y0043518D01*
X0042641Y0043489D01*
X0042650Y0043460D01*
X0042662Y0043434D01*
X0042677Y0043408D01*
X0042695Y0043385D01*
X0042716Y0043364D01*
X0042739Y0043346D01*
X0042765Y0043331D01*
X0042791Y0043319D01*
X0042820Y0043310D01*
X0042849Y0043305D01*
X0042878Y0043303D01*
X0043123Y0043303D01*
X0042634Y0044158D02*
X0042636Y0044187D01*
X0042641Y0044216D01*
X0042650Y0044245D01*
X0042662Y0044271D01*
X0042677Y0044297D01*
X0042695Y0044320D01*
X0042716Y0044341D01*
X0042739Y0044359D01*
X0042765Y0044374D01*
X0042791Y0044386D01*
X0042820Y0044395D01*
X0042849Y0044400D01*
X0042878Y0044402D01*
X0042878Y0044403D02*
X0043123Y0044403D01*
X0044041Y0044403D02*
X0044652Y0044403D01*
X0044346Y0044403D02*
X0044346Y0043303D01*
X0045101Y0043303D02*
X0045101Y0044403D01*
X0045407Y0044403D01*
X0045441Y0044401D01*
X0045475Y0044395D01*
X0045508Y0044386D01*
X0045540Y0044373D01*
X0045570Y0044356D01*
X0045598Y0044336D01*
X0045623Y0044313D01*
X0045646Y0044288D01*
X0045666Y0044260D01*
X0045683Y0044230D01*
X0045696Y0044198D01*
X0045705Y0044165D01*
X0045711Y0044131D01*
X0045713Y0044097D01*
X0045711Y0044063D01*
X0045705Y0044029D01*
X0045696Y0043996D01*
X0045683Y0043964D01*
X0045666Y0043934D01*
X0045646Y0043906D01*
X0045623Y0043881D01*
X0045598Y0043858D01*
X0045570Y0043838D01*
X0045540Y0043821D01*
X0045508Y0043808D01*
X0045475Y0043799D01*
X0045441Y0043793D01*
X0045407Y0043791D01*
X0045407Y0043792D02*
X0045101Y0043792D01*
X0033140Y0044303D02*
X0031640Y0044303D01*
X0031640Y0044719D01*
X0031639Y0044719D02*
X0031641Y0044759D01*
X0031647Y0044798D01*
X0031656Y0044836D01*
X0031669Y0044874D01*
X0031685Y0044910D01*
X0031705Y0044944D01*
X0031728Y0044977D01*
X0031754Y0045007D01*
X0031783Y0045034D01*
X0031814Y0045059D01*
X0031848Y0045080D01*
X0031883Y0045098D01*
X0031920Y0045113D01*
X0031958Y0045124D01*
X0031997Y0045132D01*
X0032036Y0045136D01*
X0032076Y0045136D01*
X0032115Y0045132D01*
X0032154Y0045124D01*
X0032192Y0045113D01*
X0032229Y0045098D01*
X0032265Y0045080D01*
X0032298Y0045059D01*
X0032329Y0045034D01*
X0032358Y0045007D01*
X0032384Y0044977D01*
X0032407Y0044944D01*
X0032427Y0044910D01*
X0032443Y0044874D01*
X0032456Y0044836D01*
X0032465Y0044798D01*
X0032471Y0044759D01*
X0032473Y0044719D01*
X0032473Y0044303D01*
X0032473Y0044803D02*
X0033140Y0045136D01*
X0033140Y0045734D02*
X0033140Y0046234D01*
X0033139Y0046234D02*
X0033137Y0046269D01*
X0033132Y0046303D01*
X0033123Y0046337D01*
X0033110Y0046369D01*
X0033094Y0046401D01*
X0033075Y0046430D01*
X0033053Y0046457D01*
X0033029Y0046481D01*
X0033002Y0046503D01*
X0032973Y0046522D01*
X0032941Y0046538D01*
X0032909Y0046551D01*
X0032875Y0046560D01*
X0032841Y0046565D01*
X0032806Y0046567D01*
X0032806Y0046568D02*
X0032640Y0046568D01*
X0032640Y0046567D02*
X0032605Y0046565D01*
X0032571Y0046560D01*
X0032537Y0046551D01*
X0032505Y0046538D01*
X0032474Y0046522D01*
X0032444Y0046503D01*
X0032417Y0046481D01*
X0032393Y0046457D01*
X0032371Y0046430D01*
X0032352Y0046401D01*
X0032336Y0046369D01*
X0032323Y0046337D01*
X0032314Y0046303D01*
X0032309Y0046269D01*
X0032307Y0046234D01*
X0032306Y0046234D02*
X0032306Y0045734D01*
X0031640Y0045734D01*
X0031640Y0046568D01*
X0025640Y0048636D02*
X0025640Y0048969D01*
X0025639Y0048636D02*
X0025637Y0048601D01*
X0025632Y0048567D01*
X0025623Y0048533D01*
X0025610Y0048501D01*
X0025594Y0048470D01*
X0025575Y0048440D01*
X0025553Y0048413D01*
X0025529Y0048389D01*
X0025502Y0048367D01*
X0025473Y0048348D01*
X0025441Y0048332D01*
X0025409Y0048319D01*
X0025375Y0048310D01*
X0025341Y0048305D01*
X0025306Y0048303D01*
X0024473Y0048303D01*
X0024438Y0048305D01*
X0024404Y0048310D01*
X0024370Y0048319D01*
X0024338Y0048332D01*
X0024307Y0048348D01*
X0024277Y0048367D01*
X0024250Y0048389D01*
X0024226Y0048413D01*
X0024204Y0048440D01*
X0024185Y0048469D01*
X0024169Y0048501D01*
X0024156Y0048533D01*
X0024147Y0048567D01*
X0024142Y0048601D01*
X0024140Y0048636D01*
X0024140Y0048969D01*
X0024140Y0049506D02*
X0024140Y0050006D01*
X0024142Y0050041D01*
X0024147Y0050075D01*
X0024156Y0050109D01*
X0024169Y0050141D01*
X0024185Y0050173D01*
X0024204Y0050202D01*
X0024226Y0050229D01*
X0024250Y0050253D01*
X0024277Y0050275D01*
X0024307Y0050294D01*
X0024338Y0050310D01*
X0024370Y0050323D01*
X0024404Y0050332D01*
X0024438Y0050337D01*
X0024473Y0050339D01*
X0024508Y0050337D01*
X0024542Y0050332D01*
X0024576Y0050323D01*
X0024608Y0050310D01*
X0024640Y0050294D01*
X0024669Y0050275D01*
X0024696Y0050253D01*
X0024720Y0050229D01*
X0024742Y0050202D01*
X0024761Y0050173D01*
X0024777Y0050141D01*
X0024790Y0050109D01*
X0024799Y0050075D01*
X0024804Y0050041D01*
X0024806Y0050006D01*
X0024806Y0049673D01*
X0024806Y0049923D02*
X0024808Y0049963D01*
X0024814Y0050002D01*
X0024823Y0050040D01*
X0024836Y0050078D01*
X0024852Y0050114D01*
X0024872Y0050148D01*
X0024895Y0050181D01*
X0024921Y0050211D01*
X0024950Y0050238D01*
X0024981Y0050263D01*
X0025015Y0050284D01*
X0025050Y0050302D01*
X0025087Y0050317D01*
X0025125Y0050328D01*
X0025164Y0050336D01*
X0025203Y0050340D01*
X0025243Y0050340D01*
X0025282Y0050336D01*
X0025321Y0050328D01*
X0025359Y0050317D01*
X0025396Y0050302D01*
X0025432Y0050284D01*
X0025465Y0050263D01*
X0025496Y0050238D01*
X0025525Y0050211D01*
X0025551Y0050181D01*
X0025574Y0050148D01*
X0025594Y0050114D01*
X0025610Y0050078D01*
X0025623Y0050040D01*
X0025632Y0050002D01*
X0025638Y0049963D01*
X0025640Y0049923D01*
X0025640Y0049506D01*
X0040140Y0049840D02*
X0041306Y0049506D01*
X0041306Y0050340D01*
X0040973Y0050090D02*
X0041640Y0050090D01*
X0041640Y0048969D02*
X0041640Y0048636D01*
X0041639Y0048636D02*
X0041637Y0048601D01*
X0041632Y0048567D01*
X0041623Y0048533D01*
X0041610Y0048501D01*
X0041594Y0048470D01*
X0041575Y0048440D01*
X0041553Y0048413D01*
X0041529Y0048389D01*
X0041502Y0048367D01*
X0041473Y0048348D01*
X0041441Y0048332D01*
X0041409Y0048319D01*
X0041375Y0048310D01*
X0041341Y0048305D01*
X0041306Y0048303D01*
X0040473Y0048303D01*
X0040438Y0048305D01*
X0040404Y0048310D01*
X0040370Y0048319D01*
X0040338Y0048332D01*
X0040307Y0048348D01*
X0040277Y0048367D01*
X0040250Y0048389D01*
X0040226Y0048413D01*
X0040204Y0048440D01*
X0040185Y0048469D01*
X0040169Y0048501D01*
X0040156Y0048533D01*
X0040147Y0048567D01*
X0040142Y0048601D01*
X0040140Y0048636D01*
X0040140Y0048969D01*
X0048140Y0048469D02*
X0048140Y0048136D01*
X0048142Y0048101D01*
X0048147Y0048067D01*
X0048156Y0048033D01*
X0048169Y0048001D01*
X0048185Y0047969D01*
X0048204Y0047940D01*
X0048226Y0047913D01*
X0048250Y0047889D01*
X0048277Y0047867D01*
X0048307Y0047848D01*
X0048338Y0047832D01*
X0048370Y0047819D01*
X0048404Y0047810D01*
X0048438Y0047805D01*
X0048473Y0047803D01*
X0049306Y0047803D01*
X0049341Y0047805D01*
X0049375Y0047810D01*
X0049409Y0047819D01*
X0049441Y0047832D01*
X0049473Y0047848D01*
X0049502Y0047867D01*
X0049529Y0047889D01*
X0049553Y0047913D01*
X0049575Y0047940D01*
X0049594Y0047970D01*
X0049610Y0048001D01*
X0049623Y0048033D01*
X0049632Y0048067D01*
X0049637Y0048101D01*
X0049639Y0048136D01*
X0049640Y0048136D02*
X0049640Y0048469D01*
X0049640Y0049006D02*
X0049640Y0049840D01*
X0049640Y0049006D02*
X0048806Y0049715D01*
X0048140Y0049465D02*
X0048142Y0049425D01*
X0048147Y0049385D01*
X0048155Y0049345D01*
X0048167Y0049306D01*
X0048182Y0049269D01*
X0048200Y0049233D01*
X0048221Y0049198D01*
X0048244Y0049165D01*
X0048271Y0049135D01*
X0048300Y0049107D01*
X0048331Y0049081D01*
X0048364Y0049058D01*
X0048399Y0049038D01*
X0048436Y0049020D01*
X0048474Y0049006D01*
X0048807Y0049715D02*
X0048781Y0049740D01*
X0048752Y0049763D01*
X0048722Y0049783D01*
X0048690Y0049800D01*
X0048657Y0049814D01*
X0048622Y0049825D01*
X0048587Y0049833D01*
X0048551Y0049838D01*
X0048515Y0049840D01*
X0048478Y0049838D01*
X0048442Y0049833D01*
X0048406Y0049824D01*
X0048371Y0049811D01*
X0048338Y0049796D01*
X0048307Y0049777D01*
X0048277Y0049755D01*
X0048250Y0049730D01*
X0048225Y0049703D01*
X0048203Y0049673D01*
X0048184Y0049642D01*
X0048169Y0049609D01*
X0048156Y0049574D01*
X0048147Y0049538D01*
X0048142Y0049502D01*
X0048140Y0049465D01*
X0055640Y0048219D02*
X0055640Y0047803D01*
X0057140Y0047803D01*
X0056473Y0047803D02*
X0056473Y0048219D01*
X0056473Y0048303D02*
X0057140Y0048636D01*
X0057140Y0049234D02*
X0057140Y0050068D01*
X0057140Y0049234D02*
X0056306Y0049943D01*
X0055640Y0049693D02*
X0055642Y0049653D01*
X0055647Y0049613D01*
X0055655Y0049573D01*
X0055667Y0049534D01*
X0055682Y0049497D01*
X0055700Y0049461D01*
X0055721Y0049426D01*
X0055744Y0049393D01*
X0055771Y0049363D01*
X0055800Y0049335D01*
X0055831Y0049309D01*
X0055864Y0049286D01*
X0055899Y0049266D01*
X0055936Y0049248D01*
X0055974Y0049234D01*
X0056307Y0049943D02*
X0056281Y0049968D01*
X0056252Y0049991D01*
X0056222Y0050011D01*
X0056190Y0050028D01*
X0056157Y0050042D01*
X0056122Y0050053D01*
X0056087Y0050061D01*
X0056051Y0050066D01*
X0056015Y0050068D01*
X0055978Y0050066D01*
X0055942Y0050061D01*
X0055906Y0050052D01*
X0055871Y0050039D01*
X0055838Y0050024D01*
X0055807Y0050005D01*
X0055777Y0049983D01*
X0055750Y0049958D01*
X0055725Y0049931D01*
X0055703Y0049901D01*
X0055684Y0049870D01*
X0055669Y0049837D01*
X0055656Y0049802D01*
X0055647Y0049766D01*
X0055642Y0049730D01*
X0055640Y0049693D01*
X0055639Y0048219D02*
X0055641Y0048259D01*
X0055647Y0048298D01*
X0055656Y0048336D01*
X0055669Y0048374D01*
X0055685Y0048410D01*
X0055705Y0048444D01*
X0055728Y0048477D01*
X0055754Y0048507D01*
X0055783Y0048534D01*
X0055814Y0048559D01*
X0055848Y0048580D01*
X0055883Y0048598D01*
X0055920Y0048613D01*
X0055958Y0048624D01*
X0055997Y0048632D01*
X0056036Y0048636D01*
X0056076Y0048636D01*
X0056115Y0048632D01*
X0056154Y0048624D01*
X0056192Y0048613D01*
X0056229Y0048598D01*
X0056265Y0048580D01*
X0056298Y0048559D01*
X0056329Y0048534D01*
X0056358Y0048507D01*
X0056384Y0048477D01*
X0056407Y0048444D01*
X0056427Y0048410D01*
X0056443Y0048374D01*
X0056456Y0048336D01*
X0056465Y0048298D01*
X0056471Y0048259D01*
X0056473Y0048219D01*
X0063640Y0048219D02*
X0063640Y0047803D01*
X0065140Y0047803D01*
X0064473Y0047803D02*
X0064473Y0048219D01*
X0064473Y0048303D02*
X0065140Y0048636D01*
X0065140Y0049234D02*
X0065140Y0050068D01*
X0065140Y0049651D02*
X0063640Y0049651D01*
X0063973Y0049234D01*
X0063639Y0048219D02*
X0063641Y0048259D01*
X0063647Y0048298D01*
X0063656Y0048336D01*
X0063669Y0048374D01*
X0063685Y0048410D01*
X0063705Y0048444D01*
X0063728Y0048477D01*
X0063754Y0048507D01*
X0063783Y0048534D01*
X0063814Y0048559D01*
X0063848Y0048580D01*
X0063883Y0048598D01*
X0063920Y0048613D01*
X0063958Y0048624D01*
X0063997Y0048632D01*
X0064036Y0048636D01*
X0064076Y0048636D01*
X0064115Y0048632D01*
X0064154Y0048624D01*
X0064192Y0048613D01*
X0064229Y0048598D01*
X0064265Y0048580D01*
X0064298Y0048559D01*
X0064329Y0048534D01*
X0064358Y0048507D01*
X0064384Y0048477D01*
X0064407Y0048444D01*
X0064427Y0048410D01*
X0064443Y0048374D01*
X0064456Y0048336D01*
X0064465Y0048298D01*
X0064471Y0048259D01*
X0064473Y0048219D01*
X0075640Y0048008D02*
X0076806Y0047674D01*
X0076806Y0048508D01*
X0076473Y0048258D02*
X0077140Y0048258D01*
X0077140Y0047068D02*
X0077140Y0046234D01*
X0077140Y0046651D02*
X0075640Y0046651D01*
X0075973Y0046234D01*
X0075639Y0045219D02*
X0075641Y0045259D01*
X0075647Y0045298D01*
X0075656Y0045336D01*
X0075669Y0045374D01*
X0075685Y0045410D01*
X0075705Y0045444D01*
X0075728Y0045477D01*
X0075754Y0045507D01*
X0075783Y0045534D01*
X0075814Y0045559D01*
X0075848Y0045580D01*
X0075883Y0045598D01*
X0075920Y0045613D01*
X0075958Y0045624D01*
X0075997Y0045632D01*
X0076036Y0045636D01*
X0076076Y0045636D01*
X0076115Y0045632D01*
X0076154Y0045624D01*
X0076192Y0045613D01*
X0076229Y0045598D01*
X0076265Y0045580D01*
X0076298Y0045559D01*
X0076329Y0045534D01*
X0076358Y0045507D01*
X0076384Y0045477D01*
X0076407Y0045444D01*
X0076427Y0045410D01*
X0076443Y0045374D01*
X0076456Y0045336D01*
X0076465Y0045298D01*
X0076471Y0045259D01*
X0076473Y0045219D01*
X0076473Y0044803D01*
X0076473Y0045303D02*
X0077140Y0045636D01*
X0077140Y0044803D02*
X0075640Y0044803D01*
X0075640Y0045219D01*
X0082640Y0045219D02*
X0082640Y0044803D01*
X0084140Y0044803D01*
X0083473Y0044803D02*
X0083473Y0045219D01*
X0083473Y0045303D02*
X0084140Y0045636D01*
X0084140Y0046234D02*
X0084140Y0047068D01*
X0084140Y0046651D02*
X0082640Y0046651D01*
X0082973Y0046234D01*
X0082639Y0045219D02*
X0082641Y0045259D01*
X0082647Y0045298D01*
X0082656Y0045336D01*
X0082669Y0045374D01*
X0082685Y0045410D01*
X0082705Y0045444D01*
X0082728Y0045477D01*
X0082754Y0045507D01*
X0082783Y0045534D01*
X0082814Y0045559D01*
X0082848Y0045580D01*
X0082883Y0045598D01*
X0082920Y0045613D01*
X0082958Y0045624D01*
X0082997Y0045632D01*
X0083036Y0045636D01*
X0083076Y0045636D01*
X0083115Y0045632D01*
X0083154Y0045624D01*
X0083192Y0045613D01*
X0083229Y0045598D01*
X0083265Y0045580D01*
X0083298Y0045559D01*
X0083329Y0045534D01*
X0083358Y0045507D01*
X0083384Y0045477D01*
X0083407Y0045444D01*
X0083427Y0045410D01*
X0083443Y0045374D01*
X0083456Y0045336D01*
X0083465Y0045298D01*
X0083471Y0045259D01*
X0083473Y0045219D01*
X0083306Y0047674D02*
X0082640Y0047674D01*
X0082640Y0048508D01*
X0083306Y0048174D02*
X0083306Y0047674D01*
X0083307Y0048174D02*
X0083309Y0048209D01*
X0083314Y0048243D01*
X0083323Y0048277D01*
X0083336Y0048309D01*
X0083352Y0048341D01*
X0083371Y0048370D01*
X0083393Y0048397D01*
X0083417Y0048421D01*
X0083444Y0048443D01*
X0083474Y0048462D01*
X0083505Y0048478D01*
X0083537Y0048491D01*
X0083571Y0048500D01*
X0083605Y0048505D01*
X0083640Y0048507D01*
X0083640Y0048508D02*
X0083806Y0048508D01*
X0083806Y0048507D02*
X0083841Y0048505D01*
X0083875Y0048500D01*
X0083909Y0048491D01*
X0083941Y0048478D01*
X0083973Y0048462D01*
X0084002Y0048443D01*
X0084029Y0048421D01*
X0084053Y0048397D01*
X0084075Y0048370D01*
X0084094Y0048341D01*
X0084110Y0048309D01*
X0084123Y0048277D01*
X0084132Y0048243D01*
X0084137Y0048209D01*
X0084139Y0048174D01*
X0084140Y0048174D02*
X0084140Y0047674D01*
X0093818Y0052119D02*
X0093818Y0053203D01*
X0094652Y0053203D02*
X0094652Y0052119D01*
X0094650Y0052079D01*
X0094644Y0052040D01*
X0094635Y0052002D01*
X0094622Y0051964D01*
X0094606Y0051928D01*
X0094586Y0051894D01*
X0094563Y0051861D01*
X0094537Y0051831D01*
X0094508Y0051804D01*
X0094477Y0051779D01*
X0094444Y0051758D01*
X0094408Y0051740D01*
X0094371Y0051725D01*
X0094333Y0051714D01*
X0094294Y0051706D01*
X0094255Y0051702D01*
X0094215Y0051702D01*
X0094176Y0051706D01*
X0094137Y0051714D01*
X0094099Y0051725D01*
X0094062Y0051740D01*
X0094027Y0051758D01*
X0093993Y0051779D01*
X0093962Y0051804D01*
X0093933Y0051831D01*
X0093907Y0051861D01*
X0093884Y0051894D01*
X0093864Y0051928D01*
X0093848Y0051964D01*
X0093835Y0052002D01*
X0093826Y0052040D01*
X0093820Y0052079D01*
X0093818Y0052119D01*
X0095306Y0051703D02*
X0095723Y0051703D01*
X0095723Y0051702D02*
X0095763Y0051704D01*
X0095802Y0051710D01*
X0095840Y0051719D01*
X0095878Y0051732D01*
X0095914Y0051748D01*
X0095948Y0051768D01*
X0095981Y0051791D01*
X0096011Y0051817D01*
X0096038Y0051846D01*
X0096063Y0051877D01*
X0096084Y0051911D01*
X0096102Y0051946D01*
X0096117Y0051983D01*
X0096128Y0052021D01*
X0096136Y0052060D01*
X0096140Y0052099D01*
X0096140Y0052139D01*
X0096136Y0052178D01*
X0096128Y0052217D01*
X0096117Y0052255D01*
X0096102Y0052292D01*
X0096084Y0052328D01*
X0096063Y0052361D01*
X0096038Y0052392D01*
X0096011Y0052421D01*
X0095981Y0052447D01*
X0095948Y0052470D01*
X0095914Y0052490D01*
X0095878Y0052506D01*
X0095840Y0052519D01*
X0095802Y0052528D01*
X0095763Y0052534D01*
X0095723Y0052536D01*
X0095806Y0052536D02*
X0095473Y0052536D01*
X0095806Y0052536D02*
X0095841Y0052538D01*
X0095875Y0052543D01*
X0095909Y0052552D01*
X0095941Y0052565D01*
X0095973Y0052581D01*
X0096002Y0052600D01*
X0096029Y0052622D01*
X0096053Y0052646D01*
X0096075Y0052673D01*
X0096094Y0052703D01*
X0096110Y0052734D01*
X0096123Y0052766D01*
X0096132Y0052800D01*
X0096137Y0052834D01*
X0096139Y0052869D01*
X0096137Y0052904D01*
X0096132Y0052938D01*
X0096123Y0052972D01*
X0096110Y0053004D01*
X0096094Y0053036D01*
X0096075Y0053065D01*
X0096053Y0053092D01*
X0096029Y0053116D01*
X0096002Y0053138D01*
X0095973Y0053157D01*
X0095941Y0053173D01*
X0095909Y0053186D01*
X0095875Y0053195D01*
X0095841Y0053200D01*
X0095806Y0053202D01*
X0095806Y0053203D02*
X0095306Y0053203D01*
X0109140Y0053136D02*
X0109140Y0053636D01*
X0109140Y0053136D02*
X0109142Y0053101D01*
X0109147Y0053067D01*
X0109156Y0053033D01*
X0109169Y0053001D01*
X0109185Y0052969D01*
X0109204Y0052940D01*
X0109226Y0052913D01*
X0109250Y0052889D01*
X0109277Y0052867D01*
X0109307Y0052848D01*
X0109338Y0052832D01*
X0109370Y0052819D01*
X0109404Y0052810D01*
X0109438Y0052805D01*
X0109473Y0052803D01*
X0110306Y0052803D01*
X0110341Y0052805D01*
X0110375Y0052810D01*
X0110409Y0052819D01*
X0110441Y0052832D01*
X0110473Y0052848D01*
X0110502Y0052867D01*
X0110529Y0052889D01*
X0110553Y0052913D01*
X0110575Y0052940D01*
X0110594Y0052970D01*
X0110610Y0053001D01*
X0110623Y0053033D01*
X0110632Y0053067D01*
X0110637Y0053101D01*
X0110639Y0053136D01*
X0110640Y0053136D02*
X0110640Y0053636D01*
X0109806Y0053636D01*
X0109806Y0053386D01*
X0109140Y0054339D02*
X0110640Y0055172D01*
X0109140Y0055172D01*
X0109140Y0055875D02*
X0109140Y0056291D01*
X0109140Y0055875D02*
X0110640Y0055875D01*
X0110640Y0056291D01*
X0110638Y0056329D01*
X0110633Y0056368D01*
X0110624Y0056405D01*
X0110612Y0056442D01*
X0110596Y0056477D01*
X0110578Y0056511D01*
X0110556Y0056542D01*
X0110531Y0056572D01*
X0110504Y0056599D01*
X0110474Y0056624D01*
X0110443Y0056646D01*
X0110409Y0056664D01*
X0110374Y0056680D01*
X0110337Y0056692D01*
X0110300Y0056701D01*
X0110261Y0056706D01*
X0110223Y0056708D01*
X0109556Y0056708D01*
X0109518Y0056706D01*
X0109479Y0056701D01*
X0109442Y0056692D01*
X0109405Y0056680D01*
X0109370Y0056664D01*
X0109336Y0056646D01*
X0109305Y0056624D01*
X0109275Y0056599D01*
X0109248Y0056572D01*
X0109223Y0056542D01*
X0109201Y0056511D01*
X0109183Y0056477D01*
X0109167Y0056442D01*
X0109155Y0056405D01*
X0109146Y0056368D01*
X0109141Y0056329D01*
X0109139Y0056291D01*
X0109140Y0054339D02*
X0110640Y0054339D01*
X0101640Y0061136D02*
X0101640Y0061469D01*
X0101639Y0061136D02*
X0101637Y0061101D01*
X0101632Y0061067D01*
X0101623Y0061033D01*
X0101610Y0061001D01*
X0101594Y0060970D01*
X0101575Y0060940D01*
X0101553Y0060913D01*
X0101529Y0060889D01*
X0101502Y0060867D01*
X0101473Y0060848D01*
X0101441Y0060832D01*
X0101409Y0060819D01*
X0101375Y0060810D01*
X0101341Y0060805D01*
X0101306Y0060803D01*
X0100473Y0060803D01*
X0100438Y0060805D01*
X0100404Y0060810D01*
X0100370Y0060819D01*
X0100338Y0060832D01*
X0100307Y0060848D01*
X0100277Y0060867D01*
X0100250Y0060889D01*
X0100226Y0060913D01*
X0100204Y0060940D01*
X0100185Y0060969D01*
X0100169Y0061001D01*
X0100156Y0061033D01*
X0100147Y0061067D01*
X0100142Y0061101D01*
X0100140Y0061136D01*
X0100140Y0061469D01*
X0100556Y0062006D02*
X0100640Y0062006D01*
X0100640Y0062007D02*
X0100675Y0062009D01*
X0100709Y0062014D01*
X0100743Y0062023D01*
X0100775Y0062036D01*
X0100806Y0062052D01*
X0100836Y0062071D01*
X0100863Y0062093D01*
X0100887Y0062117D01*
X0100909Y0062144D01*
X0100928Y0062173D01*
X0100944Y0062205D01*
X0100957Y0062237D01*
X0100966Y0062271D01*
X0100971Y0062305D01*
X0100973Y0062340D01*
X0100973Y0062840D01*
X0100556Y0062840D01*
X0100516Y0062838D01*
X0100477Y0062832D01*
X0100439Y0062823D01*
X0100401Y0062810D01*
X0100365Y0062794D01*
X0100331Y0062774D01*
X0100298Y0062751D01*
X0100268Y0062725D01*
X0100241Y0062696D01*
X0100216Y0062665D01*
X0100195Y0062632D01*
X0100177Y0062596D01*
X0100162Y0062559D01*
X0100151Y0062521D01*
X0100143Y0062482D01*
X0100139Y0062443D01*
X0100139Y0062403D01*
X0100143Y0062364D01*
X0100151Y0062325D01*
X0100162Y0062287D01*
X0100177Y0062250D01*
X0100195Y0062215D01*
X0100216Y0062181D01*
X0100241Y0062150D01*
X0100268Y0062121D01*
X0100298Y0062095D01*
X0100331Y0062072D01*
X0100365Y0062052D01*
X0100401Y0062036D01*
X0100439Y0062023D01*
X0100477Y0062014D01*
X0100516Y0062008D01*
X0100556Y0062006D01*
X0100973Y0062840D02*
X0101023Y0062838D01*
X0101072Y0062833D01*
X0101121Y0062823D01*
X0101170Y0062810D01*
X0101217Y0062794D01*
X0101262Y0062774D01*
X0101307Y0062751D01*
X0101349Y0062724D01*
X0101389Y0062694D01*
X0101427Y0062662D01*
X0101462Y0062627D01*
X0101494Y0062589D01*
X0101524Y0062549D01*
X0101551Y0062507D01*
X0101574Y0062462D01*
X0101594Y0062417D01*
X0101610Y0062370D01*
X0101623Y0062321D01*
X0101633Y0062272D01*
X0101638Y0062223D01*
X0101640Y0062173D01*
X0094140Y0061469D02*
X0094140Y0061136D01*
X0094139Y0061136D02*
X0094137Y0061101D01*
X0094132Y0061067D01*
X0094123Y0061033D01*
X0094110Y0061001D01*
X0094094Y0060970D01*
X0094075Y0060940D01*
X0094053Y0060913D01*
X0094029Y0060889D01*
X0094002Y0060867D01*
X0093973Y0060848D01*
X0093941Y0060832D01*
X0093909Y0060819D01*
X0093875Y0060810D01*
X0093841Y0060805D01*
X0093806Y0060803D01*
X0092973Y0060803D01*
X0092938Y0060805D01*
X0092904Y0060810D01*
X0092870Y0060819D01*
X0092838Y0060832D01*
X0092807Y0060848D01*
X0092777Y0060867D01*
X0092750Y0060889D01*
X0092726Y0060913D01*
X0092704Y0060940D01*
X0092685Y0060969D01*
X0092669Y0061001D01*
X0092656Y0061033D01*
X0092647Y0061067D01*
X0092642Y0061101D01*
X0092640Y0061136D01*
X0092640Y0061469D01*
X0092973Y0062090D02*
X0093008Y0062092D01*
X0093042Y0062097D01*
X0093076Y0062106D01*
X0093108Y0062119D01*
X0093140Y0062135D01*
X0093169Y0062154D01*
X0093196Y0062176D01*
X0093220Y0062200D01*
X0093242Y0062227D01*
X0093261Y0062257D01*
X0093277Y0062288D01*
X0093290Y0062320D01*
X0093299Y0062354D01*
X0093304Y0062388D01*
X0093306Y0062423D01*
X0093304Y0062458D01*
X0093299Y0062492D01*
X0093290Y0062526D01*
X0093277Y0062558D01*
X0093261Y0062590D01*
X0093242Y0062619D01*
X0093220Y0062646D01*
X0093196Y0062670D01*
X0093169Y0062692D01*
X0093140Y0062711D01*
X0093108Y0062727D01*
X0093076Y0062740D01*
X0093042Y0062749D01*
X0093008Y0062754D01*
X0092973Y0062756D01*
X0092938Y0062754D01*
X0092904Y0062749D01*
X0092870Y0062740D01*
X0092838Y0062727D01*
X0092807Y0062711D01*
X0092777Y0062692D01*
X0092750Y0062670D01*
X0092726Y0062646D01*
X0092704Y0062619D01*
X0092685Y0062590D01*
X0092669Y0062558D01*
X0092656Y0062526D01*
X0092647Y0062492D01*
X0092642Y0062458D01*
X0092640Y0062423D01*
X0092642Y0062388D01*
X0092647Y0062354D01*
X0092656Y0062320D01*
X0092669Y0062288D01*
X0092685Y0062257D01*
X0092704Y0062227D01*
X0092726Y0062200D01*
X0092750Y0062176D01*
X0092777Y0062154D01*
X0092807Y0062135D01*
X0092838Y0062119D01*
X0092870Y0062106D01*
X0092904Y0062097D01*
X0092938Y0062092D01*
X0092973Y0062090D01*
X0093723Y0062006D02*
X0093763Y0062008D01*
X0093802Y0062014D01*
X0093840Y0062023D01*
X0093878Y0062036D01*
X0093914Y0062052D01*
X0093948Y0062072D01*
X0093981Y0062095D01*
X0094011Y0062121D01*
X0094038Y0062150D01*
X0094063Y0062181D01*
X0094084Y0062215D01*
X0094102Y0062250D01*
X0094117Y0062287D01*
X0094128Y0062325D01*
X0094136Y0062364D01*
X0094140Y0062403D01*
X0094140Y0062443D01*
X0094136Y0062482D01*
X0094128Y0062521D01*
X0094117Y0062559D01*
X0094102Y0062596D01*
X0094084Y0062632D01*
X0094063Y0062665D01*
X0094038Y0062696D01*
X0094011Y0062725D01*
X0093981Y0062751D01*
X0093948Y0062774D01*
X0093914Y0062794D01*
X0093878Y0062810D01*
X0093840Y0062823D01*
X0093802Y0062832D01*
X0093763Y0062838D01*
X0093723Y0062840D01*
X0093683Y0062838D01*
X0093644Y0062832D01*
X0093606Y0062823D01*
X0093568Y0062810D01*
X0093532Y0062794D01*
X0093498Y0062774D01*
X0093465Y0062751D01*
X0093435Y0062725D01*
X0093408Y0062696D01*
X0093383Y0062665D01*
X0093362Y0062632D01*
X0093344Y0062596D01*
X0093329Y0062559D01*
X0093318Y0062521D01*
X0093310Y0062482D01*
X0093306Y0062443D01*
X0093306Y0062403D01*
X0093310Y0062364D01*
X0093318Y0062325D01*
X0093329Y0062287D01*
X0093344Y0062250D01*
X0093362Y0062215D01*
X0093383Y0062181D01*
X0093408Y0062150D01*
X0093435Y0062121D01*
X0093465Y0062095D01*
X0093498Y0062072D01*
X0093532Y0062052D01*
X0093568Y0062036D01*
X0093606Y0062023D01*
X0093644Y0062014D01*
X0093683Y0062008D01*
X0093723Y0062006D01*
X0108640Y0063803D02*
X0108640Y0064219D01*
X0108640Y0063803D02*
X0110140Y0063803D01*
X0109473Y0063803D02*
X0109473Y0064219D01*
X0109473Y0064303D02*
X0110140Y0064636D01*
X0110140Y0065234D02*
X0110140Y0066068D01*
X0110140Y0065651D02*
X0108640Y0065651D01*
X0108973Y0065234D01*
X0108639Y0064219D02*
X0108641Y0064259D01*
X0108647Y0064298D01*
X0108656Y0064336D01*
X0108669Y0064374D01*
X0108685Y0064410D01*
X0108705Y0064444D01*
X0108728Y0064477D01*
X0108754Y0064507D01*
X0108783Y0064534D01*
X0108814Y0064559D01*
X0108848Y0064580D01*
X0108883Y0064598D01*
X0108920Y0064613D01*
X0108958Y0064624D01*
X0108997Y0064632D01*
X0109036Y0064636D01*
X0109076Y0064636D01*
X0109115Y0064632D01*
X0109154Y0064624D01*
X0109192Y0064613D01*
X0109229Y0064598D01*
X0109265Y0064580D01*
X0109298Y0064559D01*
X0109329Y0064534D01*
X0109358Y0064507D01*
X0109384Y0064477D01*
X0109407Y0064444D01*
X0109427Y0064410D01*
X0109443Y0064374D01*
X0109456Y0064336D01*
X0109465Y0064298D01*
X0109471Y0064259D01*
X0109473Y0064219D01*
X0108806Y0066674D02*
X0108640Y0066674D01*
X0108640Y0067508D01*
X0110140Y0067091D01*
X0086175Y0068803D02*
X0085342Y0068803D01*
X0086050Y0069636D01*
X0085800Y0070303D02*
X0085760Y0070301D01*
X0085720Y0070296D01*
X0085680Y0070288D01*
X0085641Y0070276D01*
X0085604Y0070261D01*
X0085568Y0070243D01*
X0085533Y0070222D01*
X0085500Y0070199D01*
X0085470Y0070172D01*
X0085442Y0070143D01*
X0085416Y0070112D01*
X0085393Y0070079D01*
X0085373Y0070044D01*
X0085355Y0070007D01*
X0085341Y0069969D01*
X0086050Y0069636D02*
X0086075Y0069662D01*
X0086098Y0069691D01*
X0086118Y0069721D01*
X0086135Y0069753D01*
X0086149Y0069786D01*
X0086160Y0069821D01*
X0086168Y0069856D01*
X0086173Y0069892D01*
X0086175Y0069928D01*
X0086173Y0069965D01*
X0086168Y0070001D01*
X0086159Y0070037D01*
X0086146Y0070072D01*
X0086131Y0070105D01*
X0086112Y0070136D01*
X0086090Y0070166D01*
X0086065Y0070193D01*
X0086038Y0070218D01*
X0086008Y0070240D01*
X0085977Y0070259D01*
X0085944Y0070274D01*
X0085909Y0070287D01*
X0085873Y0070296D01*
X0085837Y0070301D01*
X0085800Y0070303D01*
X0084805Y0070303D02*
X0084471Y0070303D01*
X0084471Y0070302D02*
X0084436Y0070300D01*
X0084402Y0070295D01*
X0084368Y0070286D01*
X0084336Y0070273D01*
X0084304Y0070257D01*
X0084275Y0070238D01*
X0084248Y0070216D01*
X0084224Y0070192D01*
X0084202Y0070165D01*
X0084183Y0070135D01*
X0084167Y0070104D01*
X0084154Y0070072D01*
X0084145Y0070038D01*
X0084140Y0070004D01*
X0084138Y0069969D01*
X0084138Y0069136D01*
X0084140Y0069101D01*
X0084145Y0069067D01*
X0084154Y0069033D01*
X0084167Y0069001D01*
X0084183Y0068970D01*
X0084202Y0068940D01*
X0084224Y0068913D01*
X0084248Y0068889D01*
X0084275Y0068867D01*
X0084305Y0068848D01*
X0084336Y0068832D01*
X0084368Y0068819D01*
X0084402Y0068810D01*
X0084436Y0068805D01*
X0084471Y0068803D01*
X0084805Y0068803D01*
X0083573Y0068803D02*
X0083240Y0068803D01*
X0083406Y0068803D02*
X0083406Y0070303D01*
X0083240Y0070303D02*
X0083573Y0070303D01*
X0069884Y0066553D02*
X0069886Y0066491D01*
X0069890Y0066429D01*
X0069898Y0066367D01*
X0069909Y0066306D01*
X0069923Y0066245D01*
X0069940Y0066185D01*
X0069960Y0066126D01*
X0069983Y0066068D01*
X0070009Y0066011D01*
X0069967Y0066136D02*
X0070633Y0066969D01*
X0070591Y0067094D02*
X0070579Y0067123D01*
X0070565Y0067152D01*
X0070547Y0067178D01*
X0070527Y0067203D01*
X0070504Y0067225D01*
X0070479Y0067245D01*
X0070452Y0067262D01*
X0070424Y0067276D01*
X0070394Y0067287D01*
X0070363Y0067295D01*
X0070332Y0067300D01*
X0070300Y0067302D01*
X0070268Y0067300D01*
X0070237Y0067295D01*
X0070206Y0067287D01*
X0070176Y0067276D01*
X0070148Y0067262D01*
X0070121Y0067245D01*
X0070096Y0067225D01*
X0070073Y0067203D01*
X0070053Y0067178D01*
X0070035Y0067152D01*
X0070021Y0067123D01*
X0070009Y0067094D01*
X0070592Y0067095D02*
X0070618Y0067038D01*
X0070641Y0066980D01*
X0070661Y0066921D01*
X0070678Y0066861D01*
X0070692Y0066800D01*
X0070703Y0066739D01*
X0070711Y0066677D01*
X0070715Y0066615D01*
X0070717Y0066553D01*
X0069884Y0066553D02*
X0069886Y0066615D01*
X0069890Y0066677D01*
X0069898Y0066739D01*
X0069909Y0066800D01*
X0069923Y0066861D01*
X0069940Y0066921D01*
X0069960Y0066980D01*
X0069983Y0067038D01*
X0070009Y0067095D01*
X0070717Y0066553D02*
X0070715Y0066491D01*
X0070711Y0066429D01*
X0070703Y0066367D01*
X0070692Y0066306D01*
X0070678Y0066245D01*
X0070661Y0066185D01*
X0070641Y0066126D01*
X0070618Y0066068D01*
X0070592Y0066011D01*
X0070300Y0065803D02*
X0070268Y0065805D01*
X0070237Y0065810D01*
X0070206Y0065818D01*
X0070176Y0065829D01*
X0070148Y0065843D01*
X0070121Y0065860D01*
X0070096Y0065880D01*
X0070073Y0065902D01*
X0070053Y0065927D01*
X0070035Y0065953D01*
X0070021Y0065982D01*
X0070009Y0066011D01*
X0070300Y0065803D02*
X0070332Y0065805D01*
X0070363Y0065810D01*
X0070394Y0065818D01*
X0070424Y0065829D01*
X0070452Y0065843D01*
X0070479Y0065860D01*
X0070504Y0065880D01*
X0070527Y0065902D01*
X0070547Y0065927D01*
X0070565Y0065953D01*
X0070579Y0065982D01*
X0070591Y0066011D01*
X0069277Y0065803D02*
X0068443Y0065803D01*
X0068860Y0065803D02*
X0068860Y0067303D01*
X0068443Y0066969D01*
X0067906Y0067303D02*
X0067573Y0067303D01*
X0067573Y0067302D02*
X0067538Y0067300D01*
X0067504Y0067295D01*
X0067470Y0067286D01*
X0067438Y0067273D01*
X0067406Y0067257D01*
X0067377Y0067238D01*
X0067350Y0067216D01*
X0067326Y0067192D01*
X0067304Y0067165D01*
X0067285Y0067135D01*
X0067269Y0067104D01*
X0067256Y0067072D01*
X0067247Y0067038D01*
X0067242Y0067004D01*
X0067240Y0066969D01*
X0067240Y0066136D01*
X0067242Y0066101D01*
X0067247Y0066067D01*
X0067256Y0066033D01*
X0067269Y0066001D01*
X0067285Y0065970D01*
X0067304Y0065940D01*
X0067326Y0065913D01*
X0067350Y0065889D01*
X0067377Y0065867D01*
X0067407Y0065848D01*
X0067438Y0065832D01*
X0067470Y0065819D01*
X0067504Y0065810D01*
X0067538Y0065805D01*
X0067573Y0065803D01*
X0067906Y0065803D01*
X0038140Y0063124D02*
X0038140Y0062291D01*
X0038140Y0062707D02*
X0036640Y0062707D01*
X0036973Y0062291D01*
X0036640Y0061636D02*
X0037723Y0061636D01*
X0037763Y0061634D01*
X0037802Y0061628D01*
X0037840Y0061619D01*
X0037878Y0061606D01*
X0037914Y0061590D01*
X0037948Y0061570D01*
X0037981Y0061547D01*
X0038011Y0061521D01*
X0038038Y0061492D01*
X0038063Y0061461D01*
X0038084Y0061428D01*
X0038102Y0061392D01*
X0038117Y0061355D01*
X0038128Y0061317D01*
X0038136Y0061278D01*
X0038140Y0061239D01*
X0038140Y0061199D01*
X0038136Y0061160D01*
X0038128Y0061121D01*
X0038117Y0061083D01*
X0038102Y0061046D01*
X0038084Y0061011D01*
X0038063Y0060977D01*
X0038038Y0060946D01*
X0038011Y0060917D01*
X0037981Y0060891D01*
X0037948Y0060868D01*
X0037914Y0060848D01*
X0037878Y0060832D01*
X0037840Y0060819D01*
X0037802Y0060810D01*
X0037763Y0060804D01*
X0037723Y0060802D01*
X0037723Y0060803D02*
X0036640Y0060803D01*
X0024640Y0078303D02*
X0023140Y0078303D01*
X0023140Y0078719D01*
X0023139Y0078719D02*
X0023141Y0078759D01*
X0023147Y0078798D01*
X0023156Y0078836D01*
X0023169Y0078874D01*
X0023185Y0078910D01*
X0023205Y0078944D01*
X0023228Y0078977D01*
X0023254Y0079007D01*
X0023283Y0079034D01*
X0023314Y0079059D01*
X0023348Y0079080D01*
X0023383Y0079098D01*
X0023420Y0079113D01*
X0023458Y0079124D01*
X0023497Y0079132D01*
X0023536Y0079136D01*
X0023576Y0079136D01*
X0023615Y0079132D01*
X0023654Y0079124D01*
X0023692Y0079113D01*
X0023729Y0079098D01*
X0023765Y0079080D01*
X0023798Y0079059D01*
X0023829Y0079034D01*
X0023858Y0079007D01*
X0023884Y0078977D01*
X0023907Y0078944D01*
X0023927Y0078910D01*
X0023943Y0078874D01*
X0023956Y0078836D01*
X0023965Y0078798D01*
X0023971Y0078759D01*
X0023973Y0078719D01*
X0023973Y0078303D01*
X0023973Y0078803D02*
X0024640Y0079136D01*
X0024223Y0079734D02*
X0023806Y0079734D01*
X0023806Y0080234D01*
X0023806Y0079734D02*
X0023756Y0079736D01*
X0023707Y0079741D01*
X0023658Y0079751D01*
X0023609Y0079764D01*
X0023562Y0079780D01*
X0023517Y0079800D01*
X0023473Y0079823D01*
X0023430Y0079850D01*
X0023390Y0079880D01*
X0023352Y0079912D01*
X0023317Y0079947D01*
X0023285Y0079985D01*
X0023255Y0080025D01*
X0023228Y0080067D01*
X0023205Y0080112D01*
X0023185Y0080157D01*
X0023169Y0080204D01*
X0023156Y0080253D01*
X0023146Y0080302D01*
X0023141Y0080351D01*
X0023139Y0080401D01*
X0023807Y0080234D02*
X0023809Y0080269D01*
X0023814Y0080303D01*
X0023823Y0080337D01*
X0023836Y0080369D01*
X0023852Y0080401D01*
X0023871Y0080430D01*
X0023893Y0080457D01*
X0023917Y0080481D01*
X0023944Y0080503D01*
X0023974Y0080522D01*
X0024005Y0080538D01*
X0024037Y0080551D01*
X0024071Y0080560D01*
X0024105Y0080565D01*
X0024140Y0080567D01*
X0024140Y0080568D02*
X0024223Y0080568D01*
X0024263Y0080566D01*
X0024302Y0080560D01*
X0024340Y0080551D01*
X0024378Y0080538D01*
X0024414Y0080522D01*
X0024448Y0080502D01*
X0024481Y0080479D01*
X0024511Y0080453D01*
X0024538Y0080424D01*
X0024563Y0080393D01*
X0024584Y0080360D01*
X0024602Y0080324D01*
X0024617Y0080287D01*
X0024628Y0080249D01*
X0024636Y0080210D01*
X0024640Y0080171D01*
X0024640Y0080131D01*
X0024636Y0080092D01*
X0024628Y0080053D01*
X0024617Y0080015D01*
X0024602Y0079978D01*
X0024584Y0079943D01*
X0024563Y0079909D01*
X0024538Y0079878D01*
X0024511Y0079849D01*
X0024481Y0079823D01*
X0024448Y0079800D01*
X0024414Y0079780D01*
X0024378Y0079764D01*
X0024340Y0079751D01*
X0024302Y0079742D01*
X0024263Y0079736D01*
X0024223Y0079734D01*
X0074240Y0091803D02*
X0074906Y0091803D01*
X0075488Y0091803D02*
X0075488Y0093303D01*
X0076154Y0093303D01*
X0076733Y0093303D02*
X0077150Y0093303D01*
X0076733Y0093303D02*
X0076733Y0091803D01*
X0077150Y0091803D01*
X0077150Y0091802D02*
X0077188Y0091804D01*
X0077227Y0091809D01*
X0077264Y0091818D01*
X0077301Y0091830D01*
X0077336Y0091846D01*
X0077370Y0091864D01*
X0077401Y0091886D01*
X0077431Y0091911D01*
X0077458Y0091938D01*
X0077483Y0091968D01*
X0077505Y0091999D01*
X0077523Y0092033D01*
X0077539Y0092068D01*
X0077551Y0092105D01*
X0077560Y0092142D01*
X0077565Y0092181D01*
X0077567Y0092219D01*
X0077567Y0092886D01*
X0077565Y0092924D01*
X0077560Y0092963D01*
X0077551Y0093000D01*
X0077539Y0093037D01*
X0077523Y0093072D01*
X0077505Y0093106D01*
X0077483Y0093137D01*
X0077458Y0093167D01*
X0077431Y0093194D01*
X0077401Y0093219D01*
X0077370Y0093241D01*
X0077336Y0093259D01*
X0077301Y0093275D01*
X0077264Y0093287D01*
X0077227Y0093296D01*
X0077188Y0093301D01*
X0077150Y0093303D01*
X0078221Y0092969D02*
X0078638Y0093303D01*
X0078638Y0091803D01*
X0078221Y0091803D02*
X0079055Y0091803D01*
X0076154Y0091803D02*
X0075488Y0091803D01*
X0075488Y0092636D02*
X0075988Y0092636D01*
X0074240Y0093303D02*
X0074240Y0091803D01*
X0115640Y0092284D02*
X0115640Y0092784D01*
X0115642Y0092819D01*
X0115647Y0092853D01*
X0115656Y0092887D01*
X0115669Y0092919D01*
X0115685Y0092951D01*
X0115704Y0092980D01*
X0115726Y0093007D01*
X0115750Y0093031D01*
X0115777Y0093053D01*
X0115807Y0093072D01*
X0115838Y0093088D01*
X0115870Y0093101D01*
X0115904Y0093110D01*
X0115938Y0093115D01*
X0115973Y0093117D01*
X0116008Y0093115D01*
X0116042Y0093110D01*
X0116076Y0093101D01*
X0116108Y0093088D01*
X0116140Y0093072D01*
X0116169Y0093053D01*
X0116196Y0093031D01*
X0116220Y0093007D01*
X0116242Y0092980D01*
X0116261Y0092951D01*
X0116277Y0092919D01*
X0116290Y0092887D01*
X0116299Y0092853D01*
X0116304Y0092819D01*
X0116306Y0092784D01*
X0116306Y0092451D01*
X0116306Y0092701D02*
X0116308Y0092741D01*
X0116314Y0092780D01*
X0116323Y0092818D01*
X0116336Y0092856D01*
X0116352Y0092892D01*
X0116372Y0092926D01*
X0116395Y0092959D01*
X0116421Y0092989D01*
X0116450Y0093016D01*
X0116481Y0093041D01*
X0116515Y0093062D01*
X0116550Y0093080D01*
X0116587Y0093095D01*
X0116625Y0093106D01*
X0116664Y0093114D01*
X0116703Y0093118D01*
X0116743Y0093118D01*
X0116782Y0093114D01*
X0116821Y0093106D01*
X0116859Y0093095D01*
X0116896Y0093080D01*
X0116932Y0093062D01*
X0116965Y0093041D01*
X0116996Y0093016D01*
X0117025Y0092989D01*
X0117051Y0092959D01*
X0117074Y0092926D01*
X0117094Y0092892D01*
X0117110Y0092856D01*
X0117123Y0092818D01*
X0117132Y0092780D01*
X0117138Y0092741D01*
X0117140Y0092701D01*
X0117140Y0092284D01*
X0116723Y0091630D02*
X0116056Y0091630D01*
X0116018Y0091628D01*
X0115979Y0091623D01*
X0115942Y0091614D01*
X0115905Y0091602D01*
X0115870Y0091586D01*
X0115836Y0091568D01*
X0115805Y0091546D01*
X0115775Y0091521D01*
X0115748Y0091494D01*
X0115723Y0091464D01*
X0115701Y0091433D01*
X0115683Y0091399D01*
X0115667Y0091364D01*
X0115655Y0091327D01*
X0115646Y0091290D01*
X0115641Y0091251D01*
X0115639Y0091213D01*
X0115640Y0091213D02*
X0115640Y0090796D01*
X0117140Y0090796D01*
X0117140Y0091213D01*
X0117138Y0091251D01*
X0117133Y0091290D01*
X0117124Y0091327D01*
X0117112Y0091364D01*
X0117096Y0091399D01*
X0117078Y0091433D01*
X0117056Y0091464D01*
X0117031Y0091494D01*
X0117004Y0091521D01*
X0116974Y0091546D01*
X0116943Y0091568D01*
X0116909Y0091586D01*
X0116874Y0091602D01*
X0116837Y0091614D01*
X0116800Y0091623D01*
X0116761Y0091628D01*
X0116723Y0091630D01*
X0117140Y0090217D02*
X0117140Y0089551D01*
X0115640Y0089551D01*
X0115640Y0090217D01*
X0116306Y0090051D02*
X0116306Y0089551D01*
X0117140Y0088969D02*
X0117140Y0088303D01*
X0115640Y0088303D01*
X0123639Y0083341D02*
X0123641Y0083291D01*
X0123646Y0083242D01*
X0123656Y0083193D01*
X0123669Y0083144D01*
X0123685Y0083097D01*
X0123705Y0083052D01*
X0123728Y0083007D01*
X0123755Y0082965D01*
X0123785Y0082925D01*
X0123817Y0082887D01*
X0123852Y0082852D01*
X0123890Y0082820D01*
X0123930Y0082790D01*
X0123973Y0082763D01*
X0124017Y0082740D01*
X0124062Y0082720D01*
X0124109Y0082704D01*
X0124158Y0082691D01*
X0124207Y0082681D01*
X0124256Y0082676D01*
X0124306Y0082674D01*
X0124723Y0082674D01*
X0124306Y0082674D02*
X0124306Y0083174D01*
X0124307Y0083174D02*
X0124309Y0083209D01*
X0124314Y0083243D01*
X0124323Y0083277D01*
X0124336Y0083309D01*
X0124352Y0083341D01*
X0124371Y0083370D01*
X0124393Y0083397D01*
X0124417Y0083421D01*
X0124444Y0083443D01*
X0124474Y0083462D01*
X0124505Y0083478D01*
X0124537Y0083491D01*
X0124571Y0083500D01*
X0124605Y0083505D01*
X0124640Y0083507D01*
X0124640Y0083508D02*
X0124723Y0083508D01*
X0124763Y0083506D01*
X0124802Y0083500D01*
X0124840Y0083491D01*
X0124878Y0083478D01*
X0124914Y0083462D01*
X0124948Y0083442D01*
X0124981Y0083419D01*
X0125011Y0083393D01*
X0125038Y0083364D01*
X0125063Y0083333D01*
X0125084Y0083300D01*
X0125102Y0083264D01*
X0125117Y0083227D01*
X0125128Y0083189D01*
X0125136Y0083150D01*
X0125140Y0083111D01*
X0125140Y0083071D01*
X0125136Y0083032D01*
X0125128Y0082993D01*
X0125117Y0082955D01*
X0125102Y0082918D01*
X0125084Y0082883D01*
X0125063Y0082849D01*
X0125038Y0082818D01*
X0125011Y0082789D01*
X0124981Y0082763D01*
X0124948Y0082740D01*
X0124914Y0082720D01*
X0124878Y0082704D01*
X0124840Y0082691D01*
X0124802Y0082682D01*
X0124763Y0082676D01*
X0124723Y0082674D01*
X0125140Y0082068D02*
X0125140Y0081234D01*
X0125140Y0081651D02*
X0123640Y0081651D01*
X0123973Y0081234D01*
X0123639Y0080219D02*
X0123641Y0080259D01*
X0123647Y0080298D01*
X0123656Y0080336D01*
X0123669Y0080374D01*
X0123685Y0080410D01*
X0123705Y0080444D01*
X0123728Y0080477D01*
X0123754Y0080507D01*
X0123783Y0080534D01*
X0123814Y0080559D01*
X0123848Y0080580D01*
X0123883Y0080598D01*
X0123920Y0080613D01*
X0123958Y0080624D01*
X0123997Y0080632D01*
X0124036Y0080636D01*
X0124076Y0080636D01*
X0124115Y0080632D01*
X0124154Y0080624D01*
X0124192Y0080613D01*
X0124229Y0080598D01*
X0124265Y0080580D01*
X0124298Y0080559D01*
X0124329Y0080534D01*
X0124358Y0080507D01*
X0124384Y0080477D01*
X0124407Y0080444D01*
X0124427Y0080410D01*
X0124443Y0080374D01*
X0124456Y0080336D01*
X0124465Y0080298D01*
X0124471Y0080259D01*
X0124473Y0080219D01*
X0124473Y0079803D01*
X0124473Y0080303D02*
X0125140Y0080636D01*
X0125140Y0079803D02*
X0123640Y0079803D01*
X0123640Y0080219D01*
X0131140Y0088303D02*
X0132640Y0088303D01*
X0132640Y0088969D01*
X0132640Y0089551D02*
X0131140Y0089551D01*
X0131140Y0090217D01*
X0131140Y0090796D02*
X0131140Y0091213D01*
X0131139Y0091213D02*
X0131141Y0091251D01*
X0131146Y0091290D01*
X0131155Y0091327D01*
X0131167Y0091364D01*
X0131183Y0091399D01*
X0131201Y0091433D01*
X0131223Y0091464D01*
X0131248Y0091494D01*
X0131275Y0091521D01*
X0131305Y0091546D01*
X0131336Y0091568D01*
X0131370Y0091586D01*
X0131405Y0091602D01*
X0131442Y0091614D01*
X0131479Y0091623D01*
X0131518Y0091628D01*
X0131556Y0091630D01*
X0132223Y0091630D01*
X0132261Y0091628D01*
X0132300Y0091623D01*
X0132337Y0091614D01*
X0132374Y0091602D01*
X0132409Y0091586D01*
X0132443Y0091568D01*
X0132474Y0091546D01*
X0132504Y0091521D01*
X0132531Y0091494D01*
X0132556Y0091464D01*
X0132578Y0091433D01*
X0132596Y0091399D01*
X0132612Y0091364D01*
X0132624Y0091327D01*
X0132633Y0091290D01*
X0132638Y0091251D01*
X0132640Y0091213D01*
X0132640Y0090796D01*
X0131140Y0090796D01*
X0131806Y0090051D02*
X0131806Y0089551D01*
X0132640Y0089551D02*
X0132640Y0090217D01*
X0132640Y0092284D02*
X0131806Y0092993D01*
X0131140Y0092743D02*
X0131142Y0092703D01*
X0131147Y0092663D01*
X0131155Y0092623D01*
X0131167Y0092584D01*
X0131182Y0092547D01*
X0131200Y0092511D01*
X0131221Y0092476D01*
X0131244Y0092443D01*
X0131271Y0092413D01*
X0131300Y0092385D01*
X0131331Y0092359D01*
X0131364Y0092336D01*
X0131399Y0092316D01*
X0131436Y0092298D01*
X0131474Y0092284D01*
X0131807Y0092993D02*
X0131781Y0093018D01*
X0131752Y0093041D01*
X0131722Y0093061D01*
X0131690Y0093078D01*
X0131657Y0093092D01*
X0131622Y0093103D01*
X0131587Y0093111D01*
X0131551Y0093116D01*
X0131515Y0093118D01*
X0131478Y0093116D01*
X0131442Y0093111D01*
X0131406Y0093102D01*
X0131371Y0093089D01*
X0131338Y0093074D01*
X0131307Y0093055D01*
X0131277Y0093033D01*
X0131250Y0093008D01*
X0131225Y0092981D01*
X0131203Y0092951D01*
X0131184Y0092920D01*
X0131169Y0092887D01*
X0131156Y0092852D01*
X0131147Y0092816D01*
X0131142Y0092780D01*
X0131140Y0092743D01*
X0132640Y0093118D02*
X0132640Y0092284D01*
X0167133Y0090217D02*
X0167591Y0089967D01*
X0167425Y0089342D02*
X0167375Y0089344D01*
X0167324Y0089349D01*
X0167275Y0089358D01*
X0167226Y0089371D01*
X0167178Y0089387D01*
X0167131Y0089406D01*
X0167086Y0089429D01*
X0167043Y0089455D01*
X0167001Y0089484D01*
X0166962Y0089516D01*
X0166925Y0089550D01*
X0167592Y0089967D02*
X0167621Y0089948D01*
X0167649Y0089925D01*
X0167673Y0089900D01*
X0167695Y0089873D01*
X0167714Y0089843D01*
X0167730Y0089812D01*
X0167743Y0089779D01*
X0167752Y0089745D01*
X0167757Y0089710D01*
X0167759Y0089675D01*
X0167758Y0089675D02*
X0167756Y0089640D01*
X0167751Y0089606D01*
X0167742Y0089572D01*
X0167729Y0089540D01*
X0167713Y0089509D01*
X0167694Y0089479D01*
X0167672Y0089452D01*
X0167648Y0089428D01*
X0167621Y0089406D01*
X0167592Y0089387D01*
X0167560Y0089371D01*
X0167528Y0089358D01*
X0167494Y0089349D01*
X0167460Y0089344D01*
X0167425Y0089342D01*
X0167675Y0090717D02*
X0167638Y0090743D01*
X0167600Y0090765D01*
X0167560Y0090785D01*
X0167519Y0090802D01*
X0167476Y0090817D01*
X0167433Y0090828D01*
X0167389Y0090836D01*
X0167345Y0090840D01*
X0167300Y0090842D01*
X0167265Y0090840D01*
X0167231Y0090835D01*
X0167197Y0090826D01*
X0167165Y0090813D01*
X0167134Y0090797D01*
X0167104Y0090778D01*
X0167077Y0090756D01*
X0167053Y0090732D01*
X0167031Y0090705D01*
X0167012Y0090676D01*
X0166996Y0090644D01*
X0166983Y0090612D01*
X0166974Y0090578D01*
X0166969Y0090544D01*
X0166967Y0090509D01*
X0166966Y0090509D02*
X0166968Y0090474D01*
X0166973Y0090439D01*
X0166982Y0090405D01*
X0166995Y0090372D01*
X0167011Y0090341D01*
X0167030Y0090311D01*
X0167052Y0090284D01*
X0167076Y0090259D01*
X0167104Y0090236D01*
X0167133Y0090217D01*
X0168317Y0090509D02*
X0168733Y0090842D01*
X0168733Y0089342D01*
X0168317Y0089342D02*
X0169150Y0089342D01*
X0174056Y0077068D02*
X0174473Y0077068D01*
X0174473Y0076568D01*
X0174473Y0077068D02*
X0174523Y0077066D01*
X0174572Y0077061D01*
X0174621Y0077051D01*
X0174670Y0077038D01*
X0174717Y0077022D01*
X0174762Y0077002D01*
X0174807Y0076979D01*
X0174849Y0076952D01*
X0174889Y0076922D01*
X0174927Y0076890D01*
X0174962Y0076855D01*
X0174994Y0076817D01*
X0175024Y0076777D01*
X0175051Y0076735D01*
X0175074Y0076690D01*
X0175094Y0076645D01*
X0175110Y0076598D01*
X0175123Y0076549D01*
X0175133Y0076500D01*
X0175138Y0076451D01*
X0175140Y0076401D01*
X0175140Y0075636D02*
X0174473Y0075303D01*
X0174473Y0075219D02*
X0174473Y0074803D01*
X0174473Y0075219D02*
X0174471Y0075259D01*
X0174465Y0075298D01*
X0174456Y0075336D01*
X0174443Y0075374D01*
X0174427Y0075410D01*
X0174407Y0075444D01*
X0174384Y0075477D01*
X0174358Y0075507D01*
X0174329Y0075534D01*
X0174298Y0075559D01*
X0174265Y0075580D01*
X0174229Y0075598D01*
X0174192Y0075613D01*
X0174154Y0075624D01*
X0174115Y0075632D01*
X0174076Y0075636D01*
X0174036Y0075636D01*
X0173997Y0075632D01*
X0173958Y0075624D01*
X0173920Y0075613D01*
X0173883Y0075598D01*
X0173848Y0075580D01*
X0173814Y0075559D01*
X0173783Y0075534D01*
X0173754Y0075507D01*
X0173728Y0075477D01*
X0173705Y0075444D01*
X0173685Y0075410D01*
X0173669Y0075374D01*
X0173656Y0075336D01*
X0173647Y0075298D01*
X0173641Y0075259D01*
X0173639Y0075219D01*
X0173640Y0075219D02*
X0173640Y0074803D01*
X0175140Y0074803D01*
X0174140Y0076234D02*
X0174056Y0076234D01*
X0174140Y0076235D02*
X0174175Y0076237D01*
X0174209Y0076242D01*
X0174243Y0076251D01*
X0174275Y0076264D01*
X0174306Y0076280D01*
X0174336Y0076299D01*
X0174363Y0076321D01*
X0174387Y0076345D01*
X0174409Y0076372D01*
X0174428Y0076401D01*
X0174444Y0076433D01*
X0174457Y0076465D01*
X0174466Y0076499D01*
X0174471Y0076533D01*
X0174473Y0076568D01*
X0174056Y0076234D02*
X0174016Y0076236D01*
X0173977Y0076242D01*
X0173939Y0076251D01*
X0173901Y0076264D01*
X0173865Y0076280D01*
X0173831Y0076300D01*
X0173798Y0076323D01*
X0173768Y0076349D01*
X0173741Y0076378D01*
X0173716Y0076409D01*
X0173695Y0076443D01*
X0173677Y0076478D01*
X0173662Y0076515D01*
X0173651Y0076553D01*
X0173643Y0076592D01*
X0173639Y0076631D01*
X0173639Y0076671D01*
X0173643Y0076710D01*
X0173651Y0076749D01*
X0173662Y0076787D01*
X0173677Y0076824D01*
X0173695Y0076860D01*
X0173716Y0076893D01*
X0173741Y0076924D01*
X0173768Y0076953D01*
X0173798Y0076979D01*
X0173831Y0077002D01*
X0173865Y0077022D01*
X0173901Y0077038D01*
X0173939Y0077051D01*
X0173977Y0077060D01*
X0174016Y0077066D01*
X0174056Y0077068D01*
X0167640Y0075508D02*
X0167640Y0074674D01*
X0167640Y0075091D02*
X0166140Y0075091D01*
X0166473Y0074674D01*
X0166140Y0073651D02*
X0167640Y0073651D01*
X0167640Y0073234D02*
X0167640Y0074068D01*
X0167640Y0072636D02*
X0166973Y0072303D01*
X0166973Y0072219D02*
X0166973Y0071803D01*
X0166973Y0072219D02*
X0166971Y0072259D01*
X0166965Y0072298D01*
X0166956Y0072336D01*
X0166943Y0072374D01*
X0166927Y0072410D01*
X0166907Y0072444D01*
X0166884Y0072477D01*
X0166858Y0072507D01*
X0166829Y0072534D01*
X0166798Y0072559D01*
X0166765Y0072580D01*
X0166729Y0072598D01*
X0166692Y0072613D01*
X0166654Y0072624D01*
X0166615Y0072632D01*
X0166576Y0072636D01*
X0166536Y0072636D01*
X0166497Y0072632D01*
X0166458Y0072624D01*
X0166420Y0072613D01*
X0166383Y0072598D01*
X0166348Y0072580D01*
X0166314Y0072559D01*
X0166283Y0072534D01*
X0166254Y0072507D01*
X0166228Y0072477D01*
X0166205Y0072444D01*
X0166185Y0072410D01*
X0166169Y0072374D01*
X0166156Y0072336D01*
X0166147Y0072298D01*
X0166141Y0072259D01*
X0166139Y0072219D01*
X0166140Y0072219D02*
X0166140Y0071803D01*
X0167640Y0071803D01*
X0166473Y0073234D02*
X0166140Y0073651D01*
X0150640Y0073091D02*
X0150640Y0072674D01*
X0150640Y0073091D02*
X0150638Y0073131D01*
X0150632Y0073170D01*
X0150623Y0073208D01*
X0150610Y0073246D01*
X0150594Y0073282D01*
X0150574Y0073316D01*
X0150551Y0073349D01*
X0150525Y0073379D01*
X0150496Y0073406D01*
X0150465Y0073431D01*
X0150432Y0073452D01*
X0150396Y0073470D01*
X0150359Y0073485D01*
X0150321Y0073496D01*
X0150282Y0073504D01*
X0150243Y0073508D01*
X0150203Y0073508D01*
X0150164Y0073504D01*
X0150125Y0073496D01*
X0150087Y0073485D01*
X0150050Y0073470D01*
X0150015Y0073452D01*
X0149981Y0073431D01*
X0149950Y0073406D01*
X0149921Y0073379D01*
X0149895Y0073349D01*
X0149872Y0073316D01*
X0149852Y0073282D01*
X0149836Y0073246D01*
X0149823Y0073208D01*
X0149814Y0073170D01*
X0149808Y0073131D01*
X0149806Y0073091D01*
X0149806Y0073174D02*
X0149806Y0072841D01*
X0149806Y0073174D02*
X0149804Y0073209D01*
X0149799Y0073243D01*
X0149790Y0073277D01*
X0149777Y0073309D01*
X0149761Y0073341D01*
X0149742Y0073370D01*
X0149720Y0073397D01*
X0149696Y0073421D01*
X0149669Y0073443D01*
X0149640Y0073462D01*
X0149608Y0073478D01*
X0149576Y0073491D01*
X0149542Y0073500D01*
X0149508Y0073505D01*
X0149473Y0073507D01*
X0149438Y0073505D01*
X0149404Y0073500D01*
X0149370Y0073491D01*
X0149338Y0073478D01*
X0149307Y0073462D01*
X0149277Y0073443D01*
X0149250Y0073421D01*
X0149226Y0073397D01*
X0149204Y0073370D01*
X0149185Y0073341D01*
X0149169Y0073309D01*
X0149156Y0073277D01*
X0149147Y0073243D01*
X0149142Y0073209D01*
X0149140Y0073174D01*
X0149140Y0072674D01*
X0149140Y0071651D02*
X0150640Y0071651D01*
X0150640Y0071234D02*
X0150640Y0072068D01*
X0150640Y0070636D02*
X0149973Y0070303D01*
X0149973Y0070219D02*
X0149973Y0069803D01*
X0149973Y0070219D02*
X0149971Y0070259D01*
X0149965Y0070298D01*
X0149956Y0070336D01*
X0149943Y0070374D01*
X0149927Y0070410D01*
X0149907Y0070444D01*
X0149884Y0070477D01*
X0149858Y0070507D01*
X0149829Y0070534D01*
X0149798Y0070559D01*
X0149765Y0070580D01*
X0149729Y0070598D01*
X0149692Y0070613D01*
X0149654Y0070624D01*
X0149615Y0070632D01*
X0149576Y0070636D01*
X0149536Y0070636D01*
X0149497Y0070632D01*
X0149458Y0070624D01*
X0149420Y0070613D01*
X0149383Y0070598D01*
X0149348Y0070580D01*
X0149314Y0070559D01*
X0149283Y0070534D01*
X0149254Y0070507D01*
X0149228Y0070477D01*
X0149205Y0070444D01*
X0149185Y0070410D01*
X0149169Y0070374D01*
X0149156Y0070336D01*
X0149147Y0070298D01*
X0149141Y0070259D01*
X0149139Y0070219D01*
X0149140Y0070219D02*
X0149140Y0069803D01*
X0150640Y0069803D01*
X0149473Y0071234D02*
X0149140Y0071651D01*
X0173973Y0065924D02*
X0174806Y0065258D01*
X0175139Y0065591D02*
X0175137Y0065623D01*
X0175132Y0065654D01*
X0175124Y0065685D01*
X0175113Y0065715D01*
X0175099Y0065743D01*
X0175082Y0065770D01*
X0175062Y0065795D01*
X0175040Y0065818D01*
X0175015Y0065838D01*
X0174989Y0065856D01*
X0174960Y0065870D01*
X0174931Y0065882D01*
X0175139Y0065591D02*
X0175137Y0065559D01*
X0175132Y0065528D01*
X0175124Y0065497D01*
X0175113Y0065467D01*
X0175099Y0065439D01*
X0175082Y0065412D01*
X0175062Y0065387D01*
X0175040Y0065364D01*
X0175015Y0065344D01*
X0174989Y0065326D01*
X0174960Y0065312D01*
X0174931Y0065300D01*
X0174390Y0066008D02*
X0174328Y0066006D01*
X0174266Y0066002D01*
X0174204Y0065994D01*
X0174143Y0065983D01*
X0174082Y0065969D01*
X0174022Y0065952D01*
X0173963Y0065932D01*
X0173905Y0065909D01*
X0173848Y0065883D01*
X0173848Y0065882D02*
X0173819Y0065870D01*
X0173790Y0065856D01*
X0173764Y0065838D01*
X0173739Y0065818D01*
X0173717Y0065795D01*
X0173697Y0065770D01*
X0173680Y0065743D01*
X0173666Y0065715D01*
X0173655Y0065685D01*
X0173647Y0065654D01*
X0173642Y0065623D01*
X0173640Y0065591D01*
X0173642Y0065559D01*
X0173647Y0065528D01*
X0173655Y0065497D01*
X0173666Y0065467D01*
X0173680Y0065439D01*
X0173697Y0065412D01*
X0173717Y0065387D01*
X0173739Y0065364D01*
X0173764Y0065344D01*
X0173790Y0065326D01*
X0173819Y0065312D01*
X0173848Y0065300D01*
X0174390Y0066008D02*
X0174452Y0066006D01*
X0174514Y0066002D01*
X0174576Y0065994D01*
X0174637Y0065983D01*
X0174698Y0065969D01*
X0174758Y0065952D01*
X0174817Y0065932D01*
X0174875Y0065909D01*
X0174932Y0065883D01*
X0174390Y0065175D02*
X0174328Y0065177D01*
X0174266Y0065181D01*
X0174204Y0065189D01*
X0174143Y0065200D01*
X0174082Y0065214D01*
X0174022Y0065231D01*
X0173963Y0065251D01*
X0173905Y0065274D01*
X0173848Y0065300D01*
X0173640Y0064151D02*
X0175140Y0064151D01*
X0175140Y0063734D02*
X0175140Y0064568D01*
X0175140Y0063136D02*
X0174473Y0062803D01*
X0174473Y0062719D02*
X0174473Y0062303D01*
X0174473Y0062719D02*
X0174471Y0062759D01*
X0174465Y0062798D01*
X0174456Y0062836D01*
X0174443Y0062874D01*
X0174427Y0062910D01*
X0174407Y0062944D01*
X0174384Y0062977D01*
X0174358Y0063007D01*
X0174329Y0063034D01*
X0174298Y0063059D01*
X0174265Y0063080D01*
X0174229Y0063098D01*
X0174192Y0063113D01*
X0174154Y0063124D01*
X0174115Y0063132D01*
X0174076Y0063136D01*
X0174036Y0063136D01*
X0173997Y0063132D01*
X0173958Y0063124D01*
X0173920Y0063113D01*
X0173883Y0063098D01*
X0173848Y0063080D01*
X0173814Y0063059D01*
X0173783Y0063034D01*
X0173754Y0063007D01*
X0173728Y0062977D01*
X0173705Y0062944D01*
X0173685Y0062910D01*
X0173669Y0062874D01*
X0173656Y0062836D01*
X0173647Y0062798D01*
X0173641Y0062759D01*
X0173639Y0062719D01*
X0173640Y0062719D02*
X0173640Y0062303D01*
X0175140Y0062303D01*
X0173973Y0063734D02*
X0173640Y0064151D01*
X0174390Y0065175D02*
X0174452Y0065177D01*
X0174514Y0065181D01*
X0174576Y0065189D01*
X0174637Y0065200D01*
X0174698Y0065214D01*
X0174758Y0065231D01*
X0174817Y0065251D01*
X0174875Y0065274D01*
X0174932Y0065300D01*
X0160640Y0056834D02*
X0160640Y0056000D01*
X0160640Y0056417D02*
X0159140Y0056417D01*
X0159473Y0056000D01*
X0159140Y0054803D02*
X0160640Y0054803D01*
X0160640Y0055469D01*
X0149640Y0055469D02*
X0149640Y0055136D01*
X0149639Y0055136D02*
X0149637Y0055101D01*
X0149632Y0055067D01*
X0149623Y0055033D01*
X0149610Y0055001D01*
X0149594Y0054970D01*
X0149575Y0054940D01*
X0149553Y0054913D01*
X0149529Y0054889D01*
X0149502Y0054867D01*
X0149473Y0054848D01*
X0149441Y0054832D01*
X0149409Y0054819D01*
X0149375Y0054810D01*
X0149341Y0054805D01*
X0149306Y0054803D01*
X0148473Y0054803D01*
X0148438Y0054805D01*
X0148404Y0054810D01*
X0148370Y0054819D01*
X0148338Y0054832D01*
X0148307Y0054848D01*
X0148277Y0054867D01*
X0148250Y0054889D01*
X0148226Y0054913D01*
X0148204Y0054940D01*
X0148185Y0054969D01*
X0148169Y0055001D01*
X0148156Y0055033D01*
X0148147Y0055067D01*
X0148142Y0055101D01*
X0148140Y0055136D01*
X0148140Y0055469D01*
X0148140Y0056006D02*
X0148140Y0056840D01*
X0149640Y0056423D01*
X0148306Y0056006D02*
X0148140Y0056006D01*
X0149640Y0046008D02*
X0149640Y0045174D01*
X0148806Y0045883D01*
X0148140Y0045633D02*
X0148142Y0045593D01*
X0148147Y0045553D01*
X0148155Y0045513D01*
X0148167Y0045474D01*
X0148182Y0045437D01*
X0148200Y0045401D01*
X0148221Y0045366D01*
X0148244Y0045333D01*
X0148271Y0045303D01*
X0148300Y0045275D01*
X0148331Y0045249D01*
X0148364Y0045226D01*
X0148399Y0045206D01*
X0148436Y0045188D01*
X0148474Y0045174D01*
X0148807Y0045883D02*
X0148781Y0045908D01*
X0148752Y0045931D01*
X0148722Y0045951D01*
X0148690Y0045968D01*
X0148657Y0045982D01*
X0148622Y0045993D01*
X0148587Y0046001D01*
X0148551Y0046006D01*
X0148515Y0046008D01*
X0148478Y0046006D01*
X0148442Y0046001D01*
X0148406Y0045992D01*
X0148371Y0045979D01*
X0148338Y0045964D01*
X0148307Y0045945D01*
X0148277Y0045923D01*
X0148250Y0045898D01*
X0148225Y0045871D01*
X0148203Y0045841D01*
X0148184Y0045810D01*
X0148169Y0045777D01*
X0148156Y0045742D01*
X0148147Y0045706D01*
X0148142Y0045670D01*
X0148140Y0045633D01*
X0148140Y0044151D02*
X0149640Y0044151D01*
X0149640Y0043734D02*
X0149640Y0044568D01*
X0149640Y0043136D02*
X0148973Y0042803D01*
X0148973Y0042719D02*
X0148973Y0042303D01*
X0148973Y0042719D02*
X0148971Y0042759D01*
X0148965Y0042798D01*
X0148956Y0042836D01*
X0148943Y0042874D01*
X0148927Y0042910D01*
X0148907Y0042944D01*
X0148884Y0042977D01*
X0148858Y0043007D01*
X0148829Y0043034D01*
X0148798Y0043059D01*
X0148765Y0043080D01*
X0148729Y0043098D01*
X0148692Y0043113D01*
X0148654Y0043124D01*
X0148615Y0043132D01*
X0148576Y0043136D01*
X0148536Y0043136D01*
X0148497Y0043132D01*
X0148458Y0043124D01*
X0148420Y0043113D01*
X0148383Y0043098D01*
X0148348Y0043080D01*
X0148314Y0043059D01*
X0148283Y0043034D01*
X0148254Y0043007D01*
X0148228Y0042977D01*
X0148205Y0042944D01*
X0148185Y0042910D01*
X0148169Y0042874D01*
X0148156Y0042836D01*
X0148147Y0042798D01*
X0148141Y0042759D01*
X0148139Y0042719D01*
X0148140Y0042719D02*
X0148140Y0042303D01*
X0149640Y0042303D01*
X0148473Y0043734D02*
X0148140Y0044151D01*
X0140140Y0042969D02*
X0140140Y0042636D01*
X0140139Y0042636D02*
X0140137Y0042601D01*
X0140132Y0042567D01*
X0140123Y0042533D01*
X0140110Y0042501D01*
X0140094Y0042470D01*
X0140075Y0042440D01*
X0140053Y0042413D01*
X0140029Y0042389D01*
X0140002Y0042367D01*
X0139973Y0042348D01*
X0139941Y0042332D01*
X0139909Y0042319D01*
X0139875Y0042310D01*
X0139841Y0042305D01*
X0139806Y0042303D01*
X0138973Y0042303D01*
X0138938Y0042305D01*
X0138904Y0042310D01*
X0138870Y0042319D01*
X0138838Y0042332D01*
X0138807Y0042348D01*
X0138777Y0042367D01*
X0138750Y0042389D01*
X0138726Y0042413D01*
X0138704Y0042440D01*
X0138685Y0042469D01*
X0138669Y0042501D01*
X0138656Y0042533D01*
X0138647Y0042567D01*
X0138642Y0042601D01*
X0138640Y0042636D01*
X0138640Y0042969D01*
X0139306Y0043506D02*
X0139723Y0043506D01*
X0139306Y0043506D02*
X0139306Y0044006D01*
X0139306Y0043506D02*
X0139256Y0043508D01*
X0139207Y0043513D01*
X0139158Y0043523D01*
X0139109Y0043536D01*
X0139062Y0043552D01*
X0139017Y0043572D01*
X0138973Y0043595D01*
X0138930Y0043622D01*
X0138890Y0043652D01*
X0138852Y0043684D01*
X0138817Y0043719D01*
X0138785Y0043757D01*
X0138755Y0043797D01*
X0138728Y0043839D01*
X0138705Y0043884D01*
X0138685Y0043929D01*
X0138669Y0043976D01*
X0138656Y0044025D01*
X0138646Y0044074D01*
X0138641Y0044123D01*
X0138639Y0044173D01*
X0139307Y0044006D02*
X0139309Y0044041D01*
X0139314Y0044075D01*
X0139323Y0044109D01*
X0139336Y0044141D01*
X0139352Y0044173D01*
X0139371Y0044202D01*
X0139393Y0044229D01*
X0139417Y0044253D01*
X0139444Y0044275D01*
X0139474Y0044294D01*
X0139505Y0044310D01*
X0139537Y0044323D01*
X0139571Y0044332D01*
X0139605Y0044337D01*
X0139640Y0044339D01*
X0139640Y0044340D02*
X0139723Y0044340D01*
X0139763Y0044338D01*
X0139802Y0044332D01*
X0139840Y0044323D01*
X0139878Y0044310D01*
X0139914Y0044294D01*
X0139948Y0044274D01*
X0139981Y0044251D01*
X0140011Y0044225D01*
X0140038Y0044196D01*
X0140063Y0044165D01*
X0140084Y0044132D01*
X0140102Y0044096D01*
X0140117Y0044059D01*
X0140128Y0044021D01*
X0140136Y0043982D01*
X0140140Y0043943D01*
X0140140Y0043903D01*
X0140136Y0043864D01*
X0140128Y0043825D01*
X0140117Y0043787D01*
X0140102Y0043750D01*
X0140084Y0043715D01*
X0140063Y0043681D01*
X0140038Y0043650D01*
X0140011Y0043621D01*
X0139981Y0043595D01*
X0139948Y0043572D01*
X0139914Y0043552D01*
X0139878Y0043536D01*
X0139840Y0043523D01*
X0139802Y0043514D01*
X0139763Y0043508D01*
X0139723Y0043506D01*
X0141556Y0035876D02*
X0141556Y0034876D01*
X0142056Y0035376D02*
X0141056Y0035376D01*
X0140640Y0034353D02*
X0140640Y0033520D01*
X0140640Y0033936D02*
X0142140Y0033936D01*
X0142140Y0033092D02*
X0140640Y0032592D01*
X0142140Y0032092D01*
X0141765Y0032217D02*
X0141765Y0032967D01*
X0142140Y0031219D02*
X0142138Y0031259D01*
X0142132Y0031298D01*
X0142123Y0031336D01*
X0142110Y0031374D01*
X0142094Y0031410D01*
X0142074Y0031444D01*
X0142051Y0031477D01*
X0142025Y0031507D01*
X0141996Y0031534D01*
X0141965Y0031559D01*
X0141932Y0031580D01*
X0141896Y0031598D01*
X0141859Y0031613D01*
X0141821Y0031624D01*
X0141782Y0031632D01*
X0141743Y0031636D01*
X0141703Y0031636D01*
X0141664Y0031632D01*
X0141625Y0031624D01*
X0141587Y0031613D01*
X0141550Y0031598D01*
X0141515Y0031580D01*
X0141481Y0031559D01*
X0141450Y0031534D01*
X0141421Y0031507D01*
X0141395Y0031477D01*
X0141372Y0031444D01*
X0141352Y0031410D01*
X0141336Y0031374D01*
X0141323Y0031336D01*
X0141314Y0031298D01*
X0141308Y0031259D01*
X0141306Y0031219D01*
X0141306Y0030803D01*
X0141306Y0031219D02*
X0141304Y0031254D01*
X0141299Y0031288D01*
X0141290Y0031322D01*
X0141277Y0031354D01*
X0141261Y0031386D01*
X0141242Y0031415D01*
X0141220Y0031442D01*
X0141196Y0031466D01*
X0141169Y0031488D01*
X0141140Y0031507D01*
X0141108Y0031523D01*
X0141076Y0031536D01*
X0141042Y0031545D01*
X0141008Y0031550D01*
X0140973Y0031552D01*
X0140938Y0031550D01*
X0140904Y0031545D01*
X0140870Y0031536D01*
X0140838Y0031523D01*
X0140807Y0031507D01*
X0140777Y0031488D01*
X0140750Y0031466D01*
X0140726Y0031442D01*
X0140704Y0031415D01*
X0140685Y0031386D01*
X0140669Y0031354D01*
X0140656Y0031322D01*
X0140647Y0031288D01*
X0140642Y0031254D01*
X0140640Y0031219D01*
X0140640Y0030803D01*
X0142140Y0030803D01*
X0142140Y0031219D01*
X0158140Y0031136D02*
X0158140Y0031469D01*
X0158140Y0031136D02*
X0158142Y0031101D01*
X0158147Y0031067D01*
X0158156Y0031033D01*
X0158169Y0031001D01*
X0158185Y0030969D01*
X0158204Y0030940D01*
X0158226Y0030913D01*
X0158250Y0030889D01*
X0158277Y0030867D01*
X0158307Y0030848D01*
X0158338Y0030832D01*
X0158370Y0030819D01*
X0158404Y0030810D01*
X0158438Y0030805D01*
X0158473Y0030803D01*
X0159306Y0030803D01*
X0159341Y0030805D01*
X0159375Y0030810D01*
X0159409Y0030819D01*
X0159441Y0030832D01*
X0159473Y0030848D01*
X0159502Y0030867D01*
X0159529Y0030889D01*
X0159553Y0030913D01*
X0159575Y0030940D01*
X0159594Y0030970D01*
X0159610Y0031001D01*
X0159623Y0031033D01*
X0159632Y0031067D01*
X0159637Y0031101D01*
X0159639Y0031136D01*
X0159640Y0031136D02*
X0159640Y0031469D01*
X0159223Y0032006D02*
X0159263Y0032008D01*
X0159302Y0032014D01*
X0159340Y0032023D01*
X0159378Y0032036D01*
X0159414Y0032052D01*
X0159448Y0032072D01*
X0159481Y0032095D01*
X0159511Y0032121D01*
X0159538Y0032150D01*
X0159563Y0032181D01*
X0159584Y0032215D01*
X0159602Y0032250D01*
X0159617Y0032287D01*
X0159628Y0032325D01*
X0159636Y0032364D01*
X0159640Y0032403D01*
X0159640Y0032443D01*
X0159636Y0032482D01*
X0159628Y0032521D01*
X0159617Y0032559D01*
X0159602Y0032596D01*
X0159584Y0032631D01*
X0159563Y0032665D01*
X0159538Y0032696D01*
X0159511Y0032725D01*
X0159481Y0032751D01*
X0159448Y0032774D01*
X0159414Y0032794D01*
X0159378Y0032810D01*
X0159340Y0032823D01*
X0159302Y0032832D01*
X0159263Y0032838D01*
X0159223Y0032840D01*
X0159183Y0032838D01*
X0159144Y0032832D01*
X0159106Y0032823D01*
X0159068Y0032810D01*
X0159032Y0032794D01*
X0158998Y0032774D01*
X0158965Y0032751D01*
X0158935Y0032725D01*
X0158908Y0032696D01*
X0158883Y0032665D01*
X0158862Y0032632D01*
X0158844Y0032596D01*
X0158829Y0032559D01*
X0158818Y0032521D01*
X0158810Y0032482D01*
X0158806Y0032443D01*
X0158806Y0032403D01*
X0158810Y0032364D01*
X0158818Y0032325D01*
X0158829Y0032287D01*
X0158844Y0032250D01*
X0158862Y0032215D01*
X0158883Y0032181D01*
X0158908Y0032150D01*
X0158935Y0032121D01*
X0158965Y0032095D01*
X0158998Y0032072D01*
X0159032Y0032052D01*
X0159068Y0032036D01*
X0159106Y0032023D01*
X0159144Y0032014D01*
X0159183Y0032008D01*
X0159223Y0032006D01*
X0158473Y0032090D02*
X0158508Y0032092D01*
X0158542Y0032097D01*
X0158576Y0032106D01*
X0158608Y0032119D01*
X0158640Y0032135D01*
X0158669Y0032154D01*
X0158696Y0032176D01*
X0158720Y0032200D01*
X0158742Y0032227D01*
X0158761Y0032257D01*
X0158777Y0032288D01*
X0158790Y0032320D01*
X0158799Y0032354D01*
X0158804Y0032388D01*
X0158806Y0032423D01*
X0158804Y0032458D01*
X0158799Y0032492D01*
X0158790Y0032526D01*
X0158777Y0032558D01*
X0158761Y0032590D01*
X0158742Y0032619D01*
X0158720Y0032646D01*
X0158696Y0032670D01*
X0158669Y0032692D01*
X0158640Y0032711D01*
X0158608Y0032727D01*
X0158576Y0032740D01*
X0158542Y0032749D01*
X0158508Y0032754D01*
X0158473Y0032756D01*
X0158438Y0032754D01*
X0158404Y0032749D01*
X0158370Y0032740D01*
X0158338Y0032727D01*
X0158307Y0032711D01*
X0158277Y0032692D01*
X0158250Y0032670D01*
X0158226Y0032646D01*
X0158204Y0032619D01*
X0158185Y0032590D01*
X0158169Y0032558D01*
X0158156Y0032526D01*
X0158147Y0032492D01*
X0158142Y0032458D01*
X0158140Y0032423D01*
X0158142Y0032388D01*
X0158147Y0032354D01*
X0158156Y0032320D01*
X0158169Y0032288D01*
X0158185Y0032257D01*
X0158204Y0032227D01*
X0158226Y0032200D01*
X0158250Y0032176D01*
X0158277Y0032154D01*
X0158307Y0032135D01*
X0158338Y0032119D01*
X0158370Y0032106D01*
X0158404Y0032097D01*
X0158438Y0032092D01*
X0158473Y0032090D01*
X0158140Y0034118D02*
X0158140Y0034952D01*
X0158140Y0034535D02*
X0159640Y0034535D01*
X0159640Y0035379D02*
X0158140Y0035879D01*
X0159640Y0036379D01*
X0159265Y0036254D02*
X0159265Y0035504D01*
X0159640Y0036950D02*
X0158140Y0036950D01*
X0159640Y0037784D01*
X0158140Y0037784D01*
X0158140Y0038342D02*
X0158140Y0039176D01*
X0158140Y0038759D02*
X0159640Y0038759D01*
X0173640Y0037719D02*
X0173640Y0037303D01*
X0175140Y0037303D01*
X0174473Y0037303D02*
X0174473Y0037719D01*
X0174473Y0037803D02*
X0175140Y0038136D01*
X0174723Y0038734D02*
X0174763Y0038736D01*
X0174802Y0038742D01*
X0174840Y0038751D01*
X0174878Y0038764D01*
X0174914Y0038780D01*
X0174948Y0038800D01*
X0174981Y0038823D01*
X0175011Y0038849D01*
X0175038Y0038878D01*
X0175063Y0038909D01*
X0175084Y0038943D01*
X0175102Y0038978D01*
X0175117Y0039015D01*
X0175128Y0039053D01*
X0175136Y0039092D01*
X0175140Y0039131D01*
X0175140Y0039171D01*
X0175136Y0039210D01*
X0175128Y0039249D01*
X0175117Y0039287D01*
X0175102Y0039324D01*
X0175084Y0039360D01*
X0175063Y0039393D01*
X0175038Y0039424D01*
X0175011Y0039453D01*
X0174981Y0039479D01*
X0174948Y0039502D01*
X0174914Y0039522D01*
X0174878Y0039538D01*
X0174840Y0039551D01*
X0174802Y0039560D01*
X0174763Y0039566D01*
X0174723Y0039568D01*
X0174683Y0039566D01*
X0174644Y0039560D01*
X0174606Y0039551D01*
X0174568Y0039538D01*
X0174532Y0039522D01*
X0174498Y0039502D01*
X0174465Y0039479D01*
X0174435Y0039453D01*
X0174408Y0039424D01*
X0174383Y0039393D01*
X0174362Y0039360D01*
X0174344Y0039324D01*
X0174329Y0039287D01*
X0174318Y0039249D01*
X0174310Y0039210D01*
X0174306Y0039171D01*
X0174306Y0039131D01*
X0174310Y0039092D01*
X0174318Y0039053D01*
X0174329Y0039015D01*
X0174344Y0038978D01*
X0174362Y0038943D01*
X0174383Y0038909D01*
X0174408Y0038878D01*
X0174435Y0038849D01*
X0174465Y0038823D01*
X0174498Y0038800D01*
X0174532Y0038780D01*
X0174568Y0038764D01*
X0174606Y0038751D01*
X0174644Y0038742D01*
X0174683Y0038736D01*
X0174723Y0038734D01*
X0173973Y0038818D02*
X0174008Y0038820D01*
X0174042Y0038825D01*
X0174076Y0038834D01*
X0174108Y0038847D01*
X0174140Y0038863D01*
X0174169Y0038882D01*
X0174196Y0038904D01*
X0174220Y0038928D01*
X0174242Y0038955D01*
X0174261Y0038985D01*
X0174277Y0039016D01*
X0174290Y0039048D01*
X0174299Y0039082D01*
X0174304Y0039116D01*
X0174306Y0039151D01*
X0174304Y0039186D01*
X0174299Y0039220D01*
X0174290Y0039254D01*
X0174277Y0039286D01*
X0174261Y0039318D01*
X0174242Y0039347D01*
X0174220Y0039374D01*
X0174196Y0039398D01*
X0174169Y0039420D01*
X0174140Y0039439D01*
X0174108Y0039455D01*
X0174076Y0039468D01*
X0174042Y0039477D01*
X0174008Y0039482D01*
X0173973Y0039484D01*
X0173938Y0039482D01*
X0173904Y0039477D01*
X0173870Y0039468D01*
X0173838Y0039455D01*
X0173807Y0039439D01*
X0173777Y0039420D01*
X0173750Y0039398D01*
X0173726Y0039374D01*
X0173704Y0039347D01*
X0173685Y0039318D01*
X0173669Y0039286D01*
X0173656Y0039254D01*
X0173647Y0039220D01*
X0173642Y0039186D01*
X0173640Y0039151D01*
X0173642Y0039116D01*
X0173647Y0039082D01*
X0173656Y0039048D01*
X0173669Y0039016D01*
X0173685Y0038985D01*
X0173704Y0038955D01*
X0173726Y0038928D01*
X0173750Y0038904D01*
X0173777Y0038882D01*
X0173807Y0038863D01*
X0173838Y0038847D01*
X0173870Y0038834D01*
X0173904Y0038825D01*
X0173938Y0038820D01*
X0173973Y0038818D01*
X0173639Y0037719D02*
X0173641Y0037759D01*
X0173647Y0037798D01*
X0173656Y0037836D01*
X0173669Y0037874D01*
X0173685Y0037910D01*
X0173705Y0037944D01*
X0173728Y0037977D01*
X0173754Y0038007D01*
X0173783Y0038034D01*
X0173814Y0038059D01*
X0173848Y0038080D01*
X0173883Y0038098D01*
X0173920Y0038113D01*
X0173958Y0038124D01*
X0173997Y0038132D01*
X0174036Y0038136D01*
X0174076Y0038136D01*
X0174115Y0038132D01*
X0174154Y0038124D01*
X0174192Y0038113D01*
X0174229Y0038098D01*
X0174265Y0038080D01*
X0174298Y0038059D01*
X0174329Y0038034D01*
X0174358Y0038007D01*
X0174384Y0037977D01*
X0174407Y0037944D01*
X0174427Y0037910D01*
X0174443Y0037874D01*
X0174456Y0037836D01*
X0174465Y0037798D01*
X0174471Y0037759D01*
X0174473Y0037719D01*
X0174473Y0049303D02*
X0174473Y0049719D01*
X0174473Y0049803D02*
X0175140Y0050136D01*
X0175140Y0049303D02*
X0173640Y0049303D01*
X0173640Y0049719D01*
X0173639Y0049719D02*
X0173641Y0049759D01*
X0173647Y0049798D01*
X0173656Y0049836D01*
X0173669Y0049874D01*
X0173685Y0049910D01*
X0173705Y0049944D01*
X0173728Y0049977D01*
X0173754Y0050007D01*
X0173783Y0050034D01*
X0173814Y0050059D01*
X0173848Y0050080D01*
X0173883Y0050098D01*
X0173920Y0050113D01*
X0173958Y0050124D01*
X0173997Y0050132D01*
X0174036Y0050136D01*
X0174076Y0050136D01*
X0174115Y0050132D01*
X0174154Y0050124D01*
X0174192Y0050113D01*
X0174229Y0050098D01*
X0174265Y0050080D01*
X0174298Y0050059D01*
X0174329Y0050034D01*
X0174358Y0050007D01*
X0174384Y0049977D01*
X0174407Y0049944D01*
X0174427Y0049910D01*
X0174443Y0049874D01*
X0174456Y0049836D01*
X0174465Y0049798D01*
X0174471Y0049759D01*
X0174473Y0049719D01*
X0173806Y0050734D02*
X0173640Y0050734D01*
X0173640Y0051568D01*
X0175140Y0051151D01*
X0121140Y0043189D02*
X0121140Y0042856D01*
X0121139Y0042856D02*
X0121137Y0042821D01*
X0121132Y0042787D01*
X0121123Y0042753D01*
X0121110Y0042721D01*
X0121094Y0042690D01*
X0121075Y0042660D01*
X0121053Y0042633D01*
X0121029Y0042609D01*
X0121002Y0042587D01*
X0120973Y0042568D01*
X0120941Y0042552D01*
X0120909Y0042539D01*
X0120875Y0042530D01*
X0120841Y0042525D01*
X0120806Y0042523D01*
X0120806Y0042522D02*
X0119973Y0042522D01*
X0119973Y0042523D02*
X0119938Y0042525D01*
X0119904Y0042530D01*
X0119870Y0042539D01*
X0119838Y0042552D01*
X0119807Y0042568D01*
X0119777Y0042587D01*
X0119750Y0042609D01*
X0119726Y0042633D01*
X0119704Y0042660D01*
X0119685Y0042689D01*
X0119669Y0042721D01*
X0119656Y0042753D01*
X0119647Y0042787D01*
X0119642Y0042821D01*
X0119640Y0042856D01*
X0119640Y0043189D01*
X0119640Y0041989D02*
X0119640Y0041656D01*
X0119642Y0041621D01*
X0119647Y0041587D01*
X0119656Y0041553D01*
X0119669Y0041521D01*
X0119685Y0041489D01*
X0119704Y0041460D01*
X0119726Y0041433D01*
X0119750Y0041409D01*
X0119777Y0041387D01*
X0119807Y0041368D01*
X0119838Y0041352D01*
X0119870Y0041339D01*
X0119904Y0041330D01*
X0119938Y0041325D01*
X0119973Y0041323D01*
X0119973Y0041322D02*
X0120806Y0041322D01*
X0120806Y0041323D02*
X0120841Y0041325D01*
X0120875Y0041330D01*
X0120909Y0041339D01*
X0120941Y0041352D01*
X0120973Y0041368D01*
X0121002Y0041387D01*
X0121029Y0041409D01*
X0121053Y0041433D01*
X0121075Y0041460D01*
X0121094Y0041490D01*
X0121110Y0041521D01*
X0121123Y0041553D01*
X0121132Y0041587D01*
X0121137Y0041621D01*
X0121139Y0041656D01*
X0121140Y0041656D02*
X0121140Y0041989D01*
X0121140Y0040303D02*
X0119640Y0040803D01*
X0119640Y0039803D02*
X0121140Y0040303D01*
X0119037Y0045803D02*
X0118620Y0045803D01*
X0118590Y0045805D01*
X0118560Y0045810D01*
X0118531Y0045819D01*
X0118504Y0045832D01*
X0118478Y0045847D01*
X0118454Y0045866D01*
X0118433Y0045887D01*
X0118414Y0045911D01*
X0118399Y0045937D01*
X0118386Y0045964D01*
X0118377Y0045993D01*
X0118372Y0046023D01*
X0118370Y0046053D01*
X0118370Y0046469D01*
X0118370Y0046303D02*
X0119037Y0046303D01*
X0119037Y0046469D01*
X0119035Y0046504D01*
X0119030Y0046538D01*
X0119021Y0046572D01*
X0119008Y0046604D01*
X0118992Y0046636D01*
X0118973Y0046665D01*
X0118951Y0046692D01*
X0118927Y0046716D01*
X0118900Y0046738D01*
X0118871Y0046757D01*
X0118839Y0046773D01*
X0118807Y0046786D01*
X0118773Y0046795D01*
X0118739Y0046800D01*
X0118704Y0046802D01*
X0118669Y0046800D01*
X0118635Y0046795D01*
X0118601Y0046786D01*
X0118569Y0046773D01*
X0118538Y0046757D01*
X0118508Y0046738D01*
X0118481Y0046716D01*
X0118457Y0046692D01*
X0118435Y0046665D01*
X0118416Y0046636D01*
X0118400Y0046604D01*
X0118387Y0046572D01*
X0118378Y0046538D01*
X0118373Y0046504D01*
X0118371Y0046469D01*
X0117716Y0046553D02*
X0117716Y0045803D01*
X0117216Y0045803D02*
X0117216Y0046803D01*
X0117466Y0046803D02*
X0116716Y0046803D01*
X0116716Y0045803D01*
X0116061Y0045803D02*
X0115644Y0045803D01*
X0115614Y0045805D01*
X0115584Y0045810D01*
X0115555Y0045819D01*
X0115528Y0045832D01*
X0115502Y0045847D01*
X0115478Y0045866D01*
X0115457Y0045887D01*
X0115438Y0045911D01*
X0115423Y0045937D01*
X0115410Y0045964D01*
X0115401Y0045993D01*
X0115396Y0046023D01*
X0115394Y0046053D01*
X0115394Y0046469D01*
X0115394Y0046303D02*
X0116061Y0046303D01*
X0116061Y0046469D01*
X0116059Y0046504D01*
X0116054Y0046538D01*
X0116045Y0046572D01*
X0116032Y0046604D01*
X0116016Y0046636D01*
X0115997Y0046665D01*
X0115975Y0046692D01*
X0115951Y0046716D01*
X0115924Y0046738D01*
X0115895Y0046757D01*
X0115863Y0046773D01*
X0115831Y0046786D01*
X0115797Y0046795D01*
X0115763Y0046800D01*
X0115728Y0046802D01*
X0115693Y0046800D01*
X0115659Y0046795D01*
X0115625Y0046786D01*
X0115593Y0046773D01*
X0115562Y0046757D01*
X0115532Y0046738D01*
X0115505Y0046716D01*
X0115481Y0046692D01*
X0115459Y0046665D01*
X0115440Y0046636D01*
X0115424Y0046604D01*
X0115411Y0046572D01*
X0115402Y0046538D01*
X0115397Y0046504D01*
X0115395Y0046469D01*
X0114740Y0046553D02*
X0114740Y0045803D01*
X0114240Y0045803D02*
X0114240Y0046803D01*
X0114490Y0046803D02*
X0113740Y0046803D01*
X0113740Y0045803D01*
X0114740Y0046553D02*
X0114738Y0046583D01*
X0114733Y0046613D01*
X0114724Y0046642D01*
X0114711Y0046669D01*
X0114696Y0046695D01*
X0114677Y0046719D01*
X0114656Y0046740D01*
X0114632Y0046759D01*
X0114606Y0046774D01*
X0114579Y0046787D01*
X0114550Y0046796D01*
X0114520Y0046801D01*
X0114490Y0046803D01*
X0117466Y0046803D02*
X0117496Y0046801D01*
X0117526Y0046796D01*
X0117555Y0046787D01*
X0117582Y0046774D01*
X0117608Y0046759D01*
X0117632Y0046740D01*
X0117653Y0046719D01*
X0117672Y0046695D01*
X0117687Y0046669D01*
X0117700Y0046642D01*
X0117709Y0046613D01*
X0117714Y0046583D01*
X0117716Y0046553D01*
X0106806Y0039340D02*
X0106640Y0039340D01*
X0106640Y0039339D02*
X0106605Y0039337D01*
X0106571Y0039332D01*
X0106537Y0039323D01*
X0106505Y0039310D01*
X0106474Y0039294D01*
X0106444Y0039275D01*
X0106417Y0039253D01*
X0106393Y0039229D01*
X0106371Y0039202D01*
X0106352Y0039173D01*
X0106336Y0039141D01*
X0106323Y0039109D01*
X0106314Y0039075D01*
X0106309Y0039041D01*
X0106307Y0039006D01*
X0106306Y0039006D02*
X0106306Y0038506D01*
X0105640Y0038506D01*
X0105640Y0039340D01*
X0106806Y0039339D02*
X0106841Y0039337D01*
X0106875Y0039332D01*
X0106909Y0039323D01*
X0106941Y0039310D01*
X0106973Y0039294D01*
X0107002Y0039275D01*
X0107029Y0039253D01*
X0107053Y0039229D01*
X0107075Y0039202D01*
X0107094Y0039173D01*
X0107110Y0039141D01*
X0107123Y0039109D01*
X0107132Y0039075D01*
X0107137Y0039041D01*
X0107139Y0039006D01*
X0107140Y0039006D02*
X0107140Y0038506D01*
X0107140Y0037969D02*
X0107140Y0037636D01*
X0107139Y0037636D02*
X0107137Y0037601D01*
X0107132Y0037567D01*
X0107123Y0037533D01*
X0107110Y0037501D01*
X0107094Y0037470D01*
X0107075Y0037440D01*
X0107053Y0037413D01*
X0107029Y0037389D01*
X0107002Y0037367D01*
X0106973Y0037348D01*
X0106941Y0037332D01*
X0106909Y0037319D01*
X0106875Y0037310D01*
X0106841Y0037305D01*
X0106806Y0037303D01*
X0105973Y0037303D01*
X0105938Y0037305D01*
X0105904Y0037310D01*
X0105870Y0037319D01*
X0105838Y0037332D01*
X0105807Y0037348D01*
X0105777Y0037367D01*
X0105750Y0037389D01*
X0105726Y0037413D01*
X0105704Y0037440D01*
X0105685Y0037469D01*
X0105669Y0037501D01*
X0105656Y0037533D01*
X0105647Y0037567D01*
X0105642Y0037601D01*
X0105640Y0037636D01*
X0105640Y0037969D01*
X0092140Y0034436D02*
X0090640Y0034436D01*
X0090640Y0034020D02*
X0090640Y0034853D01*
X0091556Y0035376D02*
X0091556Y0036376D01*
X0092140Y0033592D02*
X0090640Y0033092D01*
X0092140Y0032592D01*
X0091765Y0032717D02*
X0091765Y0033467D01*
X0092140Y0031719D02*
X0092138Y0031759D01*
X0092132Y0031798D01*
X0092123Y0031836D01*
X0092110Y0031874D01*
X0092094Y0031910D01*
X0092074Y0031944D01*
X0092051Y0031977D01*
X0092025Y0032007D01*
X0091996Y0032034D01*
X0091965Y0032059D01*
X0091932Y0032080D01*
X0091896Y0032098D01*
X0091859Y0032113D01*
X0091821Y0032124D01*
X0091782Y0032132D01*
X0091743Y0032136D01*
X0091703Y0032136D01*
X0091664Y0032132D01*
X0091625Y0032124D01*
X0091587Y0032113D01*
X0091550Y0032098D01*
X0091515Y0032080D01*
X0091481Y0032059D01*
X0091450Y0032034D01*
X0091421Y0032007D01*
X0091395Y0031977D01*
X0091372Y0031944D01*
X0091352Y0031910D01*
X0091336Y0031874D01*
X0091323Y0031836D01*
X0091314Y0031798D01*
X0091308Y0031759D01*
X0091306Y0031719D01*
X0091306Y0031303D01*
X0091306Y0031719D02*
X0091304Y0031754D01*
X0091299Y0031788D01*
X0091290Y0031822D01*
X0091277Y0031854D01*
X0091261Y0031886D01*
X0091242Y0031915D01*
X0091220Y0031942D01*
X0091196Y0031966D01*
X0091169Y0031988D01*
X0091140Y0032007D01*
X0091108Y0032023D01*
X0091076Y0032036D01*
X0091042Y0032045D01*
X0091008Y0032050D01*
X0090973Y0032052D01*
X0090938Y0032050D01*
X0090904Y0032045D01*
X0090870Y0032036D01*
X0090838Y0032023D01*
X0090807Y0032007D01*
X0090777Y0031988D01*
X0090750Y0031966D01*
X0090726Y0031942D01*
X0090704Y0031915D01*
X0090685Y0031886D01*
X0090669Y0031854D01*
X0090656Y0031822D01*
X0090647Y0031788D01*
X0090642Y0031754D01*
X0090640Y0031719D01*
X0090640Y0031303D01*
X0092140Y0031303D01*
X0092140Y0031719D01*
X0084140Y0031703D02*
X0083306Y0031703D01*
X0084015Y0032536D01*
X0083765Y0033203D02*
X0083725Y0033201D01*
X0083685Y0033196D01*
X0083645Y0033188D01*
X0083606Y0033176D01*
X0083569Y0033161D01*
X0083533Y0033143D01*
X0083498Y0033122D01*
X0083465Y0033099D01*
X0083435Y0033072D01*
X0083407Y0033043D01*
X0083381Y0033012D01*
X0083358Y0032979D01*
X0083338Y0032944D01*
X0083320Y0032907D01*
X0083306Y0032869D01*
X0084015Y0032536D02*
X0084040Y0032562D01*
X0084063Y0032591D01*
X0084083Y0032621D01*
X0084100Y0032653D01*
X0084114Y0032686D01*
X0084125Y0032721D01*
X0084133Y0032756D01*
X0084138Y0032792D01*
X0084140Y0032828D01*
X0084138Y0032865D01*
X0084133Y0032901D01*
X0084124Y0032937D01*
X0084111Y0032972D01*
X0084096Y0033005D01*
X0084077Y0033036D01*
X0084055Y0033066D01*
X0084030Y0033093D01*
X0084003Y0033118D01*
X0083973Y0033140D01*
X0083942Y0033159D01*
X0083909Y0033174D01*
X0083874Y0033187D01*
X0083838Y0033196D01*
X0083802Y0033201D01*
X0083765Y0033203D01*
X0082109Y0033203D02*
X0082109Y0031703D01*
X0082776Y0031703D01*
X0065640Y0035803D02*
X0064140Y0035803D01*
X0064140Y0036219D01*
X0064139Y0036219D02*
X0064141Y0036259D01*
X0064147Y0036298D01*
X0064156Y0036336D01*
X0064169Y0036374D01*
X0064185Y0036410D01*
X0064205Y0036444D01*
X0064228Y0036477D01*
X0064254Y0036507D01*
X0064283Y0036534D01*
X0064314Y0036559D01*
X0064348Y0036580D01*
X0064383Y0036598D01*
X0064420Y0036613D01*
X0064458Y0036624D01*
X0064497Y0036632D01*
X0064536Y0036636D01*
X0064576Y0036636D01*
X0064615Y0036632D01*
X0064654Y0036624D01*
X0064692Y0036613D01*
X0064729Y0036598D01*
X0064765Y0036580D01*
X0064798Y0036559D01*
X0064829Y0036534D01*
X0064858Y0036507D01*
X0064884Y0036477D01*
X0064907Y0036444D01*
X0064927Y0036410D01*
X0064943Y0036374D01*
X0064956Y0036336D01*
X0064965Y0036298D01*
X0064971Y0036259D01*
X0064973Y0036219D01*
X0064973Y0035803D01*
X0064973Y0036303D02*
X0065640Y0036636D01*
X0065306Y0037234D02*
X0065306Y0038068D01*
X0064973Y0037818D02*
X0065640Y0037818D01*
X0065306Y0037234D02*
X0064140Y0037568D01*
X0057140Y0037651D02*
X0057140Y0037234D01*
X0057140Y0037651D02*
X0057138Y0037691D01*
X0057132Y0037730D01*
X0057123Y0037768D01*
X0057110Y0037806D01*
X0057094Y0037842D01*
X0057074Y0037876D01*
X0057051Y0037909D01*
X0057025Y0037939D01*
X0056996Y0037966D01*
X0056965Y0037991D01*
X0056932Y0038012D01*
X0056896Y0038030D01*
X0056859Y0038045D01*
X0056821Y0038056D01*
X0056782Y0038064D01*
X0056743Y0038068D01*
X0056703Y0038068D01*
X0056664Y0038064D01*
X0056625Y0038056D01*
X0056587Y0038045D01*
X0056550Y0038030D01*
X0056515Y0038012D01*
X0056481Y0037991D01*
X0056450Y0037966D01*
X0056421Y0037939D01*
X0056395Y0037909D01*
X0056372Y0037876D01*
X0056352Y0037842D01*
X0056336Y0037806D01*
X0056323Y0037768D01*
X0056314Y0037730D01*
X0056308Y0037691D01*
X0056306Y0037651D01*
X0056306Y0037734D02*
X0056306Y0037401D01*
X0056306Y0037734D02*
X0056304Y0037769D01*
X0056299Y0037803D01*
X0056290Y0037837D01*
X0056277Y0037869D01*
X0056261Y0037901D01*
X0056242Y0037930D01*
X0056220Y0037957D01*
X0056196Y0037981D01*
X0056169Y0038003D01*
X0056140Y0038022D01*
X0056108Y0038038D01*
X0056076Y0038051D01*
X0056042Y0038060D01*
X0056008Y0038065D01*
X0055973Y0038067D01*
X0055938Y0038065D01*
X0055904Y0038060D01*
X0055870Y0038051D01*
X0055838Y0038038D01*
X0055807Y0038022D01*
X0055777Y0038003D01*
X0055750Y0037981D01*
X0055726Y0037957D01*
X0055704Y0037930D01*
X0055685Y0037901D01*
X0055669Y0037869D01*
X0055656Y0037837D01*
X0055647Y0037803D01*
X0055642Y0037769D01*
X0055640Y0037734D01*
X0055640Y0037234D01*
X0055640Y0036219D02*
X0055640Y0035803D01*
X0057140Y0035803D01*
X0056473Y0035803D02*
X0056473Y0036219D01*
X0056473Y0036303D02*
X0057140Y0036636D01*
X0056473Y0036219D02*
X0056471Y0036259D01*
X0056465Y0036298D01*
X0056456Y0036336D01*
X0056443Y0036374D01*
X0056427Y0036410D01*
X0056407Y0036444D01*
X0056384Y0036477D01*
X0056358Y0036507D01*
X0056329Y0036534D01*
X0056298Y0036559D01*
X0056265Y0036580D01*
X0056229Y0036598D01*
X0056192Y0036613D01*
X0056154Y0036624D01*
X0056115Y0036632D01*
X0056076Y0036636D01*
X0056036Y0036636D01*
X0055997Y0036632D01*
X0055958Y0036624D01*
X0055920Y0036613D01*
X0055883Y0036598D01*
X0055848Y0036580D01*
X0055814Y0036559D01*
X0055783Y0036534D01*
X0055754Y0036507D01*
X0055728Y0036477D01*
X0055705Y0036444D01*
X0055685Y0036410D01*
X0055669Y0036374D01*
X0055656Y0036336D01*
X0055647Y0036298D01*
X0055641Y0036259D01*
X0055639Y0036219D01*
X0049140Y0036136D02*
X0049140Y0036469D01*
X0049139Y0036136D02*
X0049137Y0036101D01*
X0049132Y0036067D01*
X0049123Y0036033D01*
X0049110Y0036001D01*
X0049094Y0035970D01*
X0049075Y0035940D01*
X0049053Y0035913D01*
X0049029Y0035889D01*
X0049002Y0035867D01*
X0048973Y0035848D01*
X0048941Y0035832D01*
X0048909Y0035819D01*
X0048875Y0035810D01*
X0048841Y0035805D01*
X0048806Y0035803D01*
X0047973Y0035803D01*
X0047938Y0035805D01*
X0047904Y0035810D01*
X0047870Y0035819D01*
X0047838Y0035832D01*
X0047807Y0035848D01*
X0047777Y0035867D01*
X0047750Y0035889D01*
X0047726Y0035913D01*
X0047704Y0035940D01*
X0047685Y0035969D01*
X0047669Y0036001D01*
X0047656Y0036033D01*
X0047647Y0036067D01*
X0047642Y0036101D01*
X0047640Y0036136D01*
X0047640Y0036469D01*
X0047973Y0037006D02*
X0047640Y0037423D01*
X0049140Y0037423D01*
X0049140Y0037006D02*
X0049140Y0037840D01*
D11*
X0049806Y0056403D02*
X0049806Y0060103D01*
X0048573Y0058047D01*
X0047340Y0060103D01*
X0047340Y0056403D01*
X0051402Y0056403D02*
X0052224Y0056403D01*
X0051813Y0056403D02*
X0051813Y0060103D01*
X0051402Y0060103D02*
X0052224Y0060103D01*
X0053655Y0059281D02*
X0053655Y0057225D01*
X0053657Y0057169D01*
X0053663Y0057113D01*
X0053672Y0057058D01*
X0053685Y0057003D01*
X0053702Y0056950D01*
X0053723Y0056898D01*
X0053747Y0056847D01*
X0053775Y0056798D01*
X0053805Y0056751D01*
X0053839Y0056706D01*
X0053876Y0056664D01*
X0053916Y0056624D01*
X0053958Y0056587D01*
X0054003Y0056553D01*
X0054050Y0056523D01*
X0054099Y0056495D01*
X0054150Y0056471D01*
X0054202Y0056450D01*
X0054255Y0056433D01*
X0054310Y0056420D01*
X0054365Y0056411D01*
X0054421Y0056405D01*
X0054477Y0056403D01*
X0055300Y0056403D01*
X0053655Y0059281D02*
X0053657Y0059337D01*
X0053663Y0059393D01*
X0053672Y0059448D01*
X0053685Y0059503D01*
X0053702Y0059556D01*
X0053723Y0059608D01*
X0053747Y0059659D01*
X0053775Y0059708D01*
X0053805Y0059755D01*
X0053839Y0059800D01*
X0053876Y0059842D01*
X0053916Y0059882D01*
X0053958Y0059919D01*
X0054003Y0059953D01*
X0054050Y0059983D01*
X0054099Y0060011D01*
X0054150Y0060035D01*
X0054202Y0060056D01*
X0054255Y0060073D01*
X0054310Y0060086D01*
X0054365Y0060095D01*
X0054421Y0060101D01*
X0054477Y0060103D01*
X0055300Y0060103D01*
X0113581Y0050848D02*
X0113581Y0047541D01*
X0119644Y0047541D01*
X0119644Y0050848D01*
X0113581Y0050848D01*
D12*
X0141994Y0076431D02*
X0143217Y0076431D01*
X0142606Y0076431D02*
X0142606Y0078631D01*
X0141994Y0078143D01*
D13*
X0090288Y0067442D02*
X0090288Y0061064D01*
X0089918Y0061064D01*
X0086745Y0061064D02*
X0086375Y0061064D01*
X0083005Y0061064D02*
X0082635Y0061064D01*
X0079461Y0061064D02*
X0079091Y0061064D01*
X0079091Y0067442D01*
X0079461Y0067442D01*
X0082635Y0067442D02*
X0086745Y0067442D01*
X0089918Y0067442D02*
X0090288Y0067442D01*
X0094091Y0050351D02*
X0096288Y0050351D01*
X0094091Y0050351D02*
X0094091Y0047154D01*
X0103091Y0050351D02*
X0105288Y0050351D01*
X0105288Y0047154D01*
X0035774Y0055769D02*
X0035774Y0056250D01*
X0035774Y0055769D02*
X0029393Y0055769D01*
X0029393Y0056250D01*
X0029393Y0059420D02*
X0029393Y0059794D01*
X0035774Y0059420D02*
X0035774Y0063534D01*
X0029393Y0063534D02*
X0029393Y0063161D01*
X0029393Y0066704D02*
X0029393Y0067186D01*
X0035774Y0067186D01*
X0035774Y0066704D01*
D14*
X0120779Y0072999D02*
X0120779Y0075664D01*
X0123450Y0075664D01*
X0123450Y0075670D01*
X0120779Y0072999D01*
X0140517Y0085690D02*
X0145241Y0085690D01*
D15*
X0079552Y0083662D03*
X0074828Y0083662D03*
D16*
X0077190Y0083662D03*
X0123599Y0089753D03*
X0139099Y0089753D03*
D17*
X0139099Y0092115D03*
X0139099Y0087391D03*
X0123599Y0087391D03*
X0123599Y0092115D03*
D18*
X0113454Y0092639D02*
X0113454Y0096772D01*
X0083926Y0096772D01*
X0083926Y0092639D01*
X0083926Y0084371D02*
X0083926Y0077087D01*
X0113454Y0077087D02*
X0113454Y0084371D01*
X0196213Y0068839D02*
X0196213Y0046398D01*
X0251351Y0033918D02*
X0255072Y0033918D01*
X0255072Y0089587D01*
X0251351Y0089587D01*
D19*
X0257296Y0076753D02*
X0257298Y0076792D01*
X0257304Y0076831D01*
X0257314Y0076869D01*
X0257327Y0076906D01*
X0257344Y0076941D01*
X0257364Y0076975D01*
X0257388Y0077006D01*
X0257415Y0077035D01*
X0257444Y0077061D01*
X0257476Y0077084D01*
X0257510Y0077104D01*
X0257546Y0077120D01*
X0257583Y0077132D01*
X0257622Y0077141D01*
X0257661Y0077146D01*
X0257700Y0077147D01*
X0257739Y0077144D01*
X0257778Y0077137D01*
X0257815Y0077126D01*
X0257852Y0077112D01*
X0257887Y0077094D01*
X0257920Y0077073D01*
X0257951Y0077048D01*
X0257979Y0077021D01*
X0258004Y0076991D01*
X0258026Y0076958D01*
X0258045Y0076924D01*
X0258060Y0076888D01*
X0258072Y0076850D01*
X0258080Y0076812D01*
X0258084Y0076773D01*
X0258084Y0076733D01*
X0258080Y0076694D01*
X0258072Y0076656D01*
X0258060Y0076618D01*
X0258045Y0076582D01*
X0258026Y0076548D01*
X0258004Y0076515D01*
X0257979Y0076485D01*
X0257951Y0076458D01*
X0257920Y0076433D01*
X0257887Y0076412D01*
X0257852Y0076394D01*
X0257815Y0076380D01*
X0257778Y0076369D01*
X0257739Y0076362D01*
X0257700Y0076359D01*
X0257661Y0076360D01*
X0257622Y0076365D01*
X0257583Y0076374D01*
X0257546Y0076386D01*
X0257510Y0076402D01*
X0257476Y0076422D01*
X0257444Y0076445D01*
X0257415Y0076471D01*
X0257388Y0076500D01*
X0257364Y0076531D01*
X0257344Y0076565D01*
X0257327Y0076600D01*
X0257314Y0076637D01*
X0257304Y0076675D01*
X0257298Y0076714D01*
X0257296Y0076753D01*
X0103414Y0072757D02*
X0103416Y0072796D01*
X0103422Y0072835D01*
X0103432Y0072873D01*
X0103445Y0072910D01*
X0103462Y0072945D01*
X0103482Y0072979D01*
X0103506Y0073010D01*
X0103533Y0073039D01*
X0103562Y0073065D01*
X0103594Y0073088D01*
X0103628Y0073108D01*
X0103664Y0073124D01*
X0103701Y0073136D01*
X0103740Y0073145D01*
X0103779Y0073150D01*
X0103818Y0073151D01*
X0103857Y0073148D01*
X0103896Y0073141D01*
X0103933Y0073130D01*
X0103970Y0073116D01*
X0104005Y0073098D01*
X0104038Y0073077D01*
X0104069Y0073052D01*
X0104097Y0073025D01*
X0104122Y0072995D01*
X0104144Y0072962D01*
X0104163Y0072928D01*
X0104178Y0072892D01*
X0104190Y0072854D01*
X0104198Y0072816D01*
X0104202Y0072777D01*
X0104202Y0072737D01*
X0104198Y0072698D01*
X0104190Y0072660D01*
X0104178Y0072622D01*
X0104163Y0072586D01*
X0104144Y0072552D01*
X0104122Y0072519D01*
X0104097Y0072489D01*
X0104069Y0072462D01*
X0104038Y0072437D01*
X0104005Y0072416D01*
X0103970Y0072398D01*
X0103933Y0072384D01*
X0103896Y0072373D01*
X0103857Y0072366D01*
X0103818Y0072363D01*
X0103779Y0072364D01*
X0103740Y0072369D01*
X0103701Y0072378D01*
X0103664Y0072390D01*
X0103628Y0072406D01*
X0103594Y0072426D01*
X0103562Y0072449D01*
X0103533Y0072475D01*
X0103506Y0072504D01*
X0103482Y0072535D01*
X0103462Y0072569D01*
X0103445Y0072604D01*
X0103432Y0072641D01*
X0103422Y0072679D01*
X0103416Y0072718D01*
X0103414Y0072757D01*
D20*
X0037225Y0041847D02*
X0027383Y0041808D01*
X0027381Y0041762D01*
X0027376Y0041716D01*
X0027367Y0041670D01*
X0027354Y0041625D01*
X0027338Y0041582D01*
X0027319Y0041540D01*
X0027296Y0041499D01*
X0027270Y0041461D01*
X0027241Y0041424D01*
X0027210Y0041390D01*
X0027176Y0041359D01*
X0027139Y0041330D01*
X0027101Y0041304D01*
X0027060Y0041281D01*
X0027018Y0041262D01*
X0026975Y0041246D01*
X0026930Y0041233D01*
X0026884Y0041224D01*
X0026838Y0041219D01*
X0026792Y0041217D01*
X0026792Y0040233D01*
X0026831Y0033146D02*
X0026831Y0032083D01*
X0026831Y0032084D02*
X0026880Y0032082D01*
X0026930Y0032076D01*
X0026978Y0032067D01*
X0027026Y0032053D01*
X0027072Y0032036D01*
X0027117Y0032015D01*
X0027160Y0031991D01*
X0027201Y0031964D01*
X0027240Y0031933D01*
X0027276Y0031899D01*
X0027310Y0031863D01*
X0027341Y0031824D01*
X0027368Y0031783D01*
X0027392Y0031740D01*
X0027413Y0031695D01*
X0027430Y0031649D01*
X0027444Y0031601D01*
X0027453Y0031553D01*
X0027459Y0031503D01*
X0027461Y0031454D01*
X0037265Y0031414D01*
M02*
