G75*
%MOIN*%
%OFA0B0*%
%FSLAX25Y25*%
%IPPOS*%
%LPD*%
%AMOC8*
5,1,8,0,0,1.08239X$1,22.5*
%
%ADD10C,0.00000*%
%ADD11C,0.00000*%
D10*
X0022190Y0029253D02*
X0022190Y0094253D01*
X0032190Y0094253D01*
X0032190Y0069253D01*
X0072190Y0069253D01*
X0072190Y0094253D01*
X0267190Y0094253D01*
X0267190Y0029253D01*
X0022190Y0029253D01*
X0171304Y0089686D02*
X0171306Y0089755D01*
X0171312Y0089823D01*
X0171322Y0089891D01*
X0171336Y0089958D01*
X0171354Y0090025D01*
X0171375Y0090090D01*
X0171401Y0090154D01*
X0171430Y0090216D01*
X0171462Y0090276D01*
X0171498Y0090335D01*
X0171538Y0090391D01*
X0171580Y0090445D01*
X0171626Y0090496D01*
X0171675Y0090545D01*
X0171726Y0090591D01*
X0171780Y0090633D01*
X0171836Y0090673D01*
X0171894Y0090709D01*
X0171955Y0090741D01*
X0172017Y0090770D01*
X0172081Y0090796D01*
X0172146Y0090817D01*
X0172213Y0090835D01*
X0172280Y0090849D01*
X0172348Y0090859D01*
X0172416Y0090865D01*
X0172485Y0090867D01*
X0172554Y0090865D01*
X0172622Y0090859D01*
X0172690Y0090849D01*
X0172757Y0090835D01*
X0172824Y0090817D01*
X0172889Y0090796D01*
X0172953Y0090770D01*
X0173015Y0090741D01*
X0173075Y0090709D01*
X0173134Y0090673D01*
X0173190Y0090633D01*
X0173244Y0090591D01*
X0173295Y0090545D01*
X0173344Y0090496D01*
X0173390Y0090445D01*
X0173432Y0090391D01*
X0173472Y0090335D01*
X0173508Y0090276D01*
X0173540Y0090216D01*
X0173569Y0090154D01*
X0173595Y0090090D01*
X0173616Y0090025D01*
X0173634Y0089958D01*
X0173648Y0089891D01*
X0173658Y0089823D01*
X0173664Y0089755D01*
X0173666Y0089686D01*
X0173664Y0089617D01*
X0173658Y0089549D01*
X0173648Y0089481D01*
X0173634Y0089414D01*
X0173616Y0089347D01*
X0173595Y0089282D01*
X0173569Y0089218D01*
X0173540Y0089156D01*
X0173508Y0089095D01*
X0173472Y0089037D01*
X0173432Y0088981D01*
X0173390Y0088927D01*
X0173344Y0088876D01*
X0173295Y0088827D01*
X0173244Y0088781D01*
X0173190Y0088739D01*
X0173134Y0088699D01*
X0173076Y0088663D01*
X0173015Y0088631D01*
X0172953Y0088602D01*
X0172889Y0088576D01*
X0172824Y0088555D01*
X0172757Y0088537D01*
X0172690Y0088523D01*
X0172622Y0088513D01*
X0172554Y0088507D01*
X0172485Y0088505D01*
X0172416Y0088507D01*
X0172348Y0088513D01*
X0172280Y0088523D01*
X0172213Y0088537D01*
X0172146Y0088555D01*
X0172081Y0088576D01*
X0172017Y0088602D01*
X0171955Y0088631D01*
X0171894Y0088663D01*
X0171836Y0088699D01*
X0171780Y0088739D01*
X0171726Y0088781D01*
X0171675Y0088827D01*
X0171626Y0088876D01*
X0171580Y0088927D01*
X0171538Y0088981D01*
X0171498Y0089037D01*
X0171462Y0089095D01*
X0171430Y0089156D01*
X0171401Y0089218D01*
X0171375Y0089282D01*
X0171354Y0089347D01*
X0171336Y0089414D01*
X0171322Y0089481D01*
X0171312Y0089549D01*
X0171306Y0089617D01*
X0171304Y0089686D01*
X0185674Y0089686D02*
X0185676Y0089755D01*
X0185682Y0089823D01*
X0185692Y0089891D01*
X0185706Y0089958D01*
X0185724Y0090025D01*
X0185745Y0090090D01*
X0185771Y0090154D01*
X0185800Y0090216D01*
X0185832Y0090276D01*
X0185868Y0090335D01*
X0185908Y0090391D01*
X0185950Y0090445D01*
X0185996Y0090496D01*
X0186045Y0090545D01*
X0186096Y0090591D01*
X0186150Y0090633D01*
X0186206Y0090673D01*
X0186264Y0090709D01*
X0186325Y0090741D01*
X0186387Y0090770D01*
X0186451Y0090796D01*
X0186516Y0090817D01*
X0186583Y0090835D01*
X0186650Y0090849D01*
X0186718Y0090859D01*
X0186786Y0090865D01*
X0186855Y0090867D01*
X0186924Y0090865D01*
X0186992Y0090859D01*
X0187060Y0090849D01*
X0187127Y0090835D01*
X0187194Y0090817D01*
X0187259Y0090796D01*
X0187323Y0090770D01*
X0187385Y0090741D01*
X0187445Y0090709D01*
X0187504Y0090673D01*
X0187560Y0090633D01*
X0187614Y0090591D01*
X0187665Y0090545D01*
X0187714Y0090496D01*
X0187760Y0090445D01*
X0187802Y0090391D01*
X0187842Y0090335D01*
X0187878Y0090276D01*
X0187910Y0090216D01*
X0187939Y0090154D01*
X0187965Y0090090D01*
X0187986Y0090025D01*
X0188004Y0089958D01*
X0188018Y0089891D01*
X0188028Y0089823D01*
X0188034Y0089755D01*
X0188036Y0089686D01*
X0188034Y0089617D01*
X0188028Y0089549D01*
X0188018Y0089481D01*
X0188004Y0089414D01*
X0187986Y0089347D01*
X0187965Y0089282D01*
X0187939Y0089218D01*
X0187910Y0089156D01*
X0187878Y0089095D01*
X0187842Y0089037D01*
X0187802Y0088981D01*
X0187760Y0088927D01*
X0187714Y0088876D01*
X0187665Y0088827D01*
X0187614Y0088781D01*
X0187560Y0088739D01*
X0187504Y0088699D01*
X0187446Y0088663D01*
X0187385Y0088631D01*
X0187323Y0088602D01*
X0187259Y0088576D01*
X0187194Y0088555D01*
X0187127Y0088537D01*
X0187060Y0088523D01*
X0186992Y0088513D01*
X0186924Y0088507D01*
X0186855Y0088505D01*
X0186786Y0088507D01*
X0186718Y0088513D01*
X0186650Y0088523D01*
X0186583Y0088537D01*
X0186516Y0088555D01*
X0186451Y0088576D01*
X0186387Y0088602D01*
X0186325Y0088631D01*
X0186264Y0088663D01*
X0186206Y0088699D01*
X0186150Y0088739D01*
X0186096Y0088781D01*
X0186045Y0088827D01*
X0185996Y0088876D01*
X0185950Y0088927D01*
X0185908Y0088981D01*
X0185868Y0089037D01*
X0185832Y0089095D01*
X0185800Y0089156D01*
X0185771Y0089218D01*
X0185745Y0089282D01*
X0185724Y0089347D01*
X0185706Y0089414D01*
X0185692Y0089481D01*
X0185682Y0089549D01*
X0185676Y0089617D01*
X0185674Y0089686D01*
D11*
X0113650Y0089686D02*
X0113650Y0086930D01*
X0112469Y0085749D02*
X0112403Y0085751D01*
X0112337Y0085756D01*
X0112271Y0085766D01*
X0112206Y0085779D01*
X0112142Y0085795D01*
X0112079Y0085815D01*
X0112017Y0085839D01*
X0111957Y0085866D01*
X0111898Y0085896D01*
X0111841Y0085930D01*
X0111786Y0085967D01*
X0111733Y0086007D01*
X0111682Y0086049D01*
X0111634Y0086095D01*
X0111588Y0086143D01*
X0111546Y0086194D01*
X0111506Y0086247D01*
X0111469Y0086302D01*
X0111435Y0086359D01*
X0111405Y0086418D01*
X0111378Y0086478D01*
X0111354Y0086540D01*
X0111334Y0086603D01*
X0111318Y0086667D01*
X0111305Y0086732D01*
X0111295Y0086798D01*
X0111290Y0086864D01*
X0111288Y0086930D01*
X0111288Y0089686D01*
X0112469Y0090867D02*
X0112535Y0090865D01*
X0112601Y0090860D01*
X0112667Y0090850D01*
X0112732Y0090837D01*
X0112796Y0090821D01*
X0112859Y0090801D01*
X0112921Y0090777D01*
X0112981Y0090750D01*
X0113040Y0090720D01*
X0113097Y0090686D01*
X0113152Y0090649D01*
X0113205Y0090609D01*
X0113256Y0090567D01*
X0113304Y0090521D01*
X0113350Y0090473D01*
X0113392Y0090422D01*
X0113432Y0090369D01*
X0113469Y0090314D01*
X0113503Y0090257D01*
X0113533Y0090198D01*
X0113560Y0090138D01*
X0113584Y0090076D01*
X0113604Y0090013D01*
X0113620Y0089949D01*
X0113633Y0089884D01*
X0113643Y0089818D01*
X0113648Y0089752D01*
X0113650Y0089686D01*
X0112469Y0090867D02*
X0112403Y0090865D01*
X0112337Y0090860D01*
X0112271Y0090850D01*
X0112206Y0090837D01*
X0112142Y0090821D01*
X0112079Y0090801D01*
X0112017Y0090777D01*
X0111957Y0090750D01*
X0111898Y0090720D01*
X0111841Y0090686D01*
X0111786Y0090649D01*
X0111733Y0090609D01*
X0111682Y0090567D01*
X0111634Y0090521D01*
X0111588Y0090473D01*
X0111546Y0090422D01*
X0111506Y0090369D01*
X0111469Y0090314D01*
X0111435Y0090257D01*
X0111405Y0090198D01*
X0111378Y0090138D01*
X0111354Y0090076D01*
X0111334Y0090013D01*
X0111318Y0089949D01*
X0111305Y0089884D01*
X0111295Y0089818D01*
X0111290Y0089752D01*
X0111288Y0089686D01*
X0113650Y0086930D02*
X0113648Y0086864D01*
X0113643Y0086798D01*
X0113633Y0086732D01*
X0113620Y0086667D01*
X0113604Y0086603D01*
X0113584Y0086540D01*
X0113560Y0086478D01*
X0113533Y0086418D01*
X0113503Y0086359D01*
X0113469Y0086302D01*
X0113432Y0086247D01*
X0113392Y0086194D01*
X0113350Y0086143D01*
X0113304Y0086095D01*
X0113256Y0086049D01*
X0113205Y0086007D01*
X0113152Y0085967D01*
X0113097Y0085930D01*
X0113040Y0085896D01*
X0112981Y0085866D01*
X0112921Y0085839D01*
X0112859Y0085815D01*
X0112796Y0085795D01*
X0112732Y0085779D01*
X0112667Y0085766D01*
X0112601Y0085756D01*
X0112535Y0085751D01*
X0112469Y0085749D01*
X0086091Y0086930D02*
X0086091Y0089686D01*
X0086089Y0089752D01*
X0086084Y0089818D01*
X0086074Y0089884D01*
X0086061Y0089949D01*
X0086045Y0090013D01*
X0086025Y0090076D01*
X0086001Y0090138D01*
X0085974Y0090198D01*
X0085944Y0090257D01*
X0085910Y0090314D01*
X0085873Y0090369D01*
X0085833Y0090422D01*
X0085791Y0090473D01*
X0085745Y0090521D01*
X0085697Y0090567D01*
X0085646Y0090609D01*
X0085593Y0090649D01*
X0085538Y0090686D01*
X0085481Y0090720D01*
X0085422Y0090750D01*
X0085362Y0090777D01*
X0085300Y0090801D01*
X0085237Y0090821D01*
X0085173Y0090837D01*
X0085108Y0090850D01*
X0085042Y0090860D01*
X0084976Y0090865D01*
X0084910Y0090867D01*
X0084844Y0090865D01*
X0084778Y0090860D01*
X0084712Y0090850D01*
X0084647Y0090837D01*
X0084583Y0090821D01*
X0084520Y0090801D01*
X0084458Y0090777D01*
X0084398Y0090750D01*
X0084339Y0090720D01*
X0084282Y0090686D01*
X0084227Y0090649D01*
X0084174Y0090609D01*
X0084123Y0090567D01*
X0084075Y0090521D01*
X0084029Y0090473D01*
X0083987Y0090422D01*
X0083947Y0090369D01*
X0083910Y0090314D01*
X0083876Y0090257D01*
X0083846Y0090198D01*
X0083819Y0090138D01*
X0083795Y0090076D01*
X0083775Y0090013D01*
X0083759Y0089949D01*
X0083746Y0089884D01*
X0083736Y0089818D01*
X0083731Y0089752D01*
X0083729Y0089686D01*
X0083729Y0086930D01*
X0083731Y0086864D01*
X0083736Y0086798D01*
X0083746Y0086732D01*
X0083759Y0086667D01*
X0083775Y0086603D01*
X0083795Y0086540D01*
X0083819Y0086478D01*
X0083846Y0086418D01*
X0083876Y0086359D01*
X0083910Y0086302D01*
X0083947Y0086247D01*
X0083987Y0086194D01*
X0084029Y0086143D01*
X0084075Y0086095D01*
X0084123Y0086049D01*
X0084174Y0086007D01*
X0084227Y0085967D01*
X0084282Y0085930D01*
X0084339Y0085896D01*
X0084398Y0085866D01*
X0084458Y0085839D01*
X0084520Y0085815D01*
X0084583Y0085795D01*
X0084647Y0085779D01*
X0084712Y0085766D01*
X0084778Y0085756D01*
X0084844Y0085751D01*
X0084910Y0085749D01*
X0084976Y0085751D01*
X0085042Y0085756D01*
X0085108Y0085766D01*
X0085173Y0085779D01*
X0085237Y0085795D01*
X0085300Y0085815D01*
X0085362Y0085839D01*
X0085422Y0085866D01*
X0085481Y0085896D01*
X0085538Y0085930D01*
X0085593Y0085967D01*
X0085646Y0086007D01*
X0085697Y0086049D01*
X0085745Y0086095D01*
X0085791Y0086143D01*
X0085833Y0086194D01*
X0085873Y0086247D01*
X0085910Y0086302D01*
X0085944Y0086359D01*
X0085974Y0086418D01*
X0086001Y0086478D01*
X0086025Y0086540D01*
X0086045Y0086603D01*
X0086061Y0086667D01*
X0086074Y0086732D01*
X0086084Y0086798D01*
X0086089Y0086864D01*
X0086091Y0086930D01*
M02*
