G75*
%MOIN*%
%OFA0B0*%
%FSLAX25Y25*%
%IPPOS*%
%LPD*%
%AMOC8*
5,1,8,0,0,1.08239X$1,22.5*
%
%ADD10R,0.03937X0.04331*%
%ADD11R,0.05906X0.05118*%
%ADD12R,0.03937X0.03937*%
%ADD13R,0.04331X0.03937*%
%ADD14R,0.04724X0.02717*%
%ADD15C,0.00276*%
%ADD16C,0.02913*%
%ADD17C,0.04756*%
%ADD18R,0.03937X0.05512*%
%ADD19R,0.02165X0.04724*%
%ADD20R,0.04724X0.04724*%
%ADD21C,0.03937*%
%ADD22R,0.10000X0.05000*%
%ADD23R,0.04882X0.03150*%
%ADD24R,0.09843X0.03740*%
%ADD25R,0.08661X0.04528*%
%ADD26R,0.04921X0.04567*%
%ADD27R,0.04724X0.04567*%
%ADD28R,0.04528X0.05906*%
%ADD29C,0.01000*%
%ADD30C,0.07000*%
%ADD31C,0.05709*%
%ADD32R,0.01575X0.05315*%
%ADD33R,0.05906X0.07480*%
%ADD34R,0.04724X0.07480*%
%ADD35C,0.04362*%
%ADD36R,0.02756X0.04331*%
%ADD37R,0.05512X0.04331*%
%ADD38R,0.04528X0.02559*%
%ADD39R,0.05906X0.06299*%
%ADD40C,0.00600*%
%ADD41C,0.02978*%
%ADD42C,0.01000*%
%ADD43C,0.00800*%
D10*
X0052690Y0033406D03*
X0052690Y0040099D03*
X0052690Y0045906D03*
X0044572Y0045965D03*
X0044572Y0052658D03*
X0052690Y0052599D03*
X0028690Y0052717D03*
X0028690Y0046024D03*
X0095690Y0058406D03*
X0103690Y0058406D03*
X0103690Y0065099D03*
X0095690Y0065099D03*
X0127843Y0082753D03*
X0134536Y0082753D03*
X0153190Y0058599D03*
X0153190Y0051906D03*
X0143690Y0046599D03*
X0143690Y0039906D03*
X0111690Y0042599D03*
X0111690Y0035906D03*
D11*
X0164190Y0035513D03*
X0164190Y0042993D03*
D12*
X0164190Y0051316D03*
X0164190Y0059190D03*
X0087186Y0035808D03*
X0079312Y0035808D03*
D13*
X0068690Y0033406D03*
X0060690Y0033406D03*
X0060690Y0040099D03*
X0068690Y0040099D03*
X0079690Y0043406D03*
X0087690Y0043406D03*
X0087690Y0050099D03*
X0079690Y0050099D03*
X0068690Y0052599D03*
X0060690Y0052599D03*
X0060690Y0045906D03*
X0068690Y0045906D03*
X0036690Y0046024D03*
X0036690Y0052717D03*
X0065284Y0062509D03*
X0071977Y0062509D03*
X0111690Y0061906D03*
X0111690Y0068599D03*
X0153690Y0068406D03*
X0170690Y0069906D03*
X0178690Y0070788D03*
X0178690Y0065670D03*
X0178690Y0058977D03*
X0178690Y0053599D03*
X0178690Y0046906D03*
X0178690Y0041599D03*
X0178690Y0034906D03*
X0153190Y0039906D03*
X0153190Y0046599D03*
X0153690Y0075099D03*
X0170690Y0076599D03*
X0178690Y0077481D03*
X0027296Y0076024D03*
X0027296Y0082717D03*
D14*
X0027465Y0065217D03*
X0027465Y0061477D03*
X0027465Y0057737D03*
X0037702Y0057737D03*
X0037702Y0065217D03*
D15*
X0120320Y0063702D02*
X0122800Y0063702D01*
X0120320Y0063702D02*
X0120320Y0064804D01*
X0122800Y0064804D01*
X0122800Y0063702D01*
X0122800Y0063977D02*
X0120320Y0063977D01*
X0120320Y0064252D02*
X0122800Y0064252D01*
X0122800Y0064527D02*
X0120320Y0064527D01*
X0120320Y0064802D02*
X0122800Y0064802D01*
X0122800Y0066261D02*
X0120320Y0066261D01*
X0120320Y0067363D01*
X0122800Y0067363D01*
X0122800Y0066261D01*
X0122800Y0066536D02*
X0120320Y0066536D01*
X0120320Y0066811D02*
X0122800Y0066811D01*
X0122800Y0067086D02*
X0120320Y0067086D01*
X0120320Y0067361D02*
X0122800Y0067361D01*
X0122800Y0068820D02*
X0120320Y0068820D01*
X0120320Y0069922D01*
X0122800Y0069922D01*
X0122800Y0068820D01*
X0122800Y0069095D02*
X0120320Y0069095D01*
X0120320Y0069370D02*
X0122800Y0069370D01*
X0122800Y0069645D02*
X0120320Y0069645D01*
X0120320Y0069920D02*
X0122800Y0069920D01*
X0122800Y0071379D02*
X0120320Y0071379D01*
X0120320Y0072481D01*
X0122800Y0072481D01*
X0122800Y0071379D01*
X0122800Y0071654D02*
X0120320Y0071654D01*
X0120320Y0071929D02*
X0122800Y0071929D01*
X0122800Y0072204D02*
X0120320Y0072204D01*
X0120320Y0072479D02*
X0122800Y0072479D01*
X0123962Y0073643D02*
X0125064Y0073643D01*
X0123962Y0073643D02*
X0123962Y0076123D01*
X0125064Y0076123D01*
X0125064Y0073643D01*
X0125064Y0073918D02*
X0123962Y0073918D01*
X0123962Y0074193D02*
X0125064Y0074193D01*
X0125064Y0074468D02*
X0123962Y0074468D01*
X0123962Y0074743D02*
X0125064Y0074743D01*
X0125064Y0075018D02*
X0123962Y0075018D01*
X0123962Y0075293D02*
X0125064Y0075293D01*
X0125064Y0075568D02*
X0123962Y0075568D01*
X0123962Y0075843D02*
X0125064Y0075843D01*
X0125064Y0076118D02*
X0123962Y0076118D01*
X0126521Y0073643D02*
X0127623Y0073643D01*
X0126521Y0073643D02*
X0126521Y0076123D01*
X0127623Y0076123D01*
X0127623Y0073643D01*
X0127623Y0073918D02*
X0126521Y0073918D01*
X0126521Y0074193D02*
X0127623Y0074193D01*
X0127623Y0074468D02*
X0126521Y0074468D01*
X0126521Y0074743D02*
X0127623Y0074743D01*
X0127623Y0075018D02*
X0126521Y0075018D01*
X0126521Y0075293D02*
X0127623Y0075293D01*
X0127623Y0075568D02*
X0126521Y0075568D01*
X0126521Y0075843D02*
X0127623Y0075843D01*
X0127623Y0076118D02*
X0126521Y0076118D01*
X0129080Y0073643D02*
X0130182Y0073643D01*
X0129080Y0073643D02*
X0129080Y0076123D01*
X0130182Y0076123D01*
X0130182Y0073643D01*
X0130182Y0073918D02*
X0129080Y0073918D01*
X0129080Y0074193D02*
X0130182Y0074193D01*
X0130182Y0074468D02*
X0129080Y0074468D01*
X0129080Y0074743D02*
X0130182Y0074743D01*
X0130182Y0075018D02*
X0129080Y0075018D01*
X0129080Y0075293D02*
X0130182Y0075293D01*
X0130182Y0075568D02*
X0129080Y0075568D01*
X0129080Y0075843D02*
X0130182Y0075843D01*
X0130182Y0076118D02*
X0129080Y0076118D01*
X0131639Y0073643D02*
X0132741Y0073643D01*
X0131639Y0073643D02*
X0131639Y0076123D01*
X0132741Y0076123D01*
X0132741Y0073643D01*
X0132741Y0073918D02*
X0131639Y0073918D01*
X0131639Y0074193D02*
X0132741Y0074193D01*
X0132741Y0074468D02*
X0131639Y0074468D01*
X0131639Y0074743D02*
X0132741Y0074743D01*
X0132741Y0075018D02*
X0131639Y0075018D01*
X0131639Y0075293D02*
X0132741Y0075293D01*
X0132741Y0075568D02*
X0131639Y0075568D01*
X0131639Y0075843D02*
X0132741Y0075843D01*
X0132741Y0076118D02*
X0131639Y0076118D01*
X0134198Y0073643D02*
X0135300Y0073643D01*
X0134198Y0073643D02*
X0134198Y0076123D01*
X0135300Y0076123D01*
X0135300Y0073643D01*
X0135300Y0073918D02*
X0134198Y0073918D01*
X0134198Y0074193D02*
X0135300Y0074193D01*
X0135300Y0074468D02*
X0134198Y0074468D01*
X0134198Y0074743D02*
X0135300Y0074743D01*
X0135300Y0075018D02*
X0134198Y0075018D01*
X0134198Y0075293D02*
X0135300Y0075293D01*
X0135300Y0075568D02*
X0134198Y0075568D01*
X0134198Y0075843D02*
X0135300Y0075843D01*
X0135300Y0076118D02*
X0134198Y0076118D01*
X0136757Y0073643D02*
X0137859Y0073643D01*
X0136757Y0073643D02*
X0136757Y0076123D01*
X0137859Y0076123D01*
X0137859Y0073643D01*
X0137859Y0073918D02*
X0136757Y0073918D01*
X0136757Y0074193D02*
X0137859Y0074193D01*
X0137859Y0074468D02*
X0136757Y0074468D01*
X0136757Y0074743D02*
X0137859Y0074743D01*
X0137859Y0075018D02*
X0136757Y0075018D01*
X0136757Y0075293D02*
X0137859Y0075293D01*
X0137859Y0075568D02*
X0136757Y0075568D01*
X0136757Y0075843D02*
X0137859Y0075843D01*
X0137859Y0076118D02*
X0136757Y0076118D01*
X0139316Y0073643D02*
X0140418Y0073643D01*
X0139316Y0073643D02*
X0139316Y0076123D01*
X0140418Y0076123D01*
X0140418Y0073643D01*
X0140418Y0073918D02*
X0139316Y0073918D01*
X0139316Y0074193D02*
X0140418Y0074193D01*
X0140418Y0074468D02*
X0139316Y0074468D01*
X0139316Y0074743D02*
X0140418Y0074743D01*
X0140418Y0075018D02*
X0139316Y0075018D01*
X0139316Y0075293D02*
X0140418Y0075293D01*
X0140418Y0075568D02*
X0139316Y0075568D01*
X0139316Y0075843D02*
X0140418Y0075843D01*
X0140418Y0076118D02*
X0139316Y0076118D01*
X0141580Y0071379D02*
X0144060Y0071379D01*
X0141580Y0071379D02*
X0141580Y0072481D01*
X0144060Y0072481D01*
X0144060Y0071379D01*
X0144060Y0071654D02*
X0141580Y0071654D01*
X0141580Y0071929D02*
X0144060Y0071929D01*
X0144060Y0072204D02*
X0141580Y0072204D01*
X0141580Y0072479D02*
X0144060Y0072479D01*
X0144060Y0068820D02*
X0141580Y0068820D01*
X0141580Y0069922D01*
X0144060Y0069922D01*
X0144060Y0068820D01*
X0144060Y0069095D02*
X0141580Y0069095D01*
X0141580Y0069370D02*
X0144060Y0069370D01*
X0144060Y0069645D02*
X0141580Y0069645D01*
X0141580Y0069920D02*
X0144060Y0069920D01*
X0144060Y0066261D02*
X0141580Y0066261D01*
X0141580Y0067363D01*
X0144060Y0067363D01*
X0144060Y0066261D01*
X0144060Y0066536D02*
X0141580Y0066536D01*
X0141580Y0066811D02*
X0144060Y0066811D01*
X0144060Y0067086D02*
X0141580Y0067086D01*
X0141580Y0067361D02*
X0144060Y0067361D01*
X0144060Y0063702D02*
X0141580Y0063702D01*
X0141580Y0064804D01*
X0144060Y0064804D01*
X0144060Y0063702D01*
X0144060Y0063977D02*
X0141580Y0063977D01*
X0141580Y0064252D02*
X0144060Y0064252D01*
X0144060Y0064527D02*
X0141580Y0064527D01*
X0141580Y0064802D02*
X0144060Y0064802D01*
X0144060Y0061143D02*
X0141580Y0061143D01*
X0141580Y0062245D01*
X0144060Y0062245D01*
X0144060Y0061143D01*
X0144060Y0061418D02*
X0141580Y0061418D01*
X0141580Y0061693D02*
X0144060Y0061693D01*
X0144060Y0061968D02*
X0141580Y0061968D01*
X0141580Y0062243D02*
X0144060Y0062243D01*
X0144060Y0058584D02*
X0141580Y0058584D01*
X0141580Y0059686D01*
X0144060Y0059686D01*
X0144060Y0058584D01*
X0144060Y0058859D02*
X0141580Y0058859D01*
X0141580Y0059134D02*
X0144060Y0059134D01*
X0144060Y0059409D02*
X0141580Y0059409D01*
X0141580Y0059684D02*
X0144060Y0059684D01*
X0144060Y0056025D02*
X0141580Y0056025D01*
X0141580Y0057127D01*
X0144060Y0057127D01*
X0144060Y0056025D01*
X0144060Y0056300D02*
X0141580Y0056300D01*
X0141580Y0056575D02*
X0144060Y0056575D01*
X0144060Y0056850D02*
X0141580Y0056850D01*
X0141580Y0057125D02*
X0144060Y0057125D01*
X0140418Y0052383D02*
X0139316Y0052383D01*
X0139316Y0054863D01*
X0140418Y0054863D01*
X0140418Y0052383D01*
X0140418Y0052658D02*
X0139316Y0052658D01*
X0139316Y0052933D02*
X0140418Y0052933D01*
X0140418Y0053208D02*
X0139316Y0053208D01*
X0139316Y0053483D02*
X0140418Y0053483D01*
X0140418Y0053758D02*
X0139316Y0053758D01*
X0139316Y0054033D02*
X0140418Y0054033D01*
X0140418Y0054308D02*
X0139316Y0054308D01*
X0139316Y0054583D02*
X0140418Y0054583D01*
X0140418Y0054858D02*
X0139316Y0054858D01*
X0137859Y0052383D02*
X0136757Y0052383D01*
X0136757Y0054863D01*
X0137859Y0054863D01*
X0137859Y0052383D01*
X0137859Y0052658D02*
X0136757Y0052658D01*
X0136757Y0052933D02*
X0137859Y0052933D01*
X0137859Y0053208D02*
X0136757Y0053208D01*
X0136757Y0053483D02*
X0137859Y0053483D01*
X0137859Y0053758D02*
X0136757Y0053758D01*
X0136757Y0054033D02*
X0137859Y0054033D01*
X0137859Y0054308D02*
X0136757Y0054308D01*
X0136757Y0054583D02*
X0137859Y0054583D01*
X0137859Y0054858D02*
X0136757Y0054858D01*
X0135300Y0052383D02*
X0134198Y0052383D01*
X0134198Y0054863D01*
X0135300Y0054863D01*
X0135300Y0052383D01*
X0135300Y0052658D02*
X0134198Y0052658D01*
X0134198Y0052933D02*
X0135300Y0052933D01*
X0135300Y0053208D02*
X0134198Y0053208D01*
X0134198Y0053483D02*
X0135300Y0053483D01*
X0135300Y0053758D02*
X0134198Y0053758D01*
X0134198Y0054033D02*
X0135300Y0054033D01*
X0135300Y0054308D02*
X0134198Y0054308D01*
X0134198Y0054583D02*
X0135300Y0054583D01*
X0135300Y0054858D02*
X0134198Y0054858D01*
X0132741Y0052383D02*
X0131639Y0052383D01*
X0131639Y0054863D01*
X0132741Y0054863D01*
X0132741Y0052383D01*
X0132741Y0052658D02*
X0131639Y0052658D01*
X0131639Y0052933D02*
X0132741Y0052933D01*
X0132741Y0053208D02*
X0131639Y0053208D01*
X0131639Y0053483D02*
X0132741Y0053483D01*
X0132741Y0053758D02*
X0131639Y0053758D01*
X0131639Y0054033D02*
X0132741Y0054033D01*
X0132741Y0054308D02*
X0131639Y0054308D01*
X0131639Y0054583D02*
X0132741Y0054583D01*
X0132741Y0054858D02*
X0131639Y0054858D01*
X0130182Y0052383D02*
X0129080Y0052383D01*
X0129080Y0054863D01*
X0130182Y0054863D01*
X0130182Y0052383D01*
X0130182Y0052658D02*
X0129080Y0052658D01*
X0129080Y0052933D02*
X0130182Y0052933D01*
X0130182Y0053208D02*
X0129080Y0053208D01*
X0129080Y0053483D02*
X0130182Y0053483D01*
X0130182Y0053758D02*
X0129080Y0053758D01*
X0129080Y0054033D02*
X0130182Y0054033D01*
X0130182Y0054308D02*
X0129080Y0054308D01*
X0129080Y0054583D02*
X0130182Y0054583D01*
X0130182Y0054858D02*
X0129080Y0054858D01*
X0127623Y0052383D02*
X0126521Y0052383D01*
X0126521Y0054863D01*
X0127623Y0054863D01*
X0127623Y0052383D01*
X0127623Y0052658D02*
X0126521Y0052658D01*
X0126521Y0052933D02*
X0127623Y0052933D01*
X0127623Y0053208D02*
X0126521Y0053208D01*
X0126521Y0053483D02*
X0127623Y0053483D01*
X0127623Y0053758D02*
X0126521Y0053758D01*
X0126521Y0054033D02*
X0127623Y0054033D01*
X0127623Y0054308D02*
X0126521Y0054308D01*
X0126521Y0054583D02*
X0127623Y0054583D01*
X0127623Y0054858D02*
X0126521Y0054858D01*
X0125064Y0052383D02*
X0123962Y0052383D01*
X0123962Y0054863D01*
X0125064Y0054863D01*
X0125064Y0052383D01*
X0125064Y0052658D02*
X0123962Y0052658D01*
X0123962Y0052933D02*
X0125064Y0052933D01*
X0125064Y0053208D02*
X0123962Y0053208D01*
X0123962Y0053483D02*
X0125064Y0053483D01*
X0125064Y0053758D02*
X0123962Y0053758D01*
X0123962Y0054033D02*
X0125064Y0054033D01*
X0125064Y0054308D02*
X0123962Y0054308D01*
X0123962Y0054583D02*
X0125064Y0054583D01*
X0125064Y0054858D02*
X0123962Y0054858D01*
X0122800Y0056025D02*
X0120320Y0056025D01*
X0120320Y0057127D01*
X0122800Y0057127D01*
X0122800Y0056025D01*
X0122800Y0056300D02*
X0120320Y0056300D01*
X0120320Y0056575D02*
X0122800Y0056575D01*
X0122800Y0056850D02*
X0120320Y0056850D01*
X0120320Y0057125D02*
X0122800Y0057125D01*
X0122800Y0058584D02*
X0120320Y0058584D01*
X0120320Y0059686D01*
X0122800Y0059686D01*
X0122800Y0058584D01*
X0122800Y0058859D02*
X0120320Y0058859D01*
X0120320Y0059134D02*
X0122800Y0059134D01*
X0122800Y0059409D02*
X0120320Y0059409D01*
X0120320Y0059684D02*
X0122800Y0059684D01*
X0122800Y0061143D02*
X0120320Y0061143D01*
X0120320Y0062245D01*
X0122800Y0062245D01*
X0122800Y0061143D01*
X0122800Y0061418D02*
X0120320Y0061418D01*
X0120320Y0061693D02*
X0122800Y0061693D01*
X0122800Y0061968D02*
X0120320Y0061968D01*
X0120320Y0062243D02*
X0122800Y0062243D01*
D16*
X0126363Y0058426D02*
X0138017Y0058426D01*
X0126363Y0058426D02*
X0126363Y0070080D01*
X0138017Y0070080D01*
X0138017Y0058426D01*
X0138017Y0061338D02*
X0126363Y0061338D01*
X0126363Y0064250D02*
X0138017Y0064250D01*
X0138017Y0067162D02*
X0126363Y0067162D01*
X0126363Y0070074D02*
X0138017Y0070074D01*
D17*
X0142879Y0081753D03*
X0148784Y0081753D03*
X0154690Y0081753D03*
X0160595Y0081753D03*
X0166501Y0081753D03*
D18*
X0099690Y0052083D03*
X0103430Y0043422D03*
X0095950Y0043422D03*
D19*
X0088430Y0059135D03*
X0084690Y0059135D03*
X0080950Y0059135D03*
X0080950Y0069371D03*
X0088430Y0069371D03*
D20*
X0077190Y0080119D03*
X0077190Y0088387D03*
X0120056Y0089753D03*
X0128324Y0089753D03*
X0135556Y0089753D03*
X0143824Y0089753D03*
X0040020Y0040627D03*
X0040020Y0032753D03*
D21*
X0046339Y0032686D03*
X0113190Y0054753D03*
X0123690Y0041753D03*
D22*
X0149190Y0033253D03*
X0098174Y0033253D03*
D23*
X0247709Y0042855D03*
X0247709Y0047186D03*
X0247709Y0051517D03*
X0247709Y0055847D03*
X0247709Y0060178D03*
X0247709Y0064509D03*
X0247709Y0068839D03*
X0247709Y0073170D03*
D24*
X0245229Y0090276D03*
D25*
X0200623Y0089883D03*
X0245820Y0033623D03*
D26*
X0237355Y0035217D03*
D27*
X0201922Y0035217D03*
D28*
X0197493Y0042304D03*
X0197493Y0072934D03*
D29*
X0118580Y0050001D03*
X0118580Y0048387D03*
X0114643Y0048387D03*
X0114643Y0050001D03*
D30*
X0057308Y0063879D03*
X0047072Y0063879D03*
D31*
X0088847Y0077678D03*
X0108532Y0077678D03*
D32*
X0103808Y0077678D03*
X0101249Y0077678D03*
X0098690Y0077678D03*
X0096131Y0077678D03*
X0093572Y0077678D03*
D33*
X0094753Y0088308D03*
X0102627Y0088308D03*
D34*
X0110107Y0088308D03*
X0087272Y0088308D03*
D35*
X0084910Y0090489D02*
X0084910Y0086127D01*
X0112469Y0086127D02*
X0112469Y0090489D01*
D36*
X0174158Y0084371D03*
X0185182Y0084371D03*
D37*
X0179670Y0083780D03*
D38*
X0172879Y0092146D03*
X0186461Y0092146D03*
D39*
X0027225Y0036690D03*
D40*
X0072155Y0035895D02*
X0072155Y0031553D01*
X0091874Y0031553D01*
X0091874Y0032953D01*
X0097874Y0032953D01*
X0097874Y0033553D01*
X0097874Y0037053D01*
X0093796Y0037053D01*
X0094678Y0037934D01*
X0107399Y0037934D01*
X0108421Y0036912D01*
X0108421Y0033202D01*
X0109183Y0032441D01*
X0114197Y0032441D01*
X0114958Y0033202D01*
X0114958Y0036912D01*
X0118199Y0040153D01*
X0120815Y0040153D01*
X0120919Y0039901D01*
X0121838Y0038982D01*
X0123040Y0038484D01*
X0124340Y0038484D01*
X0125541Y0038982D01*
X0126461Y0039901D01*
X0126958Y0041103D01*
X0126958Y0042403D01*
X0126461Y0043604D01*
X0125836Y0044228D01*
X0126294Y0044686D01*
X0128661Y0047053D01*
X0128701Y0047012D01*
X0128701Y0044100D01*
X0132037Y0040764D01*
X0140421Y0040764D01*
X0140421Y0037202D01*
X0141183Y0036441D01*
X0143039Y0036441D01*
X0142890Y0036291D01*
X0142890Y0035053D01*
X0130834Y0035053D01*
X0130270Y0035617D01*
X0129245Y0036042D01*
X0128135Y0036042D01*
X0127110Y0035617D01*
X0126325Y0034833D01*
X0125901Y0033808D01*
X0125901Y0032698D01*
X0126325Y0031673D01*
X0126446Y0031553D01*
X0104474Y0031553D01*
X0104474Y0032953D01*
X0098474Y0032953D01*
X0098474Y0033553D01*
X0097874Y0033553D01*
X0091874Y0033553D01*
X0091874Y0035327D01*
X0090454Y0035327D01*
X0090454Y0033301D01*
X0089693Y0032539D01*
X0084679Y0032539D01*
X0083917Y0033301D01*
X0083917Y0038315D01*
X0084679Y0039076D01*
X0089693Y0039076D01*
X0090242Y0038527D01*
X0090745Y0038527D01*
X0092415Y0040197D01*
X0092688Y0040470D01*
X0092681Y0040495D01*
X0092681Y0043122D01*
X0095650Y0043122D01*
X0095650Y0043722D01*
X0095650Y0047478D01*
X0093810Y0047478D01*
X0093479Y0047389D01*
X0093183Y0047218D01*
X0092941Y0046976D01*
X0092770Y0046680D01*
X0092681Y0046349D01*
X0092681Y0043722D01*
X0095650Y0043722D01*
X0096250Y0043722D01*
X0099218Y0043722D01*
X0099218Y0046349D01*
X0099130Y0046680D01*
X0098958Y0046976D01*
X0098716Y0047218D01*
X0098420Y0047389D01*
X0098089Y0047478D01*
X0096250Y0047478D01*
X0096250Y0043722D01*
X0096250Y0043122D01*
X0099218Y0043122D01*
X0099218Y0041134D01*
X0100161Y0041134D01*
X0100161Y0046716D01*
X0100923Y0047478D01*
X0105937Y0047478D01*
X0106698Y0046716D01*
X0106698Y0043160D01*
X0108421Y0041438D01*
X0108421Y0042299D01*
X0111390Y0042299D01*
X0111390Y0042899D01*
X0108421Y0042899D01*
X0108421Y0044936D01*
X0108510Y0045266D01*
X0108681Y0045563D01*
X0108923Y0045805D01*
X0109219Y0045976D01*
X0109550Y0046065D01*
X0111390Y0046065D01*
X0111390Y0042899D01*
X0111990Y0042899D01*
X0114958Y0042899D01*
X0114958Y0044936D01*
X0114870Y0045266D01*
X0114699Y0045563D01*
X0114456Y0045805D01*
X0114160Y0045976D01*
X0113829Y0046065D01*
X0111990Y0046065D01*
X0111990Y0042899D01*
X0111990Y0042299D01*
X0114958Y0042299D01*
X0114958Y0041438D01*
X0115936Y0042415D01*
X0115936Y0043910D01*
X0116873Y0044848D01*
X0117375Y0045349D01*
X0115762Y0046961D01*
X0115748Y0046946D01*
X0115337Y0046709D01*
X0114879Y0046587D01*
X0114643Y0046587D01*
X0114643Y0048386D01*
X0114642Y0048386D01*
X0114642Y0046587D01*
X0114406Y0046587D01*
X0113948Y0046709D01*
X0113537Y0046946D01*
X0113202Y0047281D01*
X0112965Y0047692D01*
X0112843Y0048150D01*
X0112843Y0048387D01*
X0113838Y0048387D01*
X0113838Y0048387D01*
X0112843Y0048387D01*
X0112843Y0048624D01*
X0112965Y0049081D01*
X0113030Y0049194D01*
X0112965Y0049306D01*
X0112843Y0049764D01*
X0112843Y0050001D01*
X0113838Y0050001D01*
X0112843Y0050001D01*
X0112843Y0050238D01*
X0112965Y0050696D01*
X0113202Y0051106D01*
X0113537Y0051441D01*
X0113665Y0051515D01*
X0113512Y0051484D01*
X0113490Y0051484D01*
X0113490Y0054453D01*
X0113490Y0055053D01*
X0112890Y0055053D01*
X0112890Y0058021D01*
X0112868Y0058021D01*
X0112236Y0057896D01*
X0111642Y0057649D01*
X0111106Y0057292D01*
X0110651Y0056836D01*
X0110293Y0056301D01*
X0110047Y0055706D01*
X0109921Y0055075D01*
X0109921Y0055053D01*
X0112890Y0055053D01*
X0112890Y0054453D01*
X0109921Y0054453D01*
X0109921Y0054431D01*
X0110047Y0053799D01*
X0110293Y0053205D01*
X0110651Y0052669D01*
X0111106Y0052214D01*
X0111642Y0051856D01*
X0112236Y0051610D01*
X0112868Y0051484D01*
X0112890Y0051484D01*
X0112890Y0054453D01*
X0113490Y0054453D01*
X0116458Y0054453D01*
X0116458Y0054431D01*
X0116333Y0053799D01*
X0116086Y0053205D01*
X0115729Y0052669D01*
X0115273Y0052214D01*
X0114738Y0051856D01*
X0114604Y0051801D01*
X0114642Y0051801D01*
X0114642Y0050001D01*
X0114643Y0050001D01*
X0114643Y0051801D01*
X0114879Y0051801D01*
X0115337Y0051678D01*
X0115748Y0051441D01*
X0116083Y0051106D01*
X0116320Y0050696D01*
X0116389Y0050438D01*
X0116400Y0050449D01*
X0117337Y0051387D01*
X0117420Y0051387D01*
X0117834Y0051801D01*
X0119325Y0051801D01*
X0119876Y0051249D01*
X0122524Y0053897D01*
X0122524Y0054587D01*
X0119724Y0054587D01*
X0118882Y0055429D01*
X0118882Y0057722D01*
X0119015Y0057855D01*
X0118882Y0057988D01*
X0118882Y0060281D01*
X0119056Y0060456D01*
X0118980Y0060588D01*
X0118933Y0060764D01*
X0116037Y0060764D01*
X0115100Y0061701D01*
X0114638Y0062163D01*
X0114595Y0062206D01*
X0111990Y0062206D01*
X0111990Y0061606D01*
X0115155Y0061606D01*
X0115155Y0059767D01*
X0115067Y0059436D01*
X0114895Y0059140D01*
X0114653Y0058898D01*
X0114357Y0058726D01*
X0114026Y0058638D01*
X0111990Y0058638D01*
X0111990Y0061606D01*
X0111390Y0061606D01*
X0111390Y0058638D01*
X0109353Y0058638D01*
X0109023Y0058726D01*
X0108726Y0058898D01*
X0108484Y0059140D01*
X0108313Y0059436D01*
X0108224Y0059767D01*
X0108224Y0061606D01*
X0111390Y0061606D01*
X0111390Y0062206D01*
X0108224Y0062206D01*
X0108224Y0064046D01*
X0108313Y0064377D01*
X0108484Y0064673D01*
X0108726Y0064915D01*
X0109023Y0065086D01*
X0109353Y0065175D01*
X0111390Y0065175D01*
X0111390Y0062206D01*
X0111990Y0062206D01*
X0111990Y0065175D01*
X0113120Y0065175D01*
X0113120Y0065331D01*
X0108986Y0065331D01*
X0108224Y0066092D01*
X0108224Y0071106D01*
X0108986Y0071868D01*
X0112696Y0071868D01*
X0115025Y0074197D01*
X0115025Y0080851D01*
X0115962Y0081788D01*
X0118456Y0084282D01*
X0118456Y0086091D01*
X0117155Y0086091D01*
X0116394Y0086852D01*
X0116394Y0091953D01*
X0115631Y0091953D01*
X0115817Y0091504D01*
X0115950Y0090832D01*
X0115950Y0088598D01*
X0112760Y0088598D01*
X0112760Y0088017D01*
X0115950Y0088017D01*
X0115950Y0085784D01*
X0115817Y0085111D01*
X0115554Y0084478D01*
X0115173Y0083908D01*
X0114688Y0083423D01*
X0114118Y0083042D01*
X0113485Y0082779D01*
X0112812Y0082646D01*
X0112760Y0082646D01*
X0112760Y0083300D01*
X0112640Y0083268D01*
X0112179Y0083268D01*
X0112179Y0082646D01*
X0112126Y0082646D01*
X0111454Y0082779D01*
X0110820Y0083042D01*
X0110482Y0083268D01*
X0110407Y0083268D01*
X0110407Y0083318D01*
X0110250Y0083423D01*
X0109807Y0083866D01*
X0109807Y0083268D01*
X0107574Y0083268D01*
X0107243Y0083356D01*
X0106947Y0083527D01*
X0106705Y0083769D01*
X0106662Y0083843D01*
X0106620Y0083769D01*
X0106378Y0083527D01*
X0106081Y0083356D01*
X0105751Y0083268D01*
X0102927Y0083268D01*
X0102927Y0088008D01*
X0102927Y0088608D01*
X0108988Y0088608D01*
X0108988Y0088598D01*
X0109807Y0088598D01*
X0109807Y0088017D01*
X0108988Y0088017D01*
X0108988Y0088008D01*
X0106445Y0088008D01*
X0102927Y0088008D01*
X0102327Y0088008D01*
X0102327Y0083268D01*
X0099503Y0083268D01*
X0099172Y0083356D01*
X0098876Y0083527D01*
X0098690Y0083713D01*
X0098504Y0083527D01*
X0098207Y0083356D01*
X0097877Y0083268D01*
X0095053Y0083268D01*
X0095053Y0088008D01*
X0095053Y0088608D01*
X0098374Y0088608D01*
X0102327Y0088608D01*
X0102327Y0088008D01*
X0095053Y0088008D01*
X0094453Y0088008D01*
X0094453Y0083268D01*
X0091629Y0083268D01*
X0091298Y0083356D01*
X0091002Y0083527D01*
X0090760Y0083769D01*
X0090717Y0083843D01*
X0090675Y0083769D01*
X0090433Y0083527D01*
X0090136Y0083356D01*
X0089806Y0083268D01*
X0087572Y0083268D01*
X0087572Y0083866D01*
X0087129Y0083423D01*
X0086972Y0083318D01*
X0086972Y0083268D01*
X0086897Y0083268D01*
X0086559Y0083042D01*
X0085926Y0082779D01*
X0085253Y0082646D01*
X0085201Y0082646D01*
X0085201Y0083268D01*
X0084739Y0083268D01*
X0084620Y0083300D01*
X0084620Y0082646D01*
X0084567Y0082646D01*
X0083895Y0082779D01*
X0083261Y0083042D01*
X0082691Y0083423D01*
X0082358Y0083756D01*
X0082354Y0083724D01*
X0082354Y0074872D01*
X0084161Y0073384D01*
X0085442Y0073384D01*
X0086027Y0073439D01*
X0086094Y0073384D01*
X0086180Y0073384D01*
X0086595Y0072968D01*
X0086677Y0072901D01*
X0086809Y0073033D01*
X0090051Y0073033D01*
X0090813Y0072272D01*
X0090813Y0071244D01*
X0091807Y0071244D01*
X0092745Y0070307D01*
X0094487Y0068565D01*
X0096892Y0068565D01*
X0102048Y0073720D01*
X0094805Y0073720D01*
X0094747Y0073779D01*
X0094530Y0073720D01*
X0093665Y0073720D01*
X0093665Y0077584D01*
X0093478Y0077584D01*
X0093478Y0073720D01*
X0092613Y0073720D01*
X0092282Y0073809D01*
X0091986Y0073980D01*
X0091744Y0074222D01*
X0091573Y0074519D01*
X0091571Y0074526D01*
X0091554Y0074509D01*
X0091025Y0074125D01*
X0090442Y0073828D01*
X0089820Y0073626D01*
X0089174Y0073524D01*
X0089147Y0073524D01*
X0089147Y0077378D01*
X0088547Y0077378D01*
X0084693Y0077378D01*
X0084693Y0077351D01*
X0084795Y0076705D01*
X0084997Y0076083D01*
X0085294Y0075501D01*
X0085678Y0074972D01*
X0086141Y0074509D01*
X0086670Y0074125D01*
X0087253Y0073828D01*
X0087874Y0073626D01*
X0088520Y0073524D01*
X0088547Y0073524D01*
X0088547Y0077378D01*
X0088547Y0077978D01*
X0084693Y0077978D01*
X0084693Y0078005D01*
X0084795Y0078651D01*
X0084997Y0079273D01*
X0085294Y0079855D01*
X0085678Y0080384D01*
X0086141Y0080847D01*
X0086670Y0081231D01*
X0087253Y0081528D01*
X0087874Y0081730D01*
X0088520Y0081832D01*
X0088547Y0081832D01*
X0088547Y0077978D01*
X0089147Y0077978D01*
X0089147Y0081832D01*
X0089174Y0081832D01*
X0089820Y0081730D01*
X0090442Y0081528D01*
X0091025Y0081231D01*
X0091554Y0080847D01*
X0091571Y0080830D01*
X0091573Y0080837D01*
X0091744Y0081134D01*
X0091986Y0081376D01*
X0092282Y0081547D01*
X0092613Y0081635D01*
X0093478Y0081635D01*
X0093478Y0077772D01*
X0093665Y0077772D01*
X0093665Y0081635D01*
X0094530Y0081635D01*
X0094747Y0081577D01*
X0094805Y0081635D01*
X0105134Y0081635D01*
X0105882Y0080887D01*
X0106355Y0081231D01*
X0106938Y0081528D01*
X0107559Y0081730D01*
X0108205Y0081832D01*
X0108232Y0081832D01*
X0108232Y0077978D01*
X0108832Y0077978D01*
X0108832Y0081832D01*
X0108859Y0081832D01*
X0109505Y0081730D01*
X0110127Y0081528D01*
X0110710Y0081231D01*
X0111239Y0080847D01*
X0111701Y0080384D01*
X0112085Y0079855D01*
X0112382Y0079273D01*
X0112584Y0078651D01*
X0112687Y0078005D01*
X0112687Y0077978D01*
X0108832Y0077978D01*
X0108832Y0077378D01*
X0108832Y0073524D01*
X0108859Y0073524D01*
X0109505Y0073626D01*
X0110127Y0073828D01*
X0110710Y0074125D01*
X0111239Y0074509D01*
X0111701Y0074972D01*
X0112085Y0075501D01*
X0112382Y0076083D01*
X0112584Y0076705D01*
X0112687Y0077351D01*
X0112687Y0077378D01*
X0108832Y0077378D01*
X0108232Y0077378D01*
X0108232Y0073524D01*
X0108205Y0073524D01*
X0107559Y0073626D01*
X0106938Y0073828D01*
X0106355Y0074125D01*
X0105882Y0074469D01*
X0105408Y0073995D01*
X0105408Y0072555D01*
X0104471Y0071617D01*
X0101418Y0068565D01*
X0106197Y0068565D01*
X0106958Y0067803D01*
X0106958Y0062395D01*
X0106278Y0061715D01*
X0106456Y0061612D01*
X0106699Y0061370D01*
X0106870Y0061073D01*
X0106958Y0060743D01*
X0106958Y0058706D01*
X0103990Y0058706D01*
X0103990Y0058106D01*
X0106958Y0058106D01*
X0106958Y0056070D01*
X0106870Y0055739D01*
X0106699Y0055443D01*
X0106456Y0055201D01*
X0106160Y0055030D01*
X0105829Y0054941D01*
X0105488Y0054941D01*
X0106270Y0054617D01*
X0107054Y0053833D01*
X0107479Y0052808D01*
X0107479Y0051698D01*
X0107054Y0050673D01*
X0106270Y0049888D01*
X0105245Y0049464D01*
X0104135Y0049464D01*
X0103110Y0049888D01*
X0102958Y0050040D01*
X0102958Y0048789D01*
X0102197Y0048028D01*
X0097183Y0048028D01*
X0096421Y0048789D01*
X0096421Y0050283D01*
X0094736Y0050283D01*
X0093681Y0051338D01*
X0089547Y0055472D01*
X0086809Y0055472D01*
X0086557Y0055724D01*
X0086274Y0055561D01*
X0085944Y0055472D01*
X0084931Y0055472D01*
X0084931Y0058893D01*
X0084448Y0058893D01*
X0084448Y0055472D01*
X0083436Y0055472D01*
X0083105Y0055561D01*
X0082823Y0055724D01*
X0082571Y0055472D01*
X0081290Y0055472D01*
X0081290Y0053368D01*
X0082394Y0053368D01*
X0083155Y0052606D01*
X0083155Y0048831D01*
X0084224Y0048831D01*
X0084224Y0049799D01*
X0087390Y0049799D01*
X0087990Y0049799D01*
X0087990Y0050399D01*
X0091155Y0050399D01*
X0091155Y0052239D01*
X0091067Y0052569D01*
X0090895Y0052866D01*
X0090653Y0053108D01*
X0090357Y0053279D01*
X0090026Y0053368D01*
X0087990Y0053368D01*
X0087990Y0050399D01*
X0087390Y0050399D01*
X0087390Y0049799D01*
X0087390Y0046831D01*
X0086528Y0046831D01*
X0086684Y0046675D01*
X0090394Y0046675D01*
X0091155Y0045913D01*
X0091155Y0040899D01*
X0090394Y0040138D01*
X0084986Y0040138D01*
X0084224Y0040899D01*
X0084224Y0044609D01*
X0083203Y0045631D01*
X0083155Y0045631D01*
X0083155Y0040899D01*
X0082394Y0040138D01*
X0077245Y0040138D01*
X0078306Y0039076D01*
X0081819Y0039076D01*
X0082580Y0038315D01*
X0082580Y0033301D01*
X0081819Y0032539D01*
X0076805Y0032539D01*
X0076043Y0033301D01*
X0076043Y0036814D01*
X0074028Y0038829D01*
X0073355Y0038155D01*
X0073355Y0037095D01*
X0072418Y0036158D01*
X0072155Y0035895D01*
X0072155Y0035836D02*
X0076043Y0035836D01*
X0076043Y0035238D02*
X0072155Y0035238D01*
X0072155Y0034639D02*
X0076043Y0034639D01*
X0076043Y0034041D02*
X0072155Y0034041D01*
X0072155Y0033442D02*
X0076043Y0033442D01*
X0076500Y0032844D02*
X0072155Y0032844D01*
X0072155Y0032245D02*
X0091874Y0032245D01*
X0091874Y0031647D02*
X0072155Y0031647D01*
X0068690Y0033406D02*
X0060690Y0033406D01*
X0052690Y0033406D01*
X0049421Y0033786D02*
X0049110Y0034537D01*
X0048191Y0035457D01*
X0047939Y0035561D01*
X0047939Y0035766D01*
X0047754Y0035951D01*
X0047678Y0036202D01*
X0047303Y0036402D01*
X0047002Y0036703D01*
X0046979Y0036703D01*
X0046979Y0036808D01*
X0046554Y0037833D01*
X0045770Y0038617D01*
X0044745Y0039042D01*
X0043683Y0039042D01*
X0043683Y0042500D01*
X0044272Y0042500D01*
X0044272Y0045665D01*
X0044872Y0045665D01*
X0044872Y0042500D01*
X0046711Y0042500D01*
X0047042Y0042589D01*
X0047338Y0042760D01*
X0047580Y0043002D01*
X0047752Y0043298D01*
X0047840Y0043629D01*
X0047840Y0045665D01*
X0044872Y0045665D01*
X0044872Y0046265D01*
X0047840Y0046265D01*
X0047840Y0048302D01*
X0047752Y0048632D01*
X0047580Y0048929D01*
X0047338Y0049171D01*
X0047160Y0049274D01*
X0047840Y0049954D01*
X0047840Y0050086D01*
X0048135Y0049964D01*
X0049245Y0049964D01*
X0049421Y0050037D01*
X0049421Y0049895D01*
X0050064Y0049253D01*
X0049421Y0048610D01*
X0049421Y0043202D01*
X0049637Y0042987D01*
X0049510Y0042766D01*
X0049421Y0042436D01*
X0049421Y0040399D01*
X0052390Y0040399D01*
X0052390Y0039799D01*
X0049421Y0039799D01*
X0049421Y0037763D01*
X0049510Y0037432D01*
X0049681Y0037136D01*
X0049923Y0036894D01*
X0050102Y0036790D01*
X0049421Y0036110D01*
X0049421Y0033786D01*
X0049421Y0034041D02*
X0049316Y0034041D01*
X0049421Y0034639D02*
X0049008Y0034639D01*
X0049421Y0035238D02*
X0048410Y0035238D01*
X0047869Y0035836D02*
X0049421Y0035836D01*
X0049746Y0036435D02*
X0047270Y0036435D01*
X0046885Y0037033D02*
X0049783Y0037033D01*
X0049456Y0037632D02*
X0046637Y0037632D01*
X0046156Y0038230D02*
X0049421Y0038230D01*
X0049421Y0038829D02*
X0045258Y0038829D01*
X0043683Y0039427D02*
X0049421Y0039427D01*
X0049421Y0040624D02*
X0043683Y0040624D01*
X0043683Y0040026D02*
X0052390Y0040026D01*
X0052690Y0040099D02*
X0048177Y0044612D01*
X0048177Y0046800D01*
X0050348Y0048972D01*
X0052409Y0048972D01*
X0052971Y0049534D01*
X0055031Y0049534D01*
X0057308Y0051811D01*
X0058096Y0052599D01*
X0060690Y0052599D01*
X0060990Y0052595D02*
X0065224Y0052595D01*
X0065224Y0053193D02*
X0064155Y0053193D01*
X0064155Y0052899D02*
X0064155Y0054739D01*
X0064067Y0055069D01*
X0063895Y0055366D01*
X0063653Y0055608D01*
X0063357Y0055779D01*
X0063026Y0055868D01*
X0060990Y0055868D01*
X0060990Y0052899D01*
X0064155Y0052899D01*
X0064155Y0052299D02*
X0060990Y0052299D01*
X0060990Y0052899D01*
X0060390Y0052899D01*
X0060390Y0052299D01*
X0060990Y0052299D01*
X0060990Y0049331D01*
X0063026Y0049331D01*
X0063357Y0049419D01*
X0063653Y0049590D01*
X0063895Y0049832D01*
X0064067Y0050129D01*
X0064155Y0050460D01*
X0064155Y0052299D01*
X0064155Y0051996D02*
X0065224Y0051996D01*
X0065224Y0051398D02*
X0064155Y0051398D01*
X0064155Y0050799D02*
X0065224Y0050799D01*
X0065224Y0050201D02*
X0064086Y0050201D01*
X0063665Y0049602D02*
X0065714Y0049602D01*
X0065986Y0049331D02*
X0070377Y0049331D01*
X0070377Y0049175D01*
X0065986Y0049175D01*
X0065224Y0048413D01*
X0065224Y0047506D01*
X0064155Y0047506D01*
X0064155Y0048413D01*
X0063394Y0049175D01*
X0057986Y0049175D01*
X0057675Y0048864D01*
X0057245Y0049042D01*
X0056135Y0049042D01*
X0055705Y0048864D01*
X0055316Y0049253D01*
X0055958Y0049895D01*
X0055958Y0055303D01*
X0055197Y0056065D01*
X0051487Y0056065D01*
X0048679Y0058873D01*
X0048679Y0058905D01*
X0048672Y0058912D01*
X0048672Y0059346D01*
X0049791Y0059809D01*
X0051141Y0061160D01*
X0051872Y0062924D01*
X0051872Y0064834D01*
X0051141Y0066598D01*
X0050786Y0066953D01*
X0053608Y0066953D01*
X0053203Y0066394D01*
X0052860Y0065721D01*
X0052626Y0065003D01*
X0052508Y0064257D01*
X0052508Y0064169D01*
X0057017Y0064169D01*
X0057017Y0063588D01*
X0052508Y0063588D01*
X0052508Y0063501D01*
X0052626Y0062755D01*
X0052860Y0062036D01*
X0053203Y0061363D01*
X0053647Y0060752D01*
X0054181Y0060218D01*
X0054792Y0059773D01*
X0055465Y0059430D01*
X0056184Y0059197D01*
X0056930Y0059079D01*
X0057017Y0059079D01*
X0057017Y0063588D01*
X0057598Y0063588D01*
X0057598Y0059079D01*
X0057686Y0059079D01*
X0058432Y0059197D01*
X0059150Y0059430D01*
X0059824Y0059773D01*
X0060435Y0060218D01*
X0060969Y0060752D01*
X0061413Y0061363D01*
X0061756Y0062036D01*
X0061990Y0062755D01*
X0061998Y0062809D01*
X0064984Y0062809D01*
X0064984Y0065777D01*
X0062948Y0065777D01*
X0062617Y0065689D01*
X0062321Y0065517D01*
X0062079Y0065275D01*
X0061965Y0065079D01*
X0061756Y0065721D01*
X0061413Y0066394D01*
X0061008Y0066953D01*
X0072012Y0066953D01*
X0072012Y0066375D01*
X0072259Y0065777D01*
X0069273Y0065777D01*
X0068593Y0065097D01*
X0068490Y0065275D01*
X0068248Y0065517D01*
X0067951Y0065689D01*
X0067621Y0065777D01*
X0065584Y0065777D01*
X0065584Y0062809D01*
X0064984Y0062809D01*
X0064984Y0062209D01*
X0061819Y0062209D01*
X0061819Y0060369D01*
X0061907Y0060038D01*
X0062079Y0059742D01*
X0062321Y0059500D01*
X0062617Y0059329D01*
X0062948Y0059240D01*
X0064984Y0059240D01*
X0064984Y0062209D01*
X0065584Y0062209D01*
X0065584Y0059240D01*
X0067621Y0059240D01*
X0067951Y0059329D01*
X0068248Y0059500D01*
X0068490Y0059742D01*
X0068593Y0059921D01*
X0069273Y0059240D01*
X0070377Y0059240D01*
X0070377Y0055868D01*
X0065986Y0055868D01*
X0065224Y0055106D01*
X0065224Y0050092D01*
X0065986Y0049331D01*
X0065815Y0049004D02*
X0063565Y0049004D01*
X0064155Y0048405D02*
X0065224Y0048405D01*
X0065224Y0047807D02*
X0064155Y0047807D01*
X0062190Y0046753D02*
X0061536Y0046753D01*
X0060690Y0045906D01*
X0068690Y0045906D01*
X0071977Y0043143D02*
X0074028Y0041091D01*
X0071755Y0038818D01*
X0071755Y0037758D01*
X0071228Y0037231D01*
X0066152Y0037231D01*
X0063283Y0040099D01*
X0060690Y0040099D01*
X0057224Y0040026D02*
X0052990Y0040026D01*
X0052990Y0039799D02*
X0052990Y0040399D01*
X0055958Y0040399D01*
X0055958Y0042436D01*
X0055870Y0042766D01*
X0055742Y0042987D01*
X0055958Y0043202D01*
X0055958Y0043537D01*
X0056135Y0043464D01*
X0057224Y0043464D01*
X0057224Y0043399D01*
X0057621Y0043003D01*
X0057224Y0042606D01*
X0057224Y0037592D01*
X0057986Y0036831D01*
X0063394Y0036831D01*
X0063841Y0037278D01*
X0065224Y0035895D01*
X0065224Y0035006D01*
X0064155Y0035006D01*
X0064155Y0035913D01*
X0063394Y0036675D01*
X0057986Y0036675D01*
X0057224Y0035913D01*
X0057224Y0035006D01*
X0055958Y0035006D01*
X0055958Y0036110D01*
X0055278Y0036790D01*
X0055456Y0036894D01*
X0055699Y0037136D01*
X0055870Y0037432D01*
X0055958Y0037763D01*
X0055958Y0039799D01*
X0052990Y0039799D01*
X0055958Y0039427D02*
X0057224Y0039427D01*
X0057224Y0038829D02*
X0055958Y0038829D01*
X0055958Y0038230D02*
X0057224Y0038230D01*
X0057224Y0037632D02*
X0055923Y0037632D01*
X0055596Y0037033D02*
X0057783Y0037033D01*
X0057746Y0036435D02*
X0055633Y0036435D01*
X0055958Y0035836D02*
X0057224Y0035836D01*
X0057224Y0035238D02*
X0055958Y0035238D01*
X0063633Y0036435D02*
X0064685Y0036435D01*
X0064155Y0035836D02*
X0065224Y0035836D01*
X0065224Y0035238D02*
X0064155Y0035238D01*
X0064086Y0037033D02*
X0063596Y0037033D01*
X0068690Y0040099D02*
X0066225Y0042564D01*
X0064944Y0042564D01*
X0071977Y0043143D02*
X0071977Y0052753D01*
X0068843Y0052753D01*
X0068690Y0052599D01*
X0071977Y0052753D02*
X0071977Y0062253D01*
X0074801Y0065076D01*
X0074801Y0066930D01*
X0072018Y0066360D02*
X0061431Y0066360D01*
X0061735Y0065762D02*
X0062891Y0065762D01*
X0062014Y0065163D02*
X0061937Y0065163D01*
X0064984Y0065163D02*
X0065584Y0065163D01*
X0065584Y0064565D02*
X0064984Y0064565D01*
X0064984Y0063966D02*
X0065584Y0063966D01*
X0065584Y0063368D02*
X0064984Y0063368D01*
X0064984Y0062769D02*
X0061992Y0062769D01*
X0061819Y0062171D02*
X0061800Y0062171D01*
X0061819Y0061572D02*
X0061520Y0061572D01*
X0061819Y0060974D02*
X0061130Y0060974D01*
X0060593Y0060375D02*
X0061819Y0060375D01*
X0062058Y0059777D02*
X0059828Y0059777D01*
X0058314Y0059178D02*
X0070377Y0059178D01*
X0070377Y0058580D02*
X0048972Y0058580D01*
X0048672Y0059178D02*
X0056301Y0059178D01*
X0057017Y0059178D02*
X0057598Y0059178D01*
X0057598Y0059777D02*
X0057017Y0059777D01*
X0057017Y0060375D02*
X0057598Y0060375D01*
X0057598Y0060974D02*
X0057017Y0060974D01*
X0057017Y0061572D02*
X0057598Y0061572D01*
X0057598Y0062171D02*
X0057017Y0062171D01*
X0057017Y0062769D02*
X0057598Y0062769D01*
X0057598Y0063368D02*
X0057017Y0063368D01*
X0057308Y0063879D02*
X0057308Y0051811D01*
X0057224Y0051996D02*
X0055958Y0051996D01*
X0055958Y0051398D02*
X0057224Y0051398D01*
X0057224Y0050799D02*
X0055958Y0050799D01*
X0055958Y0050201D02*
X0057294Y0050201D01*
X0057313Y0050129D02*
X0057484Y0049832D01*
X0057726Y0049590D01*
X0058023Y0049419D01*
X0058353Y0049331D01*
X0060390Y0049331D01*
X0060390Y0052299D01*
X0057224Y0052299D01*
X0057224Y0050460D01*
X0057313Y0050129D01*
X0057714Y0049602D02*
X0055665Y0049602D01*
X0055565Y0049004D02*
X0056043Y0049004D01*
X0057336Y0049004D02*
X0057815Y0049004D01*
X0060390Y0049602D02*
X0060990Y0049602D01*
X0060990Y0050201D02*
X0060390Y0050201D01*
X0060390Y0050799D02*
X0060990Y0050799D01*
X0060990Y0051398D02*
X0060390Y0051398D01*
X0060390Y0051996D02*
X0060990Y0051996D01*
X0060390Y0052595D02*
X0055958Y0052595D01*
X0055958Y0053193D02*
X0057224Y0053193D01*
X0057224Y0052899D02*
X0060390Y0052899D01*
X0060390Y0055868D01*
X0058353Y0055868D01*
X0058023Y0055779D01*
X0057726Y0055608D01*
X0057484Y0055366D01*
X0057313Y0055069D01*
X0057224Y0054739D01*
X0057224Y0052899D01*
X0057224Y0053792D02*
X0055958Y0053792D01*
X0055958Y0054390D02*
X0057224Y0054390D01*
X0057291Y0054989D02*
X0055958Y0054989D01*
X0055674Y0055587D02*
X0057705Y0055587D01*
X0060390Y0055587D02*
X0060990Y0055587D01*
X0060990Y0054989D02*
X0060390Y0054989D01*
X0060390Y0054390D02*
X0060990Y0054390D01*
X0060990Y0053792D02*
X0060390Y0053792D01*
X0060390Y0053193D02*
X0060990Y0053193D01*
X0064155Y0053792D02*
X0065224Y0053792D01*
X0065224Y0054390D02*
X0064155Y0054390D01*
X0064088Y0054989D02*
X0065224Y0054989D01*
X0065705Y0055587D02*
X0063674Y0055587D01*
X0068190Y0057253D02*
X0065284Y0060158D01*
X0065284Y0062509D01*
X0058678Y0062509D01*
X0057308Y0063879D01*
X0057017Y0063966D02*
X0051872Y0063966D01*
X0051872Y0063368D02*
X0052529Y0063368D01*
X0052624Y0062769D02*
X0051808Y0062769D01*
X0051560Y0062171D02*
X0052816Y0062171D01*
X0053096Y0061572D02*
X0051312Y0061572D01*
X0050955Y0060974D02*
X0053485Y0060974D01*
X0054023Y0060375D02*
X0050356Y0060375D01*
X0049712Y0059777D02*
X0054787Y0059777D01*
X0050767Y0056784D02*
X0070377Y0056784D01*
X0070377Y0056186D02*
X0051366Y0056186D01*
X0050169Y0057383D02*
X0070377Y0057383D01*
X0070377Y0057981D02*
X0049570Y0057981D01*
X0047079Y0058210D02*
X0047079Y0058242D01*
X0047072Y0058249D01*
X0047072Y0063879D01*
X0051487Y0065762D02*
X0052880Y0065762D01*
X0052678Y0065163D02*
X0051735Y0065163D01*
X0051872Y0064565D02*
X0052557Y0064565D01*
X0053185Y0066360D02*
X0051239Y0066360D01*
X0041483Y0065253D02*
X0041447Y0065217D01*
X0037702Y0065217D01*
X0032190Y0063753D02*
X0028930Y0063753D01*
X0027465Y0065217D01*
X0027501Y0068753D02*
X0027296Y0068957D01*
X0027296Y0076024D01*
X0027296Y0082717D02*
X0027690Y0083111D01*
X0027690Y0087753D01*
X0077190Y0088387D02*
X0080754Y0083822D01*
X0080754Y0074117D01*
X0083587Y0071784D01*
X0085517Y0071784D01*
X0088100Y0069644D01*
X0091145Y0069644D01*
X0095690Y0065099D01*
X0103808Y0073217D01*
X0103808Y0077678D01*
X0108232Y0077134D02*
X0108832Y0077134D01*
X0108832Y0077732D02*
X0115025Y0077732D01*
X0115025Y0077134D02*
X0112652Y0077134D01*
X0112529Y0076535D02*
X0115025Y0076535D01*
X0115025Y0075937D02*
X0112308Y0075937D01*
X0111967Y0075338D02*
X0115025Y0075338D01*
X0115025Y0074740D02*
X0111469Y0074740D01*
X0110732Y0074141D02*
X0114969Y0074141D01*
X0114370Y0073543D02*
X0108979Y0073543D01*
X0108832Y0073543D02*
X0108232Y0073543D01*
X0108086Y0073543D02*
X0105408Y0073543D01*
X0105408Y0072944D02*
X0113772Y0072944D01*
X0113173Y0072346D02*
X0105199Y0072346D01*
X0104600Y0071747D02*
X0108865Y0071747D01*
X0108267Y0071149D02*
X0104002Y0071149D01*
X0103403Y0070550D02*
X0108224Y0070550D01*
X0108224Y0069952D02*
X0102805Y0069952D01*
X0102206Y0069353D02*
X0108224Y0069353D01*
X0108224Y0068755D02*
X0101608Y0068755D01*
X0098878Y0070550D02*
X0092502Y0070550D01*
X0093100Y0069952D02*
X0098279Y0069952D01*
X0097681Y0069353D02*
X0093699Y0069353D01*
X0094297Y0068755D02*
X0097082Y0068755D01*
X0099476Y0071149D02*
X0091903Y0071149D01*
X0090813Y0071747D02*
X0100075Y0071747D01*
X0100673Y0072346D02*
X0090739Y0072346D01*
X0090140Y0072944D02*
X0101272Y0072944D01*
X0101870Y0073543D02*
X0089294Y0073543D01*
X0089147Y0073543D02*
X0088547Y0073543D01*
X0088400Y0073543D02*
X0083968Y0073543D01*
X0083241Y0074141D02*
X0086648Y0074141D01*
X0085910Y0074740D02*
X0082515Y0074740D01*
X0082354Y0075338D02*
X0085412Y0075338D01*
X0085072Y0075937D02*
X0082354Y0075937D01*
X0082354Y0076535D02*
X0084850Y0076535D01*
X0084727Y0077134D02*
X0082354Y0077134D01*
X0082354Y0077732D02*
X0088547Y0077732D01*
X0088547Y0077134D02*
X0089147Y0077134D01*
X0089147Y0077378D02*
X0089147Y0077978D01*
X0091484Y0077978D01*
X0091484Y0077772D01*
X0093478Y0077772D01*
X0093478Y0077584D01*
X0091484Y0077584D01*
X0091484Y0077378D01*
X0089147Y0077378D01*
X0089147Y0077732D02*
X0093478Y0077732D01*
X0093478Y0077134D02*
X0093665Y0077134D01*
X0093665Y0076535D02*
X0093478Y0076535D01*
X0093478Y0075937D02*
X0093665Y0075937D01*
X0093665Y0075338D02*
X0093478Y0075338D01*
X0093478Y0074740D02*
X0093665Y0074740D01*
X0093665Y0074141D02*
X0093478Y0074141D01*
X0091825Y0074141D02*
X0091047Y0074141D01*
X0089147Y0074141D02*
X0088547Y0074141D01*
X0088547Y0074740D02*
X0089147Y0074740D01*
X0089147Y0075338D02*
X0088547Y0075338D01*
X0088547Y0075937D02*
X0089147Y0075937D01*
X0089147Y0076535D02*
X0088547Y0076535D01*
X0088547Y0078331D02*
X0089147Y0078331D01*
X0089147Y0078929D02*
X0088547Y0078929D01*
X0088547Y0079528D02*
X0089147Y0079528D01*
X0089147Y0080126D02*
X0088547Y0080126D01*
X0088547Y0080725D02*
X0089147Y0080725D01*
X0089147Y0081323D02*
X0088547Y0081323D01*
X0086851Y0081323D02*
X0082354Y0081323D01*
X0082354Y0080725D02*
X0086019Y0080725D01*
X0085491Y0080126D02*
X0082354Y0080126D01*
X0082354Y0079528D02*
X0085127Y0079528D01*
X0084886Y0078929D02*
X0082354Y0078929D01*
X0082354Y0078331D02*
X0084745Y0078331D01*
X0082354Y0081922D02*
X0116096Y0081922D01*
X0116695Y0082520D02*
X0082354Y0082520D01*
X0082354Y0083119D02*
X0083146Y0083119D01*
X0082397Y0083717D02*
X0082354Y0083717D01*
X0081490Y0085480D02*
X0080852Y0086297D01*
X0080852Y0091287D01*
X0080186Y0091953D01*
X0081749Y0091953D01*
X0081563Y0091504D01*
X0081429Y0090832D01*
X0081429Y0088598D01*
X0084620Y0088598D01*
X0084620Y0088017D01*
X0081429Y0088017D01*
X0081429Y0085784D01*
X0081490Y0085480D01*
X0081483Y0085513D02*
X0081464Y0085513D01*
X0081429Y0086111D02*
X0080997Y0086111D01*
X0080852Y0086710D02*
X0081429Y0086710D01*
X0081429Y0087308D02*
X0080852Y0087308D01*
X0080852Y0087907D02*
X0081429Y0087907D01*
X0080852Y0088505D02*
X0084620Y0088505D01*
X0085201Y0088505D02*
X0086972Y0088505D01*
X0086972Y0088598D02*
X0085201Y0088598D01*
X0085201Y0088017D01*
X0086972Y0088017D01*
X0086972Y0088598D01*
X0087572Y0088598D02*
X0087572Y0088017D01*
X0088391Y0088017D01*
X0088391Y0088008D01*
X0094453Y0088008D01*
X0094453Y0088608D01*
X0090935Y0088608D01*
X0088391Y0088608D01*
X0088391Y0088598D01*
X0087572Y0088598D01*
X0087572Y0088505D02*
X0094453Y0088505D01*
X0094453Y0087907D02*
X0095053Y0087907D01*
X0095053Y0088505D02*
X0102327Y0088505D01*
X0102327Y0087907D02*
X0102927Y0087907D01*
X0102927Y0088505D02*
X0109807Y0088505D01*
X0110407Y0088505D02*
X0112179Y0088505D01*
X0112179Y0088598D02*
X0112179Y0088017D01*
X0110407Y0088017D01*
X0110407Y0088598D01*
X0112179Y0088598D01*
X0112760Y0088505D02*
X0116394Y0088505D01*
X0116394Y0087907D02*
X0115950Y0087907D01*
X0115950Y0087308D02*
X0116394Y0087308D01*
X0116536Y0086710D02*
X0115950Y0086710D01*
X0115950Y0086111D02*
X0117134Y0086111D01*
X0115896Y0085513D02*
X0118456Y0085513D01*
X0118456Y0084914D02*
X0115735Y0084914D01*
X0115446Y0084316D02*
X0118456Y0084316D01*
X0117892Y0083717D02*
X0114983Y0083717D01*
X0114233Y0083119D02*
X0117293Y0083119D01*
X0115498Y0081323D02*
X0110529Y0081323D01*
X0111361Y0080725D02*
X0115025Y0080725D01*
X0115025Y0080126D02*
X0111889Y0080126D01*
X0112252Y0079528D02*
X0115025Y0079528D01*
X0115025Y0078929D02*
X0112494Y0078929D01*
X0112635Y0078331D02*
X0115025Y0078331D01*
X0117825Y0078267D02*
X0117825Y0073038D01*
X0114755Y0069967D01*
X0114755Y0066258D01*
X0114720Y0066223D01*
X0114720Y0064723D01*
X0115301Y0064142D01*
X0115301Y0063763D01*
X0116700Y0062364D01*
X0118679Y0062364D01*
X0120568Y0064253D01*
X0121560Y0064253D01*
X0119749Y0066812D02*
X0117690Y0064753D01*
X0119749Y0066812D02*
X0121560Y0066812D01*
X0121560Y0069371D02*
X0121043Y0069888D01*
X0118054Y0069888D01*
X0121560Y0071930D02*
X0121690Y0072060D01*
X0120385Y0073365D01*
X0120385Y0075904D01*
X0122907Y0077102D02*
X0122749Y0077484D01*
X0121965Y0078269D01*
X0120939Y0078693D01*
X0120514Y0078693D01*
X0124575Y0082754D01*
X0124575Y0080049D01*
X0125336Y0079287D01*
X0130350Y0079287D01*
X0131112Y0080049D01*
X0131112Y0083759D01*
X0131268Y0083914D01*
X0131268Y0083053D01*
X0134236Y0083053D01*
X0134236Y0082453D01*
X0131268Y0082453D01*
X0131268Y0080416D01*
X0131356Y0080086D01*
X0131527Y0079789D01*
X0131551Y0079766D01*
X0129938Y0078153D01*
X0129346Y0077561D01*
X0128484Y0077561D01*
X0128351Y0077428D01*
X0128218Y0077561D01*
X0125925Y0077561D01*
X0125792Y0077428D01*
X0125659Y0077561D01*
X0123366Y0077561D01*
X0122907Y0077102D01*
X0122894Y0077134D02*
X0122939Y0077134D01*
X0122501Y0077732D02*
X0129518Y0077732D01*
X0129938Y0078153D02*
X0129938Y0078153D01*
X0130116Y0078331D02*
X0121815Y0078331D01*
X0120750Y0078929D02*
X0130715Y0078929D01*
X0130591Y0079528D02*
X0131313Y0079528D01*
X0131345Y0080126D02*
X0131112Y0080126D01*
X0131112Y0080725D02*
X0131268Y0080725D01*
X0131268Y0081323D02*
X0131112Y0081323D01*
X0131112Y0081922D02*
X0131268Y0081922D01*
X0131112Y0082520D02*
X0134236Y0082520D01*
X0134536Y0082753D02*
X0139243Y0082753D01*
X0141521Y0085031D01*
X0150142Y0085031D01*
X0153420Y0081753D01*
X0154690Y0081753D01*
X0157317Y0081753D01*
X0157317Y0083111D01*
X0159238Y0085031D01*
X0167859Y0085031D01*
X0168518Y0084371D01*
X0174158Y0084371D01*
X0176014Y0082515D01*
X0176014Y0081242D01*
X0176541Y0080715D01*
X0190216Y0080715D01*
X0197745Y0073186D01*
X0200623Y0076064D01*
X0200623Y0089883D01*
X0244835Y0089883D01*
X0245229Y0090276D01*
X0259579Y0075927D01*
X0259579Y0057763D01*
X0254179Y0052364D01*
X0248557Y0052364D01*
X0247709Y0051517D01*
X0248584Y0050642D01*
X0254679Y0050642D01*
X0256579Y0048742D01*
X0256579Y0041763D01*
X0255179Y0040364D01*
X0252561Y0040364D01*
X0245820Y0033623D01*
X0246120Y0033442D02*
X0264890Y0033442D01*
X0264890Y0032844D02*
X0251450Y0032844D01*
X0251450Y0033323D02*
X0251450Y0031553D01*
X0264890Y0031553D01*
X0264890Y0091953D01*
X0251450Y0091953D01*
X0251450Y0090576D01*
X0245529Y0090576D01*
X0245529Y0089976D01*
X0245529Y0087106D01*
X0250322Y0087106D01*
X0250652Y0087195D01*
X0250949Y0087366D01*
X0251191Y0087608D01*
X0251362Y0087905D01*
X0251450Y0088235D01*
X0251450Y0089976D01*
X0245529Y0089976D01*
X0244929Y0089976D01*
X0244929Y0087106D01*
X0240137Y0087106D01*
X0239806Y0087195D01*
X0239510Y0087366D01*
X0239268Y0087608D01*
X0239096Y0087905D01*
X0239008Y0088235D01*
X0239008Y0089976D01*
X0244929Y0089976D01*
X0244929Y0090576D01*
X0239008Y0090576D01*
X0239008Y0091953D01*
X0206254Y0091953D01*
X0206254Y0090183D01*
X0200923Y0090183D01*
X0200923Y0089583D01*
X0206254Y0089583D01*
X0206254Y0087448D01*
X0206165Y0087117D01*
X0205994Y0086821D01*
X0205752Y0086579D01*
X0205455Y0086407D01*
X0205125Y0086319D01*
X0200923Y0086319D01*
X0200923Y0089583D01*
X0200323Y0089583D01*
X0194992Y0089583D01*
X0194992Y0087448D01*
X0195081Y0087117D01*
X0195252Y0086821D01*
X0195494Y0086579D01*
X0195790Y0086407D01*
X0196121Y0086319D01*
X0200323Y0086319D01*
X0200323Y0089583D01*
X0200323Y0090183D01*
X0194992Y0090183D01*
X0194992Y0091953D01*
X0190025Y0091953D01*
X0190025Y0091129D01*
X0190336Y0090378D01*
X0190336Y0088993D01*
X0189806Y0087714D01*
X0188827Y0086735D01*
X0187860Y0086334D01*
X0187860Y0085971D01*
X0189137Y0085971D01*
X0189901Y0086735D01*
X0190926Y0087160D01*
X0192036Y0087160D01*
X0193061Y0086735D01*
X0193845Y0085951D01*
X0194270Y0084926D01*
X0194270Y0083816D01*
X0193845Y0082791D01*
X0193061Y0082006D01*
X0192036Y0081582D01*
X0190926Y0081582D01*
X0189901Y0082006D01*
X0189137Y0082771D01*
X0187860Y0082771D01*
X0187860Y0081667D01*
X0187098Y0080906D01*
X0183555Y0080906D01*
X0182964Y0080315D01*
X0181828Y0080315D01*
X0182155Y0079988D01*
X0182155Y0077053D01*
X0187171Y0072037D01*
X0188252Y0072037D01*
X0189277Y0071612D01*
X0190062Y0070828D01*
X0190487Y0069803D01*
X0190487Y0068693D01*
X0190062Y0067668D01*
X0189776Y0067382D01*
X0189908Y0067250D01*
X0190333Y0066225D01*
X0190333Y0065144D01*
X0192944Y0062533D01*
X0193524Y0063113D01*
X0194549Y0063538D01*
X0195659Y0063538D01*
X0196684Y0063113D01*
X0197468Y0062329D01*
X0197493Y0062269D01*
X0197518Y0062329D01*
X0198302Y0063113D01*
X0199327Y0063538D01*
X0200437Y0063538D01*
X0201462Y0063113D01*
X0202246Y0062329D01*
X0202671Y0061304D01*
X0202671Y0060223D01*
X0202852Y0060041D01*
X0202852Y0060041D01*
X0203790Y0059104D01*
X0203790Y0051597D01*
X0204554Y0050833D01*
X0204979Y0049808D01*
X0204979Y0048698D01*
X0204554Y0047673D01*
X0203770Y0046888D01*
X0202745Y0046464D01*
X0201635Y0046464D01*
X0200610Y0046888D01*
X0199825Y0047673D01*
X0199401Y0048698D01*
X0199401Y0049808D01*
X0199825Y0050833D01*
X0200590Y0051597D01*
X0200590Y0057778D01*
X0200408Y0057960D01*
X0199327Y0057960D01*
X0198302Y0058384D01*
X0197518Y0059169D01*
X0197493Y0059228D01*
X0197468Y0059169D01*
X0196684Y0058384D01*
X0195659Y0057960D01*
X0194549Y0057960D01*
X0193524Y0058384D01*
X0192760Y0059149D01*
X0191803Y0059149D01*
X0190333Y0060618D01*
X0190333Y0060194D01*
X0189908Y0059169D01*
X0189124Y0058384D01*
X0188099Y0057960D01*
X0187018Y0057960D01*
X0186435Y0057377D01*
X0182155Y0057377D01*
X0182155Y0056470D01*
X0181973Y0056288D01*
X0182155Y0056106D01*
X0182155Y0051092D01*
X0181394Y0050331D01*
X0175986Y0050331D01*
X0175224Y0051092D01*
X0175224Y0054509D01*
X0173793Y0054509D01*
X0172037Y0056264D01*
X0169037Y0056264D01*
X0168100Y0057201D01*
X0167638Y0057663D01*
X0167458Y0057843D01*
X0167458Y0056683D01*
X0166697Y0055921D01*
X0165790Y0055921D01*
X0165790Y0055863D01*
X0164511Y0054584D01*
X0166697Y0054584D01*
X0167428Y0053853D01*
X0168846Y0053853D01*
X0169610Y0054617D01*
X0170635Y0055042D01*
X0171745Y0055042D01*
X0172770Y0054617D01*
X0173554Y0053833D01*
X0173979Y0052808D01*
X0173979Y0051698D01*
X0173554Y0050673D01*
X0172770Y0049888D01*
X0171745Y0049464D01*
X0170635Y0049464D01*
X0169610Y0049888D01*
X0168846Y0050653D01*
X0167458Y0050653D01*
X0167458Y0048809D01*
X0166697Y0048047D01*
X0165790Y0048047D01*
X0165790Y0046852D01*
X0167681Y0046852D01*
X0168443Y0046090D01*
X0168443Y0039895D01*
X0167762Y0039215D01*
X0167941Y0039112D01*
X0168183Y0038870D01*
X0168354Y0038573D01*
X0168443Y0038243D01*
X0168443Y0035813D01*
X0164490Y0035813D01*
X0163890Y0035813D01*
X0163890Y0039134D01*
X0164490Y0039134D01*
X0164490Y0035813D01*
X0164490Y0035213D01*
X0168443Y0035213D01*
X0168443Y0034890D01*
X0175224Y0041672D01*
X0175224Y0044106D01*
X0175371Y0044253D01*
X0175224Y0044399D01*
X0175224Y0049413D01*
X0175986Y0050175D01*
X0181394Y0050175D01*
X0182155Y0049413D01*
X0182155Y0048353D01*
X0186346Y0048353D01*
X0187110Y0049117D01*
X0188135Y0049542D01*
X0189245Y0049542D01*
X0190270Y0049117D01*
X0191054Y0048333D01*
X0191479Y0047308D01*
X0191479Y0046198D01*
X0191054Y0045173D01*
X0190270Y0044388D01*
X0189942Y0044253D01*
X0190270Y0044117D01*
X0191054Y0043333D01*
X0191479Y0042308D01*
X0191479Y0041198D01*
X0191054Y0040173D01*
X0190270Y0039388D01*
X0189245Y0038964D01*
X0188135Y0038964D01*
X0187110Y0039388D01*
X0186346Y0040153D01*
X0186199Y0040153D01*
X0182155Y0036109D01*
X0182155Y0032399D01*
X0181394Y0031638D01*
X0175986Y0031638D01*
X0175224Y0032399D01*
X0175224Y0037146D01*
X0169631Y0031553D01*
X0240189Y0031553D01*
X0240189Y0031634D01*
X0234356Y0031634D01*
X0233594Y0032395D01*
X0233594Y0038039D01*
X0234158Y0038602D01*
X0226083Y0038602D01*
X0226083Y0038602D01*
X0211593Y0038602D01*
X0210831Y0039364D01*
X0210831Y0076698D01*
X0211593Y0077459D01*
X0226083Y0077459D01*
X0226089Y0077453D01*
X0244823Y0077453D01*
X0245584Y0076692D01*
X0245584Y0076045D01*
X0250689Y0076045D01*
X0251363Y0075370D01*
X0252110Y0076117D01*
X0253135Y0076542D01*
X0254245Y0076542D01*
X0255270Y0076117D01*
X0256054Y0075333D01*
X0256479Y0074308D01*
X0256479Y0073198D01*
X0256054Y0072173D01*
X0255270Y0071388D01*
X0255177Y0071350D01*
X0256053Y0070987D01*
X0256838Y0070203D01*
X0257262Y0069178D01*
X0257262Y0068068D01*
X0256838Y0067043D01*
X0256449Y0066654D01*
X0256838Y0066266D01*
X0257262Y0065241D01*
X0257262Y0064131D01*
X0256838Y0063106D01*
X0256053Y0062321D01*
X0255028Y0061897D01*
X0253918Y0061897D01*
X0252893Y0062321D01*
X0252306Y0062909D01*
X0251450Y0062909D01*
X0251450Y0062395D01*
X0251398Y0062343D01*
X0251450Y0062291D01*
X0251450Y0060853D01*
X0254846Y0060853D01*
X0255610Y0061617D01*
X0256635Y0062042D01*
X0257745Y0062042D01*
X0258770Y0061617D01*
X0259554Y0060833D01*
X0259979Y0059808D01*
X0259979Y0058698D01*
X0259554Y0057673D01*
X0258770Y0056888D01*
X0257745Y0056464D01*
X0256635Y0056464D01*
X0255610Y0056888D01*
X0254846Y0057653D01*
X0251450Y0057653D01*
X0251450Y0057447D01*
X0252407Y0057447D01*
X0252635Y0057542D01*
X0253745Y0057542D01*
X0254770Y0057117D01*
X0255554Y0056333D01*
X0255979Y0055308D01*
X0255979Y0054198D01*
X0255554Y0053173D01*
X0254770Y0052388D01*
X0253745Y0051964D01*
X0252635Y0051964D01*
X0251610Y0052388D01*
X0251450Y0052548D01*
X0251450Y0051816D01*
X0248009Y0051816D01*
X0248009Y0051217D01*
X0251450Y0051217D01*
X0251450Y0049958D01*
X0252110Y0050617D01*
X0253135Y0051042D01*
X0254245Y0051042D01*
X0255270Y0050617D01*
X0256054Y0049833D01*
X0256479Y0048808D01*
X0256479Y0047698D01*
X0256054Y0046673D01*
X0255270Y0045888D01*
X0254339Y0045503D01*
X0255270Y0045117D01*
X0256054Y0044333D01*
X0256479Y0043308D01*
X0256479Y0042198D01*
X0256054Y0041173D01*
X0255270Y0040388D01*
X0254245Y0039964D01*
X0253135Y0039964D01*
X0252110Y0040388D01*
X0251450Y0041048D01*
X0251450Y0040742D01*
X0250689Y0039980D01*
X0245584Y0039980D01*
X0245584Y0039364D01*
X0244823Y0038602D01*
X0240553Y0038602D01*
X0241116Y0038039D01*
X0241116Y0037132D01*
X0241318Y0037187D01*
X0245520Y0037187D01*
X0245520Y0033923D01*
X0246120Y0033923D01*
X0251450Y0033923D01*
X0251450Y0036058D01*
X0251362Y0036388D01*
X0251191Y0036685D01*
X0250949Y0036927D01*
X0250652Y0037098D01*
X0250322Y0037187D01*
X0246120Y0037187D01*
X0246120Y0033923D01*
X0246120Y0033323D01*
X0251450Y0033323D01*
X0251450Y0034041D02*
X0264890Y0034041D01*
X0264890Y0034639D02*
X0251450Y0034639D01*
X0251450Y0035238D02*
X0264890Y0035238D01*
X0264890Y0035836D02*
X0251450Y0035836D01*
X0251335Y0036435D02*
X0264890Y0036435D01*
X0264890Y0037033D02*
X0250764Y0037033D01*
X0250735Y0040026D02*
X0252985Y0040026D01*
X0251874Y0040624D02*
X0251333Y0040624D01*
X0254395Y0040026D02*
X0264890Y0040026D01*
X0264890Y0040624D02*
X0255506Y0040624D01*
X0256075Y0041223D02*
X0264890Y0041223D01*
X0264890Y0041821D02*
X0256323Y0041821D01*
X0256479Y0042420D02*
X0264890Y0042420D01*
X0264890Y0043019D02*
X0256479Y0043019D01*
X0256351Y0043617D02*
X0264890Y0043617D01*
X0264890Y0044216D02*
X0256103Y0044216D01*
X0255573Y0044814D02*
X0264890Y0044814D01*
X0264890Y0045413D02*
X0254556Y0045413D01*
X0255392Y0046011D02*
X0264890Y0046011D01*
X0264890Y0046610D02*
X0255991Y0046610D01*
X0256276Y0047208D02*
X0264890Y0047208D01*
X0264890Y0047807D02*
X0256479Y0047807D01*
X0256479Y0048405D02*
X0264890Y0048405D01*
X0264890Y0049004D02*
X0256398Y0049004D01*
X0256150Y0049602D02*
X0264890Y0049602D01*
X0264890Y0050201D02*
X0255686Y0050201D01*
X0254830Y0050799D02*
X0264890Y0050799D01*
X0264890Y0051398D02*
X0248009Y0051398D01*
X0251450Y0051996D02*
X0252557Y0051996D01*
X0252549Y0050799D02*
X0251450Y0050799D01*
X0251450Y0050201D02*
X0251693Y0050201D01*
X0253690Y0048253D02*
X0248776Y0048253D01*
X0247709Y0047186D01*
X0247709Y0042855D02*
X0247812Y0042753D01*
X0253690Y0042753D01*
X0245584Y0039427D02*
X0264890Y0039427D01*
X0264890Y0038829D02*
X0245049Y0038829D01*
X0245520Y0037033D02*
X0246120Y0037033D01*
X0246120Y0036435D02*
X0245520Y0036435D01*
X0245520Y0035836D02*
X0246120Y0035836D01*
X0246120Y0035238D02*
X0245520Y0035238D01*
X0245520Y0034639D02*
X0246120Y0034639D01*
X0246120Y0034041D02*
X0245520Y0034041D01*
X0251450Y0032245D02*
X0264890Y0032245D01*
X0264890Y0031647D02*
X0251450Y0031647D01*
X0241116Y0037632D02*
X0264890Y0037632D01*
X0264890Y0038230D02*
X0240925Y0038230D01*
X0233786Y0038230D02*
X0205393Y0038230D01*
X0205584Y0038039D02*
X0204823Y0038801D01*
X0200940Y0038801D01*
X0200968Y0038849D01*
X0201057Y0039180D01*
X0201057Y0042004D01*
X0197793Y0042004D01*
X0197793Y0042604D01*
X0201057Y0042604D01*
X0201057Y0045428D01*
X0200968Y0045758D01*
X0200797Y0046055D01*
X0200555Y0046297D01*
X0200258Y0046468D01*
X0199928Y0046557D01*
X0197793Y0046557D01*
X0197793Y0042604D01*
X0197193Y0042604D01*
X0197193Y0046557D01*
X0195058Y0046557D01*
X0194727Y0046468D01*
X0194431Y0046297D01*
X0194189Y0046055D01*
X0194018Y0045758D01*
X0193929Y0045428D01*
X0193929Y0042604D01*
X0197193Y0042604D01*
X0197193Y0042004D01*
X0197793Y0042004D01*
X0197793Y0038051D01*
X0198272Y0038051D01*
X0198260Y0038039D01*
X0198260Y0032395D01*
X0199021Y0031634D01*
X0204823Y0031634D01*
X0205584Y0032395D01*
X0205584Y0038039D01*
X0205584Y0037632D02*
X0233594Y0037632D01*
X0233594Y0037033D02*
X0205584Y0037033D01*
X0205584Y0036435D02*
X0233594Y0036435D01*
X0233594Y0035836D02*
X0205584Y0035836D01*
X0205584Y0035238D02*
X0233594Y0035238D01*
X0233594Y0034639D02*
X0205584Y0034639D01*
X0205584Y0034041D02*
X0233594Y0034041D01*
X0233594Y0033442D02*
X0205584Y0033442D01*
X0205584Y0032844D02*
X0233594Y0032844D01*
X0233745Y0032245D02*
X0205434Y0032245D01*
X0204836Y0031647D02*
X0234343Y0031647D01*
X0211366Y0038829D02*
X0200956Y0038829D01*
X0201057Y0039427D02*
X0210831Y0039427D01*
X0210831Y0040026D02*
X0201057Y0040026D01*
X0201057Y0040624D02*
X0210831Y0040624D01*
X0210831Y0041223D02*
X0201057Y0041223D01*
X0201057Y0041821D02*
X0210831Y0041821D01*
X0210831Y0042420D02*
X0197793Y0042420D01*
X0197493Y0042304D02*
X0196517Y0042304D01*
X0189046Y0049775D01*
X0188690Y0049775D01*
X0197493Y0058578D01*
X0197493Y0072934D01*
X0197745Y0073186D01*
X0197793Y0073234D02*
X0197193Y0073234D01*
X0197193Y0077187D01*
X0195058Y0077187D01*
X0194727Y0077098D01*
X0194431Y0076927D01*
X0194189Y0076685D01*
X0194018Y0076388D01*
X0193929Y0076058D01*
X0193929Y0073234D01*
X0197193Y0073234D01*
X0197193Y0072634D01*
X0193929Y0072634D01*
X0193929Y0069810D01*
X0194018Y0069479D01*
X0194189Y0069183D01*
X0194431Y0068941D01*
X0194727Y0068770D01*
X0195058Y0068681D01*
X0197193Y0068681D01*
X0197193Y0072634D01*
X0197793Y0072634D01*
X0197793Y0073234D01*
X0197793Y0077187D01*
X0199928Y0077187D01*
X0200258Y0077098D01*
X0200555Y0076927D01*
X0200797Y0076685D01*
X0200968Y0076388D01*
X0201057Y0076058D01*
X0201057Y0073234D01*
X0197793Y0073234D01*
X0197793Y0072944D02*
X0210831Y0072944D01*
X0210831Y0072346D02*
X0201057Y0072346D01*
X0201057Y0072634D02*
X0201057Y0069810D01*
X0200968Y0069479D01*
X0200797Y0069183D01*
X0200555Y0068941D01*
X0200258Y0068770D01*
X0199928Y0068681D01*
X0197793Y0068681D01*
X0197793Y0072634D01*
X0201057Y0072634D01*
X0201057Y0071747D02*
X0210831Y0071747D01*
X0210831Y0071149D02*
X0201057Y0071149D01*
X0201057Y0070550D02*
X0210831Y0070550D01*
X0210831Y0069952D02*
X0201057Y0069952D01*
X0200895Y0069353D02*
X0210831Y0069353D01*
X0210831Y0068755D02*
X0200202Y0068755D01*
X0197793Y0068755D02*
X0197193Y0068755D01*
X0197193Y0069353D02*
X0197793Y0069353D01*
X0197793Y0069952D02*
X0197193Y0069952D01*
X0197193Y0070550D02*
X0197793Y0070550D01*
X0197793Y0071149D02*
X0197193Y0071149D01*
X0197193Y0071747D02*
X0197793Y0071747D01*
X0197793Y0072346D02*
X0197193Y0072346D01*
X0197193Y0072944D02*
X0186264Y0072944D01*
X0185666Y0073543D02*
X0193929Y0073543D01*
X0193929Y0074141D02*
X0185067Y0074141D01*
X0184469Y0074740D02*
X0193929Y0074740D01*
X0193929Y0075338D02*
X0183870Y0075338D01*
X0183272Y0075937D02*
X0193929Y0075937D01*
X0194102Y0076535D02*
X0182673Y0076535D01*
X0182155Y0077134D02*
X0194860Y0077134D01*
X0197193Y0077134D02*
X0197793Y0077134D01*
X0197793Y0076535D02*
X0197193Y0076535D01*
X0197193Y0075937D02*
X0197793Y0075937D01*
X0197793Y0075338D02*
X0197193Y0075338D01*
X0197193Y0074740D02*
X0197793Y0074740D01*
X0197793Y0074141D02*
X0197193Y0074141D01*
X0197193Y0073543D02*
X0197793Y0073543D01*
X0201057Y0073543D02*
X0210831Y0073543D01*
X0210831Y0074141D02*
X0201057Y0074141D01*
X0201057Y0074740D02*
X0210831Y0074740D01*
X0210831Y0075338D02*
X0201057Y0075338D01*
X0201057Y0075937D02*
X0210831Y0075937D01*
X0210831Y0076535D02*
X0200883Y0076535D01*
X0200125Y0077134D02*
X0211267Y0077134D01*
X0193929Y0072346D02*
X0186863Y0072346D01*
X0188952Y0071747D02*
X0193929Y0071747D01*
X0193929Y0071149D02*
X0189741Y0071149D01*
X0190177Y0070550D02*
X0193929Y0070550D01*
X0193929Y0069952D02*
X0190425Y0069952D01*
X0190487Y0069353D02*
X0194091Y0069353D01*
X0194784Y0068755D02*
X0190487Y0068755D01*
X0190264Y0068156D02*
X0210831Y0068156D01*
X0210831Y0067557D02*
X0189951Y0067557D01*
X0190029Y0066959D02*
X0210831Y0066959D01*
X0210831Y0066360D02*
X0190277Y0066360D01*
X0190333Y0065762D02*
X0210831Y0065762D01*
X0210831Y0065163D02*
X0190333Y0065163D01*
X0190912Y0064565D02*
X0210831Y0064565D01*
X0210831Y0063966D02*
X0191510Y0063966D01*
X0192109Y0063368D02*
X0194139Y0063368D01*
X0193180Y0062769D02*
X0192708Y0062769D01*
X0196069Y0063368D02*
X0198917Y0063368D01*
X0197958Y0062769D02*
X0197028Y0062769D01*
X0200847Y0063368D02*
X0210831Y0063368D01*
X0210831Y0062769D02*
X0201806Y0062769D01*
X0202312Y0062171D02*
X0210831Y0062171D01*
X0210831Y0061572D02*
X0202560Y0061572D01*
X0202671Y0060974D02*
X0210831Y0060974D01*
X0210831Y0060375D02*
X0202671Y0060375D01*
X0203117Y0059777D02*
X0210831Y0059777D01*
X0210831Y0059178D02*
X0203715Y0059178D01*
X0203790Y0058580D02*
X0210831Y0058580D01*
X0210831Y0057981D02*
X0203790Y0057981D01*
X0203790Y0057383D02*
X0210831Y0057383D01*
X0210831Y0056784D02*
X0203790Y0056784D01*
X0203790Y0056186D02*
X0210831Y0056186D01*
X0210831Y0055587D02*
X0203790Y0055587D01*
X0203790Y0054989D02*
X0210831Y0054989D01*
X0210831Y0054390D02*
X0203790Y0054390D01*
X0203790Y0053792D02*
X0210831Y0053792D01*
X0210831Y0053193D02*
X0203790Y0053193D01*
X0203790Y0052595D02*
X0210831Y0052595D01*
X0210831Y0051996D02*
X0203790Y0051996D01*
X0203989Y0051398D02*
X0210831Y0051398D01*
X0210831Y0050799D02*
X0204568Y0050799D01*
X0204816Y0050201D02*
X0210831Y0050201D01*
X0210831Y0049602D02*
X0204979Y0049602D01*
X0204979Y0049004D02*
X0210831Y0049004D01*
X0210831Y0048405D02*
X0204857Y0048405D01*
X0204609Y0047807D02*
X0210831Y0047807D01*
X0210831Y0047208D02*
X0204089Y0047208D01*
X0203097Y0046610D02*
X0210831Y0046610D01*
X0210831Y0046011D02*
X0200822Y0046011D01*
X0201057Y0045413D02*
X0210831Y0045413D01*
X0210831Y0044814D02*
X0201057Y0044814D01*
X0201057Y0044216D02*
X0210831Y0044216D01*
X0210831Y0043617D02*
X0201057Y0043617D01*
X0201057Y0043019D02*
X0210831Y0043019D01*
X0201283Y0046610D02*
X0191479Y0046610D01*
X0191479Y0047208D02*
X0200290Y0047208D01*
X0199770Y0047807D02*
X0191272Y0047807D01*
X0190982Y0048405D02*
X0199522Y0048405D01*
X0199401Y0049004D02*
X0190383Y0049004D01*
X0188690Y0049775D02*
X0176152Y0049775D01*
X0175624Y0049248D01*
X0175624Y0046947D01*
X0164190Y0035513D01*
X0164190Y0036208D01*
X0160337Y0040061D01*
X0160337Y0040608D01*
X0158804Y0042142D01*
X0157966Y0042420D02*
X0159937Y0042420D01*
X0159937Y0041821D02*
X0157368Y0041821D01*
X0156769Y0041223D02*
X0159937Y0041223D01*
X0159937Y0040624D02*
X0156655Y0040624D01*
X0156655Y0041109D02*
X0156655Y0039050D01*
X0160493Y0035213D01*
X0163890Y0035213D01*
X0163890Y0035813D01*
X0159937Y0035813D01*
X0159937Y0038243D01*
X0160026Y0038573D01*
X0160197Y0038870D01*
X0160439Y0039112D01*
X0160617Y0039215D01*
X0159937Y0039895D01*
X0159937Y0044391D01*
X0156655Y0041109D01*
X0156655Y0040026D02*
X0159937Y0040026D01*
X0160405Y0039427D02*
X0156655Y0039427D01*
X0156876Y0038829D02*
X0160173Y0038829D01*
X0159937Y0038230D02*
X0157475Y0038230D01*
X0158073Y0037632D02*
X0159937Y0037632D01*
X0159937Y0037033D02*
X0158672Y0037033D01*
X0159270Y0036435D02*
X0159937Y0036435D01*
X0159937Y0035836D02*
X0159869Y0035836D01*
X0160467Y0035238D02*
X0163890Y0035238D01*
X0163890Y0035836D02*
X0164490Y0035836D01*
X0164490Y0035238D02*
X0168791Y0035238D01*
X0168443Y0035836D02*
X0169389Y0035836D01*
X0169988Y0036435D02*
X0168443Y0036435D01*
X0168443Y0037033D02*
X0170586Y0037033D01*
X0171185Y0037632D02*
X0168443Y0037632D01*
X0168443Y0038230D02*
X0171783Y0038230D01*
X0172382Y0038829D02*
X0168206Y0038829D01*
X0167975Y0039427D02*
X0172980Y0039427D01*
X0173579Y0040026D02*
X0168443Y0040026D01*
X0168443Y0040624D02*
X0174177Y0040624D01*
X0174776Y0041223D02*
X0168443Y0041223D01*
X0168443Y0041821D02*
X0175224Y0041821D01*
X0175224Y0042420D02*
X0168443Y0042420D01*
X0168443Y0043019D02*
X0175224Y0043019D01*
X0175224Y0043617D02*
X0168443Y0043617D01*
X0168443Y0044216D02*
X0175334Y0044216D01*
X0175224Y0044814D02*
X0168443Y0044814D01*
X0168443Y0045413D02*
X0175224Y0045413D01*
X0175224Y0046011D02*
X0168443Y0046011D01*
X0167923Y0046610D02*
X0175224Y0046610D01*
X0175224Y0047208D02*
X0165790Y0047208D01*
X0165790Y0047807D02*
X0175224Y0047807D01*
X0175224Y0048405D02*
X0167055Y0048405D01*
X0167458Y0049004D02*
X0175224Y0049004D01*
X0175413Y0049602D02*
X0172079Y0049602D01*
X0173082Y0050201D02*
X0199564Y0050201D01*
X0199401Y0049602D02*
X0181966Y0049602D01*
X0182155Y0049004D02*
X0186996Y0049004D01*
X0186398Y0048405D02*
X0182155Y0048405D01*
X0178843Y0046753D02*
X0188690Y0046753D01*
X0191153Y0045413D02*
X0193929Y0045413D01*
X0193929Y0044814D02*
X0190695Y0044814D01*
X0190032Y0044216D02*
X0193929Y0044216D01*
X0193929Y0043617D02*
X0190770Y0043617D01*
X0191184Y0043019D02*
X0193929Y0043019D01*
X0193929Y0042004D02*
X0193929Y0039180D01*
X0194018Y0038849D01*
X0194189Y0038553D01*
X0194431Y0038311D01*
X0194727Y0038140D01*
X0195058Y0038051D01*
X0197193Y0038051D01*
X0197193Y0042004D01*
X0193929Y0042004D01*
X0193929Y0041821D02*
X0191479Y0041821D01*
X0191479Y0041223D02*
X0193929Y0041223D01*
X0193929Y0040624D02*
X0191241Y0040624D01*
X0190907Y0040026D02*
X0193929Y0040026D01*
X0193929Y0039427D02*
X0190309Y0039427D01*
X0187071Y0039427D02*
X0185474Y0039427D01*
X0184875Y0038829D02*
X0194030Y0038829D01*
X0194570Y0038230D02*
X0184277Y0038230D01*
X0183678Y0037632D02*
X0198260Y0037632D01*
X0198260Y0037033D02*
X0183080Y0037033D01*
X0182481Y0036435D02*
X0198260Y0036435D01*
X0198260Y0035836D02*
X0182155Y0035836D01*
X0182155Y0035238D02*
X0198260Y0035238D01*
X0198260Y0034639D02*
X0182155Y0034639D01*
X0182155Y0034041D02*
X0198260Y0034041D01*
X0198260Y0033442D02*
X0182155Y0033442D01*
X0182155Y0032844D02*
X0198260Y0032844D01*
X0198410Y0032245D02*
X0182001Y0032245D01*
X0181403Y0031647D02*
X0199008Y0031647D01*
X0197793Y0038230D02*
X0197193Y0038230D01*
X0197193Y0038829D02*
X0197793Y0038829D01*
X0197793Y0039427D02*
X0197193Y0039427D01*
X0197193Y0040026D02*
X0197793Y0040026D01*
X0197793Y0040624D02*
X0197193Y0040624D01*
X0197193Y0041223D02*
X0197793Y0041223D01*
X0197793Y0041821D02*
X0197193Y0041821D01*
X0197193Y0042420D02*
X0191432Y0042420D01*
X0188690Y0041753D02*
X0185536Y0041753D01*
X0178690Y0034906D01*
X0175224Y0034639D02*
X0172718Y0034639D01*
X0173316Y0035238D02*
X0175224Y0035238D01*
X0175224Y0035836D02*
X0173915Y0035836D01*
X0174513Y0036435D02*
X0175224Y0036435D01*
X0175224Y0037033D02*
X0175112Y0037033D01*
X0175224Y0034041D02*
X0172119Y0034041D01*
X0171521Y0033442D02*
X0175224Y0033442D01*
X0175224Y0032844D02*
X0170922Y0032844D01*
X0170324Y0032245D02*
X0175378Y0032245D01*
X0175977Y0031647D02*
X0169725Y0031647D01*
X0167869Y0032054D02*
X0177415Y0041599D01*
X0178690Y0041599D01*
X0186072Y0040026D02*
X0186472Y0040026D01*
X0197193Y0043019D02*
X0197793Y0043019D01*
X0197793Y0043617D02*
X0197193Y0043617D01*
X0197193Y0044216D02*
X0197793Y0044216D01*
X0197793Y0044814D02*
X0197193Y0044814D01*
X0197193Y0045413D02*
X0197793Y0045413D01*
X0197793Y0046011D02*
X0197193Y0046011D01*
X0194164Y0046011D02*
X0191401Y0046011D01*
X0199812Y0050799D02*
X0181862Y0050799D01*
X0182155Y0051398D02*
X0200390Y0051398D01*
X0200590Y0051996D02*
X0182155Y0051996D01*
X0182155Y0052595D02*
X0200590Y0052595D01*
X0200590Y0053193D02*
X0182155Y0053193D01*
X0182155Y0053792D02*
X0200590Y0053792D01*
X0200590Y0054390D02*
X0182155Y0054390D01*
X0182155Y0054989D02*
X0200590Y0054989D01*
X0200590Y0055587D02*
X0182155Y0055587D01*
X0182076Y0056186D02*
X0200590Y0056186D01*
X0200590Y0056784D02*
X0182155Y0056784D01*
X0186441Y0057383D02*
X0200590Y0057383D01*
X0199275Y0057981D02*
X0195710Y0057981D01*
X0194497Y0057981D02*
X0188151Y0057981D01*
X0189319Y0058580D02*
X0193329Y0058580D01*
X0191773Y0059178D02*
X0189912Y0059178D01*
X0190160Y0059777D02*
X0191175Y0059777D01*
X0190576Y0060375D02*
X0190333Y0060375D01*
X0192465Y0060749D02*
X0187544Y0065670D01*
X0181755Y0071459D01*
X0181755Y0073129D01*
X0181228Y0073657D01*
X0173632Y0073657D01*
X0170690Y0076599D01*
X0174155Y0076535D02*
X0175224Y0076535D01*
X0175224Y0075937D02*
X0174155Y0075937D01*
X0174155Y0075397D02*
X0174155Y0079106D01*
X0173394Y0079868D01*
X0169701Y0079868D01*
X0170179Y0081021D01*
X0170179Y0082484D01*
X0169619Y0083836D01*
X0168584Y0084871D01*
X0167232Y0085431D01*
X0165769Y0085431D01*
X0164417Y0084871D01*
X0163548Y0084001D01*
X0162679Y0084871D01*
X0161327Y0085431D01*
X0159864Y0085431D01*
X0158512Y0084871D01*
X0157623Y0083982D01*
X0157547Y0084097D01*
X0157034Y0084610D01*
X0156432Y0085012D01*
X0155763Y0085289D01*
X0155052Y0085431D01*
X0154990Y0085431D01*
X0154990Y0082053D01*
X0154390Y0082053D01*
X0154390Y0085431D01*
X0154328Y0085431D01*
X0153617Y0085289D01*
X0152948Y0085012D01*
X0152345Y0084610D01*
X0151833Y0084097D01*
X0151756Y0083982D01*
X0150868Y0084871D01*
X0149516Y0085431D01*
X0148053Y0085431D01*
X0146701Y0084871D01*
X0145831Y0084001D01*
X0144962Y0084871D01*
X0143610Y0085431D01*
X0142147Y0085431D01*
X0140795Y0084871D01*
X0139761Y0083836D01*
X0139560Y0083353D01*
X0139277Y0083353D01*
X0139077Y0083153D01*
X0138080Y0083153D01*
X0137380Y0082453D01*
X0134836Y0082453D01*
X0134836Y0083053D01*
X0137805Y0083053D01*
X0137805Y0085089D01*
X0137716Y0085420D01*
X0137545Y0085716D01*
X0137303Y0085958D01*
X0137074Y0086091D01*
X0138457Y0086091D01*
X0139218Y0086852D01*
X0139218Y0091953D01*
X0140161Y0091953D01*
X0140161Y0086852D01*
X0140923Y0086091D01*
X0146724Y0086091D01*
X0147486Y0086852D01*
X0147486Y0088153D01*
X0148346Y0088153D01*
X0149110Y0087388D01*
X0150135Y0086964D01*
X0151245Y0086964D01*
X0152270Y0087388D01*
X0153054Y0088173D01*
X0153479Y0089198D01*
X0153479Y0090308D01*
X0153054Y0091333D01*
X0152434Y0091953D01*
X0169315Y0091953D01*
X0169315Y0091129D01*
X0169004Y0090378D01*
X0169004Y0088993D01*
X0169534Y0087714D01*
X0170513Y0086735D01*
X0171480Y0086334D01*
X0171480Y0084671D01*
X0173858Y0084671D01*
X0173858Y0084071D01*
X0171480Y0084071D01*
X0171480Y0082034D01*
X0171569Y0081704D01*
X0171740Y0081407D01*
X0171982Y0081165D01*
X0172279Y0080994D01*
X0172609Y0080906D01*
X0173858Y0080906D01*
X0173858Y0084071D01*
X0174458Y0084071D01*
X0174458Y0080906D01*
X0175707Y0080906D01*
X0175769Y0080922D01*
X0175963Y0080727D01*
X0175224Y0079988D01*
X0175224Y0075257D01*
X0174295Y0075257D01*
X0174155Y0075397D01*
X0174214Y0075338D02*
X0175224Y0075338D01*
X0175224Y0077134D02*
X0174155Y0077134D01*
X0174155Y0077732D02*
X0175224Y0077732D01*
X0175224Y0078331D02*
X0174155Y0078331D01*
X0174155Y0078929D02*
X0175224Y0078929D01*
X0175224Y0079528D02*
X0173734Y0079528D01*
X0175363Y0080126D02*
X0169808Y0080126D01*
X0170056Y0080725D02*
X0175961Y0080725D01*
X0174458Y0081323D02*
X0173858Y0081323D01*
X0173858Y0081922D02*
X0174458Y0081922D01*
X0174458Y0082520D02*
X0173858Y0082520D01*
X0173858Y0083119D02*
X0174458Y0083119D01*
X0174458Y0083717D02*
X0173858Y0083717D01*
X0173858Y0084316D02*
X0169139Y0084316D01*
X0169668Y0083717D02*
X0171480Y0083717D01*
X0171480Y0083119D02*
X0169916Y0083119D01*
X0170164Y0082520D02*
X0171480Y0082520D01*
X0171510Y0081922D02*
X0170179Y0081922D01*
X0170179Y0081323D02*
X0171824Y0081323D01*
X0171480Y0084914D02*
X0168479Y0084914D01*
X0170573Y0086710D02*
X0147344Y0086710D01*
X0147486Y0087308D02*
X0149303Y0087308D01*
X0148591Y0087907D02*
X0147486Y0087907D01*
X0146745Y0086111D02*
X0171480Y0086111D01*
X0171480Y0085513D02*
X0137662Y0085513D01*
X0137805Y0084914D02*
X0140900Y0084914D01*
X0140240Y0084316D02*
X0137805Y0084316D01*
X0137805Y0083717D02*
X0139711Y0083717D01*
X0138046Y0083119D02*
X0137805Y0083119D01*
X0137448Y0082520D02*
X0134836Y0082520D01*
X0131268Y0083119D02*
X0131112Y0083119D01*
X0131112Y0083717D02*
X0131268Y0083717D01*
X0127843Y0082753D02*
X0134843Y0089753D01*
X0135190Y0089753D01*
X0135556Y0089753D01*
X0135190Y0089753D02*
X0134843Y0089753D01*
X0139218Y0089702D02*
X0140161Y0089702D01*
X0140161Y0089104D02*
X0139218Y0089104D01*
X0139218Y0088505D02*
X0140161Y0088505D01*
X0140161Y0087907D02*
X0139218Y0087907D01*
X0139218Y0087308D02*
X0140161Y0087308D01*
X0140304Y0086710D02*
X0139076Y0086710D01*
X0138477Y0086111D02*
X0140902Y0086111D01*
X0144857Y0084914D02*
X0146806Y0084914D01*
X0146146Y0084316D02*
X0145517Y0084316D01*
X0142879Y0081753D02*
X0139940Y0081753D01*
X0139740Y0081553D01*
X0138743Y0081553D01*
X0136878Y0079687D01*
X0133735Y0079687D01*
X0130601Y0076553D01*
X0130601Y0075853D01*
X0129631Y0074883D01*
X0132190Y0074883D02*
X0133160Y0075853D01*
X0133160Y0076553D01*
X0135071Y0078464D01*
X0139190Y0078464D01*
X0142879Y0079608D02*
X0144190Y0078297D01*
X0144191Y0078297D01*
X0147388Y0075099D01*
X0153690Y0075099D01*
X0159325Y0077134D02*
X0167224Y0077134D01*
X0167224Y0077732D02*
X0158726Y0077732D01*
X0159190Y0077253D02*
X0159190Y0078523D01*
X0157317Y0080395D01*
X0157317Y0081753D01*
X0154990Y0082520D02*
X0154390Y0082520D01*
X0154390Y0082053D02*
X0152462Y0082053D01*
X0152462Y0081453D01*
X0154390Y0081453D01*
X0154390Y0082053D01*
X0154390Y0081922D02*
X0152462Y0081922D01*
X0154390Y0083119D02*
X0154990Y0083119D01*
X0154990Y0083717D02*
X0154390Y0083717D01*
X0154390Y0084316D02*
X0154990Y0084316D01*
X0154990Y0084914D02*
X0154390Y0084914D01*
X0152801Y0084914D02*
X0150763Y0084914D01*
X0151423Y0084316D02*
X0152051Y0084316D01*
X0148784Y0081753D02*
X0152569Y0077968D01*
X0156228Y0077968D01*
X0164066Y0070129D01*
X0161690Y0067753D01*
X0160690Y0067753D01*
X0164066Y0070129D02*
X0168801Y0065395D01*
X0177742Y0065395D01*
X0177769Y0065421D01*
X0176732Y0065142D01*
X0177769Y0065421D02*
X0178690Y0065670D01*
X0178690Y0070788D01*
X0175224Y0070550D02*
X0174155Y0070550D01*
X0174155Y0070206D02*
X0174155Y0072046D01*
X0174152Y0072057D01*
X0175224Y0072057D01*
X0175224Y0068281D01*
X0175276Y0068229D01*
X0175224Y0068177D01*
X0175224Y0066995D01*
X0173751Y0066995D01*
X0173895Y0067140D01*
X0174067Y0067436D01*
X0174155Y0067767D01*
X0174155Y0069606D01*
X0170990Y0069606D01*
X0170990Y0070206D01*
X0174155Y0070206D01*
X0174155Y0069353D02*
X0175224Y0069353D01*
X0175224Y0068755D02*
X0174155Y0068755D01*
X0174155Y0068156D02*
X0175224Y0068156D01*
X0175224Y0067557D02*
X0174099Y0067557D01*
X0170390Y0069606D02*
X0167224Y0069606D01*
X0167224Y0069234D01*
X0165666Y0070792D01*
X0164729Y0071729D01*
X0157298Y0079160D01*
X0157547Y0079408D01*
X0157623Y0079523D01*
X0158512Y0078635D01*
X0159864Y0078075D01*
X0161327Y0078075D01*
X0162679Y0078635D01*
X0163548Y0079504D01*
X0164417Y0078635D01*
X0165769Y0078075D01*
X0167224Y0078075D01*
X0167224Y0074092D01*
X0167986Y0073331D01*
X0171696Y0073331D01*
X0171851Y0073175D01*
X0170990Y0073175D01*
X0170990Y0070206D01*
X0170390Y0070206D01*
X0170390Y0069606D01*
X0170390Y0069952D02*
X0166507Y0069952D01*
X0166536Y0069906D02*
X0170690Y0069906D01*
X0170990Y0069952D02*
X0175224Y0069952D01*
X0175224Y0071149D02*
X0174155Y0071149D01*
X0174155Y0071747D02*
X0175224Y0071747D01*
X0170990Y0071747D02*
X0170390Y0071747D01*
X0170390Y0071149D02*
X0170990Y0071149D01*
X0170990Y0070550D02*
X0170390Y0070550D01*
X0170390Y0070206D02*
X0170390Y0073175D01*
X0168353Y0073175D01*
X0168023Y0073086D01*
X0167726Y0072915D01*
X0167484Y0072673D01*
X0167313Y0072377D01*
X0167224Y0072046D01*
X0167224Y0070206D01*
X0170390Y0070206D01*
X0167224Y0070550D02*
X0165908Y0070550D01*
X0165666Y0070792D02*
X0165666Y0070792D01*
X0165310Y0071149D02*
X0167224Y0071149D01*
X0167224Y0071747D02*
X0164711Y0071747D01*
X0164729Y0071729D02*
X0164729Y0071729D01*
X0164113Y0072346D02*
X0167305Y0072346D01*
X0167776Y0072944D02*
X0163514Y0072944D01*
X0162916Y0073543D02*
X0167774Y0073543D01*
X0167224Y0074141D02*
X0162317Y0074141D01*
X0161719Y0074740D02*
X0167224Y0074740D01*
X0167224Y0075338D02*
X0161120Y0075338D01*
X0160522Y0075937D02*
X0167224Y0075937D01*
X0167224Y0076535D02*
X0159923Y0076535D01*
X0159190Y0077253D02*
X0166536Y0069906D01*
X0167105Y0069353D02*
X0167224Y0069353D01*
X0168801Y0065395D02*
X0168801Y0061763D01*
X0168801Y0061742D01*
X0168301Y0061242D01*
X0168301Y0059263D01*
X0169700Y0057864D01*
X0172700Y0057864D01*
X0174455Y0056109D01*
X0176180Y0056109D01*
X0178690Y0053599D01*
X0175224Y0053792D02*
X0173571Y0053792D01*
X0173819Y0053193D02*
X0175224Y0053193D01*
X0175224Y0052595D02*
X0173979Y0052595D01*
X0173979Y0051996D02*
X0175224Y0051996D01*
X0175224Y0051398D02*
X0173854Y0051398D01*
X0173606Y0050799D02*
X0175517Y0050799D01*
X0171190Y0052253D02*
X0165127Y0052253D01*
X0164190Y0051316D01*
X0164190Y0042993D01*
X0159937Y0043019D02*
X0158565Y0043019D01*
X0159163Y0043617D02*
X0159937Y0043617D01*
X0159937Y0044216D02*
X0159762Y0044216D01*
X0154351Y0043331D02*
X0154196Y0043175D01*
X0150486Y0043175D01*
X0149724Y0042413D01*
X0149724Y0041506D01*
X0146958Y0041506D01*
X0146958Y0042610D01*
X0146278Y0043290D01*
X0146456Y0043394D01*
X0146699Y0043636D01*
X0146870Y0043932D01*
X0146958Y0044263D01*
X0146958Y0046299D01*
X0143990Y0046299D01*
X0143990Y0046899D01*
X0146958Y0046899D01*
X0146958Y0048936D01*
X0146870Y0049266D01*
X0146699Y0049563D01*
X0146456Y0049805D01*
X0146160Y0049976D01*
X0145829Y0050065D01*
X0143990Y0050065D01*
X0143990Y0046899D01*
X0143390Y0046899D01*
X0143390Y0050065D01*
X0141679Y0050065D01*
X0141679Y0050905D01*
X0141467Y0051117D01*
X0141467Y0051398D01*
X0141856Y0051787D01*
X0141856Y0054587D01*
X0144655Y0054587D01*
X0145498Y0055429D01*
X0145498Y0057501D01*
X0146110Y0056888D01*
X0147135Y0056464D01*
X0148245Y0056464D01*
X0149270Y0056888D01*
X0149921Y0057540D01*
X0149921Y0055895D01*
X0150602Y0055215D01*
X0150423Y0055112D01*
X0150181Y0054870D01*
X0150010Y0054573D01*
X0149921Y0054243D01*
X0149921Y0052206D01*
X0152890Y0052206D01*
X0152890Y0051606D01*
X0149921Y0051606D01*
X0149921Y0049570D01*
X0149978Y0049359D01*
X0149724Y0049106D01*
X0149724Y0044092D01*
X0150486Y0043331D01*
X0154351Y0043331D01*
X0150330Y0043019D02*
X0146550Y0043019D01*
X0146680Y0043617D02*
X0150200Y0043617D01*
X0149724Y0044216D02*
X0146946Y0044216D01*
X0146958Y0044814D02*
X0149724Y0044814D01*
X0149724Y0045413D02*
X0146958Y0045413D01*
X0146958Y0046011D02*
X0149724Y0046011D01*
X0149724Y0046610D02*
X0143990Y0046610D01*
X0143690Y0046599D02*
X0147783Y0046599D01*
X0150652Y0049468D01*
X0150751Y0049468D01*
X0152363Y0051080D01*
X0152190Y0051253D01*
X0145690Y0051253D01*
X0145690Y0056965D01*
X0144490Y0058165D01*
X0143790Y0058165D01*
X0142820Y0059135D01*
X0137308Y0059135D01*
X0132190Y0064253D01*
X0134749Y0066812D01*
X0134749Y0074883D01*
X0139867Y0074883D02*
X0143126Y0074883D01*
X0144109Y0073899D01*
X0150043Y0073899D01*
X0150190Y0073753D01*
X0150190Y0067864D01*
X0150079Y0067753D01*
X0150079Y0067930D01*
X0150079Y0067753D02*
X0150079Y0063965D01*
X0151190Y0062854D01*
X0147098Y0059253D02*
X0145098Y0061253D01*
X0145098Y0067793D01*
X0144490Y0068401D01*
X0143790Y0068401D01*
X0142820Y0069371D01*
X0143790Y0070960D02*
X0144490Y0070960D01*
X0146534Y0068916D01*
X0147353Y0068916D01*
X0143790Y0070960D02*
X0142820Y0071930D01*
X0153690Y0068406D02*
X0153690Y0059099D01*
X0153690Y0056813D01*
X0156058Y0054444D01*
X0156058Y0049368D01*
X0155531Y0048841D01*
X0155431Y0048841D01*
X0153190Y0046599D01*
X0149724Y0047208D02*
X0146958Y0047208D01*
X0146958Y0047807D02*
X0149724Y0047807D01*
X0149724Y0048405D02*
X0146958Y0048405D01*
X0146940Y0049004D02*
X0149724Y0049004D01*
X0149921Y0049602D02*
X0146659Y0049602D01*
X0143990Y0049602D02*
X0143390Y0049602D01*
X0143390Y0049004D02*
X0143990Y0049004D01*
X0143990Y0048405D02*
X0143390Y0048405D01*
X0143390Y0047807D02*
X0143990Y0047807D01*
X0143990Y0047208D02*
X0143390Y0047208D01*
X0140079Y0047142D02*
X0140079Y0050242D01*
X0139867Y0050454D01*
X0139867Y0053623D01*
X0141856Y0053792D02*
X0149921Y0053792D01*
X0149921Y0053193D02*
X0141856Y0053193D01*
X0141856Y0052595D02*
X0149921Y0052595D01*
X0149921Y0051398D02*
X0141467Y0051398D01*
X0141679Y0050799D02*
X0149921Y0050799D01*
X0149921Y0050201D02*
X0141679Y0050201D01*
X0141856Y0051996D02*
X0152890Y0051996D01*
X0153190Y0051906D02*
X0152363Y0051080D01*
X0149961Y0054390D02*
X0141856Y0054390D01*
X0145058Y0054989D02*
X0150300Y0054989D01*
X0150229Y0055587D02*
X0145498Y0055587D01*
X0145498Y0056186D02*
X0149921Y0056186D01*
X0149921Y0056784D02*
X0149018Y0056784D01*
X0149764Y0057383D02*
X0149921Y0057383D01*
X0153190Y0058599D02*
X0153690Y0059099D01*
X0158690Y0058753D02*
X0158690Y0059753D01*
X0163690Y0064753D01*
X0166763Y0061763D02*
X0168801Y0061763D01*
X0166763Y0061763D02*
X0164190Y0059190D01*
X0164190Y0056526D01*
X0161321Y0053657D01*
X0161321Y0048038D01*
X0153363Y0040080D01*
X0160337Y0033106D01*
X0160337Y0032581D01*
X0160864Y0032054D01*
X0167515Y0032054D01*
X0167869Y0032054D01*
X0164490Y0036435D02*
X0163890Y0036435D01*
X0163890Y0037033D02*
X0164490Y0037033D01*
X0164490Y0037632D02*
X0163890Y0037632D01*
X0163890Y0038230D02*
X0164490Y0038230D01*
X0164490Y0038829D02*
X0163890Y0038829D01*
X0153363Y0040080D02*
X0153190Y0039906D01*
X0143690Y0039906D01*
X0141232Y0042364D01*
X0132700Y0042364D01*
X0130301Y0044763D01*
X0130301Y0047675D01*
X0128661Y0049315D01*
X0128661Y0052653D01*
X0129631Y0053623D01*
X0132190Y0053623D02*
X0132690Y0053123D01*
X0132690Y0045753D01*
X0137690Y0044753D02*
X0140079Y0047142D01*
X0137690Y0049253D02*
X0137308Y0049635D01*
X0137308Y0053623D01*
X0145498Y0056784D02*
X0146361Y0056784D01*
X0145616Y0057383D02*
X0145498Y0057383D01*
X0147098Y0059253D02*
X0147690Y0059253D01*
X0164916Y0054989D02*
X0170507Y0054989D01*
X0169383Y0054390D02*
X0166891Y0054390D01*
X0166961Y0056186D02*
X0172115Y0056186D01*
X0172714Y0055587D02*
X0165514Y0055587D01*
X0167458Y0056784D02*
X0168517Y0056784D01*
X0167918Y0057383D02*
X0167458Y0057383D01*
X0171872Y0054989D02*
X0173312Y0054989D01*
X0172996Y0054390D02*
X0175224Y0054390D01*
X0175009Y0058977D02*
X0173580Y0060406D01*
X0170843Y0060406D01*
X0170690Y0060253D01*
X0175009Y0058977D02*
X0178690Y0058977D01*
X0185772Y0058977D01*
X0187544Y0060749D01*
X0192465Y0060749D02*
X0195104Y0060749D01*
X0197472Y0059178D02*
X0197514Y0059178D01*
X0198107Y0058580D02*
X0196879Y0058580D01*
X0199882Y0060749D02*
X0202190Y0058441D01*
X0202190Y0049253D01*
X0201922Y0048985D01*
X0178843Y0046753D02*
X0178690Y0046906D01*
X0170301Y0049602D02*
X0167458Y0049602D01*
X0167458Y0050201D02*
X0169298Y0050201D01*
X0149731Y0042420D02*
X0146958Y0042420D01*
X0146958Y0041821D02*
X0149724Y0041821D01*
X0140421Y0040624D02*
X0126760Y0040624D01*
X0126958Y0041223D02*
X0131578Y0041223D01*
X0130980Y0041821D02*
X0126958Y0041821D01*
X0126951Y0042420D02*
X0130381Y0042420D01*
X0129783Y0043019D02*
X0126703Y0043019D01*
X0126448Y0043617D02*
X0129184Y0043617D01*
X0128701Y0044216D02*
X0125849Y0044216D01*
X0126422Y0044814D02*
X0128701Y0044814D01*
X0128701Y0045413D02*
X0127021Y0045413D01*
X0127619Y0046011D02*
X0128701Y0046011D01*
X0128701Y0046610D02*
X0128218Y0046610D01*
X0128661Y0049315D02*
X0124694Y0045349D01*
X0119637Y0045349D01*
X0117536Y0043248D01*
X0117536Y0041753D01*
X0123690Y0041753D01*
X0125987Y0039427D02*
X0140421Y0039427D01*
X0140421Y0038829D02*
X0125172Y0038829D01*
X0126512Y0040026D02*
X0140421Y0040026D01*
X0140421Y0038230D02*
X0116277Y0038230D01*
X0115678Y0037632D02*
X0140421Y0037632D01*
X0140590Y0037033D02*
X0115080Y0037033D01*
X0114958Y0036435D02*
X0143033Y0036435D01*
X0142890Y0035836D02*
X0129740Y0035836D01*
X0130649Y0035238D02*
X0142890Y0035238D01*
X0127639Y0035836D02*
X0114958Y0035836D01*
X0114958Y0035238D02*
X0126731Y0035238D01*
X0126245Y0034639D02*
X0114958Y0034639D01*
X0114958Y0034041D02*
X0125997Y0034041D01*
X0125901Y0033442D02*
X0114958Y0033442D01*
X0114600Y0032844D02*
X0125901Y0032844D01*
X0126088Y0032245D02*
X0104474Y0032245D01*
X0104474Y0031647D02*
X0126352Y0031647D01*
X0117536Y0041753D02*
X0111690Y0035906D01*
X0108062Y0039534D01*
X0094015Y0039534D01*
X0091407Y0036927D01*
X0088305Y0036927D01*
X0087186Y0035808D01*
X0083917Y0035836D02*
X0082580Y0035836D01*
X0082580Y0035238D02*
X0083917Y0035238D01*
X0083917Y0034639D02*
X0082580Y0034639D01*
X0082580Y0034041D02*
X0083917Y0034041D01*
X0083917Y0033442D02*
X0082580Y0033442D01*
X0082123Y0032844D02*
X0084374Y0032844D01*
X0089997Y0032844D02*
X0091874Y0032844D01*
X0091874Y0034041D02*
X0090454Y0034041D01*
X0090454Y0034639D02*
X0091874Y0034639D01*
X0091874Y0035238D02*
X0090454Y0035238D01*
X0090454Y0033442D02*
X0097874Y0033442D01*
X0097874Y0034041D02*
X0098474Y0034041D01*
X0098474Y0033553D02*
X0098474Y0037053D01*
X0103345Y0037053D01*
X0103676Y0036964D01*
X0103972Y0036793D01*
X0104214Y0036551D01*
X0104385Y0036255D01*
X0104474Y0035924D01*
X0104474Y0033553D01*
X0098474Y0033553D01*
X0098474Y0033442D02*
X0108421Y0033442D01*
X0108421Y0034041D02*
X0104474Y0034041D01*
X0104474Y0034639D02*
X0108421Y0034639D01*
X0108421Y0035238D02*
X0104474Y0035238D01*
X0104474Y0035836D02*
X0108421Y0035836D01*
X0108421Y0036435D02*
X0104281Y0036435D01*
X0103417Y0037033D02*
X0108300Y0037033D01*
X0107701Y0037632D02*
X0094375Y0037632D01*
X0091047Y0038829D02*
X0089940Y0038829D01*
X0091645Y0039427D02*
X0077955Y0039427D01*
X0077356Y0040026D02*
X0092244Y0040026D01*
X0092681Y0040624D02*
X0090880Y0040624D01*
X0091155Y0041223D02*
X0092681Y0041223D01*
X0092681Y0041821D02*
X0091155Y0041821D01*
X0091155Y0042420D02*
X0092681Y0042420D01*
X0092681Y0043019D02*
X0091155Y0043019D01*
X0091155Y0043617D02*
X0095650Y0043617D01*
X0095950Y0043422D02*
X0094367Y0043422D01*
X0087863Y0049926D01*
X0088690Y0050753D01*
X0088690Y0054253D01*
X0087990Y0053193D02*
X0087390Y0053193D01*
X0087390Y0053368D02*
X0085353Y0053368D01*
X0085023Y0053279D01*
X0084726Y0053108D01*
X0084484Y0052866D01*
X0084313Y0052569D01*
X0084224Y0052239D01*
X0084224Y0050399D01*
X0087390Y0050399D01*
X0087390Y0053368D01*
X0087390Y0052595D02*
X0087990Y0052595D01*
X0087990Y0051996D02*
X0087390Y0051996D01*
X0087390Y0051398D02*
X0087990Y0051398D01*
X0087990Y0050799D02*
X0087390Y0050799D01*
X0087390Y0050201D02*
X0083155Y0050201D01*
X0083155Y0050799D02*
X0084224Y0050799D01*
X0084224Y0051398D02*
X0083155Y0051398D01*
X0083155Y0051996D02*
X0084224Y0051996D01*
X0084328Y0052595D02*
X0083155Y0052595D01*
X0082568Y0053193D02*
X0084874Y0053193D01*
X0084690Y0053099D02*
X0087690Y0050099D01*
X0087863Y0049926D01*
X0087990Y0049799D02*
X0087990Y0046831D01*
X0090026Y0046831D01*
X0090357Y0046919D01*
X0090653Y0047090D01*
X0090895Y0047332D01*
X0091067Y0047629D01*
X0091155Y0047960D01*
X0091155Y0049799D01*
X0087990Y0049799D01*
X0087990Y0049602D02*
X0087390Y0049602D01*
X0087390Y0049004D02*
X0087990Y0049004D01*
X0087990Y0048405D02*
X0087390Y0048405D01*
X0087390Y0047807D02*
X0087990Y0047807D01*
X0087990Y0047208D02*
X0087390Y0047208D01*
X0090459Y0046610D02*
X0092751Y0046610D01*
X0092681Y0046011D02*
X0091057Y0046011D01*
X0091155Y0045413D02*
X0092681Y0045413D01*
X0092681Y0044814D02*
X0091155Y0044814D01*
X0091155Y0044216D02*
X0092681Y0044216D01*
X0095650Y0044216D02*
X0096250Y0044216D01*
X0096250Y0044814D02*
X0095650Y0044814D01*
X0095650Y0045413D02*
X0096250Y0045413D01*
X0096250Y0046011D02*
X0095650Y0046011D01*
X0095650Y0046610D02*
X0096250Y0046610D01*
X0096250Y0047208D02*
X0095650Y0047208D01*
X0096805Y0048405D02*
X0091155Y0048405D01*
X0091155Y0049004D02*
X0096421Y0049004D01*
X0096421Y0049602D02*
X0091155Y0049602D01*
X0091155Y0050799D02*
X0094220Y0050799D01*
X0093621Y0051398D02*
X0091155Y0051398D01*
X0091155Y0051996D02*
X0093023Y0051996D01*
X0092424Y0052595D02*
X0091052Y0052595D01*
X0090506Y0053193D02*
X0091826Y0053193D01*
X0091227Y0053792D02*
X0081290Y0053792D01*
X0081290Y0054390D02*
X0090629Y0054390D01*
X0090030Y0054989D02*
X0081290Y0054989D01*
X0082686Y0055587D02*
X0083060Y0055587D01*
X0084448Y0055587D02*
X0084931Y0055587D01*
X0084931Y0056186D02*
X0084448Y0056186D01*
X0084448Y0056784D02*
X0084931Y0056784D01*
X0084931Y0057383D02*
X0084448Y0057383D01*
X0084448Y0057981D02*
X0084931Y0057981D01*
X0084931Y0058580D02*
X0084448Y0058580D01*
X0084690Y0059135D02*
X0084690Y0053099D01*
X0086320Y0055587D02*
X0086694Y0055587D01*
X0090905Y0059205D02*
X0092421Y0057689D01*
X0092421Y0058106D01*
X0095390Y0058106D01*
X0095990Y0058106D01*
X0095990Y0058706D01*
X0098958Y0058706D01*
X0098958Y0060415D01*
X0099772Y0061230D01*
X0100680Y0062137D01*
X0101102Y0061715D01*
X0100923Y0061612D01*
X0100681Y0061370D01*
X0100510Y0061073D01*
X0100421Y0060743D01*
X0100421Y0058706D01*
X0103390Y0058706D01*
X0103390Y0058106D01*
X0103990Y0058106D01*
X0103990Y0054982D01*
X0103110Y0054617D01*
X0102958Y0054465D01*
X0102958Y0054941D01*
X0103390Y0054941D01*
X0103390Y0058106D01*
X0100421Y0058106D01*
X0100421Y0056139D01*
X0098958Y0056139D01*
X0098958Y0058106D01*
X0095990Y0058106D01*
X0095990Y0054941D01*
X0096421Y0054941D01*
X0096421Y0053883D01*
X0096227Y0053883D01*
X0095169Y0054941D01*
X0095390Y0054941D01*
X0095390Y0058106D01*
X0095390Y0058706D01*
X0092421Y0058706D01*
X0092421Y0060234D01*
X0091933Y0060234D01*
X0090905Y0059205D01*
X0090932Y0059178D02*
X0092421Y0059178D01*
X0092421Y0059777D02*
X0091476Y0059777D01*
X0091530Y0058580D02*
X0095390Y0058580D01*
X0095690Y0058406D02*
X0103690Y0058406D01*
X0113036Y0058406D01*
X0113190Y0058253D01*
X0113190Y0054753D01*
X0113490Y0054989D02*
X0119322Y0054989D01*
X0118882Y0055587D02*
X0116356Y0055587D01*
X0116333Y0055706D02*
X0116086Y0056301D01*
X0115729Y0056836D01*
X0115273Y0057292D01*
X0114738Y0057649D01*
X0114143Y0057896D01*
X0113512Y0058021D01*
X0113490Y0058021D01*
X0113490Y0055053D01*
X0116458Y0055053D01*
X0116458Y0055075D01*
X0116333Y0055706D01*
X0116134Y0056186D02*
X0118882Y0056186D01*
X0118882Y0056784D02*
X0115763Y0056784D01*
X0115137Y0057383D02*
X0118882Y0057383D01*
X0118690Y0057753D02*
X0117986Y0058457D01*
X0119282Y0059753D01*
X0119282Y0060116D01*
X0119890Y0060724D01*
X0120590Y0060724D01*
X0121560Y0061694D01*
X0129631Y0061694D01*
X0132190Y0064253D01*
X0118976Y0060375D02*
X0115155Y0060375D01*
X0115155Y0059777D02*
X0118882Y0059777D01*
X0118882Y0059178D02*
X0114918Y0059178D01*
X0113713Y0057981D02*
X0118888Y0057981D01*
X0118690Y0057753D02*
X0118690Y0053753D01*
X0114938Y0050001D01*
X0114643Y0050001D01*
X0114643Y0048387D01*
X0114643Y0050001D01*
X0114642Y0050001D01*
X0114642Y0048387D01*
X0114643Y0048387D01*
X0114643Y0045840D01*
X0111479Y0042676D01*
X0111690Y0042599D01*
X0107211Y0047078D01*
X0101089Y0047078D01*
X0097433Y0043422D01*
X0095950Y0043422D01*
X0096250Y0043617D02*
X0100161Y0043617D01*
X0100161Y0043019D02*
X0099218Y0043019D01*
X0099218Y0042420D02*
X0100161Y0042420D01*
X0100161Y0041821D02*
X0099218Y0041821D01*
X0099218Y0041223D02*
X0100161Y0041223D01*
X0103430Y0043422D02*
X0104174Y0043422D01*
X0108062Y0039534D01*
X0108037Y0041821D02*
X0108421Y0041821D01*
X0107439Y0042420D02*
X0111390Y0042420D01*
X0111479Y0042676D02*
X0110113Y0043176D01*
X0110113Y0043857D01*
X0111390Y0043617D02*
X0111990Y0043617D01*
X0111990Y0043019D02*
X0111390Y0043019D01*
X0111990Y0042420D02*
X0115936Y0042420D01*
X0115936Y0043019D02*
X0114958Y0043019D01*
X0114958Y0043617D02*
X0115936Y0043617D01*
X0116242Y0044216D02*
X0114958Y0044216D01*
X0114958Y0044814D02*
X0116840Y0044814D01*
X0117311Y0045413D02*
X0114785Y0045413D01*
X0114029Y0046011D02*
X0116712Y0046011D01*
X0116114Y0046610D02*
X0114965Y0046610D01*
X0114643Y0046610D02*
X0114642Y0046610D01*
X0114320Y0046610D02*
X0106698Y0046610D01*
X0106698Y0046011D02*
X0109351Y0046011D01*
X0108594Y0045413D02*
X0106698Y0045413D01*
X0106698Y0044814D02*
X0108421Y0044814D01*
X0108421Y0044216D02*
X0106698Y0044216D01*
X0106698Y0043617D02*
X0108421Y0043617D01*
X0108421Y0043019D02*
X0106840Y0043019D01*
X0111390Y0044216D02*
X0111990Y0044216D01*
X0111990Y0044814D02*
X0111390Y0044814D01*
X0111390Y0045413D02*
X0111990Y0045413D01*
X0111990Y0046011D02*
X0111390Y0046011D01*
X0113275Y0047208D02*
X0106207Y0047208D01*
X0102958Y0049004D02*
X0112944Y0049004D01*
X0112886Y0049602D02*
X0105579Y0049602D01*
X0106582Y0050201D02*
X0112843Y0050201D01*
X0113025Y0050799D02*
X0107106Y0050799D01*
X0107354Y0051398D02*
X0113494Y0051398D01*
X0113490Y0051996D02*
X0112890Y0051996D01*
X0112890Y0052595D02*
X0113490Y0052595D01*
X0113490Y0053193D02*
X0112890Y0053193D01*
X0112890Y0053792D02*
X0113490Y0053792D01*
X0113490Y0054390D02*
X0112890Y0054390D01*
X0112890Y0054989D02*
X0106008Y0054989D01*
X0106496Y0054390D02*
X0109929Y0054390D01*
X0110050Y0053792D02*
X0107071Y0053792D01*
X0107319Y0053193D02*
X0110301Y0053193D01*
X0110725Y0052595D02*
X0107479Y0052595D01*
X0107479Y0051996D02*
X0111432Y0051996D01*
X0114642Y0051398D02*
X0114643Y0051398D01*
X0114642Y0050799D02*
X0114643Y0050799D01*
X0114642Y0050201D02*
X0114643Y0050201D01*
X0114642Y0049602D02*
X0114643Y0049602D01*
X0114642Y0049004D02*
X0114643Y0049004D01*
X0114642Y0048405D02*
X0114643Y0048405D01*
X0114642Y0047807D02*
X0114643Y0047807D01*
X0114642Y0047208D02*
X0114643Y0047208D01*
X0112934Y0047807D02*
X0091114Y0047807D01*
X0090771Y0047208D02*
X0093173Y0047208D01*
X0096421Y0050201D02*
X0087990Y0050201D01*
X0084224Y0049602D02*
X0083155Y0049602D01*
X0083155Y0049004D02*
X0084224Y0049004D01*
X0083865Y0047231D02*
X0077152Y0047231D01*
X0076624Y0047758D01*
X0076624Y0059527D01*
X0080950Y0063852D01*
X0080950Y0069371D01*
X0083332Y0069353D02*
X0085943Y0069353D01*
X0086047Y0069267D02*
X0086047Y0066470D01*
X0086809Y0065709D01*
X0090051Y0065709D01*
X0090813Y0066470D01*
X0090813Y0067714D01*
X0092421Y0066105D01*
X0092421Y0063634D01*
X0090525Y0063634D01*
X0089688Y0062797D01*
X0086809Y0062797D01*
X0086557Y0062545D01*
X0086274Y0062708D01*
X0085944Y0062797D01*
X0084931Y0062797D01*
X0084931Y0059376D01*
X0084448Y0059376D01*
X0084448Y0062797D01*
X0083436Y0062797D01*
X0083105Y0062708D01*
X0082823Y0062545D01*
X0082571Y0062797D01*
X0082157Y0062797D01*
X0082550Y0063190D01*
X0082550Y0065709D01*
X0082571Y0065709D01*
X0083332Y0066470D01*
X0083332Y0070152D01*
X0083664Y0070184D01*
X0084940Y0070184D01*
X0086047Y0069267D01*
X0086047Y0068755D02*
X0083332Y0068755D01*
X0083332Y0068156D02*
X0086047Y0068156D01*
X0086047Y0067557D02*
X0083332Y0067557D01*
X0083332Y0066959D02*
X0086047Y0066959D01*
X0086157Y0066360D02*
X0083223Y0066360D01*
X0082624Y0065762D02*
X0086755Y0065762D01*
X0090104Y0065762D02*
X0092421Y0065762D01*
X0092421Y0065163D02*
X0082550Y0065163D01*
X0082550Y0064565D02*
X0092421Y0064565D01*
X0092421Y0063966D02*
X0082550Y0063966D01*
X0082550Y0063368D02*
X0090259Y0063368D01*
X0086781Y0062769D02*
X0086046Y0062769D01*
X0084931Y0062769D02*
X0084448Y0062769D01*
X0084448Y0062171D02*
X0084931Y0062171D01*
X0084931Y0061572D02*
X0084448Y0061572D01*
X0084448Y0060974D02*
X0084931Y0060974D01*
X0084931Y0060375D02*
X0084448Y0060375D01*
X0084448Y0059777D02*
X0084931Y0059777D01*
X0080950Y0059135D02*
X0079690Y0057875D01*
X0079690Y0050099D01*
X0083865Y0047231D02*
X0087690Y0043406D01*
X0084224Y0043617D02*
X0083155Y0043617D01*
X0083155Y0043019D02*
X0084224Y0043019D01*
X0084224Y0042420D02*
X0083155Y0042420D01*
X0083155Y0041821D02*
X0084224Y0041821D01*
X0084224Y0041223D02*
X0083155Y0041223D01*
X0082880Y0040624D02*
X0084499Y0040624D01*
X0084431Y0038829D02*
X0082066Y0038829D01*
X0082580Y0038230D02*
X0083917Y0038230D01*
X0083917Y0037632D02*
X0082580Y0037632D01*
X0082580Y0037033D02*
X0083917Y0037033D01*
X0083917Y0036435D02*
X0082580Y0036435D01*
X0079312Y0035808D02*
X0074028Y0041091D01*
X0073430Y0038230D02*
X0074627Y0038230D01*
X0075225Y0037632D02*
X0073355Y0037632D01*
X0073293Y0037033D02*
X0075824Y0037033D01*
X0076043Y0036435D02*
X0072695Y0036435D01*
X0057224Y0040624D02*
X0055958Y0040624D01*
X0055958Y0041223D02*
X0057224Y0041223D01*
X0057224Y0041821D02*
X0055958Y0041821D01*
X0055958Y0042420D02*
X0057224Y0042420D01*
X0057605Y0043019D02*
X0055774Y0043019D01*
X0056343Y0045906D02*
X0052690Y0045906D01*
X0049421Y0046011D02*
X0044872Y0046011D01*
X0044572Y0045965D02*
X0043737Y0046800D01*
X0048177Y0046800D01*
X0047840Y0046610D02*
X0049421Y0046610D01*
X0049421Y0047208D02*
X0047840Y0047208D01*
X0047840Y0047807D02*
X0049421Y0047807D01*
X0049421Y0048405D02*
X0047812Y0048405D01*
X0047506Y0049004D02*
X0049815Y0049004D01*
X0049714Y0049602D02*
X0047488Y0049602D01*
X0048843Y0052599D02*
X0048690Y0052753D01*
X0048843Y0052599D02*
X0052690Y0052599D01*
X0047079Y0058210D01*
X0043353Y0057753D02*
X0043353Y0054089D01*
X0044678Y0052765D01*
X0044572Y0052658D01*
X0044678Y0052765D02*
X0044690Y0052776D01*
X0041303Y0052595D02*
X0040155Y0052595D01*
X0040155Y0053193D02*
X0041303Y0053193D01*
X0041303Y0053792D02*
X0040155Y0053792D01*
X0040155Y0054390D02*
X0041303Y0054390D01*
X0041303Y0054989D02*
X0040155Y0054989D01*
X0040155Y0055079D02*
X0040155Y0050228D01*
X0041355Y0049028D01*
X0041355Y0048496D01*
X0041392Y0048632D01*
X0041563Y0048929D01*
X0041805Y0049171D01*
X0041984Y0049274D01*
X0041303Y0049954D01*
X0041303Y0055362D01*
X0041551Y0055610D01*
X0041343Y0055819D01*
X0040603Y0055079D01*
X0040155Y0055079D01*
X0041111Y0055587D02*
X0041528Y0055587D01*
X0037702Y0057737D02*
X0035551Y0055586D01*
X0034152Y0055586D01*
X0031283Y0052717D01*
X0028690Y0052717D01*
X0025821Y0049849D01*
X0025821Y0043486D01*
X0027225Y0042082D01*
X0027225Y0036690D01*
X0031162Y0032753D01*
X0040020Y0032753D01*
X0041690Y0032753D01*
X0044190Y0036253D01*
X0046339Y0035103D01*
X0046339Y0032686D01*
X0043683Y0041223D02*
X0049421Y0041223D01*
X0049421Y0041821D02*
X0043683Y0041821D01*
X0043683Y0042420D02*
X0049421Y0042420D01*
X0049605Y0043019D02*
X0047590Y0043019D01*
X0047837Y0043617D02*
X0049421Y0043617D01*
X0049421Y0044216D02*
X0047840Y0044216D01*
X0047840Y0044814D02*
X0049421Y0044814D01*
X0049421Y0045413D02*
X0047840Y0045413D01*
X0044872Y0045413D02*
X0044272Y0045413D01*
X0044272Y0044814D02*
X0044872Y0044814D01*
X0044872Y0044216D02*
X0044272Y0044216D01*
X0044272Y0043617D02*
X0044872Y0043617D01*
X0044872Y0043019D02*
X0044272Y0043019D01*
X0040020Y0040627D02*
X0039755Y0040892D01*
X0039755Y0048366D01*
X0036690Y0051431D01*
X0036690Y0052717D01*
X0040155Y0051996D02*
X0041303Y0051996D01*
X0041303Y0051398D02*
X0040155Y0051398D01*
X0040155Y0050799D02*
X0041303Y0050799D01*
X0041303Y0050201D02*
X0040183Y0050201D01*
X0040781Y0049602D02*
X0041655Y0049602D01*
X0041638Y0049004D02*
X0041355Y0049004D01*
X0040964Y0049573D02*
X0040964Y0059468D01*
X0040437Y0059995D01*
X0028947Y0059995D01*
X0027465Y0061477D01*
X0027465Y0057737D02*
X0027596Y0057606D01*
X0032690Y0057606D01*
X0032690Y0049253D02*
X0035918Y0046024D01*
X0036690Y0046024D01*
X0040964Y0049573D02*
X0043737Y0046800D01*
X0032690Y0049253D02*
X0029461Y0046024D01*
X0028690Y0046024D01*
X0056343Y0045906D02*
X0056690Y0046253D01*
X0057036Y0045906D01*
X0060690Y0045906D01*
X0061343Y0045906D01*
X0062190Y0046753D01*
X0075424Y0047261D02*
X0076655Y0046031D01*
X0077065Y0046031D01*
X0079690Y0043406D01*
X0083155Y0044216D02*
X0084224Y0044216D01*
X0084019Y0044814D02*
X0083155Y0044814D01*
X0083155Y0045413D02*
X0083421Y0045413D01*
X0075424Y0047261D02*
X0075424Y0060024D01*
X0077190Y0061790D01*
X0077190Y0080119D01*
X0084620Y0083119D02*
X0085201Y0083119D01*
X0086674Y0083119D02*
X0110705Y0083119D01*
X0109956Y0083717D02*
X0109807Y0083717D01*
X0112179Y0083119D02*
X0112760Y0083119D01*
X0108832Y0081323D02*
X0108232Y0081323D01*
X0108232Y0080725D02*
X0108832Y0080725D01*
X0108832Y0080126D02*
X0108232Y0080126D01*
X0108232Y0079528D02*
X0108832Y0079528D01*
X0108832Y0078929D02*
X0108232Y0078929D01*
X0108232Y0078331D02*
X0108832Y0078331D01*
X0108832Y0076535D02*
X0108232Y0076535D01*
X0108232Y0075937D02*
X0108832Y0075937D01*
X0108832Y0075338D02*
X0108232Y0075338D01*
X0108232Y0074740D02*
X0108832Y0074740D01*
X0108832Y0074141D02*
X0108232Y0074141D01*
X0106333Y0074141D02*
X0105554Y0074141D01*
X0111690Y0068599D02*
X0116625Y0073535D01*
X0116625Y0080188D01*
X0120056Y0083619D01*
X0120056Y0089753D01*
X0116394Y0089702D02*
X0115950Y0089702D01*
X0115950Y0089104D02*
X0116394Y0089104D01*
X0116394Y0090301D02*
X0115950Y0090301D01*
X0115937Y0090899D02*
X0116394Y0090899D01*
X0116394Y0091498D02*
X0115818Y0091498D01*
X0128324Y0089753D02*
X0128324Y0088765D01*
X0117825Y0078267D01*
X0121349Y0079528D02*
X0125096Y0079528D01*
X0124575Y0080126D02*
X0121947Y0080126D01*
X0122546Y0080725D02*
X0124575Y0080725D01*
X0124575Y0081323D02*
X0123144Y0081323D01*
X0123743Y0081922D02*
X0124575Y0081922D01*
X0124575Y0082520D02*
X0124341Y0082520D01*
X0139218Y0090301D02*
X0140161Y0090301D01*
X0140161Y0090899D02*
X0139218Y0090899D01*
X0139218Y0091498D02*
X0140161Y0091498D01*
X0143824Y0089753D02*
X0150690Y0089753D01*
X0153479Y0089702D02*
X0169004Y0089702D01*
X0169004Y0089104D02*
X0153440Y0089104D01*
X0153192Y0088505D02*
X0169206Y0088505D01*
X0169454Y0087907D02*
X0152788Y0087907D01*
X0152076Y0087308D02*
X0169939Y0087308D01*
X0169004Y0090301D02*
X0153479Y0090301D01*
X0153234Y0090899D02*
X0169220Y0090899D01*
X0169315Y0091498D02*
X0152889Y0091498D01*
X0156578Y0084914D02*
X0158617Y0084914D01*
X0157957Y0084316D02*
X0157328Y0084316D01*
X0162574Y0084914D02*
X0164523Y0084914D01*
X0163862Y0084316D02*
X0163234Y0084316D01*
X0162973Y0078929D02*
X0164123Y0078929D01*
X0165151Y0078331D02*
X0161945Y0078331D01*
X0159246Y0078331D02*
X0158128Y0078331D01*
X0158217Y0078929D02*
X0157529Y0078929D01*
X0170390Y0072944D02*
X0170990Y0072944D01*
X0170990Y0072346D02*
X0170390Y0072346D01*
X0178690Y0077481D02*
X0179465Y0077481D01*
X0187698Y0069248D01*
X0182155Y0077732D02*
X0264890Y0077732D01*
X0264890Y0077134D02*
X0245142Y0077134D01*
X0245584Y0076535D02*
X0253119Y0076535D01*
X0254260Y0076535D02*
X0264890Y0076535D01*
X0264890Y0075937D02*
X0255450Y0075937D01*
X0256049Y0075338D02*
X0264890Y0075338D01*
X0264890Y0074740D02*
X0256300Y0074740D01*
X0256479Y0074141D02*
X0264890Y0074141D01*
X0264890Y0073543D02*
X0256479Y0073543D01*
X0256374Y0072944D02*
X0264890Y0072944D01*
X0264890Y0072346D02*
X0256126Y0072346D01*
X0255628Y0071747D02*
X0264890Y0071747D01*
X0264890Y0071149D02*
X0255664Y0071149D01*
X0256490Y0070550D02*
X0264890Y0070550D01*
X0264890Y0069952D02*
X0256942Y0069952D01*
X0257190Y0069353D02*
X0264890Y0069353D01*
X0264890Y0068755D02*
X0257262Y0068755D01*
X0257262Y0068156D02*
X0264890Y0068156D01*
X0264890Y0067557D02*
X0257051Y0067557D01*
X0256754Y0066959D02*
X0264890Y0066959D01*
X0264890Y0066360D02*
X0256743Y0066360D01*
X0257046Y0065762D02*
X0264890Y0065762D01*
X0264890Y0065163D02*
X0257262Y0065163D01*
X0257262Y0064565D02*
X0264890Y0064565D01*
X0264890Y0063966D02*
X0257194Y0063966D01*
X0256946Y0063368D02*
X0264890Y0063368D01*
X0264890Y0062769D02*
X0256501Y0062769D01*
X0255690Y0062171D02*
X0264890Y0062171D01*
X0264890Y0061572D02*
X0258814Y0061572D01*
X0259413Y0060974D02*
X0264890Y0060974D01*
X0264890Y0060375D02*
X0259744Y0060375D01*
X0259979Y0059777D02*
X0264890Y0059777D01*
X0264890Y0059178D02*
X0259979Y0059178D01*
X0259930Y0058580D02*
X0264890Y0058580D01*
X0264890Y0057981D02*
X0259682Y0057981D01*
X0259264Y0057383D02*
X0264890Y0057383D01*
X0264890Y0056784D02*
X0258518Y0056784D01*
X0255861Y0056784D02*
X0255102Y0056784D01*
X0255116Y0057383D02*
X0254128Y0057383D01*
X0255615Y0056186D02*
X0264890Y0056186D01*
X0264890Y0055587D02*
X0255863Y0055587D01*
X0255979Y0054989D02*
X0264890Y0054989D01*
X0264890Y0054390D02*
X0255979Y0054390D01*
X0255810Y0053792D02*
X0264890Y0053792D01*
X0264890Y0053193D02*
X0255563Y0053193D01*
X0254976Y0052595D02*
X0264890Y0052595D01*
X0264890Y0051996D02*
X0253823Y0051996D01*
X0253190Y0054753D02*
X0252095Y0055847D01*
X0247709Y0055847D01*
X0248635Y0059253D02*
X0247709Y0060178D01*
X0248635Y0059253D02*
X0257190Y0059253D01*
X0254967Y0060974D02*
X0251450Y0060974D01*
X0251450Y0061572D02*
X0255565Y0061572D01*
X0253257Y0062171D02*
X0251450Y0062171D01*
X0251450Y0062769D02*
X0252445Y0062769D01*
X0254296Y0064509D02*
X0247709Y0064509D01*
X0254296Y0064509D02*
X0254473Y0064686D01*
X0254473Y0068623D02*
X0247926Y0068623D01*
X0247709Y0068839D01*
X0247709Y0073170D02*
X0248292Y0073753D01*
X0253690Y0073753D01*
X0251929Y0075937D02*
X0250797Y0075937D01*
X0264890Y0078331D02*
X0182155Y0078331D01*
X0182155Y0078929D02*
X0264890Y0078929D01*
X0264890Y0079528D02*
X0182155Y0079528D01*
X0182017Y0080126D02*
X0264890Y0080126D01*
X0264890Y0080725D02*
X0183374Y0080725D01*
X0187516Y0081323D02*
X0264890Y0081323D01*
X0264890Y0081922D02*
X0192856Y0081922D01*
X0193575Y0082520D02*
X0264890Y0082520D01*
X0264890Y0083119D02*
X0193981Y0083119D01*
X0194229Y0083717D02*
X0264890Y0083717D01*
X0264890Y0084316D02*
X0194270Y0084316D01*
X0194270Y0084914D02*
X0264890Y0084914D01*
X0264890Y0085513D02*
X0194027Y0085513D01*
X0193685Y0086111D02*
X0264890Y0086111D01*
X0264890Y0086710D02*
X0205883Y0086710D01*
X0206216Y0087308D02*
X0239610Y0087308D01*
X0239096Y0087907D02*
X0206254Y0087907D01*
X0206254Y0088505D02*
X0239008Y0088505D01*
X0239008Y0089104D02*
X0206254Y0089104D01*
X0206254Y0090301D02*
X0244929Y0090301D01*
X0244929Y0089702D02*
X0245529Y0089702D01*
X0245529Y0089104D02*
X0244929Y0089104D01*
X0244929Y0088505D02*
X0245529Y0088505D01*
X0245529Y0087907D02*
X0244929Y0087907D01*
X0244929Y0087308D02*
X0245529Y0087308D01*
X0245529Y0090301D02*
X0264890Y0090301D01*
X0264890Y0090899D02*
X0251450Y0090899D01*
X0251450Y0091498D02*
X0264890Y0091498D01*
X0264890Y0089702D02*
X0251450Y0089702D01*
X0251450Y0089104D02*
X0264890Y0089104D01*
X0264890Y0088505D02*
X0251450Y0088505D01*
X0251362Y0087907D02*
X0264890Y0087907D01*
X0264890Y0087308D02*
X0250849Y0087308D01*
X0239008Y0089702D02*
X0200923Y0089702D01*
X0200923Y0089104D02*
X0200323Y0089104D01*
X0200323Y0089702D02*
X0190336Y0089702D01*
X0190336Y0089104D02*
X0194992Y0089104D01*
X0194992Y0088505D02*
X0190134Y0088505D01*
X0189886Y0087907D02*
X0194992Y0087907D01*
X0195029Y0087308D02*
X0189401Y0087308D01*
X0189876Y0086710D02*
X0188767Y0086710D01*
X0189277Y0086111D02*
X0187860Y0086111D01*
X0185182Y0084371D02*
X0191481Y0084371D01*
X0189387Y0082520D02*
X0187860Y0082520D01*
X0187860Y0081922D02*
X0190106Y0081922D01*
X0193086Y0086710D02*
X0195363Y0086710D01*
X0200323Y0086710D02*
X0200923Y0086710D01*
X0200923Y0087308D02*
X0200323Y0087308D01*
X0200323Y0087907D02*
X0200923Y0087907D01*
X0200923Y0088505D02*
X0200323Y0088505D01*
X0194992Y0090301D02*
X0190336Y0090301D01*
X0190120Y0090899D02*
X0194992Y0090899D01*
X0194992Y0091498D02*
X0190025Y0091498D01*
X0206254Y0091498D02*
X0239008Y0091498D01*
X0239008Y0090899D02*
X0206254Y0090899D01*
X0142879Y0081753D02*
X0142879Y0079608D01*
X0111990Y0065163D02*
X0111390Y0065163D01*
X0111390Y0064565D02*
X0111990Y0064565D01*
X0111990Y0063966D02*
X0111390Y0063966D01*
X0111390Y0063368D02*
X0111990Y0063368D01*
X0111990Y0062769D02*
X0111390Y0062769D01*
X0111390Y0062171D02*
X0106734Y0062171D01*
X0106958Y0062769D02*
X0108224Y0062769D01*
X0108224Y0063368D02*
X0106958Y0063368D01*
X0106958Y0063966D02*
X0108224Y0063966D01*
X0108422Y0064565D02*
X0106958Y0064565D01*
X0106958Y0065163D02*
X0109311Y0065163D01*
X0108555Y0065762D02*
X0106958Y0065762D01*
X0106958Y0066360D02*
X0108224Y0066360D01*
X0108224Y0066959D02*
X0106958Y0066959D01*
X0106958Y0067557D02*
X0108224Y0067557D01*
X0108224Y0068156D02*
X0106605Y0068156D01*
X0096690Y0065099D02*
X0095690Y0065099D01*
X0092166Y0066360D02*
X0090703Y0066360D01*
X0090813Y0066959D02*
X0091567Y0066959D01*
X0090969Y0067557D02*
X0090813Y0067557D01*
X0088430Y0069371D02*
X0088100Y0069644D01*
X0085221Y0069952D02*
X0083332Y0069952D01*
X0086624Y0072944D02*
X0086720Y0072944D01*
X0093478Y0078331D02*
X0093665Y0078331D01*
X0093665Y0078929D02*
X0093478Y0078929D01*
X0093478Y0079528D02*
X0093665Y0079528D01*
X0093665Y0080126D02*
X0093478Y0080126D01*
X0093478Y0080725D02*
X0093665Y0080725D01*
X0093665Y0081323D02*
X0093478Y0081323D01*
X0091934Y0081323D02*
X0090844Y0081323D01*
X0090812Y0083717D02*
X0090623Y0083717D01*
X0087572Y0083717D02*
X0087424Y0083717D01*
X0094453Y0083717D02*
X0095053Y0083717D01*
X0095053Y0084316D02*
X0094453Y0084316D01*
X0094453Y0084914D02*
X0095053Y0084914D01*
X0095053Y0085513D02*
X0094453Y0085513D01*
X0094453Y0086111D02*
X0095053Y0086111D01*
X0095053Y0086710D02*
X0094453Y0086710D01*
X0094453Y0087308D02*
X0095053Y0087308D01*
X0102327Y0087308D02*
X0102927Y0087308D01*
X0102927Y0086710D02*
X0102327Y0086710D01*
X0102327Y0086111D02*
X0102927Y0086111D01*
X0102927Y0085513D02*
X0102327Y0085513D01*
X0102327Y0084914D02*
X0102927Y0084914D01*
X0102927Y0084316D02*
X0102327Y0084316D01*
X0102327Y0083717D02*
X0102927Y0083717D01*
X0106568Y0083717D02*
X0106757Y0083717D01*
X0106536Y0081323D02*
X0105446Y0081323D01*
X0081429Y0089104D02*
X0080852Y0089104D01*
X0080852Y0089702D02*
X0081429Y0089702D01*
X0081429Y0090301D02*
X0080852Y0090301D01*
X0080852Y0090899D02*
X0081443Y0090899D01*
X0081562Y0091498D02*
X0080641Y0091498D01*
X0069258Y0065762D02*
X0067678Y0065762D01*
X0068554Y0065163D02*
X0068660Y0065163D01*
X0065584Y0065762D02*
X0064984Y0065762D01*
X0071977Y0062509D02*
X0071977Y0062253D01*
X0068737Y0059777D02*
X0068510Y0059777D01*
X0065584Y0059777D02*
X0064984Y0059777D01*
X0064984Y0060375D02*
X0065584Y0060375D01*
X0065584Y0060974D02*
X0064984Y0060974D01*
X0064984Y0061572D02*
X0065584Y0061572D01*
X0065584Y0062171D02*
X0064984Y0062171D01*
X0082598Y0062769D02*
X0083334Y0062769D01*
X0092129Y0057981D02*
X0092421Y0057981D01*
X0095390Y0057981D02*
X0095990Y0057981D01*
X0095990Y0057383D02*
X0095390Y0057383D01*
X0095390Y0056784D02*
X0095990Y0056784D01*
X0095990Y0056186D02*
X0095390Y0056186D01*
X0095390Y0055587D02*
X0095990Y0055587D01*
X0095990Y0054989D02*
X0095390Y0054989D01*
X0095720Y0054390D02*
X0096421Y0054390D01*
X0098958Y0056186D02*
X0100421Y0056186D01*
X0100421Y0056784D02*
X0098958Y0056784D01*
X0098958Y0057383D02*
X0100421Y0057383D01*
X0100421Y0057981D02*
X0098958Y0057981D01*
X0098958Y0059178D02*
X0100421Y0059178D01*
X0100421Y0059777D02*
X0098958Y0059777D01*
X0098958Y0060375D02*
X0100421Y0060375D01*
X0100483Y0060974D02*
X0099517Y0060974D01*
X0100115Y0061572D02*
X0100884Y0061572D01*
X0103390Y0061572D02*
X0103990Y0061572D01*
X0103990Y0061634D02*
X0103990Y0058706D01*
X0103390Y0058706D01*
X0103390Y0061634D01*
X0103990Y0061634D01*
X0103990Y0060974D02*
X0103390Y0060974D01*
X0103390Y0060375D02*
X0103990Y0060375D01*
X0103990Y0059777D02*
X0103390Y0059777D01*
X0103690Y0059693D02*
X0103690Y0058406D01*
X0103990Y0058580D02*
X0118882Y0058580D01*
X0117986Y0058457D02*
X0117935Y0058406D01*
X0113190Y0058406D01*
X0111690Y0061906D01*
X0111990Y0062171D02*
X0114630Y0062171D01*
X0115155Y0061572D02*
X0115229Y0061572D01*
X0115155Y0060974D02*
X0115827Y0060974D01*
X0111990Y0060974D02*
X0111390Y0060974D01*
X0111390Y0061572D02*
X0111990Y0061572D01*
X0111990Y0060375D02*
X0111390Y0060375D01*
X0111390Y0059777D02*
X0111990Y0059777D01*
X0111990Y0059178D02*
X0111390Y0059178D01*
X0112667Y0057981D02*
X0106958Y0057981D01*
X0106958Y0057383D02*
X0111243Y0057383D01*
X0110616Y0056784D02*
X0106958Y0056784D01*
X0106958Y0056186D02*
X0110246Y0056186D01*
X0110023Y0055587D02*
X0106782Y0055587D01*
X0103990Y0055587D02*
X0103390Y0055587D01*
X0103390Y0054989D02*
X0103990Y0054989D01*
X0103990Y0056186D02*
X0103390Y0056186D01*
X0103390Y0056784D02*
X0103990Y0056784D01*
X0103990Y0057383D02*
X0103390Y0057383D01*
X0103390Y0057981D02*
X0103990Y0057981D01*
X0103390Y0058580D02*
X0095990Y0058580D01*
X0103390Y0059178D02*
X0103990Y0059178D01*
X0106958Y0059178D02*
X0108462Y0059178D01*
X0108224Y0059777D02*
X0106958Y0059777D01*
X0106958Y0060375D02*
X0108224Y0060375D01*
X0108224Y0060974D02*
X0106896Y0060974D01*
X0106496Y0061572D02*
X0108224Y0061572D01*
X0112890Y0057981D02*
X0113490Y0057981D01*
X0113190Y0058253D02*
X0113190Y0058406D01*
X0112890Y0057383D02*
X0113490Y0057383D01*
X0113490Y0056784D02*
X0112890Y0056784D01*
X0112890Y0056186D02*
X0113490Y0056186D01*
X0113490Y0055587D02*
X0112890Y0055587D01*
X0116450Y0054390D02*
X0122524Y0054390D01*
X0122419Y0053792D02*
X0116329Y0053792D01*
X0116079Y0053193D02*
X0121820Y0053193D01*
X0121222Y0052595D02*
X0115654Y0052595D01*
X0114947Y0051996D02*
X0120623Y0051996D01*
X0120025Y0051398D02*
X0119728Y0051398D01*
X0118580Y0050001D02*
X0118365Y0049787D01*
X0118000Y0049787D01*
X0117180Y0048967D01*
X0117180Y0047807D01*
X0119637Y0045349D01*
X0119276Y0048387D02*
X0124513Y0053623D01*
X0124393Y0053623D01*
X0126102Y0052653D02*
X0127072Y0053623D01*
X0126102Y0052653D02*
X0126102Y0051953D01*
X0123705Y0049556D01*
X0123705Y0047738D01*
X0119276Y0048387D02*
X0118580Y0048387D01*
X0116749Y0050799D02*
X0116260Y0050799D01*
X0115791Y0051398D02*
X0117431Y0051398D01*
X0113838Y0050001D02*
X0113838Y0050001D01*
X0112843Y0048405D02*
X0102574Y0048405D01*
X0102958Y0049602D02*
X0103801Y0049602D01*
X0100653Y0047208D02*
X0098726Y0047208D01*
X0099148Y0046610D02*
X0100161Y0046610D01*
X0100161Y0046011D02*
X0099218Y0046011D01*
X0099218Y0045413D02*
X0100161Y0045413D01*
X0100161Y0044814D02*
X0099218Y0044814D01*
X0099218Y0044216D02*
X0100161Y0044216D01*
X0114958Y0041821D02*
X0115342Y0041821D01*
X0117474Y0039427D02*
X0121393Y0039427D01*
X0120867Y0040026D02*
X0118072Y0040026D01*
X0116875Y0038829D02*
X0122207Y0038829D01*
X0108780Y0032844D02*
X0104474Y0032844D01*
X0098474Y0034639D02*
X0097874Y0034639D01*
X0097874Y0035238D02*
X0098474Y0035238D01*
X0098474Y0035836D02*
X0097874Y0035836D01*
X0097874Y0036435D02*
X0098474Y0036435D01*
X0098474Y0037033D02*
X0097874Y0037033D01*
D41*
X0105261Y0034371D03*
X0128690Y0033253D03*
X0137690Y0044753D03*
X0132690Y0045753D03*
X0137690Y0049253D03*
X0145690Y0051253D03*
X0158690Y0058753D03*
X0147690Y0059253D03*
X0151190Y0062854D03*
X0160690Y0067753D03*
X0163690Y0064753D03*
X0170690Y0060253D03*
X0187544Y0060749D03*
X0195104Y0060749D03*
X0199882Y0060749D03*
X0187544Y0065670D03*
X0187698Y0069248D03*
X0191481Y0084371D03*
X0150690Y0089753D03*
X0139190Y0078464D03*
X0120385Y0075904D03*
X0118054Y0069888D03*
X0117690Y0064753D03*
X0147353Y0068916D03*
X0171190Y0052253D03*
X0188690Y0046753D03*
X0188690Y0041753D03*
X0202190Y0049253D03*
X0158804Y0042142D03*
X0123705Y0047738D03*
X0109985Y0048150D03*
X0104690Y0052253D03*
X0088690Y0054253D03*
X0068190Y0057253D03*
X0048690Y0052753D03*
X0043353Y0057753D03*
X0032690Y0057606D03*
X0032190Y0063753D03*
X0041483Y0065253D03*
X0027501Y0068753D03*
X0027690Y0087753D03*
X0074801Y0066930D03*
X0032690Y0049253D03*
X0056690Y0046253D03*
X0064944Y0042564D03*
X0044190Y0036253D03*
X0253690Y0042753D03*
X0253690Y0048253D03*
X0253190Y0054753D03*
X0257190Y0059253D03*
X0254473Y0064686D03*
X0254473Y0068623D03*
X0253690Y0073753D03*
D42*
X0149190Y0033253D02*
X0128690Y0033253D01*
X0111479Y0042676D02*
X0111479Y0046657D01*
X0109985Y0048150D01*
X0104690Y0052253D02*
X0099859Y0052253D01*
X0099690Y0052083D01*
X0095481Y0052083D01*
X0088430Y0059135D01*
X0098961Y0034371D02*
X0105261Y0034371D01*
X0098961Y0034371D02*
X0098174Y0033253D01*
D43*
X0088430Y0059135D02*
X0091229Y0061934D01*
X0098072Y0061934D01*
X0101238Y0065099D01*
X0103690Y0065099D01*
M02*
