G75*
%MOIN*%
%OFA0B0*%
%FSLAX25Y25*%
%IPPOS*%
%LPD*%
%AMOC8*
5,1,8,0,0,1.08239X$1,22.5*
%
%ADD10C,0.00000*%
%ADD11C,0.00600*%
%ADD12C,0.04756*%
%ADD13C,0.04000*%
%ADD14C,0.07000*%
%ADD15C,0.02978*%
%ADD16C,0.01000*%
D10*
X0021800Y0026300D02*
X0021800Y0091300D01*
X0031800Y0091300D01*
X0071800Y0091300D02*
X0266800Y0091300D01*
X0266800Y0026300D01*
X0021800Y0026300D01*
X0089676Y0073859D02*
X0089678Y0073929D01*
X0089684Y0073999D01*
X0089694Y0074068D01*
X0089707Y0074137D01*
X0089725Y0074205D01*
X0089746Y0074272D01*
X0089771Y0074337D01*
X0089800Y0074401D01*
X0089832Y0074464D01*
X0089868Y0074524D01*
X0089907Y0074582D01*
X0089949Y0074638D01*
X0089994Y0074692D01*
X0090042Y0074743D01*
X0090093Y0074791D01*
X0090147Y0074836D01*
X0090203Y0074878D01*
X0090261Y0074917D01*
X0090321Y0074953D01*
X0090384Y0074985D01*
X0090448Y0075014D01*
X0090513Y0075039D01*
X0090580Y0075060D01*
X0090648Y0075078D01*
X0090717Y0075091D01*
X0090786Y0075101D01*
X0090856Y0075107D01*
X0090926Y0075109D01*
X0090996Y0075107D01*
X0091066Y0075101D01*
X0091135Y0075091D01*
X0091204Y0075078D01*
X0091272Y0075060D01*
X0091339Y0075039D01*
X0091404Y0075014D01*
X0091468Y0074985D01*
X0091531Y0074953D01*
X0091591Y0074917D01*
X0091649Y0074878D01*
X0091705Y0074836D01*
X0091759Y0074791D01*
X0091810Y0074743D01*
X0091858Y0074692D01*
X0091903Y0074638D01*
X0091945Y0074582D01*
X0091984Y0074524D01*
X0092020Y0074464D01*
X0092052Y0074401D01*
X0092081Y0074337D01*
X0092106Y0074272D01*
X0092127Y0074205D01*
X0092145Y0074137D01*
X0092158Y0074068D01*
X0092168Y0073999D01*
X0092174Y0073929D01*
X0092176Y0073859D01*
X0092174Y0073789D01*
X0092168Y0073719D01*
X0092158Y0073650D01*
X0092145Y0073581D01*
X0092127Y0073513D01*
X0092106Y0073446D01*
X0092081Y0073381D01*
X0092052Y0073317D01*
X0092020Y0073254D01*
X0091984Y0073194D01*
X0091945Y0073136D01*
X0091903Y0073080D01*
X0091858Y0073026D01*
X0091810Y0072975D01*
X0091759Y0072927D01*
X0091705Y0072882D01*
X0091649Y0072840D01*
X0091591Y0072801D01*
X0091531Y0072765D01*
X0091468Y0072733D01*
X0091404Y0072704D01*
X0091339Y0072679D01*
X0091272Y0072658D01*
X0091204Y0072640D01*
X0091135Y0072627D01*
X0091066Y0072617D01*
X0090996Y0072611D01*
X0090926Y0072609D01*
X0090856Y0072611D01*
X0090786Y0072617D01*
X0090717Y0072627D01*
X0090648Y0072640D01*
X0090580Y0072658D01*
X0090513Y0072679D01*
X0090448Y0072704D01*
X0090384Y0072733D01*
X0090321Y0072765D01*
X0090261Y0072801D01*
X0090203Y0072840D01*
X0090147Y0072882D01*
X0090093Y0072927D01*
X0090042Y0072975D01*
X0089994Y0073026D01*
X0089949Y0073080D01*
X0089907Y0073136D01*
X0089868Y0073194D01*
X0089832Y0073254D01*
X0089800Y0073317D01*
X0089771Y0073381D01*
X0089746Y0073446D01*
X0089725Y0073513D01*
X0089707Y0073581D01*
X0089694Y0073650D01*
X0089684Y0073719D01*
X0089678Y0073789D01*
X0089676Y0073859D01*
X0105424Y0073859D02*
X0105426Y0073929D01*
X0105432Y0073999D01*
X0105442Y0074068D01*
X0105455Y0074137D01*
X0105473Y0074205D01*
X0105494Y0074272D01*
X0105519Y0074337D01*
X0105548Y0074401D01*
X0105580Y0074464D01*
X0105616Y0074524D01*
X0105655Y0074582D01*
X0105697Y0074638D01*
X0105742Y0074692D01*
X0105790Y0074743D01*
X0105841Y0074791D01*
X0105895Y0074836D01*
X0105951Y0074878D01*
X0106009Y0074917D01*
X0106069Y0074953D01*
X0106132Y0074985D01*
X0106196Y0075014D01*
X0106261Y0075039D01*
X0106328Y0075060D01*
X0106396Y0075078D01*
X0106465Y0075091D01*
X0106534Y0075101D01*
X0106604Y0075107D01*
X0106674Y0075109D01*
X0106744Y0075107D01*
X0106814Y0075101D01*
X0106883Y0075091D01*
X0106952Y0075078D01*
X0107020Y0075060D01*
X0107087Y0075039D01*
X0107152Y0075014D01*
X0107216Y0074985D01*
X0107279Y0074953D01*
X0107339Y0074917D01*
X0107397Y0074878D01*
X0107453Y0074836D01*
X0107507Y0074791D01*
X0107558Y0074743D01*
X0107606Y0074692D01*
X0107651Y0074638D01*
X0107693Y0074582D01*
X0107732Y0074524D01*
X0107768Y0074464D01*
X0107800Y0074401D01*
X0107829Y0074337D01*
X0107854Y0074272D01*
X0107875Y0074205D01*
X0107893Y0074137D01*
X0107906Y0074068D01*
X0107916Y0073999D01*
X0107922Y0073929D01*
X0107924Y0073859D01*
X0107922Y0073789D01*
X0107916Y0073719D01*
X0107906Y0073650D01*
X0107893Y0073581D01*
X0107875Y0073513D01*
X0107854Y0073446D01*
X0107829Y0073381D01*
X0107800Y0073317D01*
X0107768Y0073254D01*
X0107732Y0073194D01*
X0107693Y0073136D01*
X0107651Y0073080D01*
X0107606Y0073026D01*
X0107558Y0072975D01*
X0107507Y0072927D01*
X0107453Y0072882D01*
X0107397Y0072840D01*
X0107339Y0072801D01*
X0107279Y0072765D01*
X0107216Y0072733D01*
X0107152Y0072704D01*
X0107087Y0072679D01*
X0107020Y0072658D01*
X0106952Y0072640D01*
X0106883Y0072627D01*
X0106814Y0072617D01*
X0106744Y0072611D01*
X0106674Y0072609D01*
X0106604Y0072611D01*
X0106534Y0072617D01*
X0106465Y0072627D01*
X0106396Y0072640D01*
X0106328Y0072658D01*
X0106261Y0072679D01*
X0106196Y0072704D01*
X0106132Y0072733D01*
X0106069Y0072765D01*
X0106009Y0072801D01*
X0105951Y0072840D01*
X0105895Y0072882D01*
X0105841Y0072927D01*
X0105790Y0072975D01*
X0105742Y0073026D01*
X0105697Y0073080D01*
X0105655Y0073136D01*
X0105616Y0073194D01*
X0105580Y0073254D01*
X0105548Y0073317D01*
X0105519Y0073381D01*
X0105494Y0073446D01*
X0105473Y0073513D01*
X0105455Y0073581D01*
X0105442Y0073650D01*
X0105432Y0073719D01*
X0105426Y0073789D01*
X0105424Y0073859D01*
X0177422Y0082757D02*
X0177424Y0082831D01*
X0177430Y0082905D01*
X0177440Y0082978D01*
X0177454Y0083051D01*
X0177471Y0083123D01*
X0177493Y0083193D01*
X0177518Y0083263D01*
X0177547Y0083331D01*
X0177580Y0083397D01*
X0177616Y0083462D01*
X0177656Y0083524D01*
X0177698Y0083585D01*
X0177744Y0083643D01*
X0177793Y0083698D01*
X0177845Y0083751D01*
X0177900Y0083801D01*
X0177957Y0083847D01*
X0178017Y0083891D01*
X0178079Y0083931D01*
X0178143Y0083968D01*
X0178209Y0084002D01*
X0178277Y0084032D01*
X0178346Y0084058D01*
X0178417Y0084081D01*
X0178488Y0084099D01*
X0178561Y0084114D01*
X0178634Y0084125D01*
X0178708Y0084132D01*
X0178782Y0084135D01*
X0178855Y0084134D01*
X0178929Y0084129D01*
X0179003Y0084120D01*
X0179076Y0084107D01*
X0179148Y0084090D01*
X0179219Y0084070D01*
X0179289Y0084045D01*
X0179357Y0084017D01*
X0179424Y0083986D01*
X0179489Y0083950D01*
X0179552Y0083912D01*
X0179613Y0083870D01*
X0179672Y0083824D01*
X0179728Y0083776D01*
X0179781Y0083725D01*
X0179831Y0083671D01*
X0179879Y0083614D01*
X0179923Y0083555D01*
X0179965Y0083493D01*
X0180003Y0083430D01*
X0180037Y0083364D01*
X0180068Y0083297D01*
X0180095Y0083228D01*
X0180118Y0083158D01*
X0180138Y0083087D01*
X0180154Y0083014D01*
X0180166Y0082941D01*
X0180174Y0082868D01*
X0180178Y0082794D01*
X0180178Y0082720D01*
X0180174Y0082646D01*
X0180166Y0082573D01*
X0180154Y0082500D01*
X0180138Y0082427D01*
X0180118Y0082356D01*
X0180095Y0082286D01*
X0180068Y0082217D01*
X0180037Y0082150D01*
X0180003Y0082084D01*
X0179965Y0082021D01*
X0179923Y0081959D01*
X0179879Y0081900D01*
X0179831Y0081843D01*
X0179781Y0081789D01*
X0179728Y0081738D01*
X0179672Y0081690D01*
X0179613Y0081644D01*
X0179552Y0081602D01*
X0179489Y0081564D01*
X0179424Y0081528D01*
X0179357Y0081497D01*
X0179289Y0081469D01*
X0179219Y0081444D01*
X0179148Y0081424D01*
X0179076Y0081407D01*
X0179003Y0081394D01*
X0178929Y0081385D01*
X0178855Y0081380D01*
X0178782Y0081379D01*
X0178708Y0081382D01*
X0178634Y0081389D01*
X0178561Y0081400D01*
X0178488Y0081415D01*
X0178417Y0081433D01*
X0178346Y0081456D01*
X0178277Y0081482D01*
X0178209Y0081512D01*
X0178143Y0081546D01*
X0178079Y0081583D01*
X0178017Y0081623D01*
X0177957Y0081667D01*
X0177900Y0081713D01*
X0177845Y0081763D01*
X0177793Y0081816D01*
X0177744Y0081871D01*
X0177698Y0081929D01*
X0177656Y0081990D01*
X0177616Y0082052D01*
X0177580Y0082117D01*
X0177547Y0082183D01*
X0177518Y0082251D01*
X0177493Y0082321D01*
X0177471Y0082391D01*
X0177454Y0082463D01*
X0177440Y0082536D01*
X0177430Y0082609D01*
X0177424Y0082683D01*
X0177422Y0082757D01*
X0177422Y0089843D02*
X0177424Y0089917D01*
X0177430Y0089991D01*
X0177440Y0090064D01*
X0177454Y0090137D01*
X0177471Y0090209D01*
X0177493Y0090279D01*
X0177518Y0090349D01*
X0177547Y0090417D01*
X0177580Y0090483D01*
X0177616Y0090548D01*
X0177656Y0090610D01*
X0177698Y0090671D01*
X0177744Y0090729D01*
X0177793Y0090784D01*
X0177845Y0090837D01*
X0177900Y0090887D01*
X0177957Y0090933D01*
X0178017Y0090977D01*
X0178079Y0091017D01*
X0178143Y0091054D01*
X0178209Y0091088D01*
X0178277Y0091118D01*
X0178346Y0091144D01*
X0178417Y0091167D01*
X0178488Y0091185D01*
X0178561Y0091200D01*
X0178634Y0091211D01*
X0178708Y0091218D01*
X0178782Y0091221D01*
X0178855Y0091220D01*
X0178929Y0091215D01*
X0179003Y0091206D01*
X0179076Y0091193D01*
X0179148Y0091176D01*
X0179219Y0091156D01*
X0179289Y0091131D01*
X0179357Y0091103D01*
X0179424Y0091072D01*
X0179489Y0091036D01*
X0179552Y0090998D01*
X0179613Y0090956D01*
X0179672Y0090910D01*
X0179728Y0090862D01*
X0179781Y0090811D01*
X0179831Y0090757D01*
X0179879Y0090700D01*
X0179923Y0090641D01*
X0179965Y0090579D01*
X0180003Y0090516D01*
X0180037Y0090450D01*
X0180068Y0090383D01*
X0180095Y0090314D01*
X0180118Y0090244D01*
X0180138Y0090173D01*
X0180154Y0090100D01*
X0180166Y0090027D01*
X0180174Y0089954D01*
X0180178Y0089880D01*
X0180178Y0089806D01*
X0180174Y0089732D01*
X0180166Y0089659D01*
X0180154Y0089586D01*
X0180138Y0089513D01*
X0180118Y0089442D01*
X0180095Y0089372D01*
X0180068Y0089303D01*
X0180037Y0089236D01*
X0180003Y0089170D01*
X0179965Y0089107D01*
X0179923Y0089045D01*
X0179879Y0088986D01*
X0179831Y0088929D01*
X0179781Y0088875D01*
X0179728Y0088824D01*
X0179672Y0088776D01*
X0179613Y0088730D01*
X0179552Y0088688D01*
X0179489Y0088650D01*
X0179424Y0088614D01*
X0179357Y0088583D01*
X0179289Y0088555D01*
X0179219Y0088530D01*
X0179148Y0088510D01*
X0179076Y0088493D01*
X0179003Y0088480D01*
X0178929Y0088471D01*
X0178855Y0088466D01*
X0178782Y0088465D01*
X0178708Y0088468D01*
X0178634Y0088475D01*
X0178561Y0088486D01*
X0178488Y0088501D01*
X0178417Y0088519D01*
X0178346Y0088542D01*
X0178277Y0088568D01*
X0178209Y0088598D01*
X0178143Y0088632D01*
X0178079Y0088669D01*
X0178017Y0088709D01*
X0177957Y0088753D01*
X0177900Y0088799D01*
X0177845Y0088849D01*
X0177793Y0088902D01*
X0177744Y0088957D01*
X0177698Y0089015D01*
X0177656Y0089076D01*
X0177616Y0089138D01*
X0177580Y0089203D01*
X0177547Y0089269D01*
X0177518Y0089337D01*
X0177493Y0089407D01*
X0177471Y0089477D01*
X0177454Y0089549D01*
X0177440Y0089622D01*
X0177430Y0089695D01*
X0177424Y0089769D01*
X0177422Y0089843D01*
D11*
X0191300Y0085300D02*
X0170800Y0064800D01*
X0160300Y0064800D01*
X0157134Y0062189D02*
X0152445Y0066878D01*
X0147097Y0066878D01*
X0146300Y0063300D02*
X0144411Y0061411D01*
X0118790Y0061411D01*
X0118290Y0060911D01*
X0116310Y0060911D01*
X0115810Y0061411D01*
X0097911Y0061411D01*
X0073300Y0036800D01*
X0066435Y0044165D01*
X0066435Y0053056D01*
X0067189Y0053810D01*
X0067189Y0055790D01*
X0065790Y0057189D01*
X0063810Y0057189D01*
X0060421Y0053800D01*
X0051800Y0053800D01*
X0046473Y0048473D01*
X0032127Y0048473D01*
X0029738Y0047484D02*
X0045810Y0031411D01*
X0057048Y0031411D01*
X0059437Y0033800D01*
X0074300Y0033800D01*
X0072195Y0035639D02*
X0071956Y0035400D01*
X0058774Y0035400D01*
X0056385Y0033011D01*
X0046473Y0033011D01*
X0033472Y0046012D01*
X0033707Y0046109D01*
X0034471Y0046873D01*
X0047136Y0046873D01*
X0052463Y0052200D01*
X0061084Y0052200D01*
X0064473Y0055589D01*
X0065127Y0055589D01*
X0065589Y0055127D01*
X0065589Y0054473D01*
X0064835Y0053719D01*
X0064835Y0044193D01*
X0064812Y0043559D01*
X0064835Y0043535D01*
X0064835Y0043503D01*
X0065283Y0043054D01*
X0071700Y0036170D01*
X0071700Y0036137D01*
X0072149Y0035688D01*
X0072195Y0035639D01*
X0071961Y0035876D02*
X0043608Y0035876D01*
X0044207Y0035278D02*
X0058652Y0035278D01*
X0058053Y0034679D02*
X0044805Y0034679D01*
X0045404Y0034081D02*
X0057455Y0034081D01*
X0056856Y0033482D02*
X0046002Y0033482D01*
X0039800Y0035724D02*
X0039800Y0030800D01*
X0032300Y0034800D02*
X0027300Y0039800D01*
X0027300Y0063300D01*
X0029200Y0065223D02*
X0030810Y0063613D01*
X0030810Y0059778D01*
X0028538Y0057505D01*
X0028538Y0046987D01*
X0039800Y0035724D01*
X0042411Y0037073D02*
X0070858Y0037073D01*
X0071416Y0036475D02*
X0043009Y0036475D01*
X0041812Y0037672D02*
X0070300Y0037672D01*
X0069742Y0038270D02*
X0041214Y0038270D01*
X0040615Y0038869D02*
X0069184Y0038869D01*
X0068627Y0039467D02*
X0040017Y0039467D01*
X0039418Y0040066D02*
X0068069Y0040066D01*
X0067511Y0040664D02*
X0038820Y0040664D01*
X0038221Y0041263D02*
X0066953Y0041263D01*
X0066395Y0041861D02*
X0037623Y0041861D01*
X0037024Y0042460D02*
X0065837Y0042460D01*
X0065279Y0043058D02*
X0036426Y0043058D01*
X0035827Y0043657D02*
X0064816Y0043657D01*
X0064835Y0044255D02*
X0035229Y0044255D01*
X0034630Y0044854D02*
X0064835Y0044854D01*
X0064835Y0045452D02*
X0034032Y0045452D01*
X0033567Y0046051D02*
X0064835Y0046051D01*
X0064835Y0046649D02*
X0034247Y0046649D01*
X0029738Y0047484D02*
X0029738Y0049463D01*
X0031800Y0051525D01*
X0031800Y0057389D01*
X0034589Y0057423D02*
X0043397Y0057423D01*
X0043963Y0056857D02*
X0045727Y0056126D01*
X0047637Y0056126D01*
X0049401Y0056857D01*
X0050751Y0058207D01*
X0051482Y0059971D01*
X0051482Y0061881D01*
X0050751Y0063645D01*
X0050696Y0063700D01*
X0053000Y0063700D01*
X0052813Y0063442D01*
X0052470Y0062769D01*
X0052236Y0062050D01*
X0052118Y0061304D01*
X0052118Y0061217D01*
X0056627Y0061217D01*
X0056627Y0060635D01*
X0052118Y0060635D01*
X0052118Y0060548D01*
X0052236Y0059802D01*
X0052470Y0059083D01*
X0052813Y0058410D01*
X0053257Y0057799D01*
X0053791Y0057265D01*
X0054402Y0056821D01*
X0055076Y0056478D01*
X0055794Y0056244D01*
X0056540Y0056126D01*
X0056628Y0056126D01*
X0056628Y0060635D01*
X0057209Y0060635D01*
X0057209Y0061217D01*
X0061718Y0061217D01*
X0061718Y0061304D01*
X0061600Y0062050D01*
X0061366Y0062769D01*
X0061023Y0063442D01*
X0060836Y0063700D01*
X0072317Y0063700D01*
X0073273Y0064096D01*
X0074004Y0064827D01*
X0074400Y0065783D01*
X0074400Y0089000D01*
X0085272Y0089000D01*
X0085137Y0088973D01*
X0084537Y0088724D01*
X0083996Y0088363D01*
X0083537Y0087904D01*
X0083176Y0087363D01*
X0082927Y0086763D01*
X0082800Y0086125D01*
X0082800Y0084000D01*
X0085900Y0084000D01*
X0085900Y0083600D01*
X0086300Y0083600D01*
X0086300Y0084000D01*
X0089400Y0084000D01*
X0089400Y0086125D01*
X0089273Y0086763D01*
X0089024Y0087363D01*
X0088663Y0087904D01*
X0088204Y0088363D01*
X0087663Y0088724D01*
X0087063Y0088973D01*
X0086928Y0089000D01*
X0110672Y0089000D01*
X0110537Y0088973D01*
X0109937Y0088724D01*
X0109396Y0088363D01*
X0108937Y0087904D01*
X0108576Y0087363D01*
X0108327Y0086763D01*
X0108200Y0086125D01*
X0108200Y0084000D01*
X0111300Y0084000D01*
X0111300Y0083600D01*
X0111700Y0083600D01*
X0111700Y0084000D01*
X0114800Y0084000D01*
X0114800Y0086125D01*
X0114673Y0086763D01*
X0114424Y0087363D01*
X0114063Y0087904D01*
X0113604Y0088363D01*
X0113063Y0088724D01*
X0112463Y0088973D01*
X0112328Y0089000D01*
X0148556Y0089000D01*
X0147936Y0088380D01*
X0147511Y0087355D01*
X0147511Y0086245D01*
X0147936Y0085220D01*
X0148720Y0084436D01*
X0149745Y0084011D01*
X0150826Y0084011D01*
X0152713Y0082124D01*
X0152558Y0082059D01*
X0151955Y0081657D01*
X0151443Y0081145D01*
X0151366Y0081030D01*
X0150478Y0081918D01*
X0149126Y0082478D01*
X0147663Y0082478D01*
X0146311Y0081918D01*
X0145442Y0081049D01*
X0144572Y0081918D01*
X0143221Y0082478D01*
X0141757Y0082478D01*
X0140406Y0081918D01*
X0139371Y0080883D01*
X0138811Y0079532D01*
X0138811Y0078068D01*
X0139088Y0077400D01*
X0123644Y0077400D01*
X0122880Y0078164D01*
X0121855Y0078589D01*
X0120745Y0078589D01*
X0119720Y0078164D01*
X0118936Y0077380D01*
X0118511Y0076355D01*
X0118511Y0075245D01*
X0118936Y0074220D01*
X0119720Y0073436D01*
X0120745Y0073011D01*
X0121170Y0073011D01*
X0117884Y0069724D01*
X0117110Y0069724D01*
X0116085Y0069300D01*
X0115300Y0068515D01*
X0114876Y0067490D01*
X0114876Y0066381D01*
X0115300Y0065356D01*
X0115356Y0065300D01*
X0114936Y0064880D01*
X0114511Y0063855D01*
X0114511Y0063011D01*
X0097248Y0063011D01*
X0096311Y0062074D01*
X0096311Y0062074D01*
X0073340Y0039103D01*
X0068035Y0044795D01*
X0068035Y0052393D01*
X0068789Y0053148D01*
X0068789Y0056452D01*
X0067852Y0057390D01*
X0066452Y0058789D01*
X0063148Y0058789D01*
X0059759Y0055400D01*
X0051137Y0055400D01*
X0050200Y0054463D01*
X0050200Y0054463D01*
X0045810Y0050073D01*
X0034471Y0050073D01*
X0033707Y0050838D01*
X0033400Y0050965D01*
X0033400Y0055045D01*
X0034164Y0055809D01*
X0034589Y0056834D01*
X0034589Y0057944D01*
X0034164Y0058969D01*
X0033380Y0059753D01*
X0032410Y0060155D01*
X0032410Y0063700D01*
X0042668Y0063700D01*
X0042613Y0063645D01*
X0041882Y0061881D01*
X0041882Y0059971D01*
X0042613Y0058207D01*
X0043963Y0056857D01*
X0044042Y0056824D02*
X0034585Y0056824D01*
X0034337Y0056226D02*
X0045487Y0056226D01*
X0047877Y0056226D02*
X0055912Y0056226D01*
X0056628Y0056226D02*
X0057209Y0056226D01*
X0057209Y0056126D02*
X0057296Y0056126D01*
X0058042Y0056244D01*
X0058761Y0056478D01*
X0059434Y0056821D01*
X0060045Y0057265D01*
X0060579Y0057799D01*
X0061023Y0058410D01*
X0061366Y0059083D01*
X0061600Y0059802D01*
X0061718Y0060548D01*
X0061718Y0060635D01*
X0057209Y0060635D01*
X0057209Y0056126D01*
X0057209Y0056824D02*
X0056628Y0056824D01*
X0056628Y0057423D02*
X0057209Y0057423D01*
X0057209Y0058021D02*
X0056628Y0058021D01*
X0056628Y0058620D02*
X0057209Y0058620D01*
X0057209Y0059218D02*
X0056628Y0059218D01*
X0056628Y0059817D02*
X0057209Y0059817D01*
X0057209Y0060415D02*
X0056628Y0060415D01*
X0056627Y0061014D02*
X0051482Y0061014D01*
X0051482Y0061612D02*
X0052167Y0061612D01*
X0052289Y0062211D02*
X0051345Y0062211D01*
X0051097Y0062809D02*
X0052490Y0062809D01*
X0052795Y0063408D02*
X0050849Y0063408D01*
X0051482Y0060415D02*
X0052139Y0060415D01*
X0052234Y0059817D02*
X0051418Y0059817D01*
X0051170Y0059218D02*
X0052426Y0059218D01*
X0052706Y0058620D02*
X0050922Y0058620D01*
X0050565Y0058021D02*
X0053095Y0058021D01*
X0053633Y0057423D02*
X0049967Y0057423D01*
X0049322Y0056824D02*
X0054398Y0056824D01*
X0057925Y0056226D02*
X0060584Y0056226D01*
X0061183Y0056824D02*
X0059439Y0056824D01*
X0060203Y0057423D02*
X0061781Y0057423D01*
X0062380Y0058021D02*
X0060741Y0058021D01*
X0061130Y0058620D02*
X0062978Y0058620D01*
X0061410Y0059218D02*
X0093455Y0059218D01*
X0092857Y0058620D02*
X0066622Y0058620D01*
X0067220Y0058021D02*
X0092258Y0058021D01*
X0091660Y0057423D02*
X0067819Y0057423D01*
X0068417Y0056824D02*
X0091061Y0056824D01*
X0090463Y0056226D02*
X0068789Y0056226D01*
X0068789Y0055627D02*
X0089864Y0055627D01*
X0089266Y0055029D02*
X0068789Y0055029D01*
X0068789Y0054430D02*
X0088667Y0054430D01*
X0088069Y0053832D02*
X0068789Y0053832D01*
X0068789Y0053233D02*
X0087470Y0053233D01*
X0086872Y0052634D02*
X0068276Y0052634D01*
X0068035Y0052036D02*
X0086273Y0052036D01*
X0085675Y0051437D02*
X0068035Y0051437D01*
X0068035Y0050839D02*
X0085076Y0050839D01*
X0084478Y0050240D02*
X0068035Y0050240D01*
X0068035Y0049642D02*
X0083879Y0049642D01*
X0083281Y0049043D02*
X0068035Y0049043D01*
X0068035Y0048445D02*
X0082682Y0048445D01*
X0082084Y0047846D02*
X0068035Y0047846D01*
X0068035Y0047248D02*
X0081485Y0047248D01*
X0080887Y0046649D02*
X0068035Y0046649D01*
X0068035Y0046051D02*
X0080288Y0046051D01*
X0079690Y0045452D02*
X0068035Y0045452D01*
X0068035Y0044854D02*
X0079091Y0044854D01*
X0078493Y0044255D02*
X0068538Y0044255D01*
X0069096Y0043657D02*
X0077894Y0043657D01*
X0077296Y0043058D02*
X0069654Y0043058D01*
X0070212Y0042460D02*
X0076697Y0042460D01*
X0076099Y0041861D02*
X0070770Y0041861D01*
X0071327Y0041263D02*
X0075500Y0041263D01*
X0074902Y0040664D02*
X0071885Y0040664D01*
X0072443Y0040066D02*
X0074303Y0040066D01*
X0073705Y0039467D02*
X0073001Y0039467D01*
X0062235Y0049365D02*
X0056558Y0043689D01*
X0056058Y0033800D01*
X0047511Y0047248D02*
X0064835Y0047248D01*
X0064835Y0047846D02*
X0048109Y0047846D01*
X0048708Y0048445D02*
X0064835Y0048445D01*
X0064835Y0049043D02*
X0049306Y0049043D01*
X0049905Y0049642D02*
X0064835Y0049642D01*
X0064835Y0050240D02*
X0050503Y0050240D01*
X0051102Y0050839D02*
X0064835Y0050839D01*
X0064835Y0051437D02*
X0051700Y0051437D01*
X0052299Y0052036D02*
X0064835Y0052036D01*
X0064835Y0052634D02*
X0061519Y0052634D01*
X0062235Y0052235D02*
X0064800Y0054800D01*
X0065589Y0055029D02*
X0063913Y0055029D01*
X0063314Y0054430D02*
X0065546Y0054430D01*
X0064947Y0053832D02*
X0062716Y0053832D01*
X0062117Y0053233D02*
X0064835Y0053233D01*
X0062235Y0052235D02*
X0062235Y0049365D01*
X0050766Y0055029D02*
X0033400Y0055029D01*
X0033400Y0054430D02*
X0050167Y0054430D01*
X0049569Y0053832D02*
X0033400Y0053832D01*
X0033400Y0053233D02*
X0048970Y0053233D01*
X0048372Y0052634D02*
X0033400Y0052634D01*
X0033400Y0052036D02*
X0047773Y0052036D01*
X0047175Y0051437D02*
X0033400Y0051437D01*
X0033703Y0050839D02*
X0046576Y0050839D01*
X0045978Y0050240D02*
X0034304Y0050240D01*
X0033982Y0055627D02*
X0059986Y0055627D01*
X0061602Y0059817D02*
X0094054Y0059817D01*
X0094652Y0060415D02*
X0061697Y0060415D01*
X0061669Y0061612D02*
X0095849Y0061612D01*
X0095251Y0061014D02*
X0057209Y0061014D01*
X0061548Y0062211D02*
X0096448Y0062211D01*
X0097046Y0062809D02*
X0061346Y0062809D01*
X0061041Y0063408D02*
X0114511Y0063408D01*
X0114574Y0064006D02*
X0073056Y0064006D01*
X0073782Y0064605D02*
X0114822Y0064605D01*
X0115259Y0065203D02*
X0074160Y0065203D01*
X0074400Y0065802D02*
X0115115Y0065802D01*
X0114876Y0066400D02*
X0074400Y0066400D01*
X0074400Y0066999D02*
X0114876Y0066999D01*
X0114920Y0067597D02*
X0074400Y0067597D01*
X0074400Y0068196D02*
X0115168Y0068196D01*
X0115579Y0068794D02*
X0074400Y0068794D01*
X0074400Y0069393D02*
X0116309Y0069393D01*
X0118151Y0069991D02*
X0074400Y0069991D01*
X0074400Y0070590D02*
X0089542Y0070590D01*
X0088915Y0070850D02*
X0090220Y0070309D01*
X0091632Y0070309D01*
X0092937Y0070850D01*
X0093936Y0071848D01*
X0094476Y0073153D01*
X0094476Y0074565D01*
X0093936Y0075870D01*
X0092937Y0076869D01*
X0091632Y0077409D01*
X0090220Y0077409D01*
X0088915Y0076869D01*
X0087916Y0075870D01*
X0087376Y0074565D01*
X0087376Y0073153D01*
X0087916Y0071848D01*
X0088915Y0070850D01*
X0088576Y0071188D02*
X0074400Y0071188D01*
X0074400Y0071787D02*
X0087978Y0071787D01*
X0087694Y0072385D02*
X0074400Y0072385D01*
X0074400Y0072984D02*
X0087446Y0072984D01*
X0087376Y0073582D02*
X0074400Y0073582D01*
X0074400Y0074181D02*
X0087376Y0074181D01*
X0087465Y0074779D02*
X0074400Y0074779D01*
X0074400Y0075378D02*
X0087713Y0075378D01*
X0088023Y0075976D02*
X0074400Y0075976D01*
X0074400Y0076575D02*
X0088621Y0076575D01*
X0089651Y0077173D02*
X0074400Y0077173D01*
X0074400Y0077772D02*
X0119328Y0077772D01*
X0118850Y0077173D02*
X0107949Y0077173D01*
X0107380Y0077409D02*
X0105968Y0077409D01*
X0104663Y0076869D01*
X0103664Y0075870D01*
X0103124Y0074565D01*
X0103124Y0073153D01*
X0103664Y0071848D01*
X0104663Y0070850D01*
X0105968Y0070309D01*
X0107380Y0070309D01*
X0108685Y0070850D01*
X0109684Y0071848D01*
X0110224Y0073153D01*
X0110224Y0074565D01*
X0109684Y0075870D01*
X0108685Y0076869D01*
X0107380Y0077409D01*
X0108979Y0076575D02*
X0118602Y0076575D01*
X0118511Y0075976D02*
X0109577Y0075976D01*
X0109887Y0075378D02*
X0118511Y0075378D01*
X0118704Y0074779D02*
X0110135Y0074779D01*
X0110224Y0074181D02*
X0118975Y0074181D01*
X0119573Y0073582D02*
X0110224Y0073582D01*
X0110154Y0072984D02*
X0121143Y0072984D01*
X0120545Y0072385D02*
X0109906Y0072385D01*
X0109622Y0071787D02*
X0119946Y0071787D01*
X0119348Y0071188D02*
X0109024Y0071188D01*
X0108058Y0070590D02*
X0118749Y0070590D01*
X0117665Y0067243D02*
X0117665Y0066935D01*
X0117665Y0067243D02*
X0124744Y0074322D01*
X0160363Y0074322D01*
X0164841Y0078800D01*
X0166111Y0078800D01*
X0167469Y0082078D02*
X0169389Y0080158D01*
X0169389Y0077442D01*
X0165069Y0073122D01*
X0136622Y0073122D01*
X0126800Y0063300D01*
X0117300Y0063300D01*
X0105290Y0070590D02*
X0092310Y0070590D01*
X0093276Y0071188D02*
X0104324Y0071188D01*
X0103726Y0071787D02*
X0093874Y0071787D01*
X0094158Y0072385D02*
X0103442Y0072385D01*
X0103194Y0072984D02*
X0094406Y0072984D01*
X0094476Y0073582D02*
X0103124Y0073582D01*
X0103124Y0074181D02*
X0094476Y0074181D01*
X0094387Y0074779D02*
X0103213Y0074779D01*
X0103461Y0075378D02*
X0094139Y0075378D01*
X0093829Y0075976D02*
X0103771Y0075976D01*
X0104369Y0076575D02*
X0093231Y0076575D01*
X0092201Y0077173D02*
X0105399Y0077173D01*
X0108937Y0079696D02*
X0109396Y0079237D01*
X0109937Y0078876D01*
X0110537Y0078627D01*
X0111175Y0078500D01*
X0111300Y0078500D01*
X0111300Y0083600D01*
X0108200Y0083600D01*
X0108200Y0081475D01*
X0108327Y0080837D01*
X0108576Y0080237D01*
X0108937Y0079696D01*
X0109066Y0079568D02*
X0088534Y0079568D01*
X0088663Y0079696D02*
X0089024Y0080237D01*
X0089273Y0080837D01*
X0089400Y0081475D01*
X0089400Y0083600D01*
X0086300Y0083600D01*
X0086300Y0078500D01*
X0086425Y0078500D01*
X0087063Y0078627D01*
X0087663Y0078876D01*
X0088204Y0079237D01*
X0088663Y0079696D01*
X0088977Y0080166D02*
X0108623Y0080166D01*
X0108357Y0080765D02*
X0089243Y0080765D01*
X0089378Y0081363D02*
X0108222Y0081363D01*
X0108200Y0081962D02*
X0089400Y0081962D01*
X0089400Y0082560D02*
X0108200Y0082560D01*
X0108200Y0083159D02*
X0089400Y0083159D01*
X0089400Y0084356D02*
X0108200Y0084356D01*
X0108200Y0084954D02*
X0089400Y0084954D01*
X0089400Y0085553D02*
X0108200Y0085553D01*
X0108205Y0086151D02*
X0089395Y0086151D01*
X0089276Y0086750D02*
X0108324Y0086750D01*
X0108569Y0087348D02*
X0089031Y0087348D01*
X0088620Y0087947D02*
X0108980Y0087947D01*
X0109669Y0088545D02*
X0087931Y0088545D01*
X0084269Y0088545D02*
X0074400Y0088545D01*
X0074400Y0087947D02*
X0083580Y0087947D01*
X0083169Y0087348D02*
X0074400Y0087348D01*
X0074400Y0086750D02*
X0082924Y0086750D01*
X0082805Y0086151D02*
X0074400Y0086151D01*
X0074400Y0085553D02*
X0082800Y0085553D01*
X0082800Y0084954D02*
X0074400Y0084954D01*
X0074400Y0084356D02*
X0082800Y0084356D01*
X0082800Y0083600D02*
X0082800Y0081475D01*
X0082927Y0080837D01*
X0083176Y0080237D01*
X0083537Y0079696D01*
X0083996Y0079237D01*
X0084537Y0078876D01*
X0085137Y0078627D01*
X0085775Y0078500D01*
X0085900Y0078500D01*
X0085900Y0083600D01*
X0082800Y0083600D01*
X0082800Y0083159D02*
X0074400Y0083159D01*
X0074400Y0083757D02*
X0085900Y0083757D01*
X0086300Y0083757D02*
X0111300Y0083757D01*
X0111700Y0083757D02*
X0151080Y0083757D01*
X0151679Y0083159D02*
X0114800Y0083159D01*
X0114800Y0083600D02*
X0111700Y0083600D01*
X0111700Y0078500D01*
X0111825Y0078500D01*
X0112463Y0078627D01*
X0113063Y0078876D01*
X0113604Y0079237D01*
X0114063Y0079696D01*
X0114424Y0080237D01*
X0114673Y0080837D01*
X0114800Y0081475D01*
X0114800Y0083600D01*
X0114800Y0084356D02*
X0148913Y0084356D01*
X0148202Y0084954D02*
X0114800Y0084954D01*
X0114800Y0085553D02*
X0147798Y0085553D01*
X0147550Y0086151D02*
X0114795Y0086151D01*
X0114676Y0086750D02*
X0147511Y0086750D01*
X0147511Y0087348D02*
X0114431Y0087348D01*
X0114020Y0087947D02*
X0147756Y0087947D01*
X0148101Y0088545D02*
X0113331Y0088545D01*
X0111700Y0083159D02*
X0111300Y0083159D01*
X0111300Y0082560D02*
X0111700Y0082560D01*
X0111700Y0081962D02*
X0111300Y0081962D01*
X0111300Y0081363D02*
X0111700Y0081363D01*
X0111700Y0080765D02*
X0111300Y0080765D01*
X0111300Y0080166D02*
X0111700Y0080166D01*
X0111700Y0079568D02*
X0111300Y0079568D01*
X0111300Y0078969D02*
X0111700Y0078969D01*
X0113203Y0078969D02*
X0138811Y0078969D01*
X0138811Y0078370D02*
X0122382Y0078370D01*
X0123272Y0077772D02*
X0138934Y0077772D01*
X0140853Y0075800D02*
X0121300Y0075800D01*
X0120218Y0078370D02*
X0074400Y0078370D01*
X0074400Y0078969D02*
X0084397Y0078969D01*
X0083666Y0079568D02*
X0074400Y0079568D01*
X0074400Y0080166D02*
X0083223Y0080166D01*
X0082957Y0080765D02*
X0074400Y0080765D01*
X0074400Y0081363D02*
X0082822Y0081363D01*
X0082800Y0081962D02*
X0074400Y0081962D01*
X0074400Y0082560D02*
X0082800Y0082560D01*
X0085900Y0082560D02*
X0086300Y0082560D01*
X0086300Y0081962D02*
X0085900Y0081962D01*
X0085900Y0081363D02*
X0086300Y0081363D01*
X0086300Y0080765D02*
X0085900Y0080765D01*
X0085900Y0080166D02*
X0086300Y0080166D01*
X0086300Y0079568D02*
X0085900Y0079568D01*
X0085900Y0078969D02*
X0086300Y0078969D01*
X0087803Y0078969D02*
X0109797Y0078969D01*
X0113934Y0079568D02*
X0138826Y0079568D01*
X0139074Y0080166D02*
X0114377Y0080166D01*
X0114643Y0080765D02*
X0139322Y0080765D01*
X0139851Y0081363D02*
X0114778Y0081363D01*
X0114800Y0081962D02*
X0140511Y0081962D01*
X0144467Y0081962D02*
X0146416Y0081962D01*
X0145756Y0081363D02*
X0145127Y0081363D01*
X0150373Y0081962D02*
X0152411Y0081962D01*
X0152277Y0082560D02*
X0114800Y0082560D01*
X0140853Y0075800D02*
X0141131Y0075522D01*
X0156928Y0075522D01*
X0160206Y0078800D01*
X0155022Y0082078D02*
X0167469Y0082078D01*
X0155022Y0082078D02*
X0150300Y0086800D01*
X0151033Y0081363D02*
X0151662Y0081363D01*
X0186800Y0076300D02*
X0247800Y0076300D01*
X0253300Y0070800D01*
X0253300Y0065800D02*
X0245395Y0073705D01*
X0245395Y0073810D01*
X0244516Y0074689D01*
X0224537Y0074689D01*
X0221648Y0071800D01*
X0186300Y0071800D01*
X0171790Y0062189D02*
X0182290Y0051689D01*
X0209994Y0051689D01*
X0225034Y0036650D01*
X0244019Y0036650D01*
X0244194Y0036825D01*
X0244194Y0043194D01*
X0252800Y0051800D01*
X0255189Y0050810D02*
X0255189Y0054689D01*
X0256800Y0056300D01*
X0253300Y0060800D02*
X0244194Y0069906D01*
X0244194Y0073313D01*
X0244019Y0073489D01*
X0225034Y0073489D01*
X0209845Y0058300D01*
X0186800Y0058300D01*
X0171790Y0062189D02*
X0157134Y0062189D01*
X0170800Y0059800D02*
X0138330Y0059800D01*
X0123315Y0044785D01*
X0132300Y0042800D02*
X0132921Y0042800D01*
X0136310Y0039411D01*
X0140689Y0039411D01*
X0143300Y0036800D01*
X0181300Y0036800D01*
X0188300Y0043800D01*
X0214489Y0043800D01*
X0224040Y0034250D01*
X0226028Y0034250D01*
X0244019Y0034250D01*
X0244019Y0034250D01*
X0245013Y0034250D01*
X0246595Y0035831D01*
X0246595Y0038595D01*
X0253300Y0045300D01*
X0255189Y0050810D02*
X0245395Y0041016D01*
X0245395Y0036328D01*
X0244516Y0035450D01*
X0225531Y0035450D01*
X0224537Y0035450D01*
X0210686Y0049300D01*
X0170800Y0049300D01*
X0158300Y0055800D02*
X0154389Y0051889D01*
X0143813Y0051889D01*
X0138224Y0046300D01*
X0137300Y0046300D01*
X0137300Y0041800D02*
X0142911Y0047411D01*
X0142911Y0049290D01*
X0144310Y0050689D01*
X0146290Y0050689D01*
X0150679Y0046300D01*
X0201800Y0046300D01*
X0188300Y0038800D02*
X0217792Y0038800D01*
X0223543Y0033050D01*
X0226525Y0033050D01*
X0243522Y0033050D01*
X0245510Y0033050D01*
X0252260Y0039800D01*
X0253300Y0039800D01*
X0244194Y0036825D02*
X0244019Y0036650D01*
X0243522Y0033050D02*
X0243522Y0033050D01*
X0185511Y0043274D02*
X0180637Y0038400D01*
X0143963Y0038400D01*
X0142289Y0040074D01*
X0141352Y0041011D01*
X0139992Y0041011D01*
X0140089Y0041245D01*
X0140089Y0042326D01*
X0144511Y0046748D01*
X0144511Y0048627D01*
X0144973Y0049089D01*
X0145627Y0049089D01*
X0150016Y0044700D01*
X0151341Y0044700D01*
X0185654Y0044700D01*
X0185511Y0044355D01*
X0185511Y0043274D01*
X0185296Y0043058D02*
X0140821Y0043058D01*
X0140223Y0042460D02*
X0184697Y0042460D01*
X0184099Y0041861D02*
X0140089Y0041861D01*
X0140089Y0041263D02*
X0183500Y0041263D01*
X0182902Y0040664D02*
X0141698Y0040664D01*
X0142297Y0040066D02*
X0182303Y0040066D01*
X0181705Y0039467D02*
X0142895Y0039467D01*
X0143494Y0038869D02*
X0181106Y0038869D01*
X0185511Y0043657D02*
X0141420Y0043657D01*
X0142018Y0044255D02*
X0185511Y0044255D01*
X0158414Y0039189D02*
X0154411Y0039189D01*
X0145300Y0048300D01*
X0144511Y0048445D02*
X0146271Y0048445D01*
X0146869Y0047846D02*
X0144511Y0047846D01*
X0144511Y0047248D02*
X0147468Y0047248D01*
X0148066Y0046649D02*
X0144412Y0046649D01*
X0143814Y0046051D02*
X0148665Y0046051D01*
X0149263Y0045452D02*
X0143215Y0045452D01*
X0142617Y0044854D02*
X0149862Y0044854D01*
X0145672Y0049043D02*
X0144928Y0049043D01*
X0071800Y0066300D02*
X0071800Y0091300D01*
X0085900Y0083159D02*
X0086300Y0083159D01*
X0071800Y0066300D02*
X0031800Y0066300D01*
X0031800Y0091300D01*
X0027300Y0081300D02*
X0029200Y0079400D01*
X0029200Y0065223D01*
X0032410Y0063408D02*
X0042514Y0063408D01*
X0042266Y0062809D02*
X0032410Y0062809D01*
X0032410Y0062211D02*
X0042019Y0062211D01*
X0041882Y0061612D02*
X0032410Y0061612D01*
X0032410Y0061014D02*
X0041882Y0061014D01*
X0041882Y0060415D02*
X0032410Y0060415D01*
X0033227Y0059817D02*
X0041946Y0059817D01*
X0042194Y0059218D02*
X0033915Y0059218D01*
X0034309Y0058620D02*
X0042442Y0058620D01*
X0042799Y0058021D02*
X0034557Y0058021D01*
D12*
X0142489Y0078800D03*
X0148394Y0078800D03*
X0154300Y0078800D03*
X0160206Y0078800D03*
X0166111Y0078800D03*
D13*
X0111500Y0081800D02*
X0111500Y0085800D01*
X0086100Y0085800D02*
X0086100Y0081800D01*
D14*
X0056918Y0060926D03*
X0046682Y0060926D03*
D15*
X0031800Y0057389D03*
X0027300Y0063300D03*
X0032127Y0048473D03*
X0064800Y0054800D03*
X0104300Y0049300D03*
X0123315Y0044785D03*
X0132300Y0042800D03*
X0137300Y0041800D03*
X0137300Y0046300D03*
X0145300Y0048300D03*
X0158300Y0055800D03*
X0170800Y0059800D03*
X0160300Y0064800D03*
X0147097Y0066878D03*
X0146300Y0063300D03*
X0117665Y0066935D03*
X0117300Y0063300D03*
X0121300Y0075800D03*
X0150300Y0086800D03*
X0186800Y0076300D03*
X0186300Y0071800D03*
X0186800Y0058300D03*
X0170800Y0049300D03*
X0188300Y0043800D03*
X0188300Y0038800D03*
X0201800Y0046300D03*
X0158414Y0039189D03*
X0128300Y0030300D03*
X0074300Y0033800D03*
X0056058Y0033800D03*
X0039800Y0030800D03*
X0032300Y0034800D03*
X0027300Y0081300D03*
X0191300Y0085300D03*
X0253300Y0070800D03*
X0253300Y0065800D03*
X0253300Y0060800D03*
X0256800Y0056300D03*
X0252800Y0051800D03*
X0253300Y0045300D03*
X0253300Y0039800D03*
D16*
X0128300Y0030300D02*
X0109300Y0049300D01*
X0104300Y0049300D01*
M02*
