%
M48
M72
T01C0.01378
T02C0.02000
T03C0.02362
T04C0.02500
T05C0.02756
%
T01
X39800Y30800
X32300Y34800
X56058Y33800
X74300Y33800
X104300Y49300
X123315Y44785
X132300Y42800
X137300Y41800
X137300Y46300
X145300Y48300
X158300Y55800
X170800Y59800
X160300Y64800
X147097Y66878
X146300Y63300
X117665Y66935
X117300Y63300
X121300Y75800
X150300Y86800
X186800Y76300
X186300Y71800
X186800Y58300
X170800Y49300
X188300Y43800
X188300Y38800
X201800Y46300
X158414Y39189
X128300Y30300
X64800Y54800
X31800Y57389
X27300Y63300
X32127Y48473
X27300Y81300
X191300Y85300
X253300Y70800
X253300Y65800
X253300Y60800
X256800Y56300
X252800Y51800
X253300Y45300
X253300Y39800
T02
X111500Y83800
X86100Y83800
T03
X56918Y60926
X46682Y60926
T04
X90926Y73859
X106674Y73859
T05
X142489Y78800
X148394Y78800
X154300Y78800
X160206Y78800
X166111Y78800
X178800Y82757
X178800Y89843
M30
